<svg width="453" height="95" viewBox="0 0 453 95" fill="none" xmlns="http://www.w3.org/2000/svg">
<path d="M0.000118277 55.0601C0.210118 30.8001 15.3901 15.3101 36.2201 15.3101C44.0201 15.3101 48.8301 17.5501 52.6801 21.0801C54.0701 22.1501 54.7101 22.6801 55.8901 22.6801C57.9201 22.6801 56.0001 16.8001 60.9101 16.3801C66.0401 15.8501 66.2501 18.5201 69.7801 27.0701C74.7001 38.8201 73.0901 44.0601 67.2201 45.5601C59.4201 47.3801 56.9601 44.3801 51.6201 37.7601C46.3801 31.1301 40.2901 28.5701 32.4901 30.2801C22.3401 31.9901 16.4601 42.7801 19.4501 56.3501C22.1201 69.1701 30.6701 76.5501 43.1701 76.5501C52.8901 76.5501 58.5601 73.3401 63.6901 69.8201C67.6401 67.6801 70.9601 70.5701 68.9301 75.1601C64.5501 84.6701 56.7501 93.9701 37.6201 93.9701C14.7501 93.9601 -0.109882 78.6801 0.000118277 55.0601Z" fill="#fff"/>
<path d="M79.82 75.7599C79.82 72.9799 80.89 70.6299 84.2 69.0299C86.87 67.8499 87.73 66.7899 88.05 61.8699C88.37 57.6999 88.37 46.6999 88.37 42.6399C88.37 39.4299 87.09 38.8999 84.31 38.8999C80.68 38.8999 77.04 39.5399 77.04 35.6899C77.04 32.0599 79.61 28.8499 83.02 26.2899C86.12 24.0499 89.64 22.5499 92.96 22.5499C97.55 22.5499 100.23 24.8999 100.23 28.5299C100.23 31.4199 99.7 33.6599 101.3 33.6599C102.58 33.6599 103.01 31.9499 105.36 28.0999C107.6 24.3599 110.81 21.6899 116.69 21.6899C125.35 21.6899 129.41 27.5699 129.3 36.9699C129.3 43.8099 126.52 47.8699 120 47.8699C116.58 47.8699 115.08 46.6899 114.23 44.1299C113.37 41.2399 112.73 38.8899 109.64 38.8899C105.47 38.8899 104.08 43.4799 103.98 47.6499C103.87 52.3499 103.98 56.3099 104.3 61.0099C104.51 65.1799 104.73 66.3499 109.11 67.8499C113.92 69.6699 116.06 70.4099 116.06 75.1199C116.06 80.5699 112.96 81.7499 98.43 81.7499C83.88 81.8499 79.82 82.2799 79.82 75.7599Z" fill="#fff"/>
<path d="M132.82 64.57C132.82 47.9 142.76 32.51 162.21 32.51C178.24 32.51 188.39 42.45 188.39 58.69C188.39 65.96 186.79 67.13 178.24 67.13H151.74C150.24 67.13 149.39 67.56 149.5 69.16C149.71 74.93 156.87 79.1 166.38 79.1C173.65 79.1 177.28 77.39 180.06 75.68C181.66 74.72 182.62 73.97 183.8 73.97C186.15 73.97 186.36 76.86 185.72 79.85C183.48 88.51 174.39 94.06 162.1 94.06C144.57 94.07 132.82 81.67 132.82 64.57ZM171.18 54.85C171.18 49.61 167.12 44.38 160.71 44.38C153.76 44.38 149.17 49.72 149.49 56.46C149.6 58.17 150.24 58.28 155.79 58.28C169.79 58.27 171.18 57.73 171.18 54.85Z" fill="#fff"/>
<path d="M193.4 65.0801C193.4 55.3601 200.67 47.66 213.49 47.66C220.54 47.66 223.21 49.16 225.35 49.16C226.95 49.16 227.59 48.41 227.38 42.96C227.38 36.55 224.07 33.66 218.83 33.66C213.91 33.66 211.46 34.84 210.5 38.68C209.54 42.74 207.83 44.2401 203.98 44.2401C198.85 44.2401 194.9 42.2101 194.9 36.9701C194.9 32.7001 197.14 29.6 201.21 26.82C206.45 23.08 213.18 21.05 222.8 21.05C236.9 21.05 244.49 27.68 244.49 39.8601C244.38 48.09 243.21 59.84 243.21 62.94C243.21 65.72 244.49 66.7901 246.31 66.7901C248.23 66.9001 248.98 65.4001 250.37 65.4001C252.61 65.4001 253.25 66.9 253.25 69.78C253.25 74.7001 249.51 82.5 240.86 82.5C236.8 82.5 233.27 81.2201 230.92 78.0101C228.78 75.34 228.78 73.52 227.39 73.52C225.79 73.52 225.36 75.4401 223.44 77.6901C221.09 80.4701 218.42 82.71 210.51 82.71C198.32 82.71 193.4 75.3301 193.4 65.0801ZM227.49 59.2001C227.49 55.14 225.57 55.14 220.97 55.14C215.52 55.14 211.99 58.3501 211.99 63.1501C211.99 67.7401 214.23 69.67 218.51 69.67C223.97 69.67 227.49 65.2901 227.49 59.2001Z" fill="#fff"/>
<path d="M260.19 74.1901C260.19 68.7401 261.05 62.9701 261.05 56.0201C261.16 50.0401 260.94 50.5701 256.88 50.5701C252.29 50.5701 252.07 48.0101 252.07 43.9501C252.07 37.3201 255.17 38.7101 263.72 34.2301C269.49 31.2401 271.95 27.0701 276.12 27.0701C278.15 27.0701 279.43 28.1401 279.43 31.8801C279.43 36.1501 280.07 35.4101 286.7 35.4101C293.97 35.4101 296.42 35.3001 296.42 39.5801C296.42 41.8201 296.1 43.1101 295.99 46.2101C295.78 51.2301 292.57 50.9101 283.92 50.9101C276.76 50.9101 278.47 51.4401 278.15 60.3101C278.15 63.8401 278.04 67.3601 278.04 69.9301C278.04 74.6301 280.28 77.6201 285.09 77.6201C288.72 77.6201 292.04 76.0201 294.17 76.0201C295.67 76.0201 296.73 76.7701 296.63 80.0801C296.52 87.5601 290.11 93.6501 280.28 93.6501C267.99 93.6401 260.19 86.1601 260.19 74.1901Z" fill="#fff"/>
<path d="M300.79 75.23C300.79 72.56 302.07 70.63 305.06 68.92C307.52 67.53 308.59 66.36 309.01 59.73C309.12 56.84 309.22 48.51 309.22 41.99C309.22 39 308.58 38.36 306.44 38.36C303.13 38.36 300.56 38.57 300.56 35.26C300.56 32.27 302.91 29.17 306.22 26.71C309.64 24.25 312.95 22.86 317.44 22.86C324.92 22.86 327.59 25.85 327.59 31.19C327.59 36.75 325.24 41.02 325.24 47.86C325.13 52.13 325.24 56.3 325.45 61.43C325.56 66.13 325.98 67.2 328.34 68.59C330.37 70.09 331.97 71.48 331.97 75C331.97 80.34 329.09 81.73 317.12 81.73C304.96 81.85 300.79 82.28 300.79 75.23ZM305.28 9.19C305.17 3.95 309.23 0 317.14 0C325.26 0 329 3.85 329 9.08C329 14.42 325.37 17.63 317.57 17.63C309.87 17.63 305.28 14.43 305.28 9.19Z" fill="#fff"/>
<path d="M350.26 84.66C348.02 78.25 342.57 63.72 339.47 53.99C338.08 49.5 337.23 48.54 335.2 47.37C333.7 46.73 332.64 45.77 332.64 42.13C332.64 35.18 336.17 34.12 348.35 34.12C359.89 34.12 362.99 35.83 362.99 41.17C362.99 43.95 362.46 45.02 359.36 46.3C357.86 47.37 357.22 48.33 357.86 50.79C359.68 57.31 363.1 67.25 364.7 72.91C365.56 76.12 365.56 77.08 366.62 77.08C368.01 77.08 368.22 75.37 369.18 72.38C372.17 64.15 373.56 60.95 376.02 53.15C377.2 49.2 376.34 47.59 373.99 46.1C372.28 45.46 370.25 44.5 370.25 41.4C370.25 36.16 372.28 34.24 385.53 34.24C394.4 34.24 395.9 36.16 395.9 40.86C395.9 44.49 394.08 45.67 392.7 46.74C390.56 48.34 389.92 49.2 388.53 53.05C383.72 65.55 380.84 73.35 376.45 85.21C374.21 91.3 373.46 92.9 367.9 92.9H361.17C354.75 92.89 352.94 92.25 350.26 84.66Z" fill="#fff"/>
<path d="M396.85 53.7499C396.85 37.0799 406.79 21.6899 426.24 21.6899C442.27 21.6899 452.42 31.6299 452.42 47.8699C452.42 55.1399 450.82 56.3099 442.27 56.3099H415.77C414.27 56.3099 413.42 56.7399 413.53 58.3399C413.74 64.1099 420.9 68.2799 430.41 68.2799C437.68 68.2799 441.31 66.5699 444.09 64.8599C445.69 63.8999 446.65 63.1499 447.83 63.1499C450.18 63.1499 450.39 66.0399 449.75 69.0299C447.51 77.6899 438.42 83.2399 426.13 83.2399C408.61 83.2399 396.85 70.8499 396.85 53.7499ZM435.21 44.0199C435.21 38.7799 431.15 33.5499 424.74 33.5499C417.79 33.5499 413.2 38.8899 413.52 45.6299C413.63 47.3399 414.27 47.4499 419.82 47.4499C433.83 47.4399 435.21 46.9099 435.21 44.0199Z" fill="#fff"/>
</svg>
