<svg width="339" height="150" viewBox="0 0 339 150" fill="none" xmlns="http://www.w3.org/2000/svg">
<path d="M114.455 99.8291C109.678 99.8291 107.33 102.401 107.33 105.959C107.33 110.047 109.986 112.162 116.431 114.511C127.423 118.52 133.645 123.138 133.645 132.974C133.645 142.28 127.577 150 113.323 150C101.57 150 94.2915 143.945 94.2915 135.016C94.2915 131.76 95.1256 129.565 96.4166 127.979C96.6449 127.603 96.9478 127.449 97.3252 127.449C97.8564 127.449 98.1593 127.677 98.3877 128.207C101.347 134.941 107.106 139.257 113.477 139.257C118.407 139.257 121.818 137.439 121.818 133.356C121.818 129.575 118.859 127.38 112.568 125.259C102.861 121.855 95.6619 117.39 95.6619 107.024C95.6619 97.7926 102.032 90.1517 114.539 90.1517C121.212 90.1517 127.051 92.1189 130.839 94.9929C131.52 95.5231 131.902 96.1276 131.902 96.8115C131.902 98.7043 129.702 102.941 127.806 105.285C127.503 105.661 127.125 105.889 126.669 105.889C126.291 105.889 125.909 105.736 125.606 105.433C122.414 101.876 118.094 99.8291 114.455 99.8291Z" fill="#FBAA19"/>
<path d="M147.815 149.242C145.993 149.242 144.101 149.168 142.507 149.014C141.519 148.86 141.067 148.484 140.839 147.349C140.005 144.396 139.325 134.258 139.325 124.347C139.325 107.168 141.067 96.4993 141.827 93.2487C142.13 91.8861 142.81 91.4302 143.798 91.2815C145.238 91.2072 146.906 91.1279 148.575 91.1279C150.397 91.1279 152.14 91.2023 153.808 91.2815C154.567 91.4351 154.87 91.7374 154.87 92.5699C154.87 94.6114 151.762 104.373 151.762 120.566C151.762 135.472 154.339 146.145 154.339 147.656C154.339 148.563 153.962 148.865 153.048 149.019C151.38 149.168 149.632 149.242 147.815 149.242Z" fill="#FBAA19"/>
<path d="M165.48 149.093C164.343 149.019 163.658 148.563 163.509 147.503C162.372 139.783 161.916 130.551 161.916 121.924C161.916 108.758 162.978 96.8759 164.264 93.0951C164.641 92.109 165.327 91.3559 166.389 91.2766C167.601 91.123 168.966 91.123 170.182 91.123C171.548 91.123 172.913 91.1973 173.822 91.2766C174.581 91.2766 175.187 91.7324 175.793 92.5649C179.81 98.0156 187.471 111.409 194.67 129.416C194.824 129.872 195.127 130.021 195.43 130.021C195.887 130.021 196.264 129.565 196.264 128.886C196.264 109.135 192.55 95.3646 192.55 92.6392C192.55 91.8068 193.007 91.2766 193.841 91.2022C195.052 91.1279 196.721 91.0536 198.468 91.0536C199.983 91.0536 201.502 91.1279 202.639 91.2022C203.702 91.2766 204.382 91.7324 204.61 92.9415C205.822 100.206 206.507 111.86 206.507 123.133C206.507 132.062 206.05 140.838 205.295 146.893C205.067 148.404 204.461 148.935 202.867 149.088C201.73 149.163 199.834 149.242 198.091 149.242C196.8 149.242 195.589 149.168 194.754 149.088C193.24 148.86 192.783 148.558 192.327 147.047C187.019 133.123 181.106 120.636 175.723 111.404C175.346 110.721 174.964 110.418 174.586 110.418C173.981 110.418 173.598 111.097 173.598 112.009C172.993 129.639 176.101 146.363 176.101 147.651C176.101 148.637 175.495 149.014 174.507 149.088C173.444 149.163 171.702 149.242 169.959 149.242C168.286 149.242 166.692 149.168 165.48 149.093Z" fill="#FBAA19"/>
<path d="M217.723 149.093C216.209 149.019 215.375 148.335 215.146 146.14C214.615 140.843 214.387 134.788 214.387 128.737C214.387 115.497 215.449 101.876 216.512 94.2298C216.815 91.886 217.42 91.4301 219.014 91.2765C220.002 91.2022 221.591 91.1229 223.11 91.1229C224.55 91.1229 226.07 91.1972 227.509 91.2765C228.875 91.4301 229.481 91.8067 229.406 93.318C229.252 96.5735 226.447 107.921 226.447 116.018C226.447 116.701 226.675 117.078 227.127 117.078C227.584 117.078 228.036 116.776 228.87 115.869C235.92 111.404 240.925 102.173 242.896 93.0901C243.199 91.8017 243.656 91.4251 244.639 91.2715C246.004 91.1179 247.747 91.1179 249.341 91.1179C250.935 91.1179 252.523 91.1922 253.586 91.2715C254.648 91.4251 255.18 91.8761 255.18 92.7828C255.18 98.6844 250.478 109.883 243.353 116.771C242.896 117.301 242.673 117.678 242.673 118.133C242.673 118.589 242.901 119.04 243.353 119.422C250.1 124.417 255.711 136.22 255.711 146.665C255.711 148.176 255.105 148.935 253.889 149.009C252.677 149.163 251.237 149.163 249.569 149.163C248.129 149.163 246.61 149.088 245.096 149.009C243.502 148.781 243.125 148.102 242.896 146.437C240.999 131.378 236.605 125.1 231.521 125.1C229.322 125.1 226.745 127.295 226.745 131.76C226.745 137.131 228.413 144.321 228.413 146.972C228.413 148.335 227.733 149.014 226.591 149.093C225.379 149.167 223.86 149.247 222.271 149.247C220.603 149.242 218.86 149.167 217.723 149.093Z" fill="#FBAA19"/>
<path d="M26.0862 92.8325C24.6215 93.4618 23.5143 93.2686 22.3078 91.4203C19.1202 86.5494 16.2753 81.3861 13.6686 76.2823C8.49003 66.154 3.73846 55.3964 0.317528 44.3513C-0.397442 42.0868 0.0841693 41.3188 1.79712 40.3278C2.85468 39.7133 4.62721 38.7818 6.34016 37.9741C7.96373 37.206 9.73626 36.4231 11.3747 35.8037C12.9338 35.2141 13.8871 35.3032 14.3637 36.6956C16.7718 43.7369 17.313 51.7841 20.5452 58.8303C20.8282 59.4497 21.2304 59.6826 21.712 59.4645C22.1936 59.2465 22.5461 58.751 23.0575 57.5271C28.9064 50.0547 30.6839 39.2079 29.6412 30.0112C29.5121 28.6782 29.9093 28.0886 30.9818 27.5336C32.4614 26.7655 34.5169 26.0074 36.3639 25.3236C38.2109 24.6348 40.1126 23.9906 41.3489 23.6686C42.5901 23.3415 43.4342 23.5992 43.7073 24.4416C46.3636 32.7266 43.1264 44.2374 38.8911 51.8336C38.5982 52.5174 38.4939 52.9683 38.6628 53.3895C38.8316 53.8107 39.2437 54.1378 39.8693 54.2963C50.0526 56.5113 58.7465 65.5346 62.1326 75.0881C62.6341 76.5102 62.2319 77.422 61.1098 77.9373C59.9828 78.4576 58.5479 79.0176 56.9044 79.627C55.4894 80.1523 53.9303 80.732 52.4656 81.1483C50.9165 81.5942 50.2065 81.0591 49.3674 79.5973C46.0011 73.448 38.2755 61.0898 29.6164 64.722C27.3573 65.6684 25.5599 69.023 27.4616 72.9921C29.6512 77.5607 33.231 81.6735 35.4355 86.0786C36.0213 87.248 35.6241 88.2391 34.5616 88.804C33.4345 89.4085 32.0096 90.1518 30.4902 90.8752C28.8915 91.6235 27.1835 92.3618 26.0862 92.8325Z" fill="#FBAA19"/>
<path d="M79.1034 72.3528C77.2813 72.883 75.335 73.4331 73.7362 73.7254C72.7432 73.9088 72.1424 73.6659 71.5714 72.6551C67.7732 65.9855 65.3055 58.3991 63.0017 51.2389C59.8737 41.5318 56.8699 31.121 56.3883 20.7053C56.3336 19.2931 57.0288 18.5449 58.1161 18.1138C59.7 17.4845 61.7356 16.8651 63.7068 16.3002C65.8566 15.6808 68.0413 15.0317 69.9379 14.7195C70.8118 14.5758 71.3927 14.8731 71.5317 15.6263C73.1106 24.3028 72.8326 34.4955 75.3647 43.6031C77.7629 52.2448 82.44 60.951 85.2254 68.9982C85.5034 69.796 85.141 70.3113 84.282 70.6631C82.7279 71.2924 80.9207 71.8226 79.1034 72.3528Z" fill="#FBAA19"/>
<path d="M103.904 65.9608C102.881 66.0252 101.918 65.6734 101.426 64.1621C100.279 60.629 99.0231 56.2041 98.0897 51.7197C96.0242 41.8193 95.6668 31.4333 93.9091 21.741C93.7254 20.7252 93.2289 20.2545 91.8188 20.5568C85.6472 21.8748 81.7 25.5119 79.8729 25.9727C79.1778 26.1462 78.5621 25.9133 78.3188 24.9619C77.8868 23.2771 77.3953 18.0148 77.5244 15.8741C77.6436 14.8286 78.1252 14.0853 79.3863 13.3867C85.404 10.2154 92.3203 8.49593 98.765 7.27697C105.428 6.01836 112.816 4.94805 119.723 6.53865C121.555 7.05894 121.877 7.96573 122.021 9.29371C122.284 11.7316 122.126 15.1557 121.694 17.3458C121.435 18.1436 121.133 18.5648 120.428 18.6589C118.481 18.9216 114.608 16.5381 109.197 17.4251C107.687 17.6729 107.151 18.2378 107.146 19.8383C107.141 24.6596 107.613 29.7932 108.531 34.4956C110.348 43.7964 114.072 53.0972 116.048 61.848C116.252 62.7548 115.904 63.4138 114.941 63.8003C113.908 64.2116 111.912 64.7071 109.594 65.1432C107.737 65.4999 105.632 65.8518 103.904 65.9608Z" fill="#FBAA19"/>
<path d="M126.693 37.3844C124.539 21.5329 130.8 1.91049 149.433 0.855041C160.863 0.205917 169.815 8.20848 169.78 19.7143C169.775 21.6022 168.812 23.0194 167.342 24.3325C165.714 25.7943 160.764 28.7377 158.703 28.7971C157.844 28.8219 157.397 28.3066 157.368 27.3254C157.333 26.3443 157.447 24.9618 157.427 23.9163C157.333 18.867 155.406 11.3847 149.091 11.6325C139.707 11.9992 139.652 26.8844 140.049 33.1874C140.496 40.2187 143.734 49.133 152.393 48.4393C158.798 47.924 163.966 43.4099 166.151 37.4339C166.479 36.9037 166.896 36.5965 167.402 36.5916C169.16 36.5817 170.57 39.3962 170.56 43.7765C170.53 54.4648 161.002 60.3862 151.31 60.9957C136.887 61.9025 128.491 50.6196 126.693 37.3844Z" fill="#FBAA19"/>
<path d="M179.745 59.3159C178.757 59.1623 178.196 58.7411 177.923 57.2199C176.702 49.807 176.687 42.0819 176.841 34.7136C177.054 24.6249 177.486 13.5997 180.832 3.78358C181.334 2.43578 182.118 1.96999 183.106 1.89071C184.809 1.75197 186.9 1.81638 188.747 1.91053C190.778 2.01459 192.863 2.17315 194.362 2.46551C195.251 2.63894 195.683 3.16914 195.554 3.98674C194.541 10.4383 192.004 17.8215 191.398 24.7934C191.279 26.1908 191.845 27.0579 192.625 27.3007C194.189 27.7764 197.326 26.9984 202.232 27.4543C207.401 27.935 210.072 29.2481 211.283 29.0201C212.217 28.8467 212.748 28.0192 212.887 26.6219C213.582 19.6252 212.435 12.1132 212.708 5.4931C212.738 4.72506 213.244 4.30387 214.242 4.30387C215.866 4.30387 217.763 4.50703 219.505 4.73992C221.342 4.98272 223.324 5.22057 225.166 5.69131C226.313 5.98366 227.087 6.59315 227.246 7.99545C228.651 18.2526 226.869 29.2233 225.22 39.1683C224.019 46.4127 222.723 54.2964 220.027 61.0948C219.436 62.5814 218.825 63.0273 217.589 62.9381C215.965 62.8192 214.297 62.6805 212.664 62.4624C211.109 62.2494 209.441 61.9768 207.872 61.6201C206.909 61.3971 206.398 61.0155 206.552 60.0939C207.44 54.7324 209.828 49.0439 210.578 43.4248C211.1 39.4904 208.13 37.216 202.341 36.438C197.753 35.8236 190.48 36.6412 190.296 42.6964C190.132 48.0628 191.398 53.6373 191.349 58.6916C191.339 59.5439 190.926 59.9056 189.928 59.9601C188.325 60.0493 186.637 59.9105 184.914 59.8313C183.176 59.7421 181.329 59.5587 179.745 59.3159Z" fill="#FBAA19"/>
<path d="M232.186 65.5693C230.513 65.1679 229.634 64.6873 229.897 62.8886C230.399 59.4447 231.014 55.6045 231.784 51.6949C234.525 37.7065 238.273 24.1889 244.196 11.0974C244.797 9.98245 245.77 9.40765 247.056 9.6009C252.478 10.3987 257.9 11.687 263.153 13.015C269.618 14.6502 276.191 16.5084 282.512 18.8819C283.738 19.3427 284.046 19.9175 283.862 20.4973C283.565 21.4338 280.312 25.8835 278.336 27.9696C277.835 28.371 277.309 28.5246 276.618 28.3165C276.097 28.1579 275.471 27.7318 274.513 27.1322C270.422 24.615 265.849 23.1185 261.371 21.855C258.128 20.9432 256.411 21.0869 255.04 21.7757C253.069 23.0194 251.038 27.8309 250.1 31.8892C249.708 33.5838 250.234 34.4014 251.927 34.8028C254.896 35.5114 259.285 35.2587 264.866 36.8047C268.501 37.8106 271.187 39.2476 270.755 40.6994C270.387 41.9332 267.974 45.7983 266.559 47.592C265.978 48.37 265.526 48.3948 264.871 48.2065C263.729 47.8794 260.075 45.6942 256.093 44.4901C251.624 43.1373 246.222 44.2076 245.249 49.4898C243.953 56.5361 244.534 58.0622 249.023 59.1772C254.648 60.5695 260.537 61.3178 266.336 60.9461C267.21 60.8966 267.592 60.7727 268.064 60.9214C268.535 61.0651 268.863 61.407 268.893 62.1304C269.091 64.2512 268.113 70.5344 267.448 72.6254C267.105 73.7056 266.132 74.1219 264.757 73.7651C259.563 72.4223 254.29 71.015 249.082 69.7316C243.477 68.3293 237.792 66.9072 232.186 65.5693Z" fill="#FBAA19"/>
<path d="M275.795 77.4666C274.697 77.0057 274.171 76.3417 274.365 75.2863C275.854 66.8774 278.217 58.5032 280.978 50.5155C283.997 41.7746 287.06 31.567 292.949 24.1293C293.713 23.3514 294.776 22.9451 296.017 23.277C297.442 23.6586 299.066 24.2037 300.476 24.724C302.06 25.3037 303.634 26.0222 304.642 26.4434C305.476 26.7952 306.057 27.4691 306.454 28.5196C311.394 42.0719 312.372 56.8085 312.491 71.0992C312.457 71.5848 312.7 71.8623 313.008 72.006C313.469 72.219 314.055 71.9862 314.338 71.3717C319.457 60.1186 321.498 47.4185 325.54 36.6163C325.813 35.8879 326.637 35.6005 327.595 35.9721C328.99 36.5073 330.922 37.3398 332.888 38.2763C334.596 39.0889 336.274 39.9858 337.51 40.6845C338.667 41.3336 339.228 42.1264 338.935 43.3355C336.329 53.0724 331.825 62.4822 327.307 71.3023C323.732 78.2891 319.8 85.2907 315.341 91.886C314.443 93.1298 313.599 93.323 312.049 92.6987C310.942 92.2527 309.1 91.4252 307.432 90.6324C306.201 90.0477 305.039 89.4481 304.304 89.0021C302.958 88.1845 302.631 87.6543 302.819 86.0786C303.132 72.6204 302.571 59.2266 299.533 46.0608C299.364 45.263 299.056 44.822 298.644 44.6635C297.978 44.4058 297.318 44.8864 296.995 45.7338C292.572 56.9473 290.149 69.2856 286.757 79.9937C286.479 80.8707 285.665 81.0343 284.677 80.732C283.615 80.4099 281.872 79.8302 280.159 79.2009C278.51 78.5914 276.961 77.9621 275.795 77.4666Z" fill="#FBAA19"/>
</svg>
