<svg width="530" height="83" viewBox="0 0 530 83" fill="none" xmlns="http://www.w3.org/2000/svg">
<path d="M75.98 71.24V82.25H14.38C5.55 82.25 0 77.25 0 67.42V14.83C0 5 5.55 0 14.38 0H19.11V11.01H18.84C14.84 11.01 12.65 12.38 12.65 16.65V65.6C12.65 69.88 14.83 71.24 18.84 71.24H75.98ZM41.31 62.51V11.01H23.84V0H72.97V11.01H55.87V62.51H41.31Z" fill="#E73127"/>
<path d="M59.8701 0H109.73V11.01H59.8701V0ZM59.8701 71.24H109.73V82.25H59.8701V71.24ZM100.36 25.29C104.18 29.02 106.09 33.84 106.09 39.94C106.09 42.21 105.91 44.13 105.54 45.67H77.7101C78.1701 49.58 81.9901 52.13 87.1701 52.13C91.5401 52.13 96.1801 50.13 98.3601 47.31L105.73 55.68C101.73 60.68 94.5401 63.69 86.1701 63.69C79.3501 63.69 73.8901 61.69 69.7001 57.59C65.6101 53.5 63.5101 48.22 63.5101 41.58C63.5101 34.94 65.5101 29.66 69.5201 25.66C73.5201 21.66 78.8001 19.65 85.3501 19.65C91.6301 19.65 96.6301 21.56 100.36 25.29ZM91.8101 36.4C91.5401 33.4 88.8101 31.3 84.8001 31.3C80.8001 31.3 78.0701 33.39 77.7901 36.4H91.8101Z" fill="#E73127"/>
<path d="M107.92 0H158.33V11.01H107.92V0ZM107.92 71.24H158.33V82.25H107.92V71.24ZM147.68 23.84C151.5 26.48 153.87 29.85 154.69 34.12L141.22 37.85C140.49 34.67 137.67 32.57 133.94 32.57C129.3 32.57 126.21 36.3 126.21 41.85C126.21 47.31 129.3 51.13 133.94 51.13C137.67 51.13 140.49 49.04 141.22 45.76L154.69 49.58C152.87 58.22 144.77 63.68 134.13 63.68C127.31 63.68 121.85 61.68 117.75 57.68C113.66 53.68 111.56 48.4 111.56 41.85C111.56 35.3 113.65 30.02 117.75 26.02C121.94 21.93 127.39 19.92 134.13 19.92C139.4 19.93 143.95 21.2 147.68 23.84Z" fill="#E73127"/>
<path d="M156.51 82.25V71.24H209.1V82.25H156.51ZM209.1 0V11.01H176.16V23.29C179.16 20.83 182.89 19.65 187.26 19.65C197.18 19.65 204.18 26.29 204.18 37.67V62.51H189.9V39.85C189.9 35.03 187.63 32.66 183.08 32.66C179.9 32.66 177.53 33.93 176.16 36.39V62.5H161.87V0H209.1Z" fill="#E73127"/>
<path d="M207.37 0H259.96V11.01H207.37V0ZM207.37 82.25V71.24H259.96V82.25H207.37ZM212.74 21.11H227.03V23.29C230.03 20.83 233.76 19.65 238.13 19.65C248.05 19.65 255.05 26.29 255.05 37.67V62.51H240.76V39.85C240.76 35.03 238.49 32.66 233.94 32.66C230.76 32.66 228.39 33.93 227.02 36.39V62.5H212.73V21.11H212.74Z" fill="#E73127"/>
<path d="M258.23 0H311.73V11.01H258.23V0ZM258.23 71.24H311.73V82.25H258.23V71.24ZM268.24 25.75C272.52 21.66 278.07 19.65 284.98 19.65C291.99 19.65 297.54 21.65 301.81 25.75C306.08 29.85 308.18 35.12 308.18 41.76C308.18 48.31 306 53.59 301.72 57.68C297.44 61.68 291.89 63.68 284.98 63.68C278.07 63.68 272.51 61.68 268.24 57.58C263.97 53.48 261.87 48.21 261.87 41.75C261.87 35.12 263.97 29.84 268.24 25.75ZM276.52 41.67C276.52 47.13 279.89 51.04 284.98 51.04C290.07 51.04 293.53 47.13 293.53 41.67C293.53 36.21 290.16 32.48 284.98 32.48C279.89 32.48 276.52 36.21 276.52 41.67Z" fill="#E73127"/>
<path d="M310.01 71.24H335.03V82.25H310.01V71.24ZM315.38 62.51V0H329.67V62.51H315.38Z" fill="#E73127"/>
<path d="M333.21 0H386.71V11.01H333.21V0ZM333.21 71.24H386.71V82.25H333.21V71.24ZM343.22 25.75C347.5 21.66 353.05 19.65 359.96 19.65C366.97 19.65 372.52 21.65 376.79 25.75C381.06 29.85 383.16 35.12 383.16 41.76C383.16 48.31 380.98 53.59 376.7 57.68C372.42 61.68 366.87 63.68 359.96 63.68C353.05 63.68 347.49 61.68 343.22 57.58C338.95 53.48 336.85 48.21 336.85 41.75C336.85 35.12 338.94 29.84 343.22 25.75ZM351.5 41.67C351.5 47.13 354.87 51.04 359.96 51.04C365.05 51.04 368.51 47.13 368.51 41.67C368.51 36.21 365.14 32.48 359.96 32.48C354.87 32.48 351.5 36.21 351.5 41.67Z" fill="#E73127"/>
<path d="M384.53 0H438.49V11.01H384.53V0ZM419.29 21.11H433.58V62.69C433.58 75.7 425.3 82.25 411.74 82.25H384.53V71.24H410.28C416.19 71.15 419.29 68.15 419.29 63.32V57.95C416.56 60.22 412.83 61.41 408.19 61.41C402.19 61.41 397.36 59.5 393.63 55.77C389.99 51.95 388.17 46.94 388.17 40.76C388.17 34.48 389.99 29.39 393.63 25.56C397.36 21.65 402.18 19.74 408.28 19.74C413.1 19.74 416.74 20.83 419.29 23.11V21.11ZM419.29 45.13V36.12C417.74 33.39 415.1 32.03 411.46 32.03C406.09 32.03 402.73 35.49 402.73 40.67C402.73 45.77 406.28 49.22 411.46 49.22C415.19 49.22 417.83 47.86 419.29 45.13Z" fill="#E73127"/>
<path d="M501.27 0L459.32 82.25H444.4L456.14 59.87L437.58 21.11H452.68L463.51 45.13L480.62 11.01H436.22V0H501.27ZM515.01 0C524.02 0 529.48 5 529.48 14.83V67.42C529.48 77.25 524.02 82.25 515.01 82.25H468.51V71.24H510.64C514.55 71.24 516.74 69.87 516.74 65.6V16.65C516.74 12.37 514.56 11.01 510.64 11.01H504.82V0H515.01Z" fill="#E73127"/>
</svg>
