<svg width="1000" height="174" viewBox="0 0 1000 174" fill="none" xmlns="http://www.w3.org/2000/svg">
<path d="M3.25683 137.88L0.136827 171H52.9368C107.897 171 124.697 147.72 124.697 118.68C124.697 92.52 105.017 81.48 96.6168 78.12C108.617 71.64 115.337 60.36 115.337 43.8C115.337 21.24 95.4168 2.99999 70.4568 2.99999H0.136827C6.61683 47.64 7.57683 93 3.25683 137.88ZM41.6568 68.52C41.6568 64.68 41.6568 60.84 41.8968 57.48C42.3768 47.16 43.0968 37.08 44.5368 26.76C58.4568 25.32 72.3768 30.6 72.3768 48.36C72.3768 76.2 41.6568 68.52 41.6568 68.52ZM57.7368 129.96C51.9768 129.96 47.8968 129.48 45.0168 129C43.5768 117.96 42.6168 106.68 41.8968 95.64C45.9768 94.92 51.2568 94.44 57.4968 94.44C72.3768 94.44 81.7368 101.4 81.7368 111.72C81.7368 125.16 71.8968 129.96 57.7368 129.96ZM143.436 141.96L131.916 171H182.556L184.236 143.64C189.276 142.68 194.316 142.44 199.356 142.44C204.396 142.44 209.436 142.68 214.476 143.64L216.156 171H266.796L255.276 141.96C237.516 97.8 228.396 50.52 228.396 2.99999H170.316C170.316 50.52 161.196 97.8 143.436 141.96ZM199.356 117.96C195.276 117.96 190.956 117.72 186.876 117.24C189.996 96.84 194.556 76.44 199.356 56.52C204.156 76.44 208.716 96.84 211.836 117.24C207.756 117.72 203.436 117.96 199.356 117.96ZM286.845 137.88L283.725 171H336.525L333.405 156.36C329.085 135.96 326.445 115.08 325.485 94.44C333.885 94.2 355.485 95.88 355.725 122.76C355.725 139.08 354.045 155.16 350.925 171H403.725C400.365 154.92 398.925 138.84 398.925 122.52V120.84C398.925 97.8 386.205 89.4 371.085 86.52C388.605 77.88 398.925 60.12 398.925 43.8C398.925 21.24 378.765 2.99999 354.045 2.99999H283.725C289.965 47.64 291.165 93 286.845 137.88ZM325.245 69.96C325.245 64.2 325.245 58.92 325.485 54.12C325.965 45 326.685 35.88 327.885 26.76C341.805 25.32 355.965 30.6 355.965 48.36C355.965 76.2 325.245 69.96 325.245 69.96ZM490.087 173.4C522.487 173.4 547.447 149.16 556.327 117.48L514.567 102.6C511.207 118.44 502.807 130.2 490.087 130.2C472.807 130.2 463.687 108.36 463.687 84.36C463.687 55.8 472.087 31.08 489.127 29.4H491.047C501.367 30.6 508.327 39.72 512.407 53.16L550.327 42.36C537.607 14.04 513.847 0.599991 490.087 0.599991C455.287 0.599991 420.487 29.4 420.487 91.8C420.487 135 444.487 173.4 490.087 173.4ZM572.811 141.96L561.291 171H611.931L613.611 143.64C618.651 142.68 623.691 142.44 628.731 142.44C633.771 142.44 638.811 142.68 643.851 143.64L645.531 171H696.171L684.651 141.96C666.891 97.8 657.771 50.52 657.771 2.99999H599.691C599.691 50.52 590.571 97.8 572.811 141.96ZM628.731 117.96C624.651 117.96 620.331 117.72 616.251 117.24C619.371 96.84 623.931 76.44 628.731 56.52C633.531 76.44 638.091 96.84 641.211 117.24C637.131 117.72 632.811 117.96 628.731 117.96ZM714.814 137.88L711.694 171H764.494L761.374 156.36C755.854 129.72 752.974 102.84 752.974 75.96L783.694 132.6L814.414 75.96C814.414 102.84 811.534 129.72 806.014 156.36L802.894 171H855.694L852.574 137.88C850.894 119.88 849.934 101.64 849.934 83.64C849.934 56.76 851.854 29.64 855.694 2.99999H807.694C807.694 28.2 801.934 53.16 790.414 75.72L783.694 89.4L776.974 75.72C765.454 53.16 759.694 28.2 759.694 2.99999H711.694C715.534 29.64 717.454 56.76 717.454 83.64C717.454 101.64 716.494 119.88 714.814 137.88ZM887.548 137.88L884.428 171H937.228L934.108 156.36C929.548 135.24 926.908 113.88 925.948 92.52C930.508 93.48 938.428 94.68 948.508 94.68C979.948 94.68 999.628 71.88 999.628 43.8C999.628 21.24 979.468 2.99999 954.748 2.99999H884.428C890.668 47.64 891.868 93 887.548 137.88ZM925.948 69.96C925.948 64.2 925.948 58.92 926.188 54.12C926.668 45 927.628 35.88 928.588 26.76C942.748 25.32 956.668 30.6 956.668 48.36C956.668 76.2 925.948 69.96 925.948 69.96Z" fill="#EFDFCE"/>
</svg>
