<svg width="333" height="104" viewBox="0 0 333 104" fill="none" xmlns="http://www.w3.org/2000/svg">
<path d="M128.78 5.16878C127.677 5.49255 126.539 5.83367 125.373 6.19213C124.207 6.55059 123.133 7.05359 122.163 7.70113C121.187 8.34868 120.396 9.18123 119.778 10.1872C119.16 11.1932 118.854 12.5115 118.854 14.1361V64.8237C118.854 66.1881 119.16 67.3098 119.778 68.1886C120.396 69.0674 121.158 69.767 122.065 70.2815C122.971 70.8019 123.947 71.195 124.986 71.4494C126.025 71.7096 126.932 71.9351 127.711 72.1316V76.6124H96.2729V71.9351C97.3757 71.6749 98.4438 71.3974 99.4831 71.1083C100.522 70.8134 101.464 70.4087 102.307 69.8884C103.15 69.368 103.813 68.6858 104.304 67.8417C104.789 66.9976 105.032 65.8933 105.032 64.5288V12.9624L82.739 76.6124H77.3867L55.2902 11.6962V64.1356C55.2902 65.3729 55.5674 66.4599 56.1159 67.4023C56.6644 68.3447 57.3803 69.1252 58.258 69.7438C59.1356 70.3625 60.0883 70.8655 61.1276 71.2528C62.1669 71.6402 63.1715 71.9351 64.1473 72.1316V76.6124H37.2816V72.0333C38.2574 71.7732 39.2909 71.4841 40.3937 71.1545C41.4965 70.8308 42.5185 70.3567 43.4596 69.7438C44.4008 69.1252 45.1802 68.362 45.798 67.4543C46.4158 66.5466 46.7218 65.3729 46.7218 63.9449V12.7716C46.7218 11.28 46.4158 10.0889 45.798 9.21592C45.1802 8.33711 44.2564 7.68957 43.0266 7.26751C41.791 6.84545 40.2552 6.58528 38.4018 6.48699C36.5484 6.3887 34.3947 6.34245 31.9293 6.34245C27.6451 6.34245 23.9614 6.82811 20.8839 7.8052C17.8007 8.7823 15.2371 10.1121 13.1932 11.8003C11.1493 13.4885 9.6423 15.4427 8.66652 17.6513C7.69074 19.8599 7.20574 22.1668 7.20574 24.5719C7.20574 26.5203 7.48289 28.2606 8.0314 29.787C8.57991 31.3133 9.33051 32.6142 10.2716 33.6838C11.2128 34.7534 12.2983 35.5859 13.5339 36.1699C14.7637 36.7538 16.0628 37.0487 17.4254 37.0487C18.7245 37.0487 19.7119 36.8059 20.3932 36.3202C21.0745 35.8346 21.5768 35.1986 21.9001 34.4181C22.2235 33.6375 22.4371 32.7587 22.5353 31.7874C22.6334 30.8103 22.7431 29.839 22.8759 28.8619C23.0029 27.7576 23.2974 26.636 23.7535 25.497C24.2097 24.358 24.8102 23.3347 25.555 22.427C26.2998 21.5192 27.2121 20.785 28.2802 20.2357C29.3484 19.6865 30.5667 19.4089 31.9293 19.4089C33.8116 19.4089 35.2897 20.1374 36.3578 21.6002C37.426 23.0629 37.9629 24.6702 37.9629 26.4278C37.9629 28.7694 37.4433 30.978 36.404 33.0536C35.3647 35.135 33.9732 36.9504 32.218 38.5115C30.4627 40.0725 28.4361 41.304 26.1324 42.2175C23.8286 43.131 21.4094 43.5819 18.8804 43.5819C16.0224 43.5819 13.4415 43.131 11.1435 42.2175C8.83974 41.3098 6.85931 40.0262 5.208 38.3669C3.55091 36.7076 2.26912 34.7303 1.36262 32.4234C0.456133 30.105 0 27.5842 0 24.8552C0 20.9584 0.762146 17.4837 2.28644 14.4252C3.81073 11.3725 5.95282 8.77074 8.71271 6.62575C11.4726 4.48076 14.8099 2.83878 18.7419 1.70558C22.6623 0.572382 27.062 0 31.9293 0C33.6788 0 35.6938 0.0346898 37.9629 0.0982877C40.2321 0.161886 42.634 0.231265 45.1687 0.294863C47.6976 0.358461 50.2612 0.427841 52.8594 0.491439C55.4519 0.555037 57.9866 0.589726 60.452 0.589726H66.2951L83.2298 50.3985L100.944 0.589726H128.785V5.16878H128.78Z" fill="#fff"/>
<path d="M183.487 74.4674C182.707 75.3809 181.604 76.1267 180.178 76.7107C178.752 77.2946 177.13 77.5895 175.311 77.5895C173.232 77.5895 171.385 77.2946 169.762 76.7107C168.14 76.1267 166.743 75.1207 165.576 73.6869C164.341 74.7276 162.556 75.7798 160.224 76.8552C157.885 77.9248 154.773 78.4625 150.882 78.4625C148.607 78.4625 146.453 78.185 144.409 77.6357C142.365 77.0807 140.599 76.2713 139.103 75.2017C137.608 74.1321 136.424 72.7792 135.552 71.1545C134.675 69.5299 134.236 67.6451 134.236 65.5001C134.236 62.5746 134.981 60.1405 136.476 58.1921C137.966 56.2437 139.767 54.6364 141.88 53.3644C143.988 52.0983 146.193 51.1096 148.497 50.3927C150.801 49.6758 152.764 49.0918 154.387 48.6408C156.205 48.1205 157.955 47.6002 159.641 47.0798C161.327 46.5595 162.816 46.0738 164.115 45.6171V40.0609C164.115 37.3956 163.48 35.3489 162.216 33.9208C160.951 32.4928 159.41 31.7758 157.591 31.7758C155.905 31.7758 154.49 32.3424 153.359 33.4814C152.221 34.6204 151.298 36.0022 150.582 37.6268C149.802 39.3787 148.959 40.7778 148.053 41.8185C147.14 42.8592 145.847 43.3796 144.161 43.3796C142.406 43.3796 141.078 42.8939 140.171 41.9168C139.259 40.9397 138.809 39.7082 138.809 38.2108C138.809 36.9099 139.248 35.5975 140.125 34.2619C141.003 32.9322 142.25 31.7469 143.872 30.7062C145.495 29.6655 147.458 28.8214 149.762 28.1739C152.065 27.5263 154.646 27.1968 157.499 27.1968C160.224 27.1968 162.753 27.5379 165.091 28.2201C167.43 28.9024 169.439 29.8621 171.125 31.0936C172.811 32.3309 174.127 33.8399 175.068 35.6264C176.01 37.4129 176.477 39.4134 176.477 41.6219V67.1594C176.477 68.2637 176.754 69.1888 177.303 69.9346C177.851 70.6804 178.504 71.2644 179.249 71.6864C179.993 72.1085 180.756 72.3513 181.535 72.4149C182.315 72.4785 182.961 72.4149 183.481 72.2183V74.4674H183.487ZM164.115 51.5606C162.36 51.6242 160.478 51.9479 158.469 52.5377C156.454 53.1216 154.589 53.9484 152.874 55.0238C151.153 56.0934 149.71 57.3769 148.543 58.8743C147.377 60.3718 146.794 62.0253 146.794 63.8465C146.794 66.6391 147.51 68.7667 148.936 70.2295C150.362 71.6922 152.308 72.4207 154.779 72.4207C156.009 72.4207 157.181 72.2126 158.284 71.7847C159.387 71.3627 160.374 70.7614 161.252 69.9809C162.129 69.2003 162.822 68.2926 163.342 67.2519C163.861 66.2112 164.121 65.0433 164.121 63.7425V51.5606H164.115Z" fill="#fff"/>
<path d="M289.783 88.2104C289.783 89.7714 289.326 91.477 288.42 93.3271C287.508 95.1772 286.145 96.8828 284.332 98.4439C282.513 100.005 280.262 101.317 277.565 102.393C274.869 103.462 271.739 104 268.171 104C263.823 104 259.701 103.352 255.809 102.052C251.918 100.751 248.263 99.0105 244.856 96.8366C241.45 94.6569 238.268 92.1419 235.318 89.28C232.362 86.4181 229.671 83.429 227.24 80.3127C224.81 77.1964 222.633 74.0454 220.722 70.8597C218.805 67.674 217.136 64.656 215.71 61.7941L212.5 55.3591L207.148 60.9153V65.9858C207.148 67.2866 207.344 68.3273 207.731 69.1021C208.118 69.8826 208.62 70.5012 209.238 70.9522C209.855 71.409 210.519 71.7501 211.235 71.9755C211.951 72.2068 212.633 72.4149 213.279 72.6115V76.6066H187.476V72.5132C188.319 72.3167 189.162 72.0738 190.005 71.7848C190.848 71.4899 191.627 71.0678 192.343 70.5186C193.059 69.9693 193.643 69.2871 194.093 68.4719C194.549 67.6625 194.774 66.6044 194.774 65.3035V20.3745C194.774 18.9464 194.613 17.7785 194.289 16.865C193.966 15.9573 193.591 15.2404 193.169 14.72C192.748 14.1997 192.291 13.8412 191.806 13.6504C191.321 13.4539 190.911 13.3267 190.588 13.2631L187.568 12.9682V8.67245C188.798 8.1521 190.034 7.61441 191.269 7.06515C192.499 6.5159 193.735 5.87992 194.97 5.163C196.46 4.38248 197.823 3.59039 199.058 2.77518C200.288 1.96575 201.362 1.20258 202.269 0.485657H207.136V51.6589L217.454 40.7432C218.297 39.8355 218.718 38.9566 218.718 38.1125C218.718 37.465 218.505 36.881 218.083 36.3607C217.662 35.8403 217.125 35.372 216.478 34.95C215.831 34.5279 215.115 34.1868 214.336 33.9266C213.556 33.6664 212.812 33.4699 212.096 33.3427V29.0527H238.378V33.1461C237.402 33.2791 236.513 33.4063 235.699 33.5335C234.885 33.6664 234.077 33.8919 233.268 34.2157C232.454 34.5395 231.629 35.0136 230.786 35.6264C229.943 36.2451 229.065 37.0718 228.158 38.1125L220.081 47.5655L224.071 55.5557C225.37 58.1574 226.958 61.0309 228.84 64.1819C230.722 67.3329 232.795 70.5186 235.07 73.7332C237.339 76.9477 239.804 80.0698 242.466 83.0878C245.128 86.1116 247.899 88.8059 250.786 91.1763C253.673 93.5468 256.658 95.449 259.741 96.877C262.825 98.3051 265.925 99.022 269.037 99.022C270.66 99.022 271.924 98.7445 272.836 98.1953C273.743 97.6402 274.424 96.9406 274.88 96.1023C275.336 95.2582 275.66 94.2984 275.856 93.2288C276.052 92.1592 276.214 91.0665 276.341 89.9622C276.728 87.0367 277.704 84.8628 279.263 83.429C280.822 82.0009 282.444 81.284 284.13 81.284C285.62 81.284 286.936 81.8679 288.074 83.0358C289.211 84.2153 289.783 85.9382 289.783 88.2104Z" fill="#fff"/>
<path d="M284.523 61.7998C283.611 64.0084 282.577 66.1072 281.405 68.0845C280.239 70.0676 278.842 71.8194 277.219 73.3458C275.597 74.8721 273.68 76.0747 271.474 76.9535C269.269 77.8323 266.705 78.2717 263.783 78.2717C259.499 78.2717 255.804 77.5432 252.686 76.0805C249.568 74.6177 247.005 72.704 244.995 70.3278C242.98 67.9573 241.491 65.2573 240.515 62.2393C239.539 59.2155 239.054 56.1165 239.054 52.9308C239.054 49.6815 239.591 46.5132 240.659 43.4258C241.727 40.3384 243.286 37.5922 245.33 35.187C247.374 32.7818 249.874 30.8508 252.825 29.388C255.775 27.9253 259.164 27.1968 262.998 27.1968C266.63 27.1968 269.794 27.7807 272.49 28.9486C275.181 30.1165 277.404 31.5966 279.159 33.3831C280.909 35.1696 282.208 37.1354 283.051 39.2804C283.894 41.4254 284.315 43.4374 284.315 45.3222C284.315 46.0391 284.269 46.5421 284.171 46.8312C284.073 47.1261 283.767 47.2706 283.247 47.2706H252.294C252.23 48.1147 252.178 48.9588 252.149 49.803C252.115 50.6471 252.103 51.5259 252.103 52.4336C252.103 59.1923 253.235 64.2455 255.51 67.593C257.779 70.9406 260.798 72.6115 264.563 72.6115C268.068 72.6115 271.035 71.3916 273.472 68.9575C275.903 66.5234 277.802 63.4476 279.165 59.7474L284.523 61.7998ZM269.921 42.6916C269.921 41.9746 269.84 41.0496 269.679 39.9164C269.517 38.7774 269.176 37.6615 268.657 36.5515C268.137 35.4472 267.392 34.4874 266.416 33.678C265.441 32.8686 264.141 32.4581 262.525 32.4581C260.059 32.4581 258.015 33.2733 256.393 34.8921C254.771 36.5168 253.604 39.1185 252.888 42.6916H269.921Z" fill="#fff"/>
<path d="M333 33.3369C333 34.8344 332.481 36.0658 331.441 37.0429C330.402 38.02 329.201 38.5057 327.838 38.5057C326.926 38.5057 326.118 38.4074 325.408 38.2108C324.692 38.0142 324.028 37.7888 323.41 37.5286C322.792 37.2684 322.192 37.0429 321.608 36.8464C321.025 36.6498 320.407 36.5515 319.761 36.5515C318.981 36.5515 318.173 36.7828 317.33 37.2337C316.487 37.6905 315.644 38.3033 314.801 39.0839C313.958 39.8644 313.144 40.7605 312.37 41.7665C311.591 42.7725 310.944 43.7959 310.424 44.8366V65.9858C310.424 67.2867 310.65 68.3273 311.106 69.1021C311.556 69.8826 312.128 70.5012 312.809 70.9522C313.49 71.409 314.218 71.7501 314.997 71.9756C315.777 72.2068 316.487 72.415 317.139 72.6115V76.6066H290.759V72.5132C291.602 72.3167 292.445 72.0738 293.288 71.7848C294.131 71.4899 294.91 71.0678 295.626 70.5186C296.342 69.9693 296.925 69.2871 297.376 68.4719C297.832 67.6625 298.057 66.6044 298.057 65.3035V48.93C298.057 47.5019 297.895 46.334 297.572 45.4205C297.249 44.5128 296.873 43.7959 296.452 43.2755C296.03 42.7552 295.574 42.3967 295.089 42.2059C294.604 42.0094 294.194 41.8822 293.871 41.8186L290.851 41.4312V37.1412C292.081 36.6903 293.317 36.1641 294.552 35.5802C295.782 34.9962 297.018 34.3776 298.253 33.7301C299.743 32.9495 301.106 32.1575 302.341 31.3422C303.571 30.5328 304.645 29.7696 305.551 29.0527H310.419V36.459C312.364 34.2504 314.634 32.25 317.232 30.4634C319.824 28.6769 322.717 27.7808 325.893 27.7808C328.358 27.7808 330.159 28.4167 331.297 29.6829C332.434 30.9491 333 32.1632 333 33.3369Z" fill="#fff"/>
</svg>
