<svg xmlns="http://www.w3.org/2000/svg" viewBox="0 0 66.63 7.03">
  <defs>
    <style>
      .a {
        fill: #fff;
      }
    </style>
  </defs>
  <title>Asset 19</title>
  <g>
    <path class="a" d="M.55,5.42.27,5.14,0,4.6V3.52l.27-.81.55-.82.81-.27h.55l.55.28L3,2.16l.22.45.27-1h.32v0l-1.08,4H2.41v0l.25-.94-.47.7-.55.28H1.09Zm1.08.21.52-.26.36-.55-.32.33-.55.28H1.09L.58,5.09l0,0,0,0L.47,5,.26,4.88l0-.06.13.1L.27,4.6V3.52l.27-.81.33-.5H.81l0-.05.13,0,.17-.25.06,0L1,2.1l.61-.21h.55l.54.27.4.39L3,2.21l-.27-.27-.52-.26H1.64l-.78.26-.54.8-.26.78V4.59l.27.52.25.26.53.26Zm0-.26.52-.26.56-.57L3.2,2.71l-.51-.49L2.16,2H1.64L1,2.19l-.37.55-.26.79V4.59L.52,5l.59.39Zm1.05.26L3.74,1.68H3.53l-1,4Z"/>
    <path class="a" d="M4.39,5.66l1.08-4h.32v0l-1.08,4H4.39Zm.28,0,1-3.95h-.2l-1.06,4ZM5.45.3l.6-.3.29.6L5.75.89Zm.81.27L6,.08,5.53.33l.25.48Z"/>
    <path class="a" d="M6.66,6.76l-.28-.55v0H6.7l.18.37.34.16H8l.53-.26.26-.26.26-.52.27-1-.49.48-.55.28H7.74L7.2,5.15l-.28-.27-.27-.55V3.52l.27-.81.55-.82.81-.27h.55l.54.28.28.27.22.44.26-1h.33v0l-1.07,4-.28.55-.53.54L8,7H7.21ZM8,7l.53-.27.52-.51.27-.53,1.06-4h-.21l-1.06,4-.27.54-.27.28L8,6.77H7.21l-.29-.14L7,6.74l-.06,0-.1-.19-.19-.1,0-.05.12.06-.13-.26h-.2l.24.48L7.22,7Zm.27-1.6.52-.26.39-.4-.9.45H7.74l-.51-.34,0,0,0,0-.08-.15-.21-.14,0-.05.13.08-.15-.31V3.52l.26-.81.34-.5H7.46l0-.05.13,0,.17-.25.06,0-.13.19.61-.21h.55l.54.27.41.41L9.59,2.2l-.26-.26-.52-.26H8.29l-.79.26L7,2.74l-.26.78v.8L7,4.85l.25.25.53.27Zm0-.27,1.07-.54.49-1.84-.5-.5L8.81,2H8.29l-.68.24-.37.55L7,3.53v.79l.2.4.58.38Z"/>
    <path class="a" d="M11.86,5.42l-.27-.28-.28-.54V3.52l.27-.81.55-.82.81-.27h.55L14,1.9l.27.26.22.45.27-1h.32v0L14,5.7h-.32v0L14,4.72l-.47.7L13,5.7H12.4Zm1.08.21.52-.26.37-.55-.33.33L13,5.43H12.4l-.51-.34,0,0-.06,0L11.79,5l-.22-.14,0-.06.13.1-.15-.32V3.52l.27-.81.33-.5h-.06V2.17l.13,0,.16-.25.06,0-.13.19.61-.21h.55l.54.27.4.39-.17-.34L14,1.94l-.52-.26H13l-.79.26-.54.8-.26.78V4.59l.27.52.25.26.53.26Zm0-.26.52-.26L14,4.54l.49-1.83L14,2.22,13.47,2H13l-.69.24-.37.55-.26.79V4.59l.19.39.59.39ZM14,5.63l1.06-3.95h-.21l-1.05,4Z"/>
    <path class="a" d="M15.71,5.66l.8-2.95.27-1.09h.32v0l-.22.91.45-.67.54-.28h.82l.55.28.27.55V3L18.7,5.7h-.32v0L19.18,3V2.46L19,2.12,18.67,2h-.79l-.52.26-.52.52L16,5.7h-.32Zm.27,0,.8-2.91.26-1h-.21l-.26,1.05-.8,2.9Zm2.68,0L19.45,3V2.46l-.26-.52-.52-.26h-.79l-.51.26L17,2.46l.3-.3.55-.27h.82L19,2l-.06-.12.05,0,.1.19.19.1,0,.05-.11-.06.14.29V3l-.8,2.63Z"/>
    <path class="a" d="M21.19,5.42l-.28-.28-.27-.54V3.52l.26-.81.55-.82.81-.27h.82l.55.28.29.55L23.63,3l-.81.54L22,3.82H21v.77l.2.39.59.39h.78l.52-.26.28-.55h.31v0l-.27.55-.27.27-.55.28h-.82Zm1.34.21.53-.26.26-.26.24-.49h-.19l-.27.53-.55.28h-.82l-.51-.34,0,0,0,0L21.11,5l-.21-.14,0-.06.13.1L20.9,4.6V3.52l.27-.81.34-.5h-.06l0-.05.13,0,.17-.25.05,0-.13.19.61-.21h.82l.28.14-.06-.12.05,0,.1.19.21.11,0,0-.12-.06.15.28-.18.34.15-.11,0,.06-.24.16L23.35,3,23.3,3V3l-.49.32L22,3.55H21v.21h1l.79-.26.8-.53.26-.52-.26-.51-.52-.26h-.79l-.79.26-.53.8-.26.78V4.59l.26.52.26.26.53.26ZM22,3.49l.79-.26.58-.37.21-.41-.18-.33L23.07,2h-.79l-.68.24-.38.55L21,3.49Z"/>
    <path class="a" d="M24.5,5.66l.27-1.09L26.11,0h.32v0l-.72,2.46.41-.61.54-.28h.55l.54.28.28.27.27.54V3.8L28,4.6l-.56.83-.81.27h-.55l-.54-.28-.27-.28-.2-.58,0,0-.27,1.1H24.5Zm.27,0,.26-1,0-.13L25,4.31l.06,0,0,0L26.36.08h-.21l-1.32,4.5-.27,1Zm1.89-.26.68-.24.37-.56L28,3.78v-1l-.19-.39L27.19,2h-.52l-.52.26-.5.51-.5,1.7.21.43.25.25.53.27Zm0,.26.79-.26.53-.8.26-.78V2.73L28,2.2,27.72,2l-.53-.27h-.52l-.52.26-.35.54.32-.32.54-.27h.55l.51.33,0,0,.05,0,.08.14.21.15,0,.05-.13-.09.16.31V3.8l-.27.8-.34.51.06,0,0,0-.13,0-.17.26-.05,0,.13-.19-.62.22h-.55l-.54-.28-.27-.27-.08-.16.13.39.26.26.52.26Z"/>
    <path class="a" d="M29.16,5.66l1.08-4h.32v0l-.26,1,.75-.73.54-.28h.57V2H31.6l-.52.27-.81.52-.79,3h-.32Zm.27,0,1.06-3.95h-.21l-1.05,4Zm1.62-3.47.54-.27h.51V1.68h-.5L31.08,2l-.58.57Z"/>
    <path class="a" d="M33.3,5.42,33,5.14l-.28-.54V3.52L33,2.71l.55-.82.81-.27h.55l.55.28.27.26.22.45.27-1h.32v0l-1.08,4h-.32v0l.25-.94-.47.7-.55.28h-.55Zm1.08.21.52-.26.37-.55-.33.33-.55.28h-.55l-.51-.34,0,0-.05,0L33.22,5,33,4.88l0-.06.13.1L33,4.6V3.52l.27-.81.33-.5h-.06V2.17l.13,0,.16-.25.06,0-.13.19.61-.21h.55l.54.27.4.39-.17-.34-.27-.27-.52-.26h-.52l-.78.26-.54.8-.26.78V4.59l.27.52.25.26.53.26Zm0-.26.52-.26.56-.57L36,2.71l-.51-.49L34.91,2h-.52l-.68.24-.37.55-.26.79V4.59l.19.39.59.39Zm1,.26,1.06-3.95h-.21l-1.05,4Z"/>
    <path class="a" d="M37.42,5.42l-.27-.54V4.56h.32v.29l.17.35.35.17h1l.34-.17.17-.35V4.6l-.26-.52-1.07-.8L38,3l-.29-.55L38,1.9l.55-.28h1.08l.55.28.28.55v.3h-.33V2.47l-.17-.35L39.58,2H38.52l-.34.17L38,2.45l.26.52,1.06.79.28.28.27.55v.28l-.28.55-.54.28H38ZM39,5.63l.53-.26.25-.52V4.6l-.26-.52-.26-.27L38.22,3l-.28-.55.15-.29L38,2.22l0-.05.19-.1.1-.19.05,0L38.22,2l.29-.14h1.08l.28.14-.06-.12.06,0,.1.19.19.1,0,.05L40,2.16l.14.29v.24h.21V2.46l-.26-.52-.52-.26H38.52L38,2l-.25.5L38,3l.26.26L39.34,4l.27.54v.29l-.13.28.11-.06,0,0-.19.1-.1.2,0,0,.06-.11-.28.14H38l-.28-.14.06.11,0,0-.1-.2-.19-.1,0,0,.11.06-.14-.28V4.62h-.2v.24l.26.51.52.26Z"/>
    <path class="a" d="M45.08,1.67,43,3.27,44,5.66v0H43.7l-1-2.24-.86.64,0,0,.87-.66,0-.14-.75.55-.07.25L41.33,5.7H41v0L42.62,0h.32v0l-1,3.67,2.88-2.1h.31ZM42.87.08h-.21L41.07,5.63h.21ZM45,1.68H44.8L42.66,3.23l.06.13ZM42.89,3.31l-.15.11,1,2.21h.2Z"/>
    <path class="a" d="M46,5.42l-.28-.28L45.4,4.6V3.52l.27-.81.55-.82L47,1.62h.55l.55.28.27.26.22.45.26-1h.33v0l-1.08,4h-.32v0l.25-.94-.47.7L47,5.7h-.55ZM47,5.63l.52-.26.36-.55-.32.33L47,5.43h-.55L46,5.09l0,0,0,0L45.87,5l-.21-.14,0-.06.13.1-.15-.32V3.52l.26-.81.34-.5h-.06l0-.05.13,0,.17-.25.06,0-.13.19L47,1.89h.55l.54.27.4.39-.17-.34-.27-.27-.52-.26H47l-.79.26-.53.8-.26.78V4.59l.27.52.25.26.53.26Zm0-.26.52-.26.56-.57.48-1.83-.5-.49L47.56,2H47l-.68.24L46,2.74l-.26.79V4.59l.19.39.59.39Zm1,.26,1.06-3.95h-.21l-1,4Z"/>
    <path class="a" d="M49.79,5.66l.28-.83h.32v0l-.27.84h-.33Zm.28,0,.24-.74h-.19l-.25.74Z"/>
    <path class="a" d="M50.71,6.7H51l.34-.16.44-.88,1.08-4h.32v0l-1.07,4-.54,1.09L51,7h-.31ZM51,7l.52-.26.53-1,1.06-4H52.9l-1.06,4-.4.82.12-.06,0,.05-.19.1-.1.19,0,0,.06-.11L51,6.77h-.25V7ZM52.84.3l.59-.3.3.6-.6.29Zm.81.27L53.4.08l-.48.25.25.48Z"/>
    <path class="a" d="M53.5,7,54,4.58l.8-3h.33v0l-.26.93.48-.69.54-.28h.55L57,1.9l.28.27.27.54V3.8l-.26.81-.55.82L56,5.7H55.4l-.56-.27-.27-.28-.19-.6,0,0L53.82,7H53.5Zm.28,0,.52-2.38,0-.14-.05-.14.06,0,0,0,.73-2.65h-.21L54.1,4.59,53.57,7Zm2.15-1.6.68-.24L57,4.57l.26-.79v-1l-.2-.39L56.47,2H56l-.52.26-.56.56-.46,1.64.22.44.25.25.53.27Zm0,.26.79-.26.53-.79.26-.79V2.73l-.26-.53L57,2l-.52-.27H56l-.52.26L55,2.51l.35-.35.54-.27h.55l.51.33,0,0,.05,0,.08.14.21.15,0,.05-.13-.09.16.31V3.8L57,4.6l-.34.51.06,0,0,0-.13,0-.17.26,0,0,.13-.19L56,5.43H55.4l-.55-.28-.27-.27-.09-.17.13.4.27.27.52.25Z"/>
    <path class="a" d="M59.25,5.42,59,5.14,58.7,4.6V3.52L59,2.71l.55-.82.81-.27h.81l.55.28.29.55L61.69,3l-.81.54-.81.27H59v.77l.19.39.59.39h.78l.52-.26.28-.55h.31v0l-.27.55-.27.27-.55.28h-.82Zm1.34.21.53-.26.26-.26.25-.49h-.2l-.27.53-.55.28h-.82l-.51-.34,0,0,0,0L59.17,5,59,4.88l0-.06.13.1L59,4.6V3.52l.26-.81.34-.5h-.06l0-.05.13,0,.17-.25.05,0-.13.19.62-.21h.81l.28.14-.06-.12,0,0,.1.19.21.11,0,0-.13-.06.15.28-.18.34.15-.11,0,.06-.24.16L61.41,3l0,0V3l-.49.32-.81.26H59v.21h1l.78-.26.8-.53.26-.52-.26-.51-.52-.26h-.79l-.79.26-.53.8-.26.78V4.59l.27.52.25.26.53.26Zm-.52-2.14.78-.26.58-.37.21-.41-.18-.33L61.13,2h-.79l-.68.24-.37.55L59,3.49Z"/>
    <path class="a" d="M62.83,6.76l-.27-.55v0h.31l.18.37.35.16h.79l.53-.26L65,6.18l.26-.52.27-1L65,5.15l-.54.28h-.55l-.54-.28-.28-.27-.27-.55V3.52l.26-.81.55-.82.81-.27H65l.55.28.27.27.22.44.27-1h.32v0l-1.07,4-.27.55-.54.54L64.2,7h-.82ZM64.19,7l.53-.27.51-.51.27-.53,1.06-4h-.2l-1.07,4L65,6.21l-.28.28-.55.28h-.82l-.28-.14.06.11,0,0L63,6.58l-.19-.1,0-.05.11.06-.13-.26h-.2l.25.48L63.4,7Zm.26-1.6L65,5.11l.4-.4-.9.45h-.55l-.51-.34,0,0,0,0-.08-.15-.22-.14,0-.05.13.08-.16-.31V3.52l.27-.81.34-.5h-.07V2.17l.13,0,.17-.25,0,0-.13.19.61-.21H65l.55.27.4.41-.18-.37-.26-.26L65,1.68h-.52l-.79.26-.53.8-.26.78v.8l.26.53.26.25.52.27Zm0-.27,1.07-.54L66,2.72l-.5-.5L65,2h-.52l-.68.24-.38.55-.26.79v.79l.2.4.58.38Z"/>
  </g>
</svg>
