<svg xmlns="http://www.w3.org/2000/svg" viewBox="0 0 150.29 29.37">
  <defs>
    <style>
      .a {
        fill: #00243e;
      }
    </style>
  </defs>
  <title>kaneko</title>
  <g>
    <path class="a" d="M-267.34-61.13a.42.42,0,0,0-.1-.17l-8.69-9.44,7.24-12.06a.49.49,0,0,0,0-.44l-.16-.43a.5.5,0,0,0-.64-.3l-1.34.49a.49.49,0,0,0-.26.21l-8.47,13.67-.67-9.36,0-.12-.13-.38a.49.49,0,0,0-.26-.29.5.5,0,0,0-.38,0l-1.48.53a.52.52,0,0,0-.33.51l1.61,22.58a.27.27,0,0,0,0,.12l.11.35a.53.53,0,0,0,.26.29.54.54,0,0,0,.22.05l.17,0,1.48-.54a.49.49,0,0,0,.32-.51l-.61-8.82,1.9-3.19,8,8.68a.5.5,0,0,0,.54.13l1.44-.52a.55.55,0,0,0,.28-.26.5.5,0,0,0,0-.38Z" transform="translate(283 84)"/>
    <path class="a" d="M-248.43-81.59a.5.5,0,0,0-.63-.28l-1.4.52a.49.49,0,0,0-.32.35l-6.17,25.37a.48.48,0,0,0,0,.29l.14.38a.52.52,0,0,0,.47.33.47.47,0,0,0,.17,0l1.41-.52a.47.47,0,0,0,.32-.35l1.4-5.72,8.87-3.23,1.81,4.28a.51.51,0,0,0,.64.28l1.55-.57a.47.47,0,0,0,.28-.27.48.48,0,0,0,0-.39Zm-3.84,17.24,3-12.36,4.1,9.77Z" transform="translate(283 84)"/>
    <path class="a" d="M-214.18-83.14l-.12-.35a.57.57,0,0,0-.26-.29.58.58,0,0,0-.39,0l-1.47.54a.51.51,0,0,0-.33.51l1.27,18.21L-227-79a.48.48,0,0,0-.56-.16l-1.4.51a.49.49,0,0,0-.33.5l1.61,22.58a.59.59,0,0,0,0,.13l.12.35a.53.53,0,0,0,.26.29.52.52,0,0,0,.21,0,.57.57,0,0,0,.18,0l1.47-.54a.49.49,0,0,0,.33-.5l-1.27-18.22,11.49,14.52a.48.48,0,0,0,.56.16l1.4-.51a.5.5,0,0,0,.33-.51L-214.16-83A.51.51,0,0,0-214.18-83.14Z" transform="translate(283 84)"/>
    <path class="a" d="M-186.74-62.15a.51.51,0,0,0-.26-.28.5.5,0,0,0-.38,0l-9.6,3.5-.55-7.88,8.51-3.1a.49.49,0,0,0,.3-.64l-.56-1.55a.48.48,0,0,0-.26-.28.46.46,0,0,0-.38,0l-7.81,2.84-.56-7.87,9.62-3.5a.51.51,0,0,0,.28-.26.5.5,0,0,0,0-.38l-.57-1.56a.5.5,0,0,0-.64-.29l-11.1,4a.5.5,0,0,0-.33.5l1.6,22.55a.5.5,0,0,0,0,.13l.13.38a.45.45,0,0,0,.26.28.38.38,0,0,0,.21.05.47.47,0,0,0,.17,0L-186.47-60a.5.5,0,0,0,.3-.64Z" transform="translate(283 84)"/>
    <path class="a" d="M-159.94-61.13a.42.42,0,0,0-.1-.17l-8.69-9.44,7.24-12.07a.48.48,0,0,0,0-.42l-.16-.44a.5.5,0,0,0-.64-.3l-1.35.49a.51.51,0,0,0-.25.21l-8.47,13.67L-173-79l0-.12-.13-.38a.53.53,0,0,0-.26-.29.5.5,0,0,0-.38,0l-1.48.53a.51.51,0,0,0-.33.51L-174-56.14a.5.5,0,0,0,0,.12l.12.35a.53.53,0,0,0,.26.29.54.54,0,0,0,.22.05l.17,0,1.48-.54a.49.49,0,0,0,.32-.51l-.62-8.82,1.91-3.19,8,8.68a.5.5,0,0,0,.54.13l1.43-.52a.5.5,0,0,0,.3-.64Z" transform="translate(283 84)"/>
    <path class="a" d="M-132.8-70.55v0l-.44-4.19a.24.24,0,0,0,0-.12l-1.08-3a.39.39,0,0,0-.08-.14l-2.08-2.66a.49.49,0,0,0-.18-.14l-1.43-.67-.16,0-2.41-.27a.55.55,0,0,0-.22,0l-4,1.44-.14.08-2.65,2.11a.49.49,0,0,0-.14.18l-1.3,2.83-.9,3.66a.28.28,0,0,0,0,.13l.09,3.31.44,4.2a.27.27,0,0,0,0,.12l1.08,3a.61.61,0,0,0,.07.14l2.09,2.65a.52.52,0,0,0,.18.15l1.43.66a.44.44,0,0,0,.15,0l2.41.27h.06a.47.47,0,0,0,.17,0l4-1.44.14-.08,2.64-2.11a.65.65,0,0,0,.15-.18l1.3-2.83.9-3.66a.57.57,0,0,0,0-.13Zm-3.32,6.92-.51,1.08-2.29,1.84-3.53,1.28-1.76-.2-1.71-2.15-1-2.7-.42-4-.09-3.07.8-3.37.53-1.13,2.29-1.83,3.53-1.28,1.76.2,1.71,2.15,1,2.7.42,4,.09,3.08Z" transform="translate(283 84)"/>
  </g>
</svg>
