<svg width="426" height="138" viewBox="0 0 426 138" fill="none" xmlns="http://www.w3.org/2000/svg">
<path d="M69.76 60.1841C81.856 61.6241 91.432 65.6561 98.488 72.2801C105.688 78.9041 109.288 87.1121 109.288 96.9041C109.288 104.392 107.128 111.16 102.808 117.208C98.488 123.256 92.512 128.08 84.88 131.68C77.248 135.136 68.752 136.864 59.392 136.864C55.36 136.864 50.752 136.648 45.568 136.216C43.552 136.072 41.032 135.928 38.008 135.784C35.128 135.64 31.888 135.568 28.288 135.568L12.52 135.784C9.64 135.928 5.752 136 0.856 136C0.424 136 0.208 135.568 0.208 134.704C0.208 133.84 0.424 133.408 0.856 133.408C5.032 133.408 8.2 133.048 10.36 132.328C12.52 131.464 14.032 130.024 14.896 128.008C15.904 125.848 16.408 122.68 16.408 118.504V18.496C16.408 12.448 15.4 8.48805 13.384 6.61605C11.368 4.60005 7.264 3.59205 1.072 3.59205C0.784 3.59205 0.64 3.16005 0.64 2.29605C0.64 1.43205 0.784 1.00006 1.072 1.00006L12.52 1.21605C19.144 1.50405 24.4 1.64805 28.288 1.64805C32.32 1.64805 36.496 1.43205 40.816 1.00006C42.256 0.856049 44.416 0.712046 47.296 0.568048C50.176 0.42405 52.696 0.352051 54.856 0.352051C67.96 0.352051 78.112 2.72805 85.312 7.48005C92.512 12.232 96.112 19.144 96.112 28.2161C96.112 35.128 93.808 41.392 89.2 47.008C84.736 52.624 78.256 57.016 69.76 60.1841ZM51.616 5.10405C47.44 5.10405 44.56 6.11205 42.976 8.12805C41.392 10 40.6 13.6 40.6 18.928V59.968L49.24 60.1841C56.728 60.1841 62.488 57.3761 66.52 51.7601C70.552 46.1441 72.568 38.9441 72.568 30.1601C72.568 21.952 70.768 15.76 67.168 11.584C63.568 7.26405 58.384 5.10405 51.616 5.10405ZM55.72 131.464C74.584 131.464 84.016 121.672 84.016 102.088C84.016 91 81.352 82.2161 76.024 75.7361C70.696 69.2561 62.632 66.0161 51.832 66.0161C47.656 66.0161 43.912 66.1601 40.6 66.4481V118.504C40.6 123.256 41.536 126.64 43.408 128.656C45.28 130.528 49.384 131.464 55.72 131.464Z" fill="white"/>
<path d="M152.32 58.72C152.544 58.72 152.731 58.9067 152.88 59.28C153.104 59.6533 153.104 59.8773 152.88 59.952L137.424 67.456C137.275 67.5307 137.088 67.568 136.864 67.568C136.192 67.568 135.557 66.896 134.96 65.552C134.437 64.208 134.101 62.3787 133.952 60.064C131.488 62.3787 129.024 64.208 126.56 65.552C124.096 66.8213 121.371 67.456 118.384 67.456C115.323 67.456 112.485 66.7093 109.872 65.216C107.333 63.648 105.317 61.3707 103.824 58.384C102.331 55.3973 101.584 51.8133 101.584 47.632C101.584 42.3307 102.816 37.7013 105.28 33.744C107.744 29.712 110.992 26.6507 115.024 24.56C119.056 22.4693 123.387 21.424 128.016 21.424C132.048 21.424 135.669 22.3947 138.88 24.336C140.597 23.5893 142.053 22.6187 143.248 21.424C143.323 21.3493 143.435 21.312 143.584 21.312C143.733 21.312 143.883 21.3867 144.032 21.536C144.256 21.6107 144.368 21.7227 144.368 21.872V53.792C144.368 56.032 144.592 57.6373 145.04 58.608C145.563 59.504 146.384 59.952 147.504 59.952C148.475 59.952 150.005 59.5413 152.096 58.72H152.32ZM124.096 61.52C127.083 61.52 130.331 60.3253 133.84 57.936V33.744C133.84 30.832 133.019 28.4427 131.376 26.576C129.808 24.7093 127.717 23.776 125.104 23.776C121.371 23.776 118.421 25.6427 116.256 29.376C114.165 33.1093 113.12 37.9253 113.12 43.824C113.12 49.424 114.053 53.792 115.92 56.928C117.861 59.9893 120.587 61.52 124.096 61.52Z" fill="white"/>
<path d="M184.154 21.648C185.872 21.648 187.514 22.2827 189.082 23.552C190.725 24.7467 191.546 26.2027 191.546 27.92C191.546 29.488 191.061 30.7947 190.09 31.84C189.12 32.8107 187.85 33.296 186.282 33.296C185.162 33.296 184.229 33.072 183.482 32.624C182.81 32.176 182.101 31.504 181.354 30.608C180.682 29.8613 180.085 29.3387 179.562 29.04C179.114 28.6667 178.554 28.48 177.882 28.48C177.136 28.48 176.314 28.7787 175.418 29.376C174.597 29.8987 173.29 31.056 171.498 32.848V56.928C171.498 59.9147 172.208 61.968 173.626 63.088C175.045 64.1333 177.658 64.656 181.466 64.656C181.765 64.656 181.914 64.88 181.914 65.328C181.914 65.776 181.765 66 181.466 66C178.853 66 176.8 65.9627 175.306 65.888L166.234 65.776L159.626 65.888C158.506 65.9627 156.976 66 155.034 66C154.81 66 154.698 65.776 154.698 65.328C154.698 64.88 154.81 64.656 155.034 64.656C157.349 64.656 158.917 64.1333 159.738 63.088C160.56 61.968 160.97 59.9147 160.97 56.928V35.872C160.97 33.5573 160.672 31.8773 160.074 30.832C159.552 29.712 158.693 29.152 157.498 29.152C156.229 29.152 154.437 29.6747 152.122 30.72H151.898C151.674 30.72 151.488 30.5333 151.338 30.16C151.264 29.7867 151.301 29.5627 151.45 29.488L167.018 21.872C167.466 21.7227 167.728 21.648 167.802 21.648C168.624 21.648 169.37 22.432 170.042 24C170.789 25.4933 171.237 27.5467 171.386 30.16C174.448 27.024 176.949 24.8213 178.89 23.552C180.906 22.2827 182.661 21.648 184.154 21.648Z" fill="white"/>
<path d="M215.759 67.344C210.831 67.344 206.65 66.2987 203.215 64.208C199.855 62.0427 197.317 59.28 195.599 55.92C193.957 52.4853 193.135 48.9013 193.135 45.168C193.135 40.464 194.442 36.3573 197.055 32.848C199.669 29.264 202.991 26.5387 207.023 24.672C211.13 22.7307 215.311 21.76 219.567 21.76C223.151 21.76 226.362 22.5067 229.199 24C232.111 25.4933 233.567 27.5467 233.567 30.16C233.567 31.5787 233.007 32.8107 231.887 33.856C230.842 34.8267 229.349 35.312 227.407 35.312C225.615 35.312 224.197 34.864 223.151 33.968C222.106 32.9973 221.247 31.5413 220.575 29.6C219.903 27.5093 219.231 26.0907 218.559 25.344C217.962 24.5227 216.842 24.112 215.199 24.112C211.989 24.112 209.413 25.7173 207.471 28.928C205.605 32.064 204.671 36.2453 204.671 41.472C204.671 47.6693 206.053 52.6347 208.815 56.368C211.578 60.0267 215.983 61.856 222.031 61.856C224.047 61.856 225.765 61.632 227.183 61.184C228.677 60.736 230.543 59.9893 232.783 58.944H232.895C233.119 58.944 233.306 59.056 233.455 59.28C233.679 59.504 233.717 59.6907 233.567 59.84C230.805 62.3787 228.042 64.2827 225.279 65.552C222.517 66.7467 219.343 67.344 215.759 67.344Z" fill="white"/>
<path d="M288.553 58.72C288.777 58.72 288.964 58.9067 289.113 59.28C289.337 59.6533 289.337 59.8773 289.113 59.952L273.657 67.456C273.508 67.5307 273.321 67.568 273.097 67.568C272.425 67.568 271.79 66.896 271.193 65.552C270.67 64.208 270.334 62.3787 270.185 60.064C267.721 62.3787 265.257 64.208 262.793 65.552C260.329 66.8213 257.604 67.456 254.617 67.456C251.556 67.456 248.718 66.7093 246.105 65.216C243.566 63.648 241.55 61.3707 240.057 58.384C238.564 55.3973 237.817 51.8133 237.817 47.632C237.817 42.3307 239.049 37.7013 241.513 33.744C243.977 29.712 247.225 26.6507 251.257 24.56C255.289 22.4693 259.62 21.424 264.249 21.424C268.281 21.424 271.902 22.3947 275.113 24.336C276.83 23.5893 278.286 22.6187 279.481 21.424C279.556 21.3493 279.668 21.312 279.817 21.312C279.966 21.312 280.116 21.3867 280.265 21.536C280.489 21.6107 280.601 21.7227 280.601 21.872V53.792C280.601 56.032 280.825 57.6373 281.273 58.608C281.796 59.504 282.617 59.952 283.737 59.952C284.708 59.952 286.238 59.5413 288.329 58.72H288.553ZM260.329 61.52C263.316 61.52 266.564 60.3253 270.073 57.936V33.744C270.073 30.832 269.252 28.4427 267.609 26.576C266.041 24.7093 263.95 23.776 261.337 23.776C257.604 23.776 254.654 25.6427 252.489 29.376C250.398 33.1093 249.353 37.9253 249.353 43.824C249.353 49.424 250.286 53.792 252.153 56.928C254.094 59.9893 256.82 61.52 260.329 61.52Z" fill="white"/>
<path d="M371.907 64.656C372.206 64.656 372.355 64.88 372.355 65.328C372.355 65.776 372.206 66 371.907 66C369.966 66 368.435 65.9627 367.315 65.888L360.595 65.776L354.099 65.888C352.905 65.9627 351.337 66 349.395 66C349.171 66 349.059 65.776 349.059 65.328C349.059 64.88 349.171 64.656 349.395 64.656C351.71 64.656 353.278 64.1333 354.099 63.088C354.995 61.968 355.443 59.9147 355.443 56.928V40.8C355.443 36.768 354.734 33.7813 353.315 31.84C351.971 29.8987 349.881 28.928 347.043 28.928C345.102 28.928 343.198 29.3387 341.331 30.16C339.465 30.9813 337.859 32.1013 336.515 33.52V56.928C336.515 59.9147 336.926 61.968 337.747 63.088C338.643 64.1333 340.249 64.656 342.563 64.656C342.862 64.656 343.011 64.88 343.011 65.328C343.011 65.776 342.862 66 342.563 66C340.622 66 339.091 65.9627 337.971 65.888L331.251 65.776L324.755 65.888C323.561 65.9627 321.993 66 320.051 66C319.827 66 319.715 65.776 319.715 65.328C319.715 64.88 319.827 64.656 320.051 64.656C322.366 64.656 323.934 64.1333 324.755 63.088C325.651 61.968 326.099 59.9147 326.099 56.928V40.8C326.099 36.768 325.39 33.7813 323.971 31.84C322.627 29.8987 320.537 28.928 317.699 28.928C315.907 28.928 314.115 29.3013 312.323 30.048C310.606 30.72 309.075 31.6907 307.731 32.96V56.928C307.731 59.9147 308.142 61.968 308.963 63.088C309.859 64.1333 311.465 64.656 313.779 64.656C314.003 64.656 314.115 64.88 314.115 65.328C314.115 65.776 314.003 66 313.779 66C311.838 66 310.307 65.9627 309.187 65.888L302.467 65.776L295.859 65.888C294.739 65.9627 293.209 66 291.267 66C291.043 66 290.931 65.776 290.931 65.328C290.931 64.88 291.043 64.656 291.267 64.656C293.582 64.656 295.15 64.1333 295.971 63.088C296.793 61.968 297.203 59.9147 297.203 56.928V35.872C297.203 33.5573 296.905 31.8773 296.307 30.832C295.785 29.712 294.926 29.152 293.731 29.152C292.462 29.152 290.67 29.6747 288.355 30.72H288.131C287.907 30.72 287.721 30.5333 287.571 30.16C287.497 29.7867 287.534 29.5627 287.683 29.488L303.251 21.872C303.699 21.7227 303.961 21.648 304.035 21.648C304.857 21.648 305.641 22.4693 306.387 24.112C307.134 25.68 307.582 27.808 307.731 30.496C312.809 24.448 318.259 21.424 324.083 21.424C327.593 21.424 330.393 22.2827 332.483 24C334.574 25.7173 335.843 28.1813 336.291 31.392C341.443 24.7467 347.155 21.424 353.427 21.424C357.459 21.424 360.521 22.5813 362.611 24.896C364.777 27.2107 365.859 30.72 365.859 35.424V56.928C365.859 59.9147 366.27 61.968 367.091 63.088C367.987 64.1333 369.593 64.656 371.907 64.656Z" fill="white"/>
<path d="M400.954 67.456C397.295 67.456 394.085 67.0453 391.322 66.224V87.728C391.322 89.968 391.546 91.6107 391.994 92.656C392.517 93.7013 393.45 94.4107 394.794 94.784C396.213 95.232 398.378 95.456 401.29 95.456C401.514 95.456 401.626 95.68 401.626 96.128C401.626 96.576 401.514 96.8 401.29 96.8C398.527 96.8 396.362 96.7627 394.794 96.688L385.946 96.576L379.338 96.688C378.218 96.7627 376.65 96.8 374.634 96.8C374.41 96.8 374.298 96.576 374.298 96.128C374.298 95.68 374.41 95.456 374.634 95.456C376.426 95.456 377.733 95.232 378.554 94.784C379.45 94.4107 380.047 93.7013 380.346 92.656C380.719 91.6107 380.906 89.968 380.906 87.728V35.872C380.906 33.4827 380.645 31.7653 380.122 30.72C379.599 29.6747 378.666 29.152 377.322 29.152C376.127 29.152 374.41 29.6747 372.17 30.72H371.946C371.722 30.72 371.535 30.5333 371.386 30.16C371.162 29.7867 371.125 29.5627 371.274 29.488L387.178 21.76C387.327 21.6853 387.514 21.648 387.738 21.648C388.485 21.648 389.157 22.2827 389.754 23.552C390.426 24.8213 390.874 26.5387 391.098 28.704C396.549 23.776 402.149 21.312 407.898 21.312C411.034 21.312 413.946 22.1333 416.634 23.776C419.397 25.4187 421.599 27.808 423.242 30.944C424.885 34.08 425.706 37.7387 425.706 41.92C425.706 47.8933 424.474 52.8213 422.01 56.704C419.546 60.512 416.41 63.2747 412.602 64.992C408.869 66.6347 404.986 67.456 400.954 67.456ZM400.506 27.584C397.146 27.584 394.085 28.7787 391.322 31.168V59.056C392.965 60.9227 394.682 62.3413 396.474 63.312C398.266 64.208 400.469 64.656 403.082 64.656C410.623 64.656 414.394 58.2347 414.394 45.392C414.394 39.7173 413.05 35.3493 410.362 32.288C407.749 29.152 404.463 27.584 400.506 27.584Z" fill="white"/>
<path d="M154.28 136.96C149.32 136.96 144.893 135.813 141 133.52C137.16 131.173 134.173 128.027 132.04 124.08C129.96 120.08 128.92 115.733 128.92 111.04C128.92 105.547 130.307 100.853 133.08 96.96C135.853 93.0133 139.4 90.0533 143.72 88.08C148.093 86.1067 152.547 85.12 157.08 85.12C162.147 85.12 166.6 86.32 170.44 88.72C174.28 91.0667 177.213 94.1867 179.24 98.08C181.32 101.973 182.36 106.107 182.36 110.48C182.36 115.333 181.08 119.787 178.52 123.84C175.96 127.893 172.52 131.093 168.2 133.44C163.933 135.787 159.293 136.96 154.28 136.96ZM156.92 134.96C159.907 134.96 162.573 134.107 164.92 132.4C167.32 130.64 169.187 128.107 170.52 124.8C171.853 121.44 172.52 117.44 172.52 112.8C172.52 107.893 171.773 103.52 170.28 99.68C168.787 95.7867 166.627 92.7467 163.8 90.56C160.973 88.3733 157.667 87.28 153.88 87.28C149.027 87.28 145.293 89.12 142.68 92.8C140.067 96.4267 138.76 101.52 138.76 108.08C138.76 113.253 139.533 117.893 141.08 122C142.68 126.053 144.84 129.227 147.56 131.52C150.333 133.813 153.453 134.96 156.92 134.96Z" fill="white"/>
<path d="M245.37 135.04C245.583 135.04 245.69 135.2 245.69 135.52C245.69 135.84 245.583 136 245.37 136C243.983 136 242.89 135.973 242.09 135.92L237.29 135.84L232.65 135.92C231.797 135.973 230.677 136 229.29 136C229.13 136 229.05 135.84 229.05 135.52C229.05 135.2 229.13 135.04 229.29 135.04C230.943 135.04 232.063 134.667 232.65 133.92C233.29 133.12 233.61 131.653 233.61 129.52V118C233.61 115.12 233.103 112.987 232.09 111.6C231.13 110.213 229.637 109.52 227.61 109.52C226.223 109.52 224.863 109.813 223.53 110.4C222.197 110.987 221.05 111.787 220.09 112.8V129.52C220.09 131.653 220.383 133.12 220.97 133.92C221.61 134.667 222.757 135.04 224.41 135.04C224.623 135.04 224.73 135.2 224.73 135.52C224.73 135.84 224.623 136 224.41 136C223.023 136 221.93 135.973 221.13 135.92L216.33 135.84L211.69 135.92C210.837 135.973 209.717 136 208.33 136C208.17 136 208.09 135.84 208.09 135.52C208.09 135.2 208.17 135.04 208.33 135.04C209.983 135.04 211.103 134.667 211.69 133.92C212.33 133.12 212.65 131.653 212.65 129.52V118C212.65 115.12 212.143 112.987 211.13 111.6C210.17 110.213 208.677 109.52 206.65 109.52C205.37 109.52 204.09 109.787 202.81 110.32C201.583 110.8 200.49 111.493 199.53 112.4V129.52C199.53 131.653 199.823 133.12 200.41 133.92C201.05 134.667 202.197 135.04 203.85 135.04C204.01 135.04 204.09 135.2 204.09 135.52C204.09 135.84 204.01 136 203.85 136C202.463 136 201.37 135.973 200.57 135.92L195.77 135.84L191.05 135.92C190.25 135.973 189.157 136 187.77 136C187.61 136 187.53 135.84 187.53 135.52C187.53 135.2 187.61 135.04 187.77 135.04C189.423 135.04 190.543 134.667 191.13 133.92C191.717 133.12 192.01 131.653 192.01 129.52V114.48C192.01 112.827 191.797 111.627 191.37 110.88C190.997 110.08 190.383 109.68 189.53 109.68C188.623 109.68 187.343 110.053 185.69 110.8H185.53C185.37 110.8 185.237 110.667 185.13 110.4C185.077 110.133 185.103 109.973 185.21 109.92L196.33 104.48C196.65 104.373 196.837 104.32 196.89 104.32C197.477 104.32 198.037 104.907 198.57 106.08C199.103 107.2 199.423 108.72 199.53 110.64C203.157 106.32 207.05 104.16 211.21 104.16C213.717 104.16 215.717 104.773 217.21 106C218.703 107.227 219.61 108.987 219.93 111.28C223.61 106.533 227.69 104.16 232.17 104.16C235.05 104.16 237.237 104.987 238.73 106.64C240.277 108.293 241.05 110.8 241.05 114.16V129.52C241.05 131.653 241.343 133.12 241.93 133.92C242.57 134.667 243.717 135.04 245.37 135.04Z" fill="white"/>
<path d="M284.038 130.8C284.198 130.8 284.331 130.933 284.438 131.2C284.598 131.467 284.598 131.627 284.438 131.68L273.398 137.04C273.291 137.093 273.157 137.12 272.997 137.12C272.517 137.12 272.064 136.64 271.637 135.68C271.264 134.72 271.024 133.413 270.917 131.76C269.157 133.413 267.397 134.72 265.637 135.68C263.877 136.587 261.931 137.04 259.798 137.04C257.611 137.04 255.584 136.507 253.717 135.44C251.904 134.32 250.464 132.693 249.397 130.56C248.331 128.427 247.798 125.867 247.798 122.88C247.798 119.093 248.677 115.787 250.438 112.96C252.197 110.08 254.518 107.893 257.398 106.4C260.278 104.907 263.371 104.16 266.678 104.16C269.558 104.16 272.144 104.853 274.438 106.24C275.664 105.707 276.704 105.013 277.557 104.16C277.611 104.107 277.691 104.08 277.798 104.08C277.904 104.08 278.011 104.133 278.118 104.24C278.278 104.293 278.357 104.373 278.357 104.48V127.28C278.357 128.88 278.518 130.027 278.838 130.72C279.211 131.36 279.798 131.68 280.598 131.68C281.291 131.68 282.384 131.387 283.878 130.8H284.038ZM263.878 132.8C266.011 132.8 268.331 131.947 270.838 130.24V112.96C270.838 110.88 270.251 109.173 269.077 107.84C267.957 106.507 266.464 105.84 264.598 105.84C261.931 105.84 259.824 107.173 258.277 109.84C256.784 112.507 256.037 115.947 256.037 120.16C256.037 124.16 256.704 127.28 258.038 129.52C259.424 131.707 261.371 132.8 263.878 132.8Z" fill="white"/>
<path d="M322.136 135.04C322.35 135.04 322.456 135.2 322.456 135.52C322.456 135.84 322.35 136 322.136 136C320.75 136 319.63 135.973 318.776 135.92L314.136 135.84L309.336 135.92C308.536 135.973 307.443 136 306.056 136C305.95 136 305.896 135.84 305.896 135.52C305.896 135.2 305.95 135.04 306.056 135.04C307.71 135.04 308.83 134.667 309.416 133.92C310.056 133.12 310.376 131.653 310.376 129.52V118C310.376 115.12 309.843 112.987 308.776 111.6C307.71 110.213 306.056 109.52 303.816 109.52C302.536 109.52 301.203 109.787 299.816 110.32C298.483 110.853 297.31 111.573 296.296 112.48V129.52C296.296 131.653 296.59 133.12 297.176 133.92C297.816 134.667 298.963 135.04 300.616 135.04C300.83 135.04 300.936 135.2 300.936 135.52C300.936 135.84 300.83 136 300.616 136C299.23 136 298.11 135.973 297.256 135.92L292.616 135.84L287.816 135.92C287.016 135.973 285.923 136 284.536 136C284.43 136 284.376 135.84 284.376 135.52C284.376 135.2 284.43 135.04 284.536 135.04C286.19 135.04 287.31 134.667 287.896 133.92C288.536 133.12 288.856 131.653 288.856 129.52V88.88C288.856 87.0133 288.67 85.68 288.296 84.88C287.976 84.08 287.39 83.68 286.536 83.68C285.79 83.68 284.776 83.9733 283.496 84.56H283.416C283.256 84.56 283.096 84.4267 282.936 84.16C282.83 83.84 282.83 83.6533 282.936 83.6L294.616 78.08L295.016 78C295.283 78 295.55 78.1333 295.816 78.4C296.136 78.6133 296.296 78.8267 296.296 79.04V110.72C300.083 106.347 304.136 104.16 308.456 104.16C311.336 104.16 313.603 105.093 315.256 106.96C316.963 108.773 317.816 111.173 317.816 114.16V129.52C317.816 131.653 318.11 133.12 318.696 133.92C319.336 134.667 320.483 135.04 322.136 135.04Z" fill="white"/>
<path d="M360.759 130.8C360.919 130.8 361.053 130.933 361.159 131.2C361.319 131.467 361.319 131.627 361.159 131.68L350.119 137.04C350.013 137.093 349.879 137.12 349.719 137.12C349.239 137.12 348.786 136.64 348.359 135.68C347.986 134.72 347.746 133.413 347.639 131.76C345.879 133.413 344.119 134.72 342.359 135.68C340.599 136.587 338.653 137.04 336.519 137.04C334.333 137.04 332.306 136.507 330.439 135.44C328.626 134.32 327.186 132.693 326.119 130.56C325.053 128.427 324.519 125.867 324.519 122.88C324.519 119.093 325.399 115.787 327.159 112.96C328.919 110.08 331.239 107.893 334.119 106.4C336.999 104.907 340.093 104.16 343.399 104.16C346.279 104.16 348.866 104.853 351.159 106.24C352.386 105.707 353.426 105.013 354.279 104.16C354.333 104.107 354.413 104.08 354.519 104.08C354.626 104.08 354.733 104.133 354.839 104.24C354.999 104.293 355.079 104.373 355.079 104.48V127.28C355.079 128.88 355.239 130.027 355.559 130.72C355.933 131.36 356.519 131.68 357.319 131.68C358.013 131.68 359.106 131.387 360.599 130.8H360.759ZM340.599 132.8C342.733 132.8 345.053 131.947 347.559 130.24V112.96C347.559 110.88 346.973 109.173 345.799 107.84C344.679 106.507 343.186 105.84 341.319 105.84C338.653 105.84 336.546 107.173 334.999 109.84C333.506 112.507 332.759 115.947 332.759 120.16C332.759 124.16 333.426 127.28 334.759 129.52C336.146 131.707 338.093 132.8 340.599 132.8Z" fill="white"/>
</svg>
