<?xml version="1.0" standalone="no"?>
<!DOCTYPE svg PUBLIC "-//W3C//DTD SVG 20010904//EN"
 "http://www.w3.org/TR/2001/REC-SVG-20010904/DTD/svg10.dtd">
<svg version="1.0" xmlns="http://www.w3.org/2000/svg"
 width="400.000000pt" height="400.000000pt" viewBox="0 0 400.000000 400.000000"
 preserveAspectRatio="xMidYMid meet">
<metadata>
Created by potrace 1.11, written by Peter Selinger 2001-2013
</metadata>
<g transform="translate(0.000000,400.000000) scale(0.100000,-0.100000)"
fill="#000000" stroke="none">
<path d="M0 2750 c0 -687 2 -1250 5 -1250 2 0 25 10 50 22 36 18 142 126 496
510 248 268 453 488 456 488 3 0 4 -210 3 -467 -2 -258 -2 -474 -1 -481 0 -7
34 -28 74 -46 l72 -34 -247 -1 c-137 -1 -248 1 -248 3 0 3 39 17 88 31 48 15
92 31 98 36 17 14 30 317 15 332 -7 7 -70 13 -169 15 l-158 4 -31 -26 c-50
-42 -266 -315 -260 -329 3 -8 52 -24 118 -38 l114 -24 -237 -3 -238 -2 0 -745
0 -745 2000 0 2000 0 0 2000 0 2000 -2000 0 -2000 0 0 -1250z m3675 -717 l0
-476 62 -26 c34 -15 65 -30 69 -34 4 -4 -105 -7 -242 -6 l-249 1 102 34 101
35 7 82 c3 45 5 120 3 167 l-3 85 -40 7 c-62 11 -284 9 -305 -2 -23 -12 -280
-323 -280 -339 0 -11 35 -22 149 -46 41 -9 77 -18 80 -20 2 -3 -101 -5 -229
-5 -128 0 -231 2 -228 5 3 3 25 16 49 28 33 16 158 146 494 509 247 268 452
485 455 482 3 -3 5 -220 5 -481z m-918 447 c28 -6 56 -17 62 -24 8 -9 -4 -56
-40 -167 -29 -85 -56 -158 -61 -164 -6 -6 -7 46 -2 140 8 184 13 178 -126 183
-278 11 -506 -148 -596 -415 -22 -66 -26 -91 -22 -163 9 -183 121 -309 306
-341 69 -12 182 -4 205 14 13 11 57 165 57 200 0 10 -35 23 -107 42 -60 16
-115 32 -123 36 -8 5 78 9 193 9 244 0 226 16 172 -156 -40 -128 -32 -121
-197 -166 -118 -31 -316 -31 -402 0 -83 31 -151 77 -191 129 -134 175 -94 435
95 633 98 102 251 182 410 216 75 16 285 12 367 -6z m-989 -26 c-52 -16 -83
-32 -92 -47 -17 -26 -209 -825 -202 -842 2 -7 40 -25 83 -41 l78 -29 -123 -3
c-68 -1 -176 -1 -240 0 l-117 3 78 29 c42 15 79 32 82 36 11 18 206 833 203
849 -2 10 -31 26 -78 43 l-75 27 240 0 240 -1 -77 -24z"/>
<path d="M3379 2134 c-79 -85 -144 -160 -144 -167 0 -17 272 -22 291 -6 11 9
14 47 14 170 0 88 -4 159 -9 159 -5 0 -74 -70 -152 -156z"/>
<path d="M715 2133 c-80 -86 -144 -161 -142 -167 2 -7 53 -11 147 -11 l144 0
7 25 c11 39 10 310 -1 310 -5 0 -75 -71 -155 -157z"/>
</g>
</svg>
