<svg xmlns="http://www.w3.org/2000/svg" width="400" height="505.25" viewBox="0 0 400 505.25"><path fill="#FFF" d="M34.161 75.565c0 2.932-2.432 4.577-6.651 4.577H16.784v-9.225h10.583c4.648 0 6.794 1.787 6.794 4.505v.143zM16.784 52.396h9.01c4.148 0 6.294 1.573 6.294 4.291v.143c0 2.931-2.361 4.363-6.579 4.363h-8.725v-8.797zm21.311 12.728c4.434-1.93 7.723-5.363 7.723-11.155v-.143c0-3.432-1.216-6.077-3.217-8.081-2.932-2.931-7.366-4.504-13.66-4.504H3.268v50.058h25.815c11.943 0 18.951-5.221 18.951-13.802v-.143c0-6.795-3.861-10.226-9.939-12.23M160.933 53.254h9.082c4.648 0 7.508 2.002 7.508 5.936v.143c0 3.646-2.717 5.936-7.437 5.936h-9.153V53.254zm0 22.884H167.014L177.095 91.3h16.02l-11.943-17.451c6.223-2.646 10.299-7.723 10.299-15.374v-.144c0-4.934-1.503-8.796-4.435-11.656-3.36-3.434-8.652-5.435-16.304-5.435h-23.67V91.3h13.873l-.002-15.162zM173.76 167.556c-7.008 0-11.942-5.863-11.942-13.373v-.144c0-7.29 4.935-13.229 11.942-13.229 4.792 0 8.08 2.288 10.941 5.864l10.44-8.081c-4.434-6.153-11.013-10.442-21.24-10.442-15.159 0-26.387 11.443-26.387 26.032v.144c0 14.945 11.514 25.887 25.814 25.887 11.086 0 17.449-4.792 22.169-11.301l-10.44-7.441c-3.003 3.654-6.077 6.084-11.297 6.084M312.918 148.535l-11.943-19.381h-14.659v50.059h13.588v-28.604l12.729 19.45h.285l12.801-19.594v28.748h13.802v-50.059h-14.66zM382.861 147.532c0 3.934-3.002 6.508-7.939 6.508h-6.58v-13.229h6.512c5.006 0 8.008 2.288 8.008 6.579v.142h-.001zm-6.937-18.378h-21.453v50.06h13.873v-14.303h6.865c12.439 0 21.523-6.222 21.523-18.021v-.142c.002-11.085-8.148-17.594-20.808-17.594M101.986 91.797l19.203 18.982 9.597-9.71-28.8-28.467v-9.797l10.102 9.987 9.597-9.709-26.523-26.219-26.524 26.219 9.594 9.709 10.103-9.987v9.797l-28.798 28.467 9.595 9.71 19.203-18.982v12.492l-32.997 32.617 9.596 9.711 23.401-23.136v55.687h13.651v-55.687l23.404 23.136 9.594-9.711-32.998-32.617zM312.918 16.432l5.125 5.124-5.125 5.123-5.121-5.123 5.121-5.124zm19.973 5.126L312.918 1.579l-19.971 19.979 19.971 19.971 19.973-19.971zM215.422 62.125h48.406v13.651h-48.406zM239.625 132.054l-5.719-7.746-10.674 7.882 8.147 11.031-27.35 37.043h16.492l19.104-25.872 19.104 25.872h16.492l-27.35-37.043 8.147-11.031-10.674-7.882z"/><path fill="#FFF" d="M229.48 180.264h20.291l-10.148-13.657z"/><g fill="#FFF"><path d="M303.52 325.223c0-2.206 1.502-3.686 3.523-3.686 2.072 0 3.254 1.364 3.254 3.548v6.868h1.754v-7.302c0-2.799-1.662-4.711-4.508-4.711-2.021 0-3.252 1.025-4.025 2.302v-6.896h-1.752v16.606h1.752v-6.73l.002.001zm-8.76-3.483h3.734v-1.544h-3.734v-3.555h-1.752v3.555h-1.637v1.544h1.637v7.099c0 2.387 1.438 3.321 3.324 3.321.84 0 1.5-.185 2.115-.502v-1.501c-.615.296-1.115.41-1.707.41-1.184 0-1.98-.522-1.98-1.955v-6.872zm-7.887 5.869c0 1.639-1.547 3.006-4.164 3.006s-4.164-1.367-4.164-3.006c0-1.799 1.846-3.049 4.164-3.049 2.322.002 4.164 1.252 4.164 3.049m-.523-7.463c0 1.753-1.613 2.936-3.641 2.936-2.021 0-3.641-1.183-3.641-2.936 0-1.616 1.566-2.774 3.641-2.774 2.07 0 3.641 1.186 3.641 2.774m2.343 7.486c0-1.909-1.387-3.206-3.275-3.913 1.479-.681 2.729-1.818 2.729-3.686 0-2.48-2.523-4.229-5.438-4.229s-5.436 1.75-5.436 4.229c0 1.865 1.25 3.005 2.729 3.686-1.912.687-3.277 2.027-3.277 3.937 0 2.688 2.594 4.526 5.984 4.526 3.389 0 5.984-1.818 5.984-4.55m-20.287-10.213c1.729 0 3.209 1.182 3.209 3.049 0 1.592-.891 2.822-3.32 5.006l-5.779 5.096v1.385h11.123v-1.637H265.2l4.256-3.773c2.797-2.437 4.025-3.87 4.025-6.215 0-2.616-2.047-4.524-4.939-4.524-2.795 0-4.297 1.249-5.73 3.389l1.318.955c1.274-1.775 2.46-2.731 4.276-2.731m-19.133 4.321h3.734v-1.544h-3.734v-3.555h-1.752v3.555h-1.639v1.544h1.639v7.099c0 2.387 1.434 3.321 3.322 3.321.842 0 1.502-.185 2.115-.502v-1.501c-.611.296-1.113.41-1.705.41-1.184 0-1.98-.522-1.98-1.955v-6.872zm-6.103 6.916v-.043c0-2.118-1.955-2.821-3.775-3.369-1.568-.479-3.027-.909-3.027-2.024v-.045c0-.979.889-1.708 2.273-1.708 1.139 0 2.393.434 3.484 1.136l.795-1.318c-1.207-.793-2.799-1.294-4.23-1.294-2.322 0-4.004 1.342-4.004 3.362v.049c0 2.163 2.045 2.799 3.889 3.319 1.545.432 2.938.889 2.938 2.072v.045c0 1.136-1.025 1.866-2.436 1.866-1.391 0-2.799-.548-4.074-1.503l-.887 1.251c1.32 1.067 3.184 1.729 4.869 1.729 2.341.002 4.185-1.292 4.185-3.525m-14.197-1.728c0 2.206-1.523 3.688-3.525 3.688-2.07 0-3.254-1.367-3.254-3.55v-6.868h-1.754v7.302c0 2.796 1.664 4.711 4.508 4.711 2.021 0 3.229-1.026 4.025-2.302v2.047h1.729v-11.757h-1.729v6.729zm-14.493-1.433c0 2.41-2.098 4.005-4.324 4.005-2.184 0-4.074-1.614-4.074-4.026 0-2.457 1.846-3.982 4.074-3.982 2.227-.001 4.324 1.57 4.324 4.003m1.684 4.412v-9.711h-1.754v2.11c-.957-1.271-2.387-2.366-4.596-2.366-2.799 0-5.529 2.117-5.529 5.576 0 3.434 2.709 5.524 5.529 5.524 2.162 0 3.596-1.111 4.619-2.479v1.392c0 2.751-1.684 4.186-4.277 4.186-1.684 0-3.184-.524-4.531-1.504l-.793 1.366c1.572 1.091 3.391 1.638 5.344 1.638 3.621.004 5.988-1.932 5.988-5.732m-17.303-2.979c0 2.206-1.524 3.688-3.526 3.688-2.071 0-3.253-1.367-3.253-3.55v-6.868h-1.751v7.302c0 2.796 1.661 4.711 4.505 4.711 2.023 0 3.23-1.026 4.025-2.302v2.047h1.731v-11.757h-1.731v6.729zm-15.822-.794h-7.255l3.639-8.127 3.616 8.127zm-2.753-10.217h-1.685l-7.256 16.036h1.84l1.891-4.207h8.669l1.862 4.207h1.938l-7.259-16.036zm-21.638 18.019l.273.797c1.729-.387 2.526-1.274 2.526-3.116v-2.048h-2.097v2.386h.82c.093.981-.383 1.573-1.522 1.981m-1.088-13.74h-1.863l-3.778 9.803-4.276-9.803h-1.935l5.349 11.717c-.707 1.658-1.367 2.203-2.412 2.203-.752 0-1.273-.137-1.842-.434l-.592 1.39c.797.386 1.525.592 2.502.592 1.777 0 2.913-.887 3.912-3.322l4.935-12.146zm-19.363 5.798c1.433 0 2.596.252 3.459.501v1.137c0 1.866-1.775 3.188-3.938 3.188-1.591 0-2.958-.862-2.958-2.365s1.231-2.461 3.437-2.461m-.067-4.411c2.207 0 3.504 1.091 3.504 3.205v.409a12.64 12.64 0 00-3.619-.498c-2.979 0-5.029 1.316-5.029 3.822 0 2.457 2.21 3.688 4.395 3.688 2.071 0 3.436-.958 4.255-2.028v1.772h1.683v-7.188c0-3.091-1.797-4.73-5.004-4.73-1.705 0-2.982.386-4.278.98l.524 1.435c1.087-.504 2.183-.867 3.569-.867m-10.329 4.481c0 2.752-2.071 4.569-4.256 4.569-2.229 0-4.142-1.773-4.142-4.569 0-2.865 1.867-4.553 4.142-4.553 2.185.002 4.256 1.823 4.256 4.553m1.685 5.89v-16.606h-1.754v7.103c-.909-1.321-2.318-2.508-4.504-2.508-2.821 0-5.619 2.274-5.619 6.146 0 3.891 2.8 6.123 5.619 6.123 2.16 0 3.549-1.207 4.504-2.62v2.364l1.754-.002zm-15.649-11.758h-1.75v11.757h1.75v-11.757zm.139-4.507h-2.002v1.934h2.002v-1.934zm-9.822 11.582c0-3.552 2.095-5.395 4.664-5.395h.136v-1.888c-2.228-.093-3.935 1.319-4.8 3.273v-3.066h-1.752v11.757h1.752v-4.681zm-4.76-11.241H87.949v15.924h1.798v-6.937h8.623v-1.636h-8.624v-5.69h9.646v-1.661h.002zM249.941 292.232c0-2.205 1.502-3.689 3.527-3.689 2.068 0 3.254 1.364 3.254 3.555v6.869h1.752v-7.304c0-2.802-1.66-4.71-4.504-4.71-2.025 0-3.256 1.023-4.027 2.298V287.2h-1.75v11.766h1.75v-6.733h-.002v-.001zm-13.056-5.073h-1.461l-3.158 9.487-3.096-9.443h-1.865l4.115 11.855h1.547l3.188-9.283 3.16 9.283h1.525l4.143-11.855h-1.82l-3.094 9.443-3.184-9.487zm-13.531 5.961c0 2.522-1.777 4.548-4.326 4.548-2.479 0-4.346-2.046-4.346-4.595 0-2.55 1.756-4.571 4.301-4.571 2.48 0 4.371 2.047 4.371 4.618m1.796-.047c0-3.343-2.596-6.119-6.125-6.119-3.547 0-6.143 2.821-6.143 6.166 0 3.343 2.57 6.118 6.098 6.118 3.553.001 6.17-2.82 6.17-6.165m-17.654 0c0 2.754-2.072 4.573-4.256 4.573-2.229 0-4.139-1.774-4.139-4.573 0-2.867 1.864-4.55 4.139-4.55 2.184 0 4.256 1.821 4.256 4.55m1.684 5.895V282.36h-1.748v7.099c-.912-1.319-2.322-2.503-4.51-2.503-2.821 0-5.618 2.275-5.618 6.145 0 3.887 2.797 6.119 5.618 6.119 2.164 0 3.553-1.208 4.51-2.615v2.365l1.748-.002zm-22.177-11.809h-1.455l-3.163 9.487-3.094-9.443h-1.866l4.118 11.855h1.548l3.184-9.283 3.164 9.283h1.522l4.14-11.855h-1.818l-3.094 9.443-3.186-9.487zm-13.531 5.961c0 2.522-1.773 4.548-4.322 4.548-2.48 0-4.344-2.046-4.344-4.595 0-2.55 1.752-4.571 4.299-4.571 2.479 0 4.367 2.047 4.367 4.618m1.799-.047c0-3.343-2.594-6.119-6.123-6.119-3.547 0-6.141 2.821-6.141 6.166 0 3.343 2.571 6.118 6.098 6.118 3.547.001 6.166-2.82 6.166-6.165m-16.01-10.716h-1.751v16.609h1.751v-16.609zm-15.303 4.664c0-1.455 1.321-2.592 3.393-2.592 1.638 0 3.115.521 4.594 1.729l1.047-1.389c-1.614-1.295-3.274-1.955-5.596-1.955-3.027 0-5.232 1.818-5.232 4.369 0 2.641 1.684 3.819 5.345 4.616 3.345.705 4.142 1.548 4.142 3.05 0 1.613-1.41 2.727-3.547 2.727-2.209 0-3.8-.748-5.463-2.249l-1.115 1.321c1.912 1.707 3.98 2.545 6.508 2.545 3.162 0 5.437-1.771 5.437-4.525 0-2.457-1.637-3.756-5.185-4.525-3.506-.754-4.328-1.598-4.328-3.122M309.586 265.977h5.322v-5.711l6.01-10.215h-5.895l-2.754 5.235-2.729-5.235h-5.961l6.006 10.284v5.642zm-20.139 0h5.322v-11.422h4.688v-4.504h-14.699v4.504h4.688v11.422h.001zm-18.828-8.353v-3.115h2.318c1.229 0 2.025.503 2.025 1.527v.043c0 .979-.771 1.545-2.049 1.545h-2.294zm-5.322 8.353h5.324v-4.553h1.137l3.004 4.553h6.074l-3.707-5.416c1.932-.933 3.139-2.549 3.139-4.867v-.047c0-1.639-.502-2.818-1.459-3.774-1.109-1.115-2.908-1.82-5.729-1.82h-7.783v15.924zm-15.359-5.916l1.457-3.869 1.457 3.869h-2.914zm-7.848 5.916h5.688l.82-2.137h5.57l.842 2.137h5.781l-6.713-16.041h-5.279l-6.709 16.041zm-11.524-8.122v-3.553h1.455c1.412 0 2.254.594 2.254 1.754v.045c0 1.14-.91 1.756-2.277 1.756h-1.432v-.002zm-5.324 8.122h5.322v-4.319h1.729c4.299 0 7.236-2.05 7.236-5.896v-.044c0-3.78-2.893-5.667-7.125-5.667h-7.166v15.926h.004zm-21.183.339c2.891 0 5.301-.976 7.031-2.387v-7.371h-7.713v3.412h2.73v1.594c-.408.226-.912.361-1.82.361-2.229 0-3.798-1.548-3.798-3.799v-.046c0-2.161 1.501-3.753 3.57-3.753 1.318 0 2.48.501 3.527 1.387l2.979-3.594c-1.729-1.502-3.936-2.412-6.664-2.412-5.029 0-8.784 3.548-8.784 8.303v.049c.001 4.938 3.982 8.256 8.942 8.256m-30.267-.339h5.281v-7.349l5.917 7.349h4.73v-15.926h-5.277v7.031l-5.666-7.031h-4.983v15.926h-.002zm-11.32 0h5.324v-15.926h-5.324v15.926zm-21.967 0h5.278v-7.349l5.915 7.349h4.732v-15.926h-5.277v7.031l-5.666-7.031h-4.982v15.926zm-19.422 0h13.699v-4.367h-8.463v-1.729h7.779v-3.842h-7.779v-1.617h8.348v-4.368h-13.583l-.001 15.923zm-13.941-8.122v-3.553h1.457c1.411 0 2.252.594 2.252 1.754v.045c0 1.14-.91 1.756-2.274 1.756h-1.435v-.002zm-5.324 8.122h5.324v-4.319h1.729c4.299 0 7.236-2.05 7.236-5.896v-.044c0-3.78-2.893-5.667-7.121-5.667h-7.168v15.926zm-14.025-4.37c-2.047 0-3.344-1.707-3.344-3.596v-.044c0-1.866 1.274-3.55 3.3-3.55 2.05 0 3.344 1.706 3.344 3.594v.047c0 1.869-1.273 3.549-3.3 3.549m-.043 4.709c4.916 0 8.714-3.687 8.714-8.306v-.043c0-4.618-3.756-8.26-8.67-8.26-4.913 0-8.711 3.687-8.711 8.303v.048c0 4.622 3.75 8.258 8.667 8.258"/></g><g fill="#FFF"><path d="M319.996 461.059c0-2.206 1.504-3.686 3.527-3.686 2.07 0 3.254 1.364 3.254 3.548v6.868h1.754v-7.301c0-2.799-1.662-4.711-4.506-4.711-2.025 0-3.254 1.025-4.027 2.301v-6.896h-1.752v16.606h1.752v-6.73l-.002.001zm-8.758-3.483h3.732v-1.544h-3.732v-3.555h-1.752v3.555h-1.637v1.544h1.637v7.1c0 2.386 1.434 3.32 3.32 3.32.848 0 1.504-.184 2.119-.502v-1.501c-.615.296-1.113.41-1.709.41-1.184 0-1.98-.521-1.98-1.955v-6.872h.002zm-8.597-.753c0 1.845-1.521 3.619-3.959 3.619-2.32 0-3.912-1.455-3.912-3.5 0-2.005 1.434-3.756 3.82-3.756 2.39.002 4.051 1.592 4.051 3.637m2.185 2.598c0-3.21-.73-4.937-1.982-6.192-1.023-1.021-2.363-1.638-4.184-1.638-3.391 0-5.736 2.392-5.736 5.438 0 2.894 2.275 4.963 5.555 4.963 2.203 0 3.641-1.161 4.504-2.549.068 4.073-1.863 6.984-4.73 6.984-1.412 0-2.619-.57-3.916-1.707l-1.045 1.387c1.342 1.115 2.842 1.958 4.912 1.958 3.937.001 6.622-3.573 6.622-8.644m-20.543-6.165c1.727 0 3.207 1.182 3.207 3.048 0 1.594-.889 2.822-3.322 5.006l-5.779 5.097v1.384h11.125v-1.637h-8.439l4.254-3.773c2.801-2.436 4.027-3.87 4.027-6.214 0-2.617-2.051-4.524-4.938-4.524-2.801 0-4.301 1.249-5.734 3.388l1.32.955c1.275-1.774 2.459-2.73 4.279-2.73m-19.137 4.32h3.732v-1.544h-3.732v-3.555h-1.752v3.555h-1.637v1.544h1.637v7.1c0 2.386 1.434 3.32 3.322 3.32.842 0 1.502-.184 2.113-.502v-1.501c-.611.296-1.111.41-1.705.41-1.184 0-1.979-.521-1.979-1.955v-6.872h.001zm-6.099 6.916v-.043c0-2.118-1.959-2.821-3.777-3.369-1.572-.479-3.027-.908-3.027-2.024v-.045c0-.979.889-1.708 2.277-1.708 1.135 0 2.387.434 3.482 1.137l.793-1.318c-1.205-.794-2.799-1.295-4.23-1.295-2.318 0-4.004 1.342-4.004 3.364v.047c0 2.164 2.049 2.799 3.891 3.32 1.547.432 2.934.888 2.934 2.071v.046c0 1.136-1.021 1.865-2.436 1.865-1.383 0-2.795-.548-4.072-1.503l-.885 1.251c1.32 1.068 3.188 1.729 4.867 1.729 2.341.002 4.187-1.292 4.187-3.525m-14.197-1.727c0 2.206-1.523 3.688-3.527 3.688-2.07 0-3.254-1.366-3.254-3.549v-6.869h-1.75v7.302c0 2.796 1.658 4.711 4.502 4.711 2.025 0 3.23-1.025 4.029-2.301v2.047h1.727v-11.757h-1.727v6.728zm-14.498-1.434c0 2.411-2.092 4.006-4.318 4.006-2.189 0-4.074-1.615-4.074-4.027 0-2.457 1.842-3.982 4.074-3.982 2.226-.002 4.318 1.569 4.318 4.003m1.685 4.412v-9.711h-1.754v2.11c-.955-1.271-2.389-2.365-4.594-2.365-2.801 0-5.529 2.117-5.529 5.575 0 3.434 2.707 5.524 5.529 5.524 2.162 0 3.592-1.11 4.617-2.479v1.391c0 2.751-1.684 4.187-4.275 4.187-1.684 0-3.188-.524-4.527-1.505l-.799 1.367c1.57 1.091 3.393 1.638 5.35 1.638 3.617.004 5.982-1.931 5.982-5.732m-17.301-2.978c0 2.206-1.523 3.688-3.527 3.688-2.07 0-3.254-1.366-3.254-3.549v-6.869h-1.75v7.302c0 2.796 1.658 4.711 4.502 4.711 2.025 0 3.23-1.025 4.029-2.301v2.047h1.727v-11.757h-1.727v6.728zm-15.823-.795h-7.258l3.642-8.127 3.616 8.127zm-2.755-10.217h-1.68l-7.259 16.036h1.843l1.887-4.206h8.669l1.867 4.206h1.934l-7.261-16.036zm-21.635 18.018l.271.796c1.729-.386 2.527-1.273 2.527-3.116v-2.048h-2.093v2.386h.815c.095.982-.384 1.576-1.52 1.982m-1.088-13.739h-1.865l-3.776 9.803-4.276-9.803h-1.935l5.345 11.718c-.703 1.658-1.363 2.203-2.41 2.203-.75 0-1.274-.137-1.845-.435l-.591 1.391c.795.385 1.523.591 2.502.591 1.771 0 2.913-.886 3.914-3.322l4.937-12.146zm-19.361 5.799c1.432 0 2.589.252 3.455.5v1.138c0 1.866-1.773 3.187-3.934 3.187-1.594 0-2.96-.862-2.96-2.365.001-1.504 1.23-2.46 3.439-2.46m-.07-4.412c2.205 0 3.502 1.091 3.502 3.206v.409a12.558 12.558 0 00-3.616-.499c-2.981 0-5.029 1.317-5.029 3.823 0 2.458 2.205 3.688 4.392 3.688 2.067 0 3.435-.957 4.254-2.027v1.771h1.687v-7.188c0-3.092-1.799-4.73-5.006-4.73-1.705 0-2.982.385-4.276.979l.521 1.435c1.09-.504 2.183-.867 3.571-.867m-10.331 4.481c0 2.753-2.068 4.57-4.254 4.57-2.229 0-4.139-1.773-4.139-4.57 0-2.865 1.863-4.552 4.139-4.552 2.186.002 4.254 1.822 4.254 4.552m1.686 5.89v-16.606h-1.754v7.103c-.909-1.321-2.319-2.507-4.504-2.507-2.821 0-5.619 2.274-5.619 6.146 0 3.89 2.798 6.122 5.619 6.122 2.162 0 3.547-1.207 4.504-2.62v2.364l1.754-.002zm-18.807-4.683c0-3.552 2.094-5.395 4.666-5.395h.137v-1.887c-2.23-.092-3.937 1.318-4.801 3.273v-3.067h-1.75v11.757h1.75v-4.682h-.002zm-7.883-.342c0 2.206-1.525 3.688-3.527 3.688-2.069 0-3.252-1.366-3.252-3.549v-6.869h-1.754v7.302c0 2.796 1.664 4.711 4.506 4.711 2.025 0 3.231-1.025 4.027-2.301v2.047h1.729v-11.757h-1.729v6.728zm-15.441-5.189h3.734v-1.544h-3.734v-3.555h-1.75v3.555h-1.639v1.544h1.639v7.1c0 2.386 1.433 3.32 3.32 3.32.844 0 1.503-.184 2.117-.502v-1.501c-.614.296-1.117.41-1.71.41-1.181 0-1.978-.521-1.978-1.955v-6.872h.001zm-11.475 4.255c1.432 0 2.592.252 3.454.5v1.138c0 1.866-1.771 3.187-3.935 3.187-1.59 0-2.957-.862-2.957-2.365s1.227-2.46 3.438-2.46m-.07-4.412c2.207 0 3.504 1.091 3.504 3.206v.409a12.59 12.59 0 00-3.619-.499c-2.979 0-5.027 1.317-5.027 3.823 0 2.458 2.206 3.688 4.391 3.688 2.071 0 3.438-.957 4.258-2.027v1.771h1.684v-7.188c0-3.092-1.799-4.73-5.007-4.73-1.707 0-2.979.385-4.276.979l.521 1.435c1.092-.504 2.181-.867 3.571-.867m-17.779-1.57c0-1.455 1.32-2.593 3.39-2.593 1.636 0 3.118.522 4.597 1.729l1.045-1.389c-1.615-1.297-3.274-1.954-5.597-1.954-3.026 0-5.233 1.819-5.233 4.366 0 2.64 1.686 3.821 5.346 4.616 3.347.706 4.143 1.552 4.143 3.053 0 1.616-1.41 2.729-3.548 2.729-2.208 0-3.799-.753-5.462-2.252l-1.115 1.32c1.91 1.706 3.98 2.544 6.506 2.544 3.164 0 5.439-1.771 5.439-4.525 0-2.458-1.639-3.754-5.186-4.528-3.507-.751-4.325-1.591-4.325-3.116M239.803 428.956c0 2.527-1.77 4.553-4.318 4.553-2.482 0-4.348-2.051-4.348-4.599 0-2.547 1.756-4.574 4.301-4.574 2.48 0 4.365 2.049 4.365 4.62m1.797-.046c0-3.345-2.59-6.119-6.115-6.119-3.553 0-6.146 2.822-6.146 6.165 0 3.344 2.572 6.119 6.1 6.119 3.547 0 6.161-2.821 6.161-6.165m-19.063-.818l4.939-5.053h-2.184l-6.348 6.621v-11.467h-1.752v16.61h1.752v-3.07l2.389-2.41 4.209 5.48h2.092l-5.097-6.711zm-18.33.182c.227-2.301 1.775-4.007 3.822-4.007 2.342 0 3.572 1.867 3.754 4.007h-7.576zm0 1.294h9.328c.021-.204.021-.387.021-.543 0-3.46-2.002-6.236-5.48-6.236-3.256 0-5.643 2.732-5.643 6.145 0 3.663 2.637 6.143 5.867 6.143 2.232 0 3.664-.887 4.848-2.207l-1.09-.979c-.955 1.002-2.094 1.659-3.709 1.659-2.072 0-3.894-1.433-4.142-3.982m-13.874-1.497c0-2.211 1.503-3.689 3.526-3.689 2.07 0 3.254 1.365 3.254 3.549v6.872h1.752v-7.304c0-2.8-1.66-4.71-4.504-4.71-2.027 0-3.254 1.024-4.028 2.298v-2.05h-1.751v11.765h1.751v-6.731zm-11.14.772c1.437 0 2.596.25 3.459.499v1.14c0 1.862-1.774 3.186-3.936 3.186-1.591 0-2.96-.866-2.96-2.367.001-1.506 1.232-2.458 3.437-2.458m-.065-4.416c2.206 0 3.502 1.097 3.502 3.209v.408a12.518 12.518 0 00-3.62-.501c-2.979 0-5.026 1.321-5.026 3.825 0 2.457 2.207 3.685 4.392 3.685 2.07 0 3.437-.954 4.255-2.021v1.772h1.684v-7.188c0-3.097-1.801-4.733-5.006-4.733-1.707 0-2.98.388-4.278.98l.524 1.432c1.093-.502 2.186-.868 3.573-.868m-14.29 1.412l6.826-6.961h-2.319l-9.147 9.511v-9.511H158.4v15.926h1.797v-4.275l3.392-3.438 6.119 7.715h2.252l-7.122-8.967zM237.641 401.812h5.326v-11.42h4.686v-4.506h-14.697v4.506h4.688l-.003 11.42zm-25.403 0h5.279v-7.349l5.914 7.349h4.732v-15.926h-5.279v7.029l-5.664-7.029h-4.984l.002 15.926zm-19.422 0h13.696v-4.364h-8.463v-1.729h7.782v-3.847h-7.782v-1.614h8.35v-4.37h-13.583v15.924zm-16.062.114h5.095l6.463-16.039h-5.869l-3.096 8.94-3.097-8.94h-5.957l6.461 16.039zm-24.405-.114h13.695v-4.364h-8.463v-1.729h7.783v-3.847h-7.783v-1.614h8.35v-4.37h-13.582v15.924z"/></g><path fill="none" stroke="#FFF" stroke-width=".577" d="M347.207 219.486H52.792"/></svg>