<?xml version="1.0" encoding="utf-8"?>
<!-- Generator: Adobe Illustrator 15.1.0, SVG Export Plug-In . SVG Version: 6.00 Build 0)  -->
<!DOCTYPE svg PUBLIC "-//W3C//DTD SVG 1.1//EN" "http://www.w3.org/Graphics/SVG/1.1/DTD/svg11.dtd">
<svg version="1.1" id="Layer_1" xmlns="http://www.w3.org/2000/svg" xmlns:xlink="http://www.w3.org/1999/xlink" x="0px" y="0px"
	 width="400px" height="292.25px" viewBox="0 0 400 292.25" enable-background="new 0 0 400 292.25" xml:space="preserve">
<g>
	<g>
		<g>
			<path fill="#FFFFFF" d="M34.161,77.565c0,2.932-2.432,4.577-6.651,4.577H16.784v-9.225h10.583c4.648,0,6.794,1.787,6.794,4.505
				V77.565L34.161,77.565z M16.784,54.396h9.01c4.148,0,6.294,1.573,6.294,4.291v0.143c0,2.931-2.361,4.363-6.579,4.363h-8.725
				V54.396z M38.095,67.124c4.434-1.93,7.723-5.363,7.723-11.155v-0.143c0-3.432-1.216-6.077-3.217-8.081
				c-2.932-2.931-7.366-4.504-13.66-4.504H3.268v50.058h25.815c11.943,0,18.951-5.221,18.951-13.802v-0.143
				C48.034,72.559,44.173,69.128,38.095,67.124"/>
		</g>
		<g>
			<path fill="#FFFFFF" d="M160.933,55.254h9.082c4.648,0,7.508,2.002,7.508,5.936v0.143c0,3.646-2.717,5.936-7.437,5.936h-9.153
				V55.254z M160.933,78.138h5.936h0.145L177.095,93.3h16.02l-11.943-17.451c6.223-2.646,10.299-7.723,10.299-15.374v-0.144
				c0-4.934-1.503-8.796-4.435-11.656c-3.36-3.434-8.652-5.435-16.304-5.435h-23.67V93.3h13.873L160.933,78.138L160.933,78.138z"/>
		</g>
		<g>
			<path fill="#FFFFFF" d="M173.76,169.556c-7.008,0-11.942-5.863-11.942-13.373v-0.144c0-7.29,4.935-13.229,11.942-13.229
				c4.792,0,8.08,2.288,10.941,5.864l10.44-8.081c-4.434-6.153-11.013-10.442-21.24-10.442c-15.159,0-26.387,11.443-26.387,26.032
				v0.144c0,14.945,11.514,25.887,25.814,25.887c11.086,0,17.449-4.792,22.169-11.301l-10.44-7.441
				C182.054,167.126,178.98,169.556,173.76,169.556"/>
		</g>
	</g>
	<polygon fill="#FFFFFF" points="312.918,150.535 300.975,131.154 286.316,131.154 286.316,181.213 299.904,181.213 
		299.904,152.609 312.633,172.059 312.918,172.059 325.719,152.465 325.719,181.213 339.521,181.213 339.521,131.154 
		324.861,131.154 	"/>
	<g>
		<g>
			<path fill="#FFFFFF" d="M382.861,149.532c0,3.934-3.002,6.508-7.939,6.508h-6.58v-13.229h6.512c5.006,0,8.008,2.288,8.008,6.579
				V149.532L382.861,149.532z M375.924,131.154h-21.453v50.06h13.873v-14.303h6.865c12.439,0,21.523-6.222,21.523-18.021v-0.142
				C396.734,137.663,388.584,131.154,375.924,131.154"/>
		</g>
	</g>
	<polygon fill="#FFFFFF" points="101.986,93.797 121.189,112.779 130.786,103.069 101.986,74.602 101.986,64.805 112.088,74.792 
		121.685,65.083 95.162,38.864 68.638,65.083 78.232,74.792 88.335,64.805 88.335,74.602 59.537,103.069 69.132,112.779 
		88.335,93.797 88.335,106.289 55.338,138.906 64.934,148.617 88.335,125.481 88.335,181.168 101.986,181.168 101.986,125.481 
		125.39,148.617 134.984,138.906 101.986,106.289 	"/>
	<path fill="#FFFFFF" d="M312.918,18.432l5.125,5.124l-5.125,5.123l-5.121-5.123L312.918,18.432z M332.891,23.558L312.918,3.579
		l-19.971,19.979l19.971,19.971L332.891,23.558z"/>
	<rect x="215.422" y="64.125" fill="#FFFFFF" width="48.406" height="13.651"/>
	<polygon fill="#FFFFFF" points="239.625,134.054 233.906,126.308 223.232,134.19 231.379,145.221 204.029,182.264 220.521,182.264 
		239.625,156.392 258.729,182.264 275.221,182.264 247.871,145.221 256.018,134.19 245.344,126.308 	"/>
	<polygon fill="#FFFFFF" points="229.48,182.264 249.771,182.264 239.623,168.607 	"/>
</g>
<g>
	<path fill="#FFFFFF" d="M138.552,269.152c0-1.248,0.85-2.084,1.993-2.084c1.172,0,1.84,0.771,1.84,2.006v3.885h0.992v-4.129
		c0-1.584-0.939-2.664-2.55-2.664c-1.144,0-1.839,0.58-2.276,1.301v-3.9h-0.991v9.393h0.991L138.552,269.152L138.552,269.152
		L138.552,269.152z M133.597,267.184h2.112v-0.873h-2.112v-2.012h-0.99v2.012h-0.926v0.873h0.926v4.014
		c0,1.352,0.812,1.879,1.88,1.879c0.475,0,0.849-0.104,1.196-0.283v-0.85c-0.348,0.168-0.631,0.232-0.966,0.232
		c-0.669,0-1.12-0.295-1.12-1.105V267.184z M129.137,270.502c0,0.928-0.875,1.701-2.355,1.701s-2.355-0.773-2.355-1.701
		c0-1.016,1.044-1.723,2.355-1.723C128.095,268.779,129.137,269.486,129.137,270.502 M128.84,266.281c0,0.992-0.912,1.66-2.059,1.66
		c-1.144,0-2.06-0.668-2.06-1.66c0-0.914,0.886-1.568,2.06-1.568C127.952,264.713,128.84,265.383,128.84,266.281 M130.166,270.516
		c0-1.08-0.784-1.814-1.853-2.213c0.836-0.385,1.543-1.029,1.543-2.086c0-1.402-1.427-2.391-3.075-2.391s-3.074,0.988-3.074,2.391
		c0,1.057,0.707,1.701,1.543,2.086c-1.082,0.389-1.854,1.146-1.854,2.227c0,1.52,1.467,2.561,3.385,2.561
		C128.697,273.09,130.166,272.061,130.166,270.516 M118.691,264.738c0.978,0,1.814,0.67,1.814,1.725c0,0.9-0.503,1.598-1.878,2.832
		l-3.269,2.883v0.783h6.291v-0.926h-4.773l2.407-2.135c1.582-1.379,2.277-2.189,2.277-3.516c0-1.48-1.158-2.559-2.794-2.559
		c-1.581,0-2.431,0.707-3.241,1.916l0.745,0.541C116.993,265.279,117.664,264.738,118.691,264.738 M107.869,267.184h2.112v-0.873
		h-2.112v-2.012h-0.99v2.012h-0.927v0.873h0.927v4.014c0,1.352,0.811,1.879,1.879,1.879c0.476,0,0.85-0.104,1.196-0.283v-0.85
		c-0.346,0.168-0.63,0.232-0.965,0.232c-0.669,0-1.12-0.295-1.12-1.105V267.184L107.869,267.184z M104.417,271.096v-0.025
		c0-1.197-1.105-1.596-2.135-1.906c-0.888-0.27-1.713-0.514-1.713-1.145v-0.025c0-0.553,0.503-0.965,1.286-0.965
		c0.645,0,1.354,0.244,1.971,0.643l0.449-0.746c-0.683-0.449-1.582-0.732-2.393-0.732c-1.313,0-2.265,0.76-2.265,1.902v0.027
		c0,1.223,1.157,1.582,2.2,1.877c0.873,0.244,1.661,0.502,1.661,1.172v0.025c0,0.643-0.58,1.057-1.378,1.057
		c-0.786,0-1.583-0.311-2.305-0.852l-0.501,0.709c0.747,0.604,1.801,0.977,2.754,0.977
		C103.374,273.09,104.417,272.357,104.417,271.096 M96.387,270.117c0,1.248-0.861,2.086-1.993,2.086
		c-1.171,0-1.841-0.773-1.841-2.008v-3.885h-0.992v4.131c0,1.58,0.941,2.664,2.55,2.664c1.144,0,1.826-0.58,2.276-1.303v1.158h0.979
		v-6.648h-0.979V270.117L96.387,270.117z M88.19,269.307c0,1.363-1.187,2.266-2.446,2.266c-1.234,0-2.305-0.914-2.305-2.277
		c0-1.391,1.045-2.252,2.305-2.252S88.19,267.932,88.19,269.307 M89.143,271.803v-5.492H88.15v1.193
		c-0.541-0.719-1.35-1.338-2.6-1.338c-1.583,0-3.127,1.197-3.127,3.152c0,1.943,1.532,3.125,3.127,3.125
		c1.224,0,2.034-0.629,2.613-1.402v0.787c0,1.557-0.953,2.367-2.42,2.367c-0.952,0-1.801-0.297-2.562-0.85l-0.449,0.771
		c0.89,0.617,1.918,0.928,3.023,0.928C87.804,275.047,89.143,273.951,89.143,271.803 M79.355,270.117
		c0,1.248-0.862,2.086-1.995,2.086c-1.171,0-1.84-0.773-1.84-2.008v-3.885h-0.99v4.131c0,1.58,0.939,2.664,2.548,2.664
		c1.145,0,1.827-0.58,2.277-1.303v1.158h0.979v-6.648h-0.979V270.117L79.355,270.117z M70.406,269.668h-4.104l2.058-4.596
		L70.406,269.668z M68.849,263.889h-0.953l-4.104,9.07h1.041l1.069-2.379h4.903l1.053,2.379h1.096L68.849,263.889z M56.611,274.08
		l0.155,0.451c0.978-0.219,1.429-0.721,1.429-1.762v-1.158h-1.186v1.35h0.464C57.524,273.516,57.255,273.852,56.611,274.08
		 M55.995,266.311h-1.054l-2.137,5.543l-2.419-5.543h-1.094l3.025,6.627c-0.399,0.938-0.773,1.246-1.364,1.246
		c-0.425,0-0.72-0.078-1.042-0.246l-0.334,0.787c0.45,0.217,0.862,0.334,1.415,0.334c1.005,0,1.647-0.502,2.212-1.879
		L55.995,266.311z M45.043,269.59c0.81,0,1.468,0.143,1.957,0.283v0.643c0,1.055-1.004,1.803-2.228,1.803
		c-0.899,0-1.673-0.488-1.673-1.338S43.795,269.59,45.043,269.59 M45.006,267.094c1.248,0,1.981,0.617,1.981,1.812v0.232
		c-0.592-0.166-1.197-0.281-2.047-0.281c-1.685,0-2.845,0.744-2.845,2.162c0,1.389,1.25,2.084,2.486,2.084
		c1.171,0,1.943-0.541,2.407-1.146v1.002h0.952v-4.064c0-1.748-1.017-2.676-2.831-2.676c-0.964,0-1.687,0.217-2.42,0.555
		l0.297,0.811C43.602,267.299,44.221,267.094,45.006,267.094 M39.164,269.629c0,1.557-1.171,2.584-2.407,2.584
		c-1.261,0-2.343-1.002-2.343-2.584c0-1.621,1.056-2.574,2.343-2.574C37.992,267.055,39.164,268.084,39.164,269.629 M40.116,272.961
		v-9.393h-0.992v4.016c-0.514-0.746-1.311-1.418-2.547-1.418c-1.596,0-3.178,1.287-3.178,3.477c0,2.201,1.583,3.463,3.178,3.463
		c1.222,0,2.007-0.684,2.547-1.482v1.338H40.116L40.116,272.961z M31.265,266.311h-0.99v6.648h0.99V266.311z M31.344,263.762h-1.132
		v1.092h1.132V263.762z M25.788,270.312c0-2.01,1.185-3.053,2.638-3.053h0.077v-1.066c-1.26-0.053-2.226,0.746-2.715,1.852v-1.734
		h-0.991v6.648h0.991V270.312z M23.096,263.953h-6.474v9.008h1.017v-3.924h4.877v-0.926h-4.878v-3.219h5.456v-0.939H23.096z"/>
	<path fill="#FFFFFF" d="M108.247,250.494c0-1.248,0.85-2.088,1.995-2.088c1.17,0,1.841,0.771,1.841,2.01v3.887h0.991v-4.131
		c0-1.586-0.939-2.664-2.548-2.664c-1.146,0-1.842,0.578-2.278,1.299v-1.16h-0.989v6.654h0.989L108.247,250.494L108.247,250.494
		L108.247,250.494z M100.862,247.623h-0.826l-1.786,5.367l-1.751-5.342h-1.056l2.328,6.705h0.875l1.803-5.25l1.787,5.25h0.863
		l2.343-6.705h-1.029l-1.75,5.342L100.862,247.623z M93.209,250.996c0,1.426-1.006,2.572-2.447,2.572
		c-1.401,0-2.458-1.158-2.458-2.6s0.993-2.586,2.433-2.586C92.14,248.383,93.209,249.541,93.209,250.996 M94.226,250.969
		c0-1.891-1.469-3.461-3.465-3.461c-2.006,0-3.475,1.596-3.475,3.488c0,1.891,1.454,3.459,3.449,3.459
		C92.745,254.457,94.226,252.861,94.226,250.969 M84.24,250.969c0,1.559-1.173,2.586-2.407,2.586c-1.261,0-2.342-1.002-2.342-2.586
		c0-1.621,1.055-2.574,2.342-2.574C83.067,248.395,84.24,249.426,84.24,250.969 M85.192,254.303v-9.395h-0.989v4.016
		c-0.516-0.746-1.313-1.416-2.551-1.416c-1.595,0-3.177,1.287-3.177,3.477c0,2.197,1.582,3.461,3.177,3.461
		c1.225,0,2.01-0.684,2.551-1.48v1.338H85.192L85.192,254.303z M72.649,247.623h-0.823l-1.789,5.367l-1.75-5.342h-1.056l2.329,6.705
		h0.875l1.801-5.25l1.79,5.25h0.861l2.341-6.705h-1.028l-1.75,5.342L72.649,247.623z M64.996,250.996
		c0,1.426-1.003,2.572-2.445,2.572c-1.403,0-2.457-1.158-2.457-2.6s0.991-2.586,2.432-2.586
		C63.928,248.383,64.996,249.541,64.996,250.996 M66.013,250.969c0-1.891-1.467-3.461-3.463-3.461c-2.006,0-3.474,1.596-3.474,3.488
		c0,1.891,1.455,3.459,3.449,3.459C64.531,254.457,66.013,252.861,66.013,250.969 M56.958,244.908h-0.99v9.395h0.99V244.908z
		 M48.302,247.545c0-0.822,0.747-1.465,1.919-1.465c0.926,0,1.762,0.295,2.598,0.977l0.592-0.785
		c-0.913-0.732-1.852-1.105-3.165-1.105c-1.712,0-2.959,1.029-2.959,2.471c0,1.494,0.952,2.16,3.023,2.611
		c1.892,0.398,2.342,0.875,2.342,1.725c0,0.914-0.797,1.543-2.006,1.543c-1.25,0-2.149-0.424-3.09-1.271l-0.631,0.746
		c1.082,0.967,2.251,1.439,3.681,1.439c1.789,0,3.075-1.002,3.075-2.559c0-1.391-0.926-2.125-2.933-2.561
		C48.767,248.885,48.302,248.408,48.302,247.545"/>
	<path fill="#FFFFFF" d="M141.983,235.644h3.01v-3.23l3.399-5.777h-3.334l-1.558,2.961l-1.544-2.961h-3.371l3.397,5.816V235.644z
		 M130.592,235.644h3.011v-6.461h2.651v-2.547h-8.314v2.547h2.651L130.592,235.644L130.592,235.644z M119.943,230.919v-1.762h1.311
		c0.695,0,1.146,0.284,1.146,0.863v0.024c0,0.554-0.437,0.874-1.158,0.874H119.943L119.943,230.919z M116.933,235.644h3.012v-2.575
		h0.616h0.026l1.699,2.575h3.436l-2.097-3.063c1.093-0.528,1.775-1.442,1.775-2.753V229.8c0-0.927-0.284-1.594-0.825-2.135
		c-0.628-0.631-1.646-1.029-3.24-1.029h-4.402V235.644L116.933,235.644z M108.245,232.297l0.824-2.188l0.824,2.188H108.245z
		 M103.807,235.644h3.217l0.464-1.209h3.15l0.477,1.209h3.27l-3.797-9.073h-2.985L103.807,235.644z M97.289,231.05v-2.01h0.822
		c0.799,0,1.275,0.336,1.275,0.992v0.025c0,0.645-0.515,0.993-1.288,0.993L97.289,231.05L97.289,231.05L97.289,231.05z
		 M94.277,235.644h3.01V233.2h0.979c2.431,0,4.093-1.159,4.093-3.335v-0.024c0-2.139-1.637-3.205-4.03-3.205h-4.053v9.008H94.277
		L94.277,235.644z M82.296,235.835c1.635,0,2.998-0.552,3.977-1.35v-4.169H81.91v1.93h1.544v0.901
		c-0.23,0.128-0.516,0.204-1.029,0.204c-1.261,0-2.148-0.875-2.148-2.148v-0.025c0-1.223,0.85-2.123,2.02-2.123
		c0.745,0,1.402,0.283,1.995,0.784l1.685-2.032c-0.978-0.85-2.227-1.364-3.77-1.364c-2.844,0-4.968,2.006-4.968,4.695v0.028
		C77.238,233.958,79.49,235.835,82.296,235.835 M65.176,235.644h2.987v-4.157l3.347,4.157h2.676v-9.008h-2.985v3.977l-3.205-3.977
		h-2.819v9.008H65.176z M58.773,235.644h3.012v-9.008h-3.012V235.644z M46.349,235.644h2.985v-4.157l3.346,4.157h2.677v-9.008
		h-2.985v3.977l-3.205-3.977h-2.818V235.644z M35.364,235.644h7.749v-2.471h-4.787v-0.979h4.4v-2.173h-4.4v-0.914h4.721v-2.471
		h-7.683L35.364,235.644L35.364,235.644z M27.479,231.05v-2.01h0.824c0.798,0,1.273,0.336,1.273,0.992v0.025
		c0,0.645-0.515,0.993-1.286,0.993L27.479,231.05L27.479,231.05L27.479,231.05z M24.467,235.644h3.012V233.2h0.978
		c2.432,0,4.093-1.159,4.093-3.335v-0.024c0-2.139-1.636-3.205-4.027-3.205h-4.055V235.644L24.467,235.644z M16.535,233.172
		c-1.158,0-1.891-0.966-1.891-2.034v-0.024c0-1.056,0.721-2.008,1.866-2.008c1.159,0,1.891,0.965,1.891,2.032v0.027
		C18.401,232.222,17.681,233.172,16.535,233.172 M16.51,235.835c2.78,0,4.929-2.085,4.929-4.697v-0.024
		c0-2.612-2.125-4.672-4.904-4.672c-2.779,0-4.927,2.085-4.927,4.696v0.027C11.607,233.778,13.729,235.835,16.51,235.835"/>
</g>
<g>
	<path fill="#FFFFFF" d="M387.871,269.056c0-1.247,0.851-2.084,1.995-2.084c1.171,0,1.841,0.771,1.841,2.007v3.885h0.991v-4.13
		c0-1.583-0.939-2.664-2.548-2.664c-1.146,0-1.841,0.58-2.278,1.301v-3.9h-0.991v9.393h0.991L387.871,269.056L387.871,269.056
		L387.871,269.056z M382.918,267.087h2.11v-0.874h-2.11v-2.011h-0.991v2.011h-0.926v0.874h0.926v4.016
		c0,1.349,0.811,1.878,1.878,1.878c0.479,0,0.851-0.104,1.198-0.284v-0.849c-0.348,0.167-0.63,0.231-0.966,0.231
		c-0.67,0-1.121-0.295-1.121-1.105v-3.887H382.918z M378.055,266.66c0,1.044-0.86,2.048-2.239,2.048
		c-1.312,0-2.213-0.823-2.213-1.98c0-1.134,0.811-2.124,2.161-2.124C377.115,264.604,378.055,265.504,378.055,266.66
		 M379.291,268.13c0-1.815-0.413-2.792-1.121-3.503c-0.579-0.577-1.337-0.926-2.367-0.926c-1.917,0-3.244,1.353-3.244,3.076
		c0,1.637,1.287,2.807,3.142,2.807c1.246,0,2.06-0.656,2.548-1.441c0.039,2.304-1.054,3.95-2.676,3.95
		c-0.799,0-1.481-0.322-2.215-0.965l-0.591,0.784c0.759,0.631,1.607,1.107,2.778,1.107
		C377.771,273.02,379.291,270.998,379.291,268.13 M367.672,264.643c0.977,0,1.813,0.669,1.813,1.725
		c0,0.901-0.503,1.596-1.879,2.831l-3.269,2.883v0.782h6.292v-0.926h-4.773l2.406-2.134c1.584-1.378,2.277-2.189,2.277-3.515
		c0-1.48-1.159-2.56-2.792-2.56c-1.585,0-2.433,0.707-3.244,1.916l0.747,0.541C365.973,265.184,366.642,264.643,367.672,264.643
		 M356.848,267.087h2.111v-0.874h-2.111v-2.011h-0.991v2.011h-0.926v0.874h0.926v4.016c0,1.349,0.811,1.878,1.879,1.878
		c0.477,0,0.85-0.104,1.195-0.284v-0.849c-0.346,0.167-0.628,0.231-0.964,0.231c-0.67,0-1.119-0.295-1.119-1.105V267.087
		L356.848,267.087z M353.397,270.998v-0.024c0-1.198-1.108-1.596-2.137-1.905c-0.889-0.271-1.712-0.514-1.712-1.146v-0.025
		c0-0.554,0.503-0.966,1.288-0.966c0.642,0,1.35,0.245,1.97,0.644l0.448-0.746c-0.682-0.449-1.583-0.732-2.393-0.732
		c-1.312,0-2.265,0.759-2.265,1.902v0.027c0,1.224,1.158,1.583,2.2,1.878c0.875,0.244,1.659,0.502,1.659,1.171v0.026
		c0,0.643-0.577,1.055-1.377,1.055c-0.782,0-1.581-0.31-2.304-0.85l-0.5,0.707c0.746,0.604,1.803,0.978,2.753,0.978
		C352.354,272.993,353.397,272.261,353.397,270.998 M345.367,270.021c0,1.247-0.861,2.085-1.995,2.085
		c-1.171,0-1.84-0.772-1.84-2.007v-3.886h-0.99v4.13c0,1.582,0.938,2.665,2.546,2.665c1.146,0,1.828-0.58,2.279-1.302v1.158h0.977
		v-6.649h-0.977V270.021L345.367,270.021z M337.167,269.21c0,1.364-1.183,2.266-2.442,2.266c-1.238,0-2.305-0.913-2.305-2.277
		c0-1.39,1.042-2.253,2.305-2.253C335.984,266.945,337.167,267.834,337.167,269.21 M338.12,271.706v-5.493h-0.991v1.194
		c-0.541-0.72-1.352-1.338-2.599-1.338c-1.584,0-3.128,1.197-3.128,3.153c0,1.941,1.531,3.124,3.128,3.124
		c1.223,0,2.031-0.628,2.611-1.401v0.786c0,1.557-0.952,2.368-2.418,2.368c-0.952,0-1.803-0.297-2.561-0.852l-0.452,0.773
		c0.889,0.617,1.919,0.927,3.025,0.927C336.782,274.95,338.12,273.855,338.12,271.706 M328.335,270.021
		c0,1.247-0.861,2.085-1.995,2.085c-1.171,0-1.841-0.772-1.841-2.007v-3.886h-0.989v4.13c0,1.582,0.938,2.665,2.546,2.665
		c1.146,0,1.827-0.58,2.279-1.302v1.158h0.977v-6.649h-0.977V270.021z M319.385,269.571h-4.105l2.061-4.597L319.385,269.571z
		 M317.826,263.793h-0.949l-4.105,9.07h1.042l1.067-2.379h4.902l1.057,2.379h1.094L317.826,263.793z M305.59,273.984l0.152,0.45
		c0.979-0.219,1.43-0.721,1.43-1.763v-1.158h-1.184v1.35h0.461C306.504,273.419,306.232,273.755,305.59,273.984 M304.975,266.213
		h-1.055l-2.137,5.545l-2.418-5.545h-1.095l3.022,6.628c-0.396,0.938-0.771,1.246-1.363,1.246c-0.424,0-0.721-0.077-1.043-0.246
		l-0.334,0.787c0.449,0.218,0.861,0.334,1.415,0.334c1.002,0,1.647-0.501,2.214-1.879L304.975,266.213z M294.023,269.493
		c0.81,0,1.465,0.143,1.954,0.282v0.644c0,1.056-1.003,1.803-2.225,1.803c-0.901,0-1.675-0.487-1.675-1.338
		C292.079,270.034,292.773,269.493,294.023,269.493 M293.984,266.997c1.247,0,1.98,0.617,1.98,1.813v0.231
		c-0.591-0.165-1.194-0.282-2.045-0.282c-1.687,0-2.845,0.745-2.845,2.163c0,1.39,1.247,2.085,2.483,2.085
		c1.17,0,1.943-0.541,2.406-1.146v1.002h0.954v-4.065c0-1.749-1.018-2.676-2.831-2.676c-0.965,0-1.688,0.218-2.419,0.554
		l0.294,0.812C292.58,267.203,293.199,266.997,293.984,266.997 M288.141,269.532c0,1.557-1.17,2.585-2.406,2.585
		c-1.26,0-2.34-1.003-2.34-2.585c0-1.62,1.053-2.574,2.34-2.574C286.971,266.958,288.141,267.988,288.141,269.532 M289.094,272.863
		v-9.393h-0.992v4.018c-0.514-0.748-1.311-1.418-2.547-1.418c-1.596,0-3.178,1.286-3.178,3.476c0,2.2,1.582,3.463,3.178,3.463
		c1.223,0,2.006-0.683,2.547-1.482v1.338L289.094,272.863L289.094,272.863z M278.457,270.215c0-2.009,1.184-3.051,2.639-3.051h0.078
		v-1.067c-1.262-0.052-2.227,0.746-2.716,1.852v-1.735h-0.989v6.65h0.989L278.457,270.215L278.457,270.215z M273.998,270.021
		c0,1.247-0.862,2.085-1.994,2.085c-1.171,0-1.84-0.772-1.84-2.007v-3.886h-0.992v4.13c0,1.582,0.941,2.665,2.549,2.665
		c1.146,0,1.828-0.58,2.277-1.302v1.158h0.979v-6.649h-0.979V270.021z M265.265,267.087h2.112v-0.874h-2.112v-2.011h-0.989v2.011
		h-0.928v0.874h0.928v4.016c0,1.349,0.81,1.878,1.877,1.878c0.478,0,0.851-0.104,1.197-0.284v-0.849
		c-0.347,0.167-0.631,0.231-0.967,0.231c-0.668,0-1.118-0.295-1.118-1.105V267.087L265.265,267.087z M258.774,269.493
		c0.81,0,1.466,0.143,1.954,0.282v0.644c0,1.056-1.002,1.803-2.227,1.803c-0.898,0-1.672-0.487-1.672-1.338
		C256.83,270.034,257.523,269.493,258.774,269.493 M258.734,266.997c1.248,0,1.982,0.617,1.982,1.813v0.231
		c-0.592-0.165-1.197-0.282-2.047-0.282c-1.686,0-2.844,0.745-2.844,2.163c0,1.39,1.248,2.085,2.483,2.085
		c1.171,0,1.944-0.541,2.408-1.146v1.002h0.952v-4.065c0-1.749-1.018-2.676-2.832-2.676c-0.965,0-1.686,0.218-2.419,0.554
		l0.295,0.812C257.332,267.203,257.949,266.997,258.734,266.997 M248.679,266.109c0-0.823,0.747-1.467,1.917-1.467
		c0.926,0,1.764,0.296,2.6,0.978l0.592-0.785c-0.914-0.733-1.853-1.105-3.166-1.105c-1.712,0-2.96,1.029-2.96,2.47
		c0,1.493,0.953,2.161,3.023,2.611c1.894,0.399,2.343,0.878,2.343,1.727c0,0.914-0.797,1.544-2.006,1.544
		c-1.25,0-2.149-0.426-3.09-1.274l-0.631,0.747c1.08,0.965,2.252,1.439,3.68,1.439c1.79,0,3.076-1.002,3.076-2.56
		c0-1.391-0.926-2.124-2.933-2.562C249.141,267.447,248.679,266.972,248.679,266.109"/>
	<path fill="#FFFFFF" d="M342.513,250.898c0,1.43-1.001,2.575-2.442,2.575c-1.404,0-2.459-1.16-2.459-2.601
		c0-1.441,0.993-2.588,2.433-2.588C341.447,248.285,342.513,249.444,342.513,250.898 M343.529,250.873
		c0-1.893-1.465-3.462-3.459-3.462c-2.01,0-3.477,1.597-3.477,3.487c0,1.892,1.455,3.461,3.45,3.461
		C342.051,254.359,343.529,252.764,343.529,250.873 M332.747,250.41l2.794-2.858h-1.235l-3.59,3.745v-6.485h-0.991v9.395h0.991
		v-1.736l1.351-1.363l2.381,3.1h1.184L332.747,250.41z M322.379,250.513c0.129-1.301,1.005-2.266,2.162-2.266
		c1.325,0,2.021,1.056,2.124,2.266H322.379z M322.379,251.245h5.276c0.013-0.115,0.013-0.219,0.013-0.308
		c0-1.957-1.133-3.527-3.1-3.527c-1.842,0-3.192,1.546-3.192,3.476c0,2.072,1.491,3.475,3.319,3.475
		c1.263,0,2.072-0.502,2.741-1.248l-0.616-0.554c-0.54,0.566-1.185,0.938-2.098,0.938
		C323.551,253.497,322.52,252.687,322.379,251.245 M314.531,250.398c0-1.251,0.851-2.087,1.995-2.087
		c1.171,0,1.841,0.772,1.841,2.007v3.887h0.99v-4.131c0-1.583-0.938-2.664-2.547-2.664c-1.146,0-1.841,0.58-2.279,1.3v-1.159h-0.99
		v6.654h0.99V250.398L314.531,250.398z M308.23,250.835c0.812,0,1.469,0.141,1.957,0.282v0.645c0,1.053-1.004,1.802-2.227,1.802
		c-0.899,0-1.674-0.49-1.674-1.339C306.288,251.373,306.984,250.835,308.23,250.835 M308.195,248.337c1.247,0,1.98,0.62,1.98,1.814
		v0.231c-0.592-0.167-1.197-0.283-2.048-0.283c-1.685,0-2.843,0.747-2.843,2.163c0,1.39,1.248,2.084,2.483,2.084
		c1.171,0,1.944-0.539,2.407-1.144v1.003h0.952v-4.065c0-1.752-1.019-2.678-2.831-2.678c-0.966,0-1.687,0.22-2.42,0.555l0.296,0.81
		C306.791,248.544,307.41,248.337,308.195,248.337 M300.112,249.136l3.86-3.938h-1.312l-5.174,5.38v-5.38h-1.017v9.008h1.016v-2.418
		l1.919-1.945l3.461,4.364h1.273L300.112,249.136z"/>
	<path fill="#FFFFFF" d="M341.29,235.546h3.013v-6.459h2.65v-2.549h-8.313v2.549h2.651L341.29,235.546L341.29,235.546z
		 M326.922,235.546h2.986v-4.156l3.345,4.156h2.677v-9.008h-2.986v3.976l-3.203-3.976h-2.819L326.922,235.546L326.922,235.546z
		 M315.937,235.546h7.746v-2.469h-4.786V232.1h4.401v-2.176h-4.401v-0.913h4.723v-2.472h-7.683V235.546z M306.852,235.61h2.882
		l3.655-9.072h-3.319l-1.751,5.057l-1.752-5.057h-3.369L306.852,235.61z M293.048,235.546h7.746v-2.469h-4.786V232.1h4.402v-2.176
		h-4.402v-0.913h4.723v-2.472h-7.683V235.546L293.048,235.546z"/>
</g>
<line fill="#FFFFFF" stroke="#FFFFFF" stroke-width="0.577" x1="197.847" y1="286.458" x2="197.847" y2="215.042"/>
</svg>
