<svg xmlns="http://www.w3.org/2000/svg" width="657" height="471.5" viewBox="0 0 657 471.5"><path fill="#FFF" d="M53.295 124.425c0 4.868-4.038 7.599-11.044 7.599H24.442v-15.317h17.572c7.718 0 11.28 2.968 11.28 7.48l.001.238zM24.442 85.954h14.96c6.887 0 10.45 2.612 10.45 7.124v.238c0 4.867-3.92 7.244-10.924 7.244H24.442V85.954zm35.383 21.134c7.362-3.205 12.824-8.905 12.824-18.522v-.238c0-5.697-2.019-10.09-5.342-13.417-4.868-4.866-12.231-7.478-22.68-7.478H1.999v83.116h42.864c19.83 0 31.466-8.668 31.466-22.917v-.237c0-11.283-6.411-16.98-16.504-20.307M263.785 87.379h15.08c7.718 0 12.466 3.325 12.466 9.855v.237c0 6.055-4.512 9.855-12.348 9.855h-15.198V87.379zm0 37.996h10.093l16.742 25.175h26.597l-19.83-28.975c10.331-4.393 17.1-12.823 17.1-25.527v-.239c0-8.193-2.495-14.605-7.363-19.353-5.579-5.701-14.367-9.024-27.07-9.024h-39.302v83.118h23.034l-.001-25.175zM285.083 277.164c-11.636 0-19.83-9.734-19.83-22.203v-.238c0-12.105 8.193-21.965 19.83-21.965 7.956 0 13.417 3.799 18.167 9.736l17.336-13.418c-7.361-10.215-18.285-17.338-35.266-17.338-25.171 0-43.814 19-43.814 43.223v.238c0 24.814 19.117 42.982 42.864 42.982 18.406 0 28.973-7.957 36.809-18.764l-17.335-12.354c-4.989 6.066-10.093 10.101-18.761 10.101M516.139 245.581l-19.83-32.179h-24.338v83.118h22.558v-47.495l21.136 32.295h.474l21.255-32.533v47.733h22.916v-83.118h-24.342zM632.27 243.917c0 6.532-4.983 10.806-13.179 10.806h-10.925v-21.965h10.808c8.312 0 13.296 3.799 13.296 10.924v.235zm-11.517-30.515h-35.621v83.117h23.034v-23.748h11.399c20.655 0 35.736-10.33 35.736-29.922v-.236c.005-18.404-13.53-29.211-34.548-29.211M165.912 151.375l31.884 31.518 15.933-16.122-47.817-47.267v-16.266l16.773 16.581 15.934-16.121-44.04-43.533-44.041 43.533 15.934 16.121 16.773-16.581v16.266l-47.817 47.267 15.932 16.122 31.885-31.518v20.741l-54.789 54.157 15.932 16.123 38.857-38.412v92.461h22.667v-92.461l38.857 38.412 15.932-16.123-54.789-54.157zM516.139 26.24l8.508 8.508-8.508 8.505-8.504-8.505 8.504-8.508zm33.163 8.512L516.139 1.579l-33.16 33.173 33.16 33.16 33.163-33.16zM354.259 102.109h80.371v22.667h-80.371zM394.443 218.217l-9.495-12.862-17.721 13.088 13.526 18.316-45.411 61.505h27.383l31.718-42.957 31.721 42.957h27.383l-45.411-61.505 13.526-18.316-17.722-13.088z"/><path fill="#FFF" d="M377.6 298.264h33.689l-16.848-22.676z"/><g><g fill="#FFF"><path d="M260.095 448.45c0-1.906 1.297-3.184 3.045-3.184 1.79 0 2.811 1.178 2.811 3.065v5.935h1.515v-6.309c0-2.418-1.436-4.07-3.894-4.07-1.748 0-2.81.886-3.478 1.988v-5.958h-1.515v14.349h1.515v-5.816zm-7.568-3.009h3.226v-1.334h-3.226v-3.07h-1.513v3.07h-1.415v1.334h1.415v6.134c0 2.062 1.239 2.869 2.87 2.869.728 0 1.297-.158 1.828-.433v-1.297c-.53.256-.962.354-1.474.354-1.021 0-1.711-.451-1.711-1.689v-5.938zm-6.815 5.072c0 1.416-1.336 2.596-3.597 2.596s-3.597-1.18-3.597-2.596c0-1.554 1.593-2.634 3.597-2.634 2.006 0 3.597 1.08 3.597 2.634m-.453-6.449c0 1.515-1.395 2.537-3.145 2.537-1.748 0-3.145-1.022-3.145-2.537 0-1.396 1.355-2.397 3.145-2.397s3.145 1.024 3.145 2.397m2.026 6.468c0-1.649-1.198-2.77-2.83-3.381 1.277-.589 2.357-1.572 2.357-3.184 0-2.144-2.18-3.655-4.697-3.655s-4.697 1.512-4.697 3.655c0 1.611 1.08 2.595 2.359 3.184-1.653.592-2.832 1.751-2.832 3.401 0 2.321 2.241 3.911 5.17 3.911s5.17-1.57 5.17-3.931m-17.527-8.824c1.494 0 2.772 1.021 2.772 2.634 0 1.376-.769 2.438-2.87 4.325l-4.994 4.402v1.197h9.612v-1.414h-7.292l3.677-3.261c2.417-2.105 3.478-3.344 3.478-5.369 0-2.261-1.769-3.91-4.266-3.91-2.417 0-3.714 1.08-4.953 2.927l1.141.825c1.1-1.53 2.124-2.356 3.695-2.356m-16.532 3.733h3.226v-1.334h-3.226v-3.07h-1.513v3.07h-1.417v1.334h1.417v6.134c0 2.062 1.238 2.869 2.871 2.869.727 0 1.297-.158 1.827-.433v-1.297c-.529.256-.963.354-1.474.354-1.021 0-1.711-.451-1.711-1.689v-5.938zm-5.274 5.976v-.037c0-1.83-1.689-2.438-3.263-2.911-1.355-.413-2.615-.785-2.615-1.749v-.039c0-.847.768-1.476 1.965-1.476.983 0 2.066.374 3.009.982l.688-1.14c-1.042-.686-2.418-1.118-3.657-1.118-2.006 0-3.459 1.159-3.459 2.906v.041c0 1.869 1.768 2.418 3.361 2.869 1.336.372 2.536.767 2.536 1.79v.039c0 .982-.885 1.613-2.104 1.613-1.2 0-2.417-.474-3.519-1.299l-.765 1.081c1.141.923 2.75 1.493 4.206 1.493 2.025.002 3.617-1.116 3.617-3.045m-12.266-1.493c0 1.906-1.318 3.185-3.047 3.185-1.79 0-2.812-1.18-2.812-3.066v-5.935h-1.514v6.309c0 2.416 1.437 4.07 3.893 4.07 1.749 0 2.792-.886 3.479-1.988v1.769h1.495v-10.159h-1.495v5.815zm-12.523-1.238c0 2.083-1.809 3.46-3.736 3.46-1.887 0-3.52-1.395-3.52-3.479 0-2.123 1.594-3.441 3.52-3.441 1.927 0 3.736 1.357 3.736 3.46m1.455 3.812v-8.391h-1.514v1.825c-.826-1.1-2.064-2.045-3.971-2.045-2.419 0-4.778 1.83-4.778 4.818 0 2.966 2.34 4.774 4.778 4.774 1.866 0 3.106-.96 3.989-2.142v1.201c0 2.377-1.453 3.617-3.695 3.617-1.455 0-2.75-.454-3.913-1.299l-.687 1.18c1.358.943 2.929 1.415 4.618 1.415 3.128.002 5.173-1.67 5.173-4.953m-14.95-2.574c0 1.906-1.317 3.185-3.047 3.185-1.789 0-2.811-1.18-2.811-3.066v-5.935h-1.513v6.309c0 2.416 1.435 4.07 3.892 4.07 1.748 0 2.791-.886 3.479-1.988v1.769h1.495v-10.159h-1.495v5.815zm-13.671-.687h-6.269l3.144-7.021 3.125 7.021zm-2.379-8.827h-1.455l-6.27 13.856h1.591l1.632-3.635h7.491l1.61 3.635h1.673l-6.272-13.856zm-18.694 15.569l.236.687c1.494-.333 2.183-1.101 2.183-2.692v-1.77h-1.811v2.062h.708c.079.848-.333 1.361-1.316 1.713m-.941-11.872h-1.61l-3.264 8.47-3.695-8.47h-1.672l4.621 10.124c-.61 1.433-1.181 1.904-2.084 1.904-.649 0-1.1-.118-1.591-.374l-.511 1.2c.688.333 1.317.511 2.162.511 1.535 0 2.517-.766 3.38-2.87l4.264-10.495zm-16.73 5.01c1.238 0 2.243.218 2.989.433v.982c0 1.613-1.534 2.753-3.401 2.753-1.375 0-2.556-.745-2.556-2.044 0-1.298 1.062-2.124 2.968-2.124m-.057-3.811c1.906 0 3.027.942 3.027 2.769v.354a10.892 10.892 0 00-3.128-.431c-2.574 0-4.344 1.139-4.344 3.303 0 2.124 1.908 3.186 3.796 3.186 1.789 0 2.968-.827 3.676-1.752v1.532h1.454v-6.211c0-2.671-1.554-4.088-4.324-4.088-1.474 0-2.577.333-3.697.847l.453 1.239c.942-.435 1.888-.748 3.087-.748m-8.925 3.872c0 2.378-1.789 3.949-3.677 3.949-1.927 0-3.578-1.533-3.578-3.949 0-2.476 1.612-3.933 3.578-3.933 1.888 0 3.677 1.573 3.677 3.933m1.455 5.089v-14.349h-1.515v6.136c-.785-1.142-2.003-2.166-3.891-2.166-2.438 0-4.856 1.966-4.856 5.309 0 3.361 2.419 5.29 4.856 5.29 1.866 0 3.066-1.043 3.891-2.263v2.043h1.515zm-13.52-10.16h-1.512v10.159h1.512v-10.159zm.12-3.893h-1.73v1.67h1.73v-1.67zm-8.486 10.007c0-3.069 1.809-4.66 4.029-4.66h.117v-1.631c-1.925-.079-3.4 1.14-4.146 2.829v-2.651h-1.515v10.159h1.515v-4.046zm-4.113-9.713h-9.889v13.759h1.553v-5.993h7.451v-1.414H75.39v-4.917h8.336v-1.435zM260.093 419.946c0-1.905 1.297-3.187 3.047-3.187 1.789 0 2.812 1.179 2.812 3.07v5.936h1.513v-6.311c0-2.421-1.434-4.069-3.89-4.069-1.751 0-2.813.885-3.481 1.985v-1.771h-1.512v10.165h1.512v-5.818zm-11.283-4.384h-1.26l-2.732 8.199-2.674-8.16h-1.61l3.557 10.243h1.336l2.752-8.021 2.732 8.021h1.317l3.578-10.243h-1.571l-2.674 8.16-2.751-8.199zm-11.691 5.151c0 2.181-1.535 3.93-3.737 3.93-2.142 0-3.754-1.768-3.754-3.97s1.514-3.95 3.714-3.95c2.145 0 3.777 1.768 3.777 3.99m1.553-.04c0-2.888-2.243-5.287-5.29-5.287-3.065 0-5.307 2.437-5.307 5.327 0 2.889 2.221 5.287 5.268 5.287 3.068 0 5.329-2.438 5.329-5.327m-15.254 0c0 2.379-1.788 3.952-3.676 3.952-1.926 0-3.576-1.534-3.576-3.952 0-2.478 1.61-3.931 3.576-3.931 1.888 0 3.676 1.572 3.676 3.931m1.455 5.093v-14.351h-1.512v6.133c-.787-1.141-2.006-2.162-3.894-2.162-2.438 0-4.854 1.966-4.854 5.308 0 3.359 2.416 5.287 4.854 5.287 1.869 0 3.068-1.043 3.894-2.259v2.044h1.512zm-19.16-10.204h-1.257l-2.734 8.199-2.672-8.16h-1.613l3.558 10.243h1.338l2.75-8.021 2.734 8.021h1.316l3.577-10.243h-1.571l-2.673 8.16-2.753-8.199zm-11.691 5.151c0 2.181-1.533 3.93-3.735 3.93-2.142 0-3.753-1.768-3.753-3.97s1.514-3.95 3.715-3.95c2.142 0 3.773 1.768 3.773 3.99m1.553-.04c0-2.888-2.24-5.287-5.289-5.287-3.065 0-5.306 2.437-5.306 5.327 0 2.889 2.222 5.287 5.268 5.287 3.065 0 5.327-2.438 5.327-5.327m-13.832-9.258h-1.513v14.351h1.513v-14.351zm-13.221 4.028c0-1.257 1.141-2.239 2.93-2.239 1.415 0 2.693.45 3.97 1.493l.904-1.2c-1.395-1.118-2.829-1.689-4.835-1.689-2.615 0-4.521 1.572-4.521 3.775 0 2.281 1.455 3.301 4.618 3.989 2.891.61 3.579 1.337 3.579 2.635 0 1.395-1.219 2.356-3.065 2.356-1.909 0-3.283-.647-4.72-1.944l-.963 1.142c1.651 1.475 3.439 2.2 5.622 2.2 2.732 0 4.698-1.532 4.698-3.911 0-2.123-1.415-3.245-4.48-3.911-3.028-.651-3.737-1.379-3.737-2.696M259.523 397.26h4.6v-4.935l5.191-8.825h-5.091l-2.38 4.523-2.358-4.523h-5.151l5.189 8.886v4.874zm-17.4 0h4.599v-9.868h4.051V383.5h-12.701v3.892h4.051v9.868zm-16.267-7.216v-2.691h2.004c1.062 0 1.75.434 1.75 1.319v.037c0 .846-.667 1.335-1.77 1.335h-1.984zm-4.599 7.216h4.6v-3.933h.983l2.595 3.933h5.249l-3.204-4.679c1.669-.806 2.712-2.202 2.712-4.205v-.042c0-1.415-.434-2.435-1.26-3.261-.96-.964-2.514-1.573-4.952-1.573h-6.723v13.76zm-13.27-5.111l1.258-3.343 1.259 3.343h-2.517zm-6.782 5.111h4.915l.708-1.846h4.815l.727 1.846h4.994l-5.8-13.86h-4.56l-5.799 13.86zm-9.956-7.016v-3.069h1.257c1.22 0 1.947.513 1.947 1.515v.039c0 .984-.785 1.516-1.966 1.516h-1.238zm-4.601 7.016h4.6v-3.733h1.494c3.715 0 6.252-1.77 6.252-5.092v-.039c0-3.265-2.499-4.896-6.155-4.896h-6.192v13.76zm-18.302.295c2.497 0 4.58-.843 6.076-2.062v-6.37h-6.665v2.948h2.359v1.378c-.353.195-.788.313-1.572.313-1.927 0-3.282-1.338-3.282-3.282v-.04c0-1.868 1.297-3.243 3.084-3.243 1.141 0 2.144.433 3.049 1.199l2.574-3.106c-1.494-1.298-3.4-2.084-5.759-2.084-4.345 0-7.589 3.066-7.589 7.174v.041c0 4.266 3.44 7.134 7.725 7.134m-26.151-.295h4.562v-6.349l5.112 6.349h4.088V383.5h-4.559v6.075l-4.896-6.075h-4.306v13.76zm-9.78 0h4.6V383.5h-4.6v13.76zm-18.98 0h4.56v-6.349l5.111 6.349h4.09V383.5h-4.561v6.075l-4.896-6.075h-4.304v13.76zm-16.78 0h11.835v-3.773h-7.312v-1.495h6.722v-3.319h-6.722v-1.398h7.213V383.5H96.655v13.76zm-12.046-7.016v-3.069h1.257c1.22 0 1.947.513 1.947 1.515v.039c0 .984-.786 1.516-1.965 1.516h-1.239zm-4.6 7.016h4.6v-3.733h1.494c3.715 0 6.252-1.77 6.252-5.092v-.039c0-3.265-2.499-4.896-6.153-4.896h-6.193v13.76zm-12.118-3.774c-1.769 0-2.89-1.475-2.89-3.107v-.037c0-1.613 1.102-3.068 2.852-3.068 1.771 0 2.889 1.475 2.889 3.105v.041c0 1.613-1.1 3.066-2.851 3.066m-.038 4.069c4.247 0 7.529-3.185 7.529-7.176v-.037c0-3.991-3.245-7.137-7.491-7.137-4.245 0-7.527 3.185-7.527 7.174v.041c0 3.992 3.242 7.135 7.489 7.135M589.264 448.45c0-1.906 1.299-3.184 3.047-3.184 1.79 0 2.812 1.178 2.812 3.065v5.935h1.515v-6.309c0-2.418-1.438-4.07-3.894-4.07-1.75 0-2.811.886-3.479 1.988v-5.958h-1.514v14.349h1.514v-5.816zm-7.568-3.009h3.226v-1.334h-3.226v-3.07h-1.512v3.07h-1.415v1.334h1.415v6.134c0 2.062 1.238 2.869 2.869 2.869.729 0 1.299-.158 1.829-.433v-1.297c-.53.256-.963.354-1.477.354-1.021 0-1.71-.451-1.71-1.689v-5.938zm-7.428-.65c0 1.594-1.316 3.127-3.421 3.127-2.005 0-3.38-1.258-3.38-3.024 0-1.732 1.238-3.245 3.301-3.245 2.065-.001 3.5 1.374 3.5 3.142m1.887 2.244c0-2.773-.631-4.265-1.712-5.35-.885-.883-2.044-1.415-3.616-1.415-2.929 0-4.954 2.065-4.954 4.698 0 2.5 1.965 4.288 4.798 4.288 1.905 0 3.144-1.003 3.891-2.202.06 3.52-1.61 6.035-4.087 6.035-1.219 0-2.262-.493-3.383-1.475l-.904 1.198c1.16.964 2.457 1.691 4.246 1.691 3.402.002 5.721-3.086 5.721-7.468m-17.75-5.327c1.493 0 2.772 1.021 2.772 2.634 0 1.376-.767 2.438-2.871 4.325l-4.993 4.402v1.197h9.612v-1.414h-7.293l3.676-3.261c2.42-2.105 3.481-3.344 3.481-5.369 0-2.261-1.771-3.91-4.267-3.91-2.419 0-3.716 1.08-4.954 2.927l1.141.825c1.102-1.53 2.124-2.356 3.696-2.356m-16.532 3.733h3.224v-1.334h-3.224v-3.07h-1.514v3.07h-1.415v1.334h1.415v6.134c0 2.062 1.239 2.869 2.871 2.869.727 0 1.297-.158 1.826-.433v-1.297c-.529.256-.961.354-1.474.354-1.021 0-1.71-.451-1.71-1.689v-5.938zm-5.272 5.976v-.037c0-1.83-1.691-2.438-3.263-2.911-1.359-.413-2.615-.785-2.615-1.749v-.039c0-.847.767-1.476 1.966-1.476.981 0 2.062.374 3.009.982l.686-1.14c-1.041-.686-2.418-1.118-3.656-1.118-2.004 0-3.459 1.159-3.459 2.906v.041c0 1.869 1.77 2.418 3.361 2.869 1.336.372 2.536.767 2.536 1.79v.039c0 .982-.885 1.613-2.105 1.613-1.197 0-2.415-.474-3.518-1.299l-.767 1.081c1.141.923 2.754 1.493 4.206 1.493 2.025.002 3.619-1.116 3.619-3.045m-12.268-1.493c0 1.906-1.316 3.185-3.046 3.185-1.79 0-2.812-1.18-2.812-3.066v-5.935h-1.513v6.309c0 2.416 1.435 4.07 3.891 4.07 1.751 0 2.792-.886 3.48-1.988v1.769h1.493v-10.159h-1.493v5.815zm-12.524-1.238c0 2.083-1.808 3.46-3.733 3.46-1.89 0-3.52-1.395-3.52-3.479 0-2.123 1.592-3.441 3.52-3.441 1.925 0 3.733 1.357 3.733 3.46m1.456 3.812v-8.391h-1.516v1.825c-.825-1.1-2.063-2.045-3.969-2.045-2.42 0-4.777 1.83-4.777 4.818 0 2.966 2.339 4.774 4.777 4.774 1.867 0 3.105-.96 3.99-2.142v1.201c0 2.377-1.455 3.617-3.695 3.617-1.454 0-2.753-.454-3.912-1.299l-.689 1.18c1.356.943 2.93 1.415 4.621 1.415 3.125.002 5.17-1.67 5.17-4.953m-14.949-2.574c0 1.906-1.317 3.185-3.047 3.185-1.789 0-2.812-1.18-2.812-3.066v-5.935h-1.513v6.309c0 2.416 1.434 4.07 3.892 4.07 1.75 0 2.791-.886 3.48-1.988v1.769h1.493v-10.159h-1.493v5.815zm-13.672-.687h-6.271l3.146-7.021 3.125 7.021zm-2.38-8.827h-1.452l-6.271 13.856h1.593l1.63-3.635h7.49l1.613 3.635h1.67l-6.273-13.856zm-18.693 15.569l.235.687c1.494-.333 2.183-1.101 2.183-2.692v-1.77h-1.808v2.062h.705c.081.848-.333 1.361-1.315 1.713m-.939-11.872h-1.612l-3.263 8.47-3.695-8.47h-1.671l4.618 10.124c-.608 1.433-1.178 1.904-2.082 1.904-.648 0-1.102-.118-1.594-.374l-.511 1.2c.688.333 1.317.511 2.162.511 1.532 0 2.517-.766 3.382-2.87l4.266-10.495zm-16.73 5.01c1.238 0 2.238.218 2.986.433v.982c0 1.613-1.533 2.753-3.399 2.753-1.377 0-2.557-.745-2.557-2.044.001-1.298 1.062-2.124 2.97-2.124m-.059-3.811c1.905 0 3.026.942 3.026 2.769v.354a10.865 10.865 0 00-3.125-.431c-2.576 0-4.345 1.139-4.345 3.303 0 2.124 1.906 3.186 3.794 3.186 1.788 0 2.968-.827 3.676-1.752v1.532h1.456v-6.211c0-2.671-1.553-4.088-4.325-4.088-1.474 0-2.577.333-3.695.847l.45 1.239c.944-.435 1.888-.748 3.088-.748m-8.926 3.872c0 2.378-1.788 3.949-3.676 3.949-1.925 0-3.576-1.533-3.576-3.949 0-2.476 1.61-3.933 3.576-3.933 1.888 0 3.676 1.573 3.676 3.933m1.456 5.089v-14.349h-1.516v6.136c-.785-1.142-2.004-2.166-3.891-2.166-2.438 0-4.855 1.966-4.855 5.309 0 3.361 2.417 5.29 4.855 5.29 1.868 0 3.065-1.043 3.891-2.263v2.043h1.516zm-16.249-4.046c0-3.069 1.81-4.66 4.031-4.66h.118v-1.631c-1.927-.079-3.401 1.14-4.149 2.829v-2.651h-1.512v10.159h1.512v-4.046zm-6.812-.297c0 1.906-1.317 3.185-3.047 3.185-1.788 0-2.81-1.18-2.81-3.066v-5.935h-1.516v6.309c0 2.416 1.438 4.07 3.894 4.07 1.75 0 2.792-.886 3.479-1.988v1.769h1.495v-10.159h-1.495v5.815zm-13.34-4.483h3.226v-1.334h-3.226v-3.07h-1.513v3.07h-1.415v1.334h1.415v6.134c0 2.062 1.238 2.869 2.869 2.869.729 0 1.299-.158 1.829-.433v-1.297c-.53.256-.965.354-1.477.354-1.02 0-1.709-.451-1.709-1.689v-5.938zm-9.916 3.676c1.237 0 2.24.218 2.985.433v.982c0 1.613-1.53 2.753-3.398 2.753-1.375 0-2.556-.745-2.556-2.044 0-1.298 1.059-2.124 2.969-2.124m-.06-3.811c1.907 0 3.027.942 3.027 2.769v.354a10.883 10.883 0 00-3.126-.431c-2.576 0-4.345 1.139-4.345 3.303 0 2.124 1.906 3.186 3.793 3.186 1.79 0 2.969-.827 3.678-1.752v1.532h1.455v-6.211c0-2.671-1.554-4.088-4.326-4.088-1.474 0-2.573.333-3.694.847l.45 1.239c.946-.435 1.888-.748 3.088-.748m-15.362-1.358c0-1.257 1.141-2.24 2.929-2.24 1.414 0 2.694.452 3.971 1.493l.903-1.199c-1.395-1.12-2.83-1.689-4.836-1.689-2.614 0-4.521 1.573-4.521 3.773 0 2.28 1.456 3.302 4.618 3.988 2.892.611 3.579 1.341 3.579 2.638 0 1.396-1.219 2.357-3.065 2.357-1.908 0-3.282-.65-4.72-1.945l-.963 1.142c1.65 1.473 3.439 2.198 5.622 2.198 2.732 0 4.698-1.531 4.698-3.911 0-2.124-1.415-3.243-4.48-3.912-3.028-.649-3.735-1.374-3.735-2.693M445.768 420.713c0 2.183-1.53 3.933-3.732 3.933-2.144 0-3.757-1.771-3.757-3.973 0-2.2 1.517-3.952 3.717-3.952 2.143 0 3.772 1.77 3.772 3.992m1.552-.04c0-2.89-2.238-5.287-5.285-5.287-3.068 0-5.309 2.438-5.309 5.327s2.222 5.287 5.269 5.287c3.067 0 5.325-2.438 5.325-5.327m-16.469-.707l4.265-4.365h-1.885l-5.485 5.72v-9.907h-1.513v14.353h1.513v-2.655l2.064-2.082 3.636 4.737h1.809l-4.404-5.801zm-15.839.158c.195-1.987 1.534-3.461 3.302-3.461 2.025 0 3.087 1.613 3.244 3.461h-6.546zm0 1.118h8.059c.019-.177.019-.334.019-.47 0-2.989-1.729-5.387-4.735-5.387-2.812 0-4.875 2.36-4.875 5.308 0 3.165 2.279 5.307 5.071 5.307 1.928 0 3.165-.767 4.187-1.907l-.941-.845c-.826.866-1.81 1.434-3.205 1.434-1.79 0-3.365-1.238-3.58-3.44m-11.988-1.294c0-1.91 1.299-3.187 3.047-3.187 1.789 0 2.812 1.179 2.812 3.066v5.938h1.513v-6.311c0-2.419-1.434-4.069-3.891-4.069-1.751 0-2.812.885-3.481 1.985v-1.771h-1.512v10.165h1.512v-5.816zm-9.624.667c1.24 0 2.242.216 2.989.431v.984c0 1.61-1.534 2.752-3.4 2.752-1.375 0-2.558-.748-2.558-2.045.001-1.299 1.063-2.122 2.969-2.122m-.056-3.815c1.906 0 3.026.946 3.026 2.772v.353a10.811 10.811 0 00-3.128-.433c-2.574 0-4.343 1.142-4.343 3.305 0 2.123 1.907 3.184 3.795 3.184 1.789 0 2.968-.825 3.676-1.748v1.533h1.454v-6.212c0-2.675-1.555-4.09-4.324-4.09-1.474 0-2.576.335-3.697.847l.454 1.237c.943-.432 1.888-.748 3.087-.748m-12.347 1.22l5.897-6.015h-2.004l-7.903 8.218v-8.218h-1.553v13.761h1.553v-3.696l2.93-2.97 5.287 6.666h1.946l-6.153-7.746z"/></g><path fill="#FFF" d="M447.968 397.26h4.601v-9.866h4.048V383.5h-12.698v3.894h4.05v9.866zm-21.948 0h4.561v-6.349l5.11 6.349h4.09V383.5h-4.562v6.073l-4.894-6.073h-4.306v13.76zm-16.781 0h11.833v-3.772h-7.312v-1.494h6.723v-3.323h-6.723v-1.395h7.214V383.5h-11.735v13.76zm-13.877.098h4.401l5.584-13.858h-5.071l-2.674 7.725-2.676-7.725h-5.147l5.583 13.858zm-21.089-.098h11.834v-3.772h-7.312v-1.494h6.724v-3.323h-6.724v-1.395h7.215V383.5h-11.736v13.76z"/><path fill="none" stroke="#FFF" stroke-width=".577" d="M321.793 373.652v93.374"/></g></svg>