<svg xmlns="http://www.w3.org/2000/svg" width="400" height="292.25" viewBox="0 0 400 292.25"><path fill="#FFF" d="M34.161 77.565c0 2.932-2.432 4.577-6.651 4.577H16.784v-9.225h10.583c4.648 0 6.794 1.787 6.794 4.505v.143zM16.784 54.396h9.01c4.148 0 6.294 1.573 6.294 4.291v.143c0 2.931-2.361 4.363-6.579 4.363h-8.725v-8.797zm21.311 12.728c4.434-1.93 7.723-5.363 7.723-11.155v-.143c0-3.432-1.216-6.077-3.217-8.081-2.932-2.931-7.366-4.504-13.66-4.504H3.268v50.058h25.815c11.943 0 18.951-5.221 18.951-13.802v-.143c0-6.795-3.861-10.226-9.939-12.23M160.933 55.254h9.082c4.648 0 7.508 2.002 7.508 5.936v.143c0 3.646-2.717 5.936-7.437 5.936h-9.153V55.254zm0 22.884H167.014L177.095 93.3h16.02l-11.943-17.451c6.223-2.646 10.299-7.723 10.299-15.374v-.144c0-4.934-1.503-8.796-4.435-11.656-3.36-3.434-8.652-5.435-16.304-5.435h-23.67V93.3h13.873l-.002-15.162zM173.76 169.556c-7.008 0-11.942-5.863-11.942-13.373v-.144c0-7.29 4.935-13.229 11.942-13.229 4.792 0 8.08 2.288 10.941 5.864l10.44-8.081c-4.434-6.153-11.013-10.442-21.24-10.442-15.159 0-26.387 11.443-26.387 26.032v.144c0 14.945 11.514 25.887 25.814 25.887 11.086 0 17.449-4.792 22.169-11.301l-10.44-7.441c-3.003 3.654-6.077 6.084-11.297 6.084M312.918 150.535l-11.943-19.381h-14.659v50.059h13.588v-28.604l12.729 19.45h.285l12.801-19.594v28.748h13.802v-50.059h-14.66zM382.861 149.532c0 3.934-3.002 6.508-7.939 6.508h-6.58v-13.229h6.512c5.006 0 8.008 2.288 8.008 6.579v.142h-.001zm-6.937-18.378h-21.453v50.06h13.873v-14.303h6.865c12.439 0 21.523-6.222 21.523-18.021v-.142c.002-11.085-8.148-17.594-20.808-17.594M101.986 93.797l19.203 18.982 9.597-9.71-28.8-28.467v-9.797l10.102 9.987 9.597-9.709-26.523-26.219-26.524 26.219 9.594 9.709 10.103-9.987v9.797l-28.798 28.467 9.595 9.71 19.203-18.982v12.492l-32.997 32.617 9.596 9.711 23.401-23.136v55.687h13.651v-55.687l23.404 23.136 9.594-9.711-32.998-32.617zM312.918 18.432l5.125 5.124-5.125 5.123-5.121-5.123 5.121-5.124zm19.973 5.126L312.918 3.579l-19.971 19.979 19.971 19.971 19.973-19.971zM215.422 64.125h48.406v13.651h-48.406zM239.625 134.054l-5.719-7.746-10.674 7.882 8.147 11.031-27.35 37.043h16.492l19.104-25.872 19.104 25.872h16.492l-27.35-37.043 8.147-11.031-10.674-7.882z"/><path fill="#FFF" d="M229.48 182.264h20.291l-10.148-13.657z"/><g fill="#FFF"><path d="M138.552 269.152c0-1.248.85-2.084 1.993-2.084 1.172 0 1.84.771 1.84 2.006v3.885h.992v-4.129c0-1.584-.939-2.664-2.55-2.664-1.144 0-1.839.58-2.276 1.301v-3.9h-.991v9.393h.991l.001-3.808zm-4.955-1.968h2.112v-.873h-2.112v-2.012h-.99v2.012h-.926v.873h.926v4.014c0 1.352.812 1.879 1.88 1.879.475 0 .849-.104 1.196-.283v-.85a2.08 2.08 0 01-.966.232c-.669 0-1.12-.295-1.12-1.105v-3.887zm-4.46 3.318c0 .928-.875 1.701-2.355 1.701s-2.355-.773-2.355-1.701c0-1.016 1.044-1.723 2.355-1.723 1.313 0 2.355.707 2.355 1.723m-.297-4.221c0 .992-.912 1.66-2.059 1.66-1.144 0-2.06-.668-2.06-1.66 0-.914.886-1.568 2.06-1.568 1.171 0 2.059.67 2.059 1.568m1.326 4.235c0-1.08-.784-1.814-1.853-2.213.836-.385 1.543-1.029 1.543-2.086 0-1.402-1.427-2.391-3.075-2.391s-3.074.988-3.074 2.391c0 1.057.707 1.701 1.543 2.086-1.082.389-1.854 1.146-1.854 2.227 0 1.52 1.467 2.561 3.385 2.561 1.916-.001 3.385-1.03 3.385-2.575m-11.475-5.778c.978 0 1.814.67 1.814 1.725 0 .9-.503 1.598-1.878 2.832l-3.269 2.883v.783h6.291v-.926h-4.773l2.407-2.135c1.582-1.379 2.277-2.189 2.277-3.516 0-1.48-1.158-2.559-2.794-2.559-1.581 0-2.431.707-3.241 1.916l.745.541c.723-1.003 1.394-1.544 2.421-1.544m-10.822 2.446h2.112v-.873h-2.112v-2.012h-.99v2.012h-.927v.873h.927v4.014c0 1.352.811 1.879 1.879 1.879.476 0 .85-.104 1.196-.283v-.85a2.07 2.07 0 01-.965.232c-.669 0-1.12-.295-1.12-1.105v-3.887zm-3.452 3.912v-.025c0-1.197-1.105-1.596-2.135-1.906-.888-.27-1.713-.514-1.713-1.145v-.025c0-.553.503-.965 1.286-.965.645 0 1.354.244 1.971.643l.449-.746c-.683-.449-1.582-.732-2.393-.732-1.313 0-2.265.76-2.265 1.902v.027c0 1.223 1.157 1.582 2.2 1.877.873.244 1.661.502 1.661 1.172v.025c0 .643-.58 1.057-1.378 1.057-.786 0-1.583-.311-2.305-.852l-.501.709a4.58 4.58 0 002.754.977c1.326.001 2.369-.732 2.369-1.993m-8.03-.979c0 1.248-.861 2.086-1.993 2.086-1.171 0-1.841-.773-1.841-2.008v-3.885h-.992v4.131c0 1.58.941 2.664 2.55 2.664 1.144 0 1.826-.58 2.276-1.303v1.158h.979v-6.648h-.979v3.805zm-8.197-.81c0 1.363-1.187 2.266-2.446 2.266-1.234 0-2.305-.914-2.305-2.277 0-1.391 1.045-2.252 2.305-2.252s2.446.888 2.446 2.263m.953 2.496v-5.492h-.993v1.193c-.541-.719-1.35-1.338-2.6-1.338-1.583 0-3.127 1.197-3.127 3.152 0 1.943 1.532 3.125 3.127 3.125 1.224 0 2.034-.629 2.613-1.402v.787c0 1.557-.953 2.367-2.42 2.367-.952 0-1.801-.297-2.562-.85l-.449.771c.89.617 1.918.928 3.023.928 2.049.003 3.388-1.093 3.388-3.241m-9.788-1.686c0 1.248-.862 2.086-1.995 2.086-1.171 0-1.84-.773-1.84-2.008v-3.885h-.99v4.131c0 1.58.939 2.664 2.548 2.664 1.145 0 1.827-.58 2.277-1.303v1.158h.979v-6.648h-.979v3.805zm-8.949-.449h-4.104l2.058-4.596 2.046 4.596zm-1.557-5.779h-.953l-4.104 9.07h1.041l1.069-2.379h4.903l1.053 2.379h1.096l-4.105-9.07zM56.611 274.08l.155.451c.978-.219 1.429-.721 1.429-1.762v-1.158h-1.186v1.35h.464c.051.555-.218.891-.862 1.119m-.616-7.769h-1.054l-2.137 5.543-2.419-5.543h-1.094l3.025 6.627c-.399.938-.773 1.246-1.364 1.246-.425 0-.72-.078-1.042-.246l-.334.787c.45.217.862.334 1.415.334 1.005 0 1.647-.502 2.212-1.879l2.792-6.869zm-10.952 3.279c.81 0 1.468.143 1.957.283v.643c0 1.055-1.004 1.803-2.228 1.803-.899 0-1.673-.488-1.673-1.338s.696-1.391 1.944-1.391m-.037-2.496c1.248 0 1.981.617 1.981 1.812v.232a7.118 7.118 0 00-2.047-.281c-1.685 0-2.845.744-2.845 2.162 0 1.389 1.25 2.084 2.486 2.084 1.171 0 1.943-.541 2.407-1.146v1.002h.952v-4.064c0-1.748-1.017-2.676-2.831-2.676-.964 0-1.687.217-2.42.555l.297.811c.616-.286 1.235-.491 2.02-.491m-5.842 2.535c0 1.557-1.171 2.584-2.407 2.584-1.261 0-2.343-1.002-2.343-2.584 0-1.621 1.056-2.574 2.343-2.574 1.235 0 2.407 1.029 2.407 2.574m.952 3.332v-9.393h-.992v4.016c-.514-.746-1.311-1.418-2.547-1.418-1.596 0-3.178 1.287-3.178 3.477 0 2.201 1.583 3.463 3.178 3.463 1.222 0 2.007-.684 2.547-1.482v1.338h.992v-.001zm-8.851-6.65h-.99v6.648h.99v-6.648zm.079-2.549h-1.132v1.092h1.132v-1.092zm-5.556 6.55c0-2.01 1.185-3.053 2.638-3.053h.077v-1.066c-1.26-.053-2.226.746-2.715 1.852v-1.734h-.991v6.648h.991v-2.647zm-2.692-6.359h-6.474v9.008h1.017v-3.924h4.877v-.926h-4.878v-3.219h5.456v-.939h.002zM108.247 250.494c0-1.248.85-2.088 1.995-2.088 1.17 0 1.841.771 1.841 2.01v3.887h.991v-4.131c0-1.586-.939-2.664-2.548-2.664-1.146 0-1.842.578-2.278 1.299v-1.16h-.989v6.654h.989l-.001-3.807zm-7.385-2.871h-.826l-1.786 5.367-1.751-5.342h-1.056l2.328 6.705h.875l1.803-5.25 1.787 5.25h.863l2.343-6.705h-1.029l-1.75 5.342-1.801-5.367zm-7.653 3.373c0 1.426-1.006 2.572-2.447 2.572-1.401 0-2.458-1.158-2.458-2.6s.993-2.586 2.433-2.586c1.403.001 2.472 1.159 2.472 2.614m1.017-.027c0-1.891-1.469-3.461-3.465-3.461-2.006 0-3.475 1.596-3.475 3.488 0 1.891 1.454 3.459 3.449 3.459 2.01.002 3.491-1.594 3.491-3.486m-9.986 0c0 1.559-1.173 2.586-2.407 2.586-1.261 0-2.342-1.002-2.342-2.586 0-1.621 1.055-2.574 2.342-2.574 1.234 0 2.407 1.031 2.407 2.574m.952 3.334v-9.395h-.989v4.016c-.516-.746-1.313-1.416-2.551-1.416-1.595 0-3.177 1.287-3.177 3.477 0 2.197 1.582 3.461 3.177 3.461 1.225 0 2.01-.684 2.551-1.48v1.338h.989v-.001zm-12.543-6.68h-.823l-1.789 5.367-1.75-5.342h-1.056l2.329 6.705h.875l1.801-5.25 1.79 5.25h.861l2.341-6.705H76.2l-1.75 5.342-1.801-5.367zm-7.653 3.373c0 1.426-1.003 2.572-2.445 2.572-1.403 0-2.457-1.158-2.457-2.6s.991-2.586 2.432-2.586c1.402.001 2.47 1.159 2.47 2.614m1.017-.027c0-1.891-1.467-3.461-3.463-3.461-2.006 0-3.474 1.596-3.474 3.488 0 1.891 1.455 3.459 3.449 3.459 2.006.002 3.488-1.594 3.488-3.486m-9.055-6.061h-.99v9.395h.99v-9.395zm-8.656 2.637c0-.822.747-1.465 1.919-1.465.926 0 1.762.295 2.598.977l.592-.785c-.913-.732-1.852-1.105-3.165-1.105-1.712 0-2.959 1.029-2.959 2.471 0 1.494.952 2.16 3.023 2.611 1.892.398 2.342.875 2.342 1.725 0 .914-.797 1.543-2.006 1.543-1.25 0-2.149-.424-3.09-1.271l-.631.746c1.082.967 2.251 1.439 3.681 1.439 1.789 0 3.075-1.002 3.075-2.559 0-1.391-.926-2.125-2.933-2.561-1.981-.426-2.446-.903-2.446-1.766M141.983 235.644h3.01v-3.23l3.399-5.777h-3.334l-1.558 2.961-1.544-2.961h-3.371l3.397 5.816v3.191zm-11.391 0h3.011v-6.461h2.651v-2.547h-8.314v2.547h2.651l.001 6.461zm-10.649-4.725v-1.762h1.311c.695 0 1.146.284 1.146.863v.024c0 .554-.437.874-1.158.874h-1.299v.001zm-3.01 4.725h3.012v-2.575h.642l1.699 2.575h3.436l-2.097-3.063c1.093-.528 1.775-1.442 1.775-2.753v-.028c0-.927-.284-1.594-.825-2.135-.628-.631-1.646-1.029-3.24-1.029h-4.402v9.008zm-8.688-3.347l.824-2.188.824 2.188h-1.648zm-4.438 3.347h3.217l.464-1.209h3.15l.477 1.209h3.27l-3.797-9.073h-2.985l-3.796 9.073zm-6.518-4.594v-2.01h.822c.799 0 1.275.336 1.275.992v.025c0 .645-.515.993-1.288.993h-.809zm-3.012 4.594h3.01V233.2h.979c2.431 0 4.093-1.159 4.093-3.335v-.024c0-2.139-1.637-3.205-4.03-3.205h-4.053v9.008h.001zm-11.981.191c1.635 0 2.998-.552 3.977-1.35v-4.169H81.91v1.93h1.544v.901c-.23.128-.516.204-1.029.204-1.261 0-2.148-.875-2.148-2.148v-.025c0-1.223.85-2.123 2.02-2.123.745 0 1.402.283 1.995.784l1.685-2.032c-.978-.85-2.227-1.364-3.77-1.364-2.844 0-4.968 2.006-4.968 4.695v.028c-.001 2.792 2.251 4.669 5.057 4.669m-17.12-.191h2.987v-4.157l3.347 4.157h2.676v-9.008h-2.985v3.977l-3.205-3.977h-2.819v9.008h-.001zm-6.403 0h3.012v-9.008h-3.012v9.008zm-12.424 0h2.985v-4.157l3.346 4.157h2.677v-9.008h-2.985v3.977l-3.205-3.977h-2.818v9.008zm-10.985 0h7.749v-2.471h-4.787v-.979h4.4v-2.173h-4.4v-.914h4.721v-2.471h-7.683v9.008zm-7.885-4.594v-2.01h.824c.798 0 1.273.336 1.273.992v.025c0 .645-.515.993-1.286.993h-.811zm-3.012 4.594h3.012V233.2h.978c2.432 0 4.093-1.159 4.093-3.335v-.024c0-2.139-1.636-3.205-4.027-3.205h-4.055v9.008h-.001zm-7.932-2.472c-1.158 0-1.891-.966-1.891-2.034v-.024c0-1.056.721-2.008 1.866-2.008 1.159 0 1.891.965 1.891 2.032v.027c0 1.057-.72 2.007-1.866 2.007m-.025 2.663c2.78 0 4.929-2.085 4.929-4.697v-.024c0-2.612-2.125-4.672-4.904-4.672s-4.927 2.085-4.927 4.696v.027c-.001 2.613 2.121 4.67 4.902 4.67"/></g><g fill="#FFF"><path d="M387.871 269.056c0-1.247.851-2.084 1.995-2.084 1.171 0 1.841.771 1.841 2.007v3.885h.991v-4.13c0-1.583-.939-2.664-2.548-2.664-1.146 0-1.841.58-2.278 1.301v-3.9h-.991v9.393h.991l-.001-3.808zm-4.953-1.969h2.11v-.874h-2.11v-2.011h-.991v2.011h-.926v.874h.926v4.016c0 1.349.811 1.878 1.878 1.878a2.49 2.49 0 001.198-.284v-.849c-.348.167-.63.231-.966.231-.67 0-1.121-.295-1.121-1.105v-3.887h.002zm-4.863-.427c0 1.044-.86 2.048-2.239 2.048-1.312 0-2.213-.823-2.213-1.98 0-1.134.811-2.124 2.161-2.124 1.351 0 2.291.9 2.291 2.056m1.236 1.47c0-1.815-.413-2.792-1.121-3.503-.579-.577-1.337-.926-2.367-.926-1.917 0-3.244 1.353-3.244 3.076 0 1.637 1.287 2.807 3.142 2.807 1.246 0 2.06-.656 2.548-1.441.039 2.304-1.054 3.95-2.676 3.95-.799 0-1.481-.322-2.215-.965l-.591.784c.759.631 1.607 1.107 2.778 1.107 2.226.001 3.746-2.021 3.746-4.889m-11.619-3.487c.977 0 1.813.669 1.813 1.725 0 .901-.503 1.596-1.879 2.831l-3.269 2.883v.782h6.292v-.926h-4.773l2.406-2.134c1.584-1.378 2.277-2.189 2.277-3.515 0-1.48-1.159-2.56-2.792-2.56-1.585 0-2.433.707-3.244 1.916l.747.541c.723-1.002 1.392-1.543 2.422-1.543m-10.824 2.444h2.111v-.874h-2.111v-2.011h-.991v2.011h-.926v.874h.926v4.016c0 1.349.811 1.878 1.879 1.878.477 0 .85-.104 1.195-.284v-.849a2.074 2.074 0 01-.964.231c-.67 0-1.119-.295-1.119-1.105v-3.887zm-3.451 3.911v-.024c0-1.198-1.108-1.596-2.137-1.905-.889-.271-1.712-.514-1.712-1.146v-.025c0-.554.503-.966 1.288-.966.642 0 1.35.245 1.97.644l.448-.746c-.682-.449-1.583-.732-2.393-.732-1.312 0-2.265.759-2.265 1.902v.027c0 1.224 1.158 1.583 2.2 1.878.875.244 1.659.502 1.659 1.171v.026c0 .643-.577 1.055-1.377 1.055-.782 0-1.581-.31-2.304-.85l-.5.707a4.583 4.583 0 002.753.978c1.327.001 2.37-.731 2.37-1.994m-8.03-.977c0 1.247-.861 2.085-1.995 2.085-1.171 0-1.84-.772-1.84-2.007v-3.886h-.99v4.13c0 1.582.938 2.665 2.546 2.665 1.146 0 1.828-.58 2.279-1.302v1.158h.977v-6.649h-.977v3.806zm-8.2-.811c0 1.364-1.183 2.266-2.442 2.266-1.238 0-2.305-.913-2.305-2.277 0-1.39 1.042-2.253 2.305-2.253 1.259-.001 2.442.888 2.442 2.264m.953 2.496v-5.493h-.991v1.194c-.541-.72-1.352-1.338-2.599-1.338-1.584 0-3.128 1.197-3.128 3.153 0 1.941 1.531 3.124 3.128 3.124 1.223 0 2.031-.628 2.611-1.401v.786c0 1.557-.952 2.368-2.418 2.368a4.24 4.24 0 01-2.561-.852l-.452.773c.889.617 1.919.927 3.025.927 2.047.003 3.385-1.092 3.385-3.241m-9.785-1.685c0 1.247-.861 2.085-1.995 2.085-1.171 0-1.841-.772-1.841-2.007v-3.886h-.989v4.13c0 1.582.938 2.665 2.546 2.665 1.146 0 1.827-.58 2.279-1.302v1.158h.977v-6.649h-.977v3.806zm-8.95-.45h-4.105l2.061-4.597 2.044 4.597zm-1.559-5.778h-.949l-4.105 9.07h1.042l1.067-2.379h4.902l1.057 2.379h1.094l-4.108-9.07zm-12.236 10.191l.152.45c.979-.219 1.43-.721 1.43-1.763v-1.158h-1.184v1.35h.461c.055.556-.217.892-.859 1.121m-.615-7.771h-1.055l-2.137 5.545-2.418-5.545h-1.095l3.022 6.628c-.396.938-.771 1.246-1.363 1.246-.424 0-.721-.077-1.043-.246l-.334.787c.449.218.861.334 1.415.334 1.002 0 1.647-.501 2.214-1.879l2.794-6.87zm-10.952 3.28c.81 0 1.465.143 1.954.282v.644c0 1.056-1.003 1.803-2.225 1.803-.901 0-1.675-.487-1.675-1.338.002-.85.696-1.391 1.946-1.391m-.039-2.496c1.247 0 1.98.617 1.98 1.813v.231a7.125 7.125 0 00-2.045-.282c-1.687 0-2.845.745-2.845 2.163 0 1.39 1.247 2.085 2.483 2.085 1.17 0 1.943-.541 2.406-1.146v1.002h.954v-4.065c0-1.749-1.018-2.676-2.831-2.676-.965 0-1.688.218-2.419.554l.294.812c.619-.285 1.238-.491 2.023-.491m-5.843 2.535c0 1.557-1.17 2.585-2.406 2.585-1.26 0-2.34-1.003-2.34-2.585 0-1.62 1.053-2.574 2.34-2.574 1.236 0 2.406 1.03 2.406 2.574m.953 3.331v-9.393h-.992v4.018c-.514-.748-1.311-1.418-2.547-1.418-1.596 0-3.178 1.286-3.178 3.476 0 2.2 1.582 3.463 3.178 3.463 1.223 0 2.006-.683 2.547-1.482v1.338l.992-.002zm-10.637-2.648c0-2.009 1.184-3.051 2.639-3.051h.078v-1.067c-1.262-.052-2.227.746-2.716 1.852v-1.735h-.989v6.65h.989l-.001-2.649zm-4.459-.194c0 1.247-.862 2.085-1.994 2.085-1.171 0-1.84-.772-1.84-2.007v-3.886h-.992v4.13c0 1.582.941 2.665 2.549 2.665 1.146 0 1.828-.58 2.277-1.302v1.158h.979v-6.649h-.979v3.806zm-8.733-2.934h2.112v-.874h-2.112v-2.011h-.989v2.011h-.928v.874h.928v4.016c0 1.349.81 1.878 1.877 1.878.478 0 .851-.104 1.197-.284v-.849a2.088 2.088 0 01-.967.231c-.668 0-1.118-.295-1.118-1.105v-3.887zm-6.491 2.406c.81 0 1.466.143 1.954.282v.644c0 1.056-1.002 1.803-2.227 1.803-.898 0-1.672-.487-1.672-1.338.001-.85.694-1.391 1.945-1.391m-.04-2.496c1.248 0 1.982.617 1.982 1.813v.231a7.15 7.15 0 00-2.047-.282c-1.686 0-2.844.745-2.844 2.163 0 1.39 1.248 2.085 2.483 2.085 1.171 0 1.944-.541 2.408-1.146v1.002h.952v-4.065c0-1.749-1.018-2.676-2.832-2.676-.965 0-1.686.218-2.419.554l.295.812c.62-.285 1.237-.491 2.022-.491m-10.055-.888c0-.823.747-1.467 1.917-1.467.926 0 1.764.296 2.6.978l.592-.785c-.914-.733-1.853-1.105-3.166-1.105-1.712 0-2.96 1.029-2.96 2.47 0 1.493.953 2.161 3.023 2.611 1.894.399 2.343.878 2.343 1.727 0 .914-.797 1.544-2.006 1.544-1.25 0-2.149-.426-3.09-1.274l-.631.747c1.08.965 2.252 1.439 3.68 1.439 1.79 0 3.076-1.002 3.076-2.56 0-1.391-.926-2.124-2.933-2.562-1.983-.425-2.445-.9-2.445-1.763M342.513 250.898c0 1.43-1.001 2.575-2.442 2.575-1.404 0-2.459-1.16-2.459-2.601s.993-2.588 2.433-2.588c1.402.001 2.468 1.16 2.468 2.614m1.016-.025c0-1.893-1.465-3.462-3.459-3.462-2.01 0-3.477 1.597-3.477 3.487 0 1.892 1.455 3.461 3.45 3.461 2.008 0 3.486-1.595 3.486-3.486m-10.782-.463l2.794-2.858h-1.235l-3.59 3.745v-6.485h-.991v9.395h.991v-1.736l1.351-1.363 2.381 3.1h1.184l-2.885-3.798zm-10.368.103c.129-1.301 1.005-2.266 2.162-2.266 1.325 0 2.021 1.056 2.124 2.266h-4.286zm0 .732h5.276c.013-.115.013-.219.013-.308 0-1.957-1.133-3.527-3.1-3.527-1.842 0-3.192 1.546-3.192 3.476 0 2.072 1.491 3.475 3.319 3.475 1.263 0 2.072-.502 2.741-1.248l-.616-.554c-.54.566-1.185.938-2.098.938-1.171 0-2.202-.81-2.343-2.252m-7.848-.847c0-1.251.851-2.087 1.995-2.087 1.171 0 1.841.772 1.841 2.007v3.887h.99v-4.131c0-1.583-.938-2.664-2.547-2.664-1.146 0-1.841.58-2.279 1.3v-1.159h-.99v6.654h.99v-3.807zm-6.301.437a6.96 6.96 0 011.957.282v.645c0 1.053-1.004 1.802-2.227 1.802-.899 0-1.674-.49-1.674-1.339.002-.852.698-1.39 1.944-1.39m-.035-2.498c1.247 0 1.98.62 1.98 1.814v.231a7.08 7.08 0 00-2.048-.283c-1.685 0-2.843.747-2.843 2.163 0 1.39 1.248 2.084 2.483 2.084 1.171 0 1.944-.539 2.407-1.144v1.003h.952v-4.065c0-1.752-1.019-2.678-2.831-2.678-.966 0-1.687.22-2.42.555l.296.81c.62-.283 1.239-.49 2.024-.49m-8.083.799l3.86-3.938h-1.312l-5.174 5.38v-5.38h-1.017v9.008h1.016v-2.418l1.919-1.945 3.461 4.364h1.273l-4.026-5.071zM341.29 235.546h3.013v-6.459h2.65v-2.549h-8.313v2.549h2.651l-.001 6.459zm-14.368 0h2.986v-4.156l3.345 4.156h2.677v-9.008h-2.986v3.976l-3.203-3.976h-2.819v9.008zm-10.985 0h7.746v-2.469h-4.786v-.977h4.401v-2.176h-4.401v-.913h4.723v-2.472h-7.683v9.007zm-9.085.064h2.882l3.655-9.072h-3.319l-1.751 5.057-1.752-5.057h-3.369l3.654 9.072zm-13.804-.064h7.746v-2.469h-4.786v-.977h4.402v-2.176h-4.402v-.913h4.723v-2.472h-7.683v9.007z"/></g><path fill="#FFF" stroke="#FFF" stroke-width=".577" d="M197.847 286.458v-71.416"/></svg>