<?xml version="1.0" encoding="utf-8"?>
<!-- Generator: Adobe Illustrator 15.1.0, SVG Export Plug-In . SVG Version: 6.00 Build 0)  -->
<!DOCTYPE svg PUBLIC "-//W3C//DTD SVG 1.1//EN" "http://www.w3.org/Graphics/SVG/1.1/DTD/svg11.dtd">
<svg version="1.1" id="Layer_1" xmlns="http://www.w3.org/2000/svg" xmlns:xlink="http://www.w3.org/1999/xlink" x="0px" y="0px"
	 width="400px" height="505.25px" viewBox="0 0 400 505.25" enable-background="new 0 0 400 505.25" xml:space="preserve">
<g>
	<g>
		<g>
			<path fill="#FFFFFF" d="M34.161,75.565c0,2.932-2.432,4.577-6.651,4.577H16.784v-9.225h10.583c4.648,0,6.794,1.787,6.794,4.505
				V75.565L34.161,75.565z M16.784,52.396h9.01c4.148,0,6.294,1.573,6.294,4.291v0.143c0,2.931-2.361,4.363-6.579,4.363h-8.725
				V52.396z M38.095,65.124c4.434-1.93,7.723-5.363,7.723-11.155v-0.143c0-3.432-1.216-6.077-3.217-8.081
				c-2.932-2.931-7.366-4.504-13.66-4.504H3.268v50.058h25.815c11.943,0,18.951-5.221,18.951-13.802v-0.143
				C48.034,70.559,44.173,67.128,38.095,65.124"/>
		</g>
		<g>
			<path fill="#FFFFFF" d="M160.933,53.254h9.082c4.648,0,7.508,2.002,7.508,5.936v0.143c0,3.646-2.717,5.936-7.437,5.936h-9.153
				V53.254z M160.933,76.138h5.936h0.145L177.095,91.3h16.02l-11.943-17.451c6.223-2.646,10.299-7.723,10.299-15.374v-0.144
				c0-4.934-1.503-8.796-4.435-11.656c-3.36-3.434-8.652-5.435-16.304-5.435h-23.67V91.3h13.873L160.933,76.138L160.933,76.138z"/>
		</g>
		<g>
			<path fill="#FFFFFF" d="M173.76,167.556c-7.008,0-11.942-5.863-11.942-13.373v-0.144c0-7.29,4.935-13.229,11.942-13.229
				c4.792,0,8.08,2.288,10.941,5.864l10.44-8.081c-4.434-6.153-11.013-10.442-21.24-10.442c-15.159,0-26.387,11.443-26.387,26.032
				v0.144c0,14.945,11.514,25.887,25.814,25.887c11.086,0,17.449-4.792,22.169-11.301l-10.44-7.441
				C182.054,165.126,178.98,167.556,173.76,167.556"/>
		</g>
	</g>
	<polygon fill="#FFFFFF" points="312.918,148.535 300.975,129.154 286.316,129.154 286.316,179.213 299.904,179.213 
		299.904,150.609 312.633,170.059 312.918,170.059 325.719,150.465 325.719,179.213 339.521,179.213 339.521,129.154 
		324.861,129.154 	"/>
	<g>
		<g>
			<path fill="#FFFFFF" d="M382.861,147.532c0,3.934-3.002,6.508-7.939,6.508h-6.58v-13.229h6.512c5.006,0,8.008,2.288,8.008,6.579
				V147.532L382.861,147.532z M375.924,129.154h-21.453v50.06h13.873v-14.303h6.865c12.439,0,21.523-6.222,21.523-18.021v-0.142
				C396.734,135.663,388.584,129.154,375.924,129.154"/>
		</g>
	</g>
	<polygon fill="#FFFFFF" points="101.986,91.797 121.189,110.779 130.786,101.069 101.986,72.602 101.986,62.805 112.088,72.792 
		121.685,63.083 95.162,36.864 68.638,63.083 78.232,72.792 88.335,62.805 88.335,72.602 59.537,101.069 69.132,110.779 
		88.335,91.797 88.335,104.289 55.338,136.906 64.934,146.617 88.335,123.481 88.335,179.168 101.986,179.168 101.986,123.481 
		125.39,146.617 134.984,136.906 101.986,104.289 	"/>
	<path fill="#FFFFFF" d="M312.918,16.432l5.125,5.124l-5.125,5.123l-5.121-5.123L312.918,16.432z M332.891,21.558L312.918,1.579
		l-19.971,19.979l19.971,19.971L332.891,21.558z"/>
	<rect x="215.422" y="62.125" fill="#FFFFFF" width="48.406" height="13.651"/>
	<polygon fill="#FFFFFF" points="239.625,132.054 233.906,124.308 223.232,132.19 231.379,143.221 204.029,180.264 220.521,180.264 
		239.625,154.392 258.729,180.264 275.221,180.264 247.871,143.221 256.018,132.19 245.344,124.308 	"/>
	<polygon fill="#FFFFFF" points="229.48,180.264 249.771,180.264 239.623,166.607 	"/>
</g>
<g>
	<path fill="#FFFFFF" d="M303.52,325.223c0-2.206,1.502-3.686,3.523-3.686c2.072,0,3.254,1.364,3.254,3.548v6.868h1.754v-7.302
		c0-2.799-1.662-4.711-4.508-4.711c-2.021,0-3.252,1.025-4.025,2.302v-6.896h-1.752v16.606h1.752v-6.73L303.52,325.223
		L303.52,325.223z M294.76,321.74h3.734v-1.544h-3.734v-3.555h-1.752v3.555h-1.637v1.544h1.637v7.099
		c0,2.387,1.438,3.321,3.324,3.321c0.84,0,1.5-0.185,2.115-0.502v-1.501c-0.615,0.296-1.115,0.41-1.707,0.41
		c-1.184,0-1.98-0.522-1.98-1.955V321.74z M286.873,327.609c0,1.639-1.547,3.006-4.164,3.006s-4.164-1.367-4.164-3.006
		c0-1.799,1.846-3.049,4.164-3.049C285.031,324.562,286.873,325.812,286.873,327.609 M286.35,320.146
		c0,1.753-1.613,2.936-3.641,2.936c-2.021,0-3.641-1.183-3.641-2.936c0-1.616,1.566-2.774,3.641-2.774
		C284.779,317.372,286.35,318.558,286.35,320.146 M288.693,327.632c0-1.909-1.387-3.206-3.275-3.913
		c1.479-0.681,2.729-1.818,2.729-3.686c0-2.48-2.523-4.229-5.438-4.229s-5.436,1.75-5.436,4.229c0,1.865,1.25,3.005,2.729,3.686
		c-1.912,0.687-3.277,2.027-3.277,3.937c0,2.688,2.594,4.526,5.984,4.526C286.098,332.182,288.693,330.364,288.693,327.632
		 M268.406,317.419c1.729,0,3.209,1.182,3.209,3.049c0,1.592-0.891,2.822-3.32,5.006l-5.779,5.096v1.385h11.123v-1.637h-8.439
		l4.256-3.773c2.797-2.437,4.025-3.87,4.025-6.215c0-2.616-2.047-4.524-4.939-4.524c-2.795,0-4.297,1.249-5.73,3.389l1.318,0.955
		C265.404,318.375,266.59,317.419,268.406,317.419 M249.273,321.74h3.734v-1.544h-3.734v-3.555h-1.752v3.555h-1.639v1.544h1.639
		v7.099c0,2.387,1.434,3.321,3.322,3.321c0.842,0,1.502-0.185,2.115-0.502v-1.501c-0.611,0.296-1.113,0.41-1.705,0.41
		c-1.184,0-1.98-0.522-1.98-1.955V321.74L249.273,321.74z M243.17,328.656v-0.043c0-2.118-1.955-2.821-3.775-3.369
		c-1.568-0.479-3.027-0.909-3.027-2.024v-0.045c0-0.979,0.889-1.708,2.273-1.708c1.139,0,2.393,0.434,3.484,1.136l0.795-1.318
		c-1.207-0.793-2.799-1.294-4.23-1.294c-2.322,0-4.004,1.342-4.004,3.362v0.049c0,2.163,2.045,2.799,3.889,3.319
		c1.545,0.432,2.938,0.889,2.938,2.072v0.045c0,1.136-1.025,1.866-2.436,1.866c-1.391,0-2.799-0.548-4.074-1.503l-0.887,1.251
		c1.32,1.067,3.184,1.729,4.869,1.729C241.326,332.183,243.17,330.889,243.17,328.656 M228.973,326.928
		c0,2.206-1.523,3.688-3.525,3.688c-2.07,0-3.254-1.367-3.254-3.55v-6.868h-1.754v7.302c0,2.796,1.664,4.711,4.508,4.711
		c2.021,0,3.229-1.026,4.025-2.302v2.047h1.729v-11.757h-1.729V326.928L228.973,326.928z M214.48,325.495
		c0,2.41-2.098,4.005-4.324,4.005c-2.184,0-4.074-1.614-4.074-4.026c0-2.457,1.846-3.982,4.074-3.982
		C212.383,321.491,214.48,323.062,214.48,325.495 M216.164,329.907v-9.711h-1.754v2.11c-0.957-1.271-2.387-2.366-4.596-2.366
		c-2.799,0-5.529,2.117-5.529,5.576c0,3.434,2.709,5.524,5.529,5.524c2.162,0,3.596-1.111,4.619-2.479v1.392
		c0,2.751-1.684,4.186-4.277,4.186c-1.684,0-3.184-0.524-4.531-1.504l-0.793,1.366c1.572,1.091,3.391,1.638,5.344,1.638
		C213.797,335.643,216.164,333.707,216.164,329.907 M198.861,326.928c0,2.206-1.524,3.688-3.526,3.688
		c-2.071,0-3.253-1.367-3.253-3.55v-6.868h-1.751v7.302c0,2.796,1.661,4.711,4.505,4.711c2.023,0,3.23-1.026,4.025-2.302v2.047
		h1.731v-11.757h-1.731V326.928L198.861,326.928z M183.039,326.134h-7.255l3.639-8.127L183.039,326.134z M180.286,315.917h-1.685
		l-7.256,16.036h1.84l1.891-4.207h8.669l1.862,4.207h1.938L180.286,315.917z M158.648,333.936l0.273,0.797
		c1.729-0.387,2.526-1.274,2.526-3.116v-2.048h-2.097v2.386h0.82C160.263,332.936,159.787,333.528,158.648,333.936 M157.56,320.196
		h-1.863l-3.778,9.803l-4.276-9.803h-1.935l5.349,11.717c-0.707,1.658-1.367,2.203-2.412,2.203c-0.752,0-1.273-0.137-1.842-0.434
		l-0.592,1.39c0.797,0.386,1.525,0.592,2.502,0.592c1.777,0,2.913-0.887,3.912-3.322L157.56,320.196z M138.197,325.994
		c1.433,0,2.596,0.252,3.459,0.501v1.137c0,1.866-1.775,3.188-3.938,3.188c-1.591,0-2.958-0.862-2.958-2.365
		S135.991,325.994,138.197,325.994 M138.13,321.583c2.207,0,3.504,1.091,3.504,3.205v0.409c-1.047-0.292-2.117-0.498-3.619-0.498
		c-2.979,0-5.029,1.316-5.029,3.822c0,2.457,2.21,3.688,4.395,3.688c2.071,0,3.436-0.958,4.255-2.028v1.772h1.683v-7.188
		c0-3.091-1.797-4.73-5.004-4.73c-1.705,0-2.982,0.386-4.278,0.98l0.524,1.435C135.648,321.946,136.744,321.583,138.13,321.583
		 M127.801,326.064c0,2.752-2.071,4.569-4.256,4.569c-2.229,0-4.142-1.773-4.142-4.569c0-2.865,1.867-4.553,4.142-4.553
		C125.73,321.513,127.801,323.334,127.801,326.064 M129.486,331.954v-16.606h-1.754v7.103c-0.909-1.321-2.318-2.508-4.504-2.508
		c-2.821,0-5.619,2.274-5.619,6.146c0,3.891,2.8,6.123,5.619,6.123c2.16,0,3.549-1.207,4.504-2.62v2.364L129.486,331.954
		L129.486,331.954z M113.837,320.196h-1.75v11.757h1.75V320.196z M113.976,315.689h-2.002v1.934h2.002V315.689z M104.154,327.271
		c0-3.552,2.095-5.395,4.664-5.395h0.136v-1.888c-2.228-0.093-3.935,1.319-4.8,3.273v-3.066h-1.752v11.757h1.752V327.271z
		 M99.394,316.03H87.949v15.924h1.798v-6.937h8.623v-1.636h-8.624v-5.69h9.646v-1.661H99.394z"/>
	<path fill="#FFFFFF" d="M249.941,292.232c0-2.205,1.502-3.689,3.527-3.689c2.068,0,3.254,1.364,3.254,3.555v6.869h1.752v-7.304
		c0-2.802-1.66-4.71-4.504-4.71c-2.025,0-3.256,1.023-4.027,2.298V287.2h-1.75v11.766h1.75v-6.733H249.941L249.941,292.232z
		 M236.885,287.159h-1.461l-3.158,9.487l-3.096-9.443h-1.865l4.115,11.855h1.547l3.188-9.283l3.16,9.283h1.525l4.143-11.855h-1.82
		l-3.094,9.443L236.885,287.159z M223.354,293.12c0,2.522-1.777,4.548-4.326,4.548c-2.479,0-4.346-2.046-4.346-4.595
		c0-2.55,1.756-4.571,4.301-4.571C221.463,288.502,223.354,290.549,223.354,293.12 M225.15,293.073c0-3.343-2.596-6.119-6.125-6.119
		c-3.547,0-6.143,2.821-6.143,6.166c0,3.343,2.57,6.118,6.098,6.118C222.533,299.239,225.15,296.418,225.15,293.073
		 M207.496,293.073c0,2.754-2.072,4.573-4.256,4.573c-2.229,0-4.139-1.774-4.139-4.573c0-2.867,1.864-4.55,4.139-4.55
		C205.424,288.523,207.496,290.344,207.496,293.073 M209.18,298.968v-16.608h-1.748v7.099c-0.912-1.319-2.322-2.503-4.51-2.503
		c-2.821,0-5.618,2.275-5.618,6.145c0,3.887,2.797,6.119,5.618,6.119c2.164,0,3.553-1.208,4.51-2.615v2.365L209.18,298.968
		L209.18,298.968z M187.003,287.159h-1.455l-3.163,9.487l-3.094-9.443h-1.866l4.118,11.855h1.548l3.184-9.283l3.164,9.283h1.522
		l4.14-11.855h-1.818l-3.094,9.443L187.003,287.159z M173.472,293.12c0,2.522-1.773,4.548-4.322,4.548
		c-2.48,0-4.344-2.046-4.344-4.595c0-2.55,1.752-4.571,4.299-4.571C171.584,288.502,173.472,290.549,173.472,293.12
		 M175.271,293.073c0-3.343-2.594-6.119-6.123-6.119c-3.547,0-6.141,2.821-6.141,6.166c0,3.343,2.571,6.118,6.098,6.118
		C172.652,299.239,175.271,296.418,175.271,293.073 M159.261,282.357h-1.751v16.609h1.751V282.357z M143.958,287.021
		c0-1.455,1.321-2.592,3.393-2.592c1.638,0,3.115,0.521,4.594,1.729l1.047-1.389c-1.614-1.295-3.274-1.955-5.596-1.955
		c-3.027,0-5.232,1.818-5.232,4.369c0,2.641,1.684,3.819,5.345,4.616c3.345,0.705,4.142,1.548,4.142,3.05
		c0,1.613-1.41,2.727-3.547,2.727c-2.209,0-3.8-0.748-5.463-2.249l-1.115,1.321c1.912,1.707,3.98,2.545,6.508,2.545
		c3.162,0,5.437-1.771,5.437-4.525c0-2.457-1.637-3.756-5.185-4.525C144.78,289.389,143.958,288.545,143.958,287.021"/>
	<path fill="#FFFFFF" d="M309.586,265.977h5.322v-5.711l6.01-10.215h-5.895l-2.754,5.235l-2.729-5.235h-5.961l6.006,10.284V265.977z
		 M289.447,265.977h5.322v-11.422h4.688v-4.504h-14.699v4.504h4.688v11.422H289.447z M270.619,257.624v-3.115h2.318
		c1.229,0,2.025,0.503,2.025,1.527v0.043c0,0.979-0.771,1.545-2.049,1.545H270.619L270.619,257.624z M265.297,265.977h5.324v-4.553
		h1.09h0.047l3.004,4.553h6.074l-3.707-5.416c1.932-0.933,3.139-2.549,3.139-4.867v-0.047c0-1.639-0.502-2.818-1.459-3.774
		c-1.109-1.115-2.908-1.82-5.729-1.82h-7.783V265.977L265.297,265.977z M249.938,260.061l1.457-3.869l1.457,3.869H249.938z
		 M242.09,265.977h5.688l0.82-2.137h5.57l0.842,2.137h5.781l-6.713-16.041h-5.279L242.09,265.977z M230.566,257.855v-3.553h1.455
		c1.412,0,2.254,0.594,2.254,1.754v0.045c0,1.14-0.91,1.756-2.277,1.756h-1.432V257.855L230.566,257.855z M225.242,265.977h5.322
		v-4.319h1.729c4.299,0,7.236-2.05,7.236-5.896v-0.044c0-3.78-2.893-5.667-7.125-5.667h-7.166v15.926H225.242L225.242,265.977z
		 M204.059,266.316c2.891,0,5.301-0.976,7.031-2.387v-7.371h-7.713v3.412h2.73v1.594c-0.408,0.226-0.912,0.361-1.82,0.361
		c-2.229,0-3.798-1.548-3.798-3.799v-0.046c0-2.161,1.501-3.753,3.57-3.753c1.318,0,2.48,0.501,3.527,1.387l2.979-3.594
		c-1.729-1.502-3.936-2.412-6.664-2.412c-5.029,0-8.784,3.548-8.784,8.303v0.049C195.118,262.998,199.099,266.316,204.059,266.316
		 M173.792,265.977h5.281v-7.349l5.917,7.349h4.73v-15.926h-5.277v7.031l-5.666-7.031h-4.983v15.926H173.792z M162.472,265.977
		h5.324v-15.926h-5.324V265.977z M140.505,265.977h5.278v-7.349l5.915,7.349h4.732v-15.926h-5.277v7.031l-5.666-7.031h-4.982
		V265.977z M121.083,265.977h13.699v-4.367h-8.463v-1.729h7.779v-3.842h-7.779v-1.617h8.348v-4.368h-13.583L121.083,265.977
		L121.083,265.977z M107.142,257.855v-3.553h1.457c1.411,0,2.252,0.594,2.252,1.754v0.045c0,1.14-0.91,1.756-2.274,1.756h-1.435
		V257.855L107.142,257.855z M101.818,265.977h5.324v-4.319h1.729c4.299,0,7.236-2.05,7.236-5.896v-0.044
		c0-3.78-2.893-5.667-7.121-5.667h-7.168V265.977L101.818,265.977z M87.793,261.607c-2.047,0-3.344-1.707-3.344-3.596v-0.044
		c0-1.866,1.274-3.55,3.3-3.55c2.05,0,3.344,1.706,3.344,3.594v0.047C91.093,259.927,89.82,261.607,87.793,261.607 M87.75,266.316
		c4.916,0,8.714-3.687,8.714-8.306v-0.043c0-4.618-3.756-8.26-8.67-8.26c-4.913,0-8.711,3.687-8.711,8.303v0.048
		C79.083,262.68,82.833,266.316,87.75,266.316"/>
</g>
<g>
	<path fill="#FFFFFF" d="M319.996,461.059c0-2.206,1.504-3.686,3.527-3.686c2.07,0,3.254,1.364,3.254,3.548v6.868h1.754v-7.301
		c0-2.799-1.662-4.711-4.506-4.711c-2.025,0-3.254,1.025-4.027,2.301v-6.896h-1.752v16.606h1.752v-6.73L319.996,461.059
		L319.996,461.059z M311.238,457.576h3.732v-1.544h-3.732v-3.555h-1.752v3.555h-1.637v1.544h1.637v7.1c0,2.386,1.434,3.32,3.32,3.32
		c0.848,0,1.504-0.184,2.119-0.502v-1.501c-0.615,0.296-1.113,0.41-1.709,0.41c-1.184,0-1.98-0.521-1.98-1.955v-6.872H311.238z
		 M302.641,456.823c0,1.845-1.521,3.619-3.959,3.619c-2.32,0-3.912-1.455-3.912-3.5c0-2.005,1.434-3.756,3.82-3.756
		C300.98,453.188,302.641,454.778,302.641,456.823 M304.826,459.421c0-3.21-0.73-4.937-1.982-6.192
		c-1.023-1.021-2.363-1.638-4.184-1.638c-3.391,0-5.736,2.392-5.736,5.438c0,2.894,2.275,4.963,5.555,4.963
		c2.203,0,3.641-1.161,4.504-2.549c0.068,4.073-1.863,6.984-4.73,6.984c-1.412,0-2.619-0.57-3.916-1.707l-1.045,1.387
		c1.342,1.115,2.842,1.958,4.912,1.958C302.141,468.066,304.826,464.492,304.826,459.421 M284.283,453.256
		c1.727,0,3.207,1.182,3.207,3.048c0,1.594-0.889,2.822-3.322,5.006l-5.779,5.097v1.384h11.125v-1.637h-8.439l4.254-3.773
		c2.801-2.436,4.027-3.87,4.027-6.214c0-2.617-2.051-4.524-4.938-4.524c-2.801,0-4.301,1.249-5.734,3.388l1.32,0.955
		C281.279,454.212,282.463,453.256,284.283,453.256 M265.146,457.576h3.732v-1.544h-3.732v-3.555h-1.752v3.555h-1.637v1.544h1.637
		v7.1c0,2.386,1.434,3.32,3.322,3.32c0.842,0,1.502-0.184,2.113-0.502v-1.501c-0.611,0.296-1.111,0.41-1.705,0.41
		c-1.184,0-1.979-0.521-1.979-1.955V457.576L265.146,457.576z M259.047,464.492v-0.043c0-2.118-1.959-2.821-3.777-3.369
		c-1.572-0.479-3.027-0.908-3.027-2.024v-0.045c0-0.979,0.889-1.708,2.277-1.708c1.135,0,2.387,0.434,3.482,1.137l0.793-1.318
		c-1.205-0.794-2.799-1.295-4.23-1.295c-2.318,0-4.004,1.342-4.004,3.364v0.047c0,2.164,2.049,2.799,3.891,3.32
		c1.547,0.432,2.934,0.888,2.934,2.071v0.046c0,1.136-1.021,1.865-2.436,1.865c-1.383,0-2.795-0.548-4.072-1.503l-0.885,1.251
		c1.32,1.068,3.188,1.729,4.867,1.729C257.201,468.019,259.047,466.725,259.047,464.492 M244.85,462.765
		c0,2.206-1.523,3.688-3.527,3.688c-2.07,0-3.254-1.366-3.254-3.549v-6.869h-1.75v7.302c0,2.796,1.658,4.711,4.502,4.711
		c2.025,0,3.23-1.025,4.029-2.301v2.047h1.727v-11.757h-1.727V462.765L244.85,462.765z M230.352,461.331
		c0,2.411-2.092,4.006-4.318,4.006c-2.189,0-4.074-1.615-4.074-4.027c0-2.457,1.842-3.982,4.074-3.982
		C228.26,457.326,230.352,458.897,230.352,461.331 M232.037,465.743v-9.711h-1.754v2.11c-0.955-1.271-2.389-2.365-4.594-2.365
		c-2.801,0-5.529,2.117-5.529,5.575c0,3.434,2.707,5.524,5.529,5.524c2.162,0,3.592-1.11,4.617-2.479v1.391
		c0,2.751-1.684,4.187-4.275,4.187c-1.684,0-3.188-0.524-4.527-1.505l-0.799,1.367c1.57,1.091,3.393,1.638,5.35,1.638
		C229.672,471.479,232.037,469.544,232.037,465.743 M214.736,462.765c0,2.206-1.523,3.688-3.527,3.688
		c-2.07,0-3.254-1.366-3.254-3.549v-6.869h-1.75v7.302c0,2.796,1.658,4.711,4.502,4.711c2.025,0,3.23-1.025,4.029-2.301v2.047h1.727
		v-11.757h-1.727V462.765z M198.913,461.97h-7.258l3.642-8.127L198.913,461.97z M196.158,451.753h-1.68l-7.259,16.036h1.843
		l1.887-4.206h8.669l1.867,4.206h1.934L196.158,451.753z M174.523,469.771l0.271,0.796c1.729-0.386,2.527-1.273,2.527-3.116v-2.048
		h-2.093v2.386h0.815C176.138,468.771,175.659,469.365,174.523,469.771 M173.435,456.032h-1.865l-3.776,9.803l-4.276-9.803h-1.935
		l5.345,11.718c-0.703,1.658-1.363,2.203-2.41,2.203c-0.75,0-1.274-0.137-1.845-0.435l-0.591,1.391
		c0.795,0.385,1.523,0.591,2.502,0.591c1.771,0,2.913-0.886,3.914-3.322L173.435,456.032z M154.074,461.831
		c1.432,0,2.589,0.252,3.455,0.5v1.138c0,1.866-1.773,3.187-3.934,3.187c-1.594,0-2.96-0.862-2.96-2.365
		C150.636,462.787,151.865,461.831,154.074,461.831 M154.004,457.419c2.205,0,3.502,1.091,3.502,3.206v0.409
		c-1.045-0.293-2.112-0.499-3.616-0.499c-2.981,0-5.029,1.317-5.029,3.823c0,2.458,2.205,3.688,4.392,3.688
		c2.067,0,3.435-0.957,4.254-2.027v1.771h1.687v-7.188c0-3.092-1.799-4.73-5.006-4.73c-1.705,0-2.982,0.385-4.276,0.979l0.521,1.435
		C151.523,457.782,152.616,457.419,154.004,457.419 M143.673,461.9c0,2.753-2.068,4.57-4.254,4.57c-2.229,0-4.139-1.773-4.139-4.57
		c0-2.865,1.863-4.552,4.139-4.552C141.605,457.35,143.673,459.17,143.673,461.9 M145.359,467.79v-16.606h-1.754v7.103
		c-0.909-1.321-2.319-2.507-4.504-2.507c-2.821,0-5.619,2.274-5.619,6.146c0,3.89,2.798,6.122,5.619,6.122
		c2.162,0,3.547-1.207,4.504-2.62v2.364L145.359,467.79L145.359,467.79z M126.552,463.107c0-3.552,2.094-5.395,4.666-5.395h0.137
		v-1.887c-2.23-0.092-3.937,1.318-4.801,3.273v-3.067h-1.75v11.757h1.75v-4.682H126.552z M118.669,462.765
		c0,2.206-1.525,3.688-3.527,3.688c-2.069,0-3.252-1.366-3.252-3.549v-6.869h-1.754v7.302c0,2.796,1.664,4.711,4.506,4.711
		c2.025,0,3.231-1.025,4.027-2.301v2.047h1.729v-11.757h-1.729V462.765z M103.228,457.576h3.734v-1.544h-3.734v-3.555h-1.75v3.555
		h-1.639v1.544h1.639v7.1c0,2.386,1.433,3.32,3.32,3.32c0.844,0,1.503-0.184,2.117-0.502v-1.501c-0.614,0.296-1.117,0.41-1.71,0.41
		c-1.181,0-1.978-0.521-1.978-1.955V457.576L103.228,457.576z M91.753,461.831c1.432,0,2.592,0.252,3.454,0.5v1.138
		c0,1.866-1.771,3.187-3.935,3.187c-1.59,0-2.957-0.862-2.957-2.365S89.542,461.831,91.753,461.831 M91.683,457.419
		c2.207,0,3.504,1.091,3.504,3.206v0.409c-1.047-0.293-2.115-0.499-3.619-0.499c-2.979,0-5.027,1.317-5.027,3.823
		c0,2.458,2.206,3.688,4.391,3.688c2.071,0,3.438-0.957,4.258-2.027v1.771h1.684v-7.188c0-3.092-1.799-4.73-5.007-4.73
		c-1.707,0-2.979,0.385-4.276,0.979l0.521,1.435C89.204,457.782,90.293,457.419,91.683,457.419 M73.904,455.849
		c0-1.455,1.32-2.593,3.39-2.593c1.636,0,3.118,0.522,4.597,1.729l1.045-1.389c-1.615-1.297-3.274-1.954-5.597-1.954
		c-3.026,0-5.233,1.819-5.233,4.366c0,2.64,1.686,3.821,5.346,4.616c3.347,0.706,4.143,1.552,4.143,3.053
		c0,1.616-1.41,2.729-3.548,2.729c-2.208,0-3.799-0.753-5.462-2.252l-1.115,1.32c1.91,1.706,3.98,2.544,6.506,2.544
		c3.164,0,5.439-1.771,5.439-4.525c0-2.458-1.639-3.754-5.186-4.528C74.722,458.214,73.904,457.374,73.904,455.849"/>
	<path fill="#FFFFFF" d="M239.803,428.956c0,2.527-1.77,4.553-4.318,4.553c-2.482,0-4.348-2.051-4.348-4.599
		c0-2.547,1.756-4.574,4.301-4.574C237.918,424.336,239.803,426.385,239.803,428.956 M241.6,428.91c0-3.345-2.59-6.119-6.115-6.119
		c-3.553,0-6.146,2.822-6.146,6.165c0,3.344,2.572,6.119,6.1,6.119C238.986,435.075,241.6,432.254,241.6,428.91 M222.537,428.092
		l4.939-5.053h-2.184l-6.348,6.621v-11.467h-1.752v16.61h1.752v-3.07l2.389-2.41l4.209,5.48h2.092L222.537,428.092z
		 M204.207,428.274c0.227-2.301,1.775-4.007,3.822-4.007c2.342,0,3.572,1.867,3.754,4.007H204.207z M204.207,429.568h9.328
		c0.021-0.204,0.021-0.387,0.021-0.543c0-3.46-2.002-6.236-5.48-6.236c-3.256,0-5.643,2.732-5.643,6.145
		c0,3.663,2.637,6.143,5.867,6.143c2.232,0,3.664-0.887,4.848-2.207l-1.09-0.979c-0.955,1.002-2.094,1.659-3.709,1.659
		C206.277,433.55,204.455,432.117,204.207,429.568 M190.333,428.071c0-2.211,1.503-3.689,3.526-3.689
		c2.07,0,3.254,1.365,3.254,3.549v6.872h1.752v-7.304c0-2.8-1.66-4.71-4.504-4.71c-2.027,0-3.254,1.024-4.028,2.298v-2.05h-1.751
		v11.765h1.751V428.071L190.333,428.071z M179.193,428.843c1.437,0,2.596,0.25,3.459,0.499v1.14c0,1.862-1.774,3.186-3.936,3.186
		c-1.591,0-2.96-0.866-2.96-2.367C175.757,429.795,176.988,428.843,179.193,428.843 M179.128,424.427
		c2.206,0,3.502,1.097,3.502,3.209v0.408c-1.045-0.295-2.117-0.501-3.62-0.501c-2.979,0-5.026,1.321-5.026,3.825
		c0,2.457,2.207,3.685,4.392,3.685c2.07,0,3.437-0.954,4.255-2.021v1.772h1.684v-7.188c0-3.097-1.801-4.733-5.006-4.733
		c-1.707,0-2.98,0.388-4.278,0.98l0.524,1.432C176.648,424.793,177.741,424.427,179.128,424.427 M164.838,425.839l6.826-6.961
		h-2.319l-9.147,9.511v-9.511H158.4v15.926h1.797v-4.275l3.392-3.438l6.119,7.715h2.252L164.838,425.839z"/>
	<path fill="#FFFFFF" d="M237.641,401.812h5.326v-11.42h4.686v-4.506h-14.697v4.506h4.688L237.641,401.812L237.641,401.812z
		 M212.238,401.812h5.279v-7.349l5.914,7.349h4.732v-15.926h-5.279v7.029l-5.664-7.029h-4.984L212.238,401.812L212.238,401.812z
		 M192.816,401.812h13.696v-4.364h-8.463v-1.729h7.782v-3.847h-7.782v-1.614h8.35v-4.37h-13.583V401.812z M176.754,401.926h5.095
		l6.463-16.039h-5.869l-3.096,8.94l-3.097-8.94h-5.957L176.754,401.926z M152.349,401.812h13.695v-4.364h-8.463v-1.729h7.783v-3.847
		h-7.783v-1.614h8.35v-4.37h-13.582V401.812L152.349,401.812z"/>
</g>
<line fill="none" stroke="#FFFFFF" stroke-width="0.577" x1="347.207" y1="219.486" x2="52.792" y2="219.486"/>
</svg>
