<svg xmlns="http://www.w3.org/2000/svg" width="600" height="198" overflow="visible" viewBox="-40.231 -.756 600 198"><path fill="none" stroke="#1847ED" stroke-miterlimit="10" stroke-width="20" d="M28.635 185.717h64.878M61.074 123.473v64.877M19.849 77.174h82.452l-41.227 55.669zM46.263 76.258L34.784 33.717H10.475M134.408 89.38c5.325-4.43 8.716-11.106 8.716-18.575 0-13.338-10.812-24.149-24.147-24.149-13.338 0-24.15 10.812-24.15 24.149M212.129 92.217h82.452v93.5h-82.452z"/><path fill="none" stroke="#1847ED" stroke-miterlimit="10" stroke-width="20" d="M277.104 98.131l11.479-36.541h24.31M468.651 185.717h-66.452l-8-145.5h82.452z"/><path fill="none" stroke="#1847ED" stroke-miterlimit="10" stroke-width="20" d="M500.347 52.725c5.325-4.43 8.716-11.106 8.716-18.575 0-13.338-10.812-24.149-24.147-24.149-13.338 0-24.15 10.812-24.15 24.149"/></svg>