<svg xmlns="http://www.w3.org/2000/svg" viewBox="0 0 184.47 178.27"><defs><style>.a{fill:#00243e}</style></defs><title>18</title><path d="M71.16 150.59l-7.67-15.34v-15.33l7.67-22.58L86.49 82l16.62-11.28-9.8-10-7.45-14.93V30.46l7.66-15.34L101 7.67 123.77 0H154l22.8 7.67L184.47 23v15.34l-7.66 15.34-14.91 14.91-12.78 8.52 13 13 7.44 14.89v22.8l-7.66 15.33-7.67 7.67-30.23 7.46H94zm52.61 6l29.61-7.24 7-7 7.46-14.91v-21.79L160.62 91l-13-13-4.89 3.41 4 .85 7.67 7.45 7.71 15.29v23l-7.67 15.12L124 150.8H94l-16-5.54 2.35 4.9-1.49.86-3.2-6.39-4.9-1.71.64-1.7 3.2 1.06-3.62-7v-15.36l7.66-22.58 7.88-7.88 21.09-14.27-3.22-3.19-17 11.51-14.74 14.68-7.46 22.15v14.49l7.25 14.48 21.72 7.24zm0-7.45l29.61-7.46 7-14.48v-21.55l-7.24-14.49-7.24-7.45-5.11-1.07-1.71 1.07-.85-1.49-29-6L87.35 91l-7.25 7.19-7.45 22.15v14.49l4 8.3 17.46 6zm37.27-82l14.27-14.27 7.46-14.91V23.43L175.53 9 153.8 1.7H124l-22.17 7.46L95 16l-7.45 14.9v14.47l7.25 14.48 9.8 10 3.19-2.13-7-7-7.48-14.93V30.46L101 15.12l22.79-7.66H154l16 5.32-2.34-4.69 1.49-.85 3.19 6.18 4.9 1.7-.42 1.71-3.41-1.07L177 23v15.34l-7.67 15.34-7.45 7.45-19.15 12.57 3.83.85 1.28 1.28zm-.21-7.24l7-7 7.45-14.91V23.43l-4.26-8.52-17.22-5.75H124l-22 7.45-7 14.27v14.49l7.25 14.48 7.24 7.24 30.88 6.18zm-14.48 16.78l-.64-.64-4.9-1.04-2.34 1.7-.86-1.49.86-.64-29.18-5.77-3.41 2.34 3.41 3.41 31.09 6.39zM0 177.21L40.9 34.29l-17.26 17L1.28 59H0v-8.95l22.79-7.67L45.37 20h8.52v1.06L9 178.27H0zM22.79 49.84L42 30.88l1.92-7-20.24 20L1.7 51.33v5.75zM7.67 176.57L51.33 23.85l-7.88 7.88L1.92 176.57zM51.12 21.72h-4.9l-1.92 6.82z" class="a"/></svg>