<svg xmlns="http://www.w3.org/2000/svg" viewBox="0 0 184.47 178.27">
  <defs>
    <style>
      .a {
        fill: #00243e;
      }
    </style>
  </defs>
  <title>18</title>
  <g>
    <path class="a" d="M71.16,150.59l-7.67-15.34V119.92l7.67-22.58L86.49,82l16.62-11.28-9.8-10L85.86,45.79V30.46l7.66-15.34L101,7.67,123.77,0H154l22.8,7.67L184.47,23V38.34l-7.66,15.34L161.9,68.59l-12.78,8.52,13,13L169.56,105V127.8l-7.66,15.33-7.67,7.67L124,158.26H94Zm52.61,6,29.61-7.24,7-7,7.46-14.91V105.65L160.62,91l-13-13-4.89,3.41,4,.85,7.67,7.45L162.11,105v23l-7.67,15.12L124,150.8H94l-16-5.54,2.35,4.9-1.49.86-3.2-6.39-4.9-1.71.64-1.7,3.2,1.06-3.62-7V119.92l7.66-22.58,7.88-7.88,21.09-14.27L104.39,72l-17,11.51L72.65,98.19l-7.46,22.15v14.49l7.25,14.48,21.72,7.24Zm0-7.45,29.61-7.46,7-14.48V105.65l-7.24-14.49-7.24-7.45-5.11-1.07-1.71,1.07-.85-1.49-29-6L87.35,91,80.1,98.19l-7.45,22.15v14.49l4,8.3,17.46,6Zm37.27-82,14.27-14.27,7.46-14.91V23.43L175.53,9,153.8,1.7H124L101.83,9.16,95,16l-7.45,14.9V45.37L94.8,59.85l9.8,10,3.19-2.13-7-7L93.31,45.79V30.46L101,15.12l22.79-7.66H154l16,5.32-2.34-4.69,1.49-.85,3.19,6.18,4.9,1.7-.42,1.71-3.41-1.07L177,23V38.34l-7.67,15.34-7.45,7.45L142.73,73.7l3.83.85,1.28,1.28Zm-.21-7.24,7-7,7.45-14.91V23.43l-4.26-8.52L153.8,9.16H124L102,16.61,95,30.88V45.37l7.25,14.48,7.24,7.24,30.88,6.18ZM146.35,76.68l-.64-.64L140.81,75l-2.34,1.7-.86-1.49.86-.64L109.29,68.8l-3.41,2.34,3.41,3.41,31.09,6.39Z"/>
    <path class="a" d="M0,177.21,40.9,34.29l-17.26,17L1.28,59H0V50.05l22.79-7.67L45.37,20h8.52v1.06L9,178.27H0ZM22.79,49.84,42,30.88l1.92-7-20.24,20L1.7,51.33v5.75ZM7.67,176.57,51.33,23.85l-7.88,7.88L1.92,176.57ZM51.12,21.72h-4.9L44.3,28.54Z"/>
  </g>
</svg>
