<svg xmlns="http://www.w3.org/2000/svg" viewBox="0 0 330.87 27.01"><defs><style>.a{fill:#00243e}</style></defs><title>a-work-in-process</title><path d="M20.38 27h-1.5a.5.5 0 01-.5-.48l-.29-5.65H6.3l-3.95 5.92a.52.52 0 01-.41.22H.5a.5.5 0 01-.5-.5v-.18a.5.5 0 01.08-.27L17.31.22a.48.48 0 01.41-.22h1.44a.51.51 0 01.5.48l1.22 26a.47.47 0 01-.14.37.48.48 0 01-.36.15zM8 18.38h10l-.67-14zM53.39 27H52a.5.5 0 01-.5-.5V5.64l-11.1 21.1a.49.49 0 01-.44.27h-1.49a.51.51 0 01-.5-.5V.5a.5.5 0 01.5-.5H40a.5.5 0 01.5.5v21L51.58.27A.48.48 0 0152 0h1.44a.5.5 0 01.5.5v20.93L65.05.27A.5.5 0 0165.5 0h1.43a.5.5 0 01.5.5v.18a.59.59 0 01-.05.23L53.83 26.74a.52.52 0 01-.44.26zM75.4 27h-5a.54.54 0 01-.22-.05l-2.49-1.23a.38.38 0 01-.13-.09l-1.29-1.3a.5.5 0 01-.13-.19L65 20.43a.4.4 0 010-.15v-3.75a.5.5 0 010-.12l1.22-4.9L67.4 7.8a.27.27 0 01.06-.12L69.94 4l2.55-2.56a.44.44 0 01.19-.12L76.4 0a.41.41 0 01.16 0h5a.59.59 0 01.22.05l2.48 1.23a.3.3 0 01.13.09l1.3 1.3a.39.39 0 01.12.19L87 6.57a1 1 0 010 .16v3.75a.49.49 0 010 .12l-1.23 4.9-1.23 3.71-.06.12L82 23l-2.54 2.6a.39.39 0 01-.19.12L75.56 27a.41.41 0 01-.16 0zm-4.78-2.5h4.63l3.45-1.16 1.11-1.11 2.35-3.54 1.17-3.54 1.2-4.77V6.85l-1.1-3.3-2.09-1h-4.63l-3.45 1.12-1.11 1.1-2.35 3.55-1.17 3.54-1.2 4.77v3.53l1.1 3.3zM104.91 27h-1.44a.51.51 0 01-.45-.28l-6-12h-4.2l-3.39 11.93a.52.52 0 01-.49.36h-1.47a.51.51 0 01-.5-.5v-.14a.68.68 0 010-.14L94.38.36a.5.5 0 01.48-.36H106a.59.59 0 01.22.05l2.52 1.26a.45.45 0 01.22.23l1.26 2.52a.43.43 0 01.06.22V8a.46.46 0 01-.06.22L109 10.74a.38.38 0 01-.09.13l-2.49 2.48a.39.39 0 01-.19.12l-3.74 1.26h-2.83l5.69 11.38a.46.46 0 01.06.23v.14a.51.51 0 01-.5.52zM93.53 12.25h8.67l3.45-1.16 1-1 1.13-2.23V4.47l-.67-1.32-1.29-.64h-9.5zM125.73 27h-1.43a.5.5 0 01-.47-.31l-5.58-13.31-3.88 3.15-2.9 10.11a.5.5 0 01-.47.36h-1.47a.51.51 0 01-.5-.5v-.14a.68.68 0 010-.14l7.4-25.86a.5.5 0 01.48-.36h1.47a.5.5 0 01.5.5v.18a.59.59 0 010 .13l-3.38 11.78L131.37.11a.51.51 0 01.31-.11h1.4a.5.5 0 01.5.5v.21a.53.53 0 01-.18.39l-13.19 10.68 6 14.36a.43.43 0 010 .19v.18a.5.5 0 01-.48.49zM142.84 27h-1.47a.51.51 0 01-.5-.5v-.14a.68.68 0 010-.14L148.28.36a.5.5 0 01.48-.36h1.47a.5.5 0 01.5.5v.18a.59.59 0 010 .13l-7.39 25.84a.5.5 0 01-.5.35zM167.34 27h-1.43a.49.49 0 01-.47-.34l-7.27-21.88-6.27 21.87a.5.5 0 01-.48.36H150a.5.5 0 01-.5-.5v-.14a.34.34 0 010-.14L156.85.36a.5.5 0 01.48-.36h1.44a.5.5 0 01.47.34l7.27 21.89L172.78.36a.5.5 0 01.48-.36h1.47a.5.5 0 01.5.5v.14a.68.68 0 010 .14l-7.38 25.87a.52.52 0 01-.51.35zM186.94 27h-1.47a.51.51 0 01-.5-.5v-.14a.68.68 0 010-.14L192.38.36a.5.5 0 01.48-.36h9.94a.54.54 0 01.22.05l2.52 1.26a.51.51 0 01.23.23L207 4.06a.54.54 0 01.05.22V8a.59.59 0 01-.05.22l-1.26 2.49a.64.64 0 01-.1.13l-2.48 2.48a.41.41 0 01-.2.12l-3.74 1.26a.45.45 0 01-.16 0h-8.27l-3.4 11.89a.5.5 0 01-.45.41zm4.59-14.76H199l3.45-1.16 1-1 1.13-2.23V4.47l-.67-1.32-1.29-.64h-8.29zM222.57 27h-1.43a.51.51 0 01-.45-.28l-6-12h-4.18l-3.4 11.89a.5.5 0 01-.48.36h-1.47a.51.51 0 01-.5-.5v-.14a.68.68 0 010-.14L212.05.36a.5.5 0 01.48-.36h11.16a.59.59 0 01.23.05l2.52 1.26a.49.49 0 01.22.23l1.26 2.52a.42.42 0 01.05.22V8a.44.44 0 01-.05.22l-1.26 2.49a.51.51 0 01-.09.13l-2.49 2.48a.39.39 0 01-.19.12l-3.75 1.26a.41.41 0 01-.16 0h-2.65L223 26.14a.46.46 0 010 .23v.14a.5.5 0 01-.43.49zM211.2 12.25h8.67l3.45-1.16 1-1 1.14-2.23V4.47l-.68-1.32-1.28-.64H214zM238.39 27h-5a.59.59 0 01-.22-.05l-2.48-1.23a.42.42 0 01-.14-.09l-1.29-1.3a.39.39 0 01-.12-.19l-1.23-3.72a.77.77 0 010-.15v-3.74a.49.49 0 010-.12l1.23-4.9 1.23-3.71.06-.12L232.94 4l2.54-2.56a.41.41 0 01.2-.12L239.39 0a.41.41 0 01.16 0h5a.54.54 0 01.22.05l2.49 1.23a.51.51 0 01.13.09l1.29 1.3a.39.39 0 01.12.19l1.2 3.71a.47.47 0 010 .16v3.75a.49.49 0 010 .12l-1.22 4.9-1.24 3.71-.06.12L245 23l-2.54 2.56a.41.41 0 01-.2.12L238.55 27a.41.41 0 01-.16 0zm-4.78-2.51h4.63l3.45-1.16 1.11-1.11 2.35-3.54 1.17-3.54 1.2-4.77V6.85l-1.1-3.3-2.09-1h-4.63l-3.45 1.16-1.11 1.1-2.35 3.55-1.17 3.54-1.2 4.77v3.53l1.1 3.3zM261.67 27h-5a.54.54 0 01-.22-.05L254 25.73a.38.38 0 01-.13-.09l-1.3-1.3a.62.62 0 01-.12-.19l-1.22-3.72a.4.4 0 010-.15v-3.75a.5.5 0 010-.12l1.22-4.9 1.24-3.71a.27.27 0 01.06-.12L256.21 4l2.55-2.56a.39.39 0 01.19-.12L262.66 0a.45.45 0 01.16 0h3.75a.54.54 0 01.22.05l2.49 1.23a.51.51 0 01.13.09l1.29 1.3a.64.64 0 01.1.13l1.2 2.48a.46.46 0 01.05.23v2.62a.5.5 0 01-.5.5h-1.5a.5.5 0 01-.5-.5V5.69l-1.06-2.12-2.13-1.06H263l-3.46 1.16-1.1 1.1-2.35 3.55-1.17 3.54-1.2 4.77v3.53l1.1 3.3 2.09 1h4.63l3.46-1.12 1-1 1.27-2.45a.49.49 0 01.44-.27h1.43a.5.5 0 01.5.5v.21a.46.46 0 01-.05.23L268.31 23a.6.6 0 01-.09.13l-2.49 2.48a.39.39 0 01-.19.12L261.83 27a.45.45 0 01-.16 0zM286.27 27h-15a.51.51 0 01-.5-.5v-.18a.59.59 0 010-.13L278.2.36a.5.5 0 01.48-.36h13.72a.5.5 0 01.5.5V2a.5.5 0 01-.5.5h-12.26l-2.79 9.74h10.15a.5.5 0 01.5.5v1.51a.5.5 0 01-.5.5h-10.86l-2.79 9.74h12.42a.5.5 0 01.5.5v1.51a.5.5 0 01-.5.5zM300.87 27h-3.75a.45.45 0 01-.16 0l-3.71-1.26a.39.39 0 01-.19-.12l-1.26-1.26a.38.38 0 01-.09-.13l-1.26-2.48a.46.46 0 01-.06-.23v-2.64a.5.5 0 01.5-.5h1.51a.5.5 0 01.5.5v2.43l1 2.09 3.3 1.1h3.51l3.3-1.13 1-2.06V18L304 15.82l-7.17-3.6-.13-.1-1.26-1.25-.09-.13-1.26-2.49a.59.59 0 01-.05-.22V5.51a.59.59 0 01.05-.23l1.26-2.49a1.25 1.25 0 01.09-.12l1.26-1.26a.41.41 0 01.2-.12L300.64 0a.41.41 0 01.16 0h3.74a.51.51 0 01.17 0l3.71 1.26a.44.44 0 01.19.12l1.26 1.26a.34.34 0 01.09.12l1.26 2.45a.46.46 0 010 .23v2.69a.5.5 0 01-.5.5h-1.5a.5.5 0 01-.5-.5V5.69l-1-2.09-3.29-1.09h-3.51l-3.3 1.13-1.05 2.06v2.14l1.07 2.16 7.16 3.6.13.1 1.26 1.26a.64.64 0 01.1.13l1.26 2.48a.59.59 0 01.05.23v3.7a.59.59 0 01-.05.23l-1.26 2.48a.64.64 0 01-.1.13l-1.26 1.26a.39.39 0 01-.19.12L301 27a.45.45 0 01-.13 0zM320.47 27h-3.75a.45.45 0 01-.16 0l-3.71-1.26a.39.39 0 01-.19-.12l-1.26-1.26a.38.38 0 01-.09-.13l-1.26-2.48a.46.46 0 01-.06-.23v-2.64a.5.5 0 01.5-.5H312a.5.5 0 01.5.5v2.43l1 2.09 3.3 1.1h3.51l3.3-1.13 1-2.06V18l-1.06-2.13-7.17-3.6-.13-.1-1.26-1.25-.09-.13-1.26-2.49a.59.59 0 01-.05-.22V5.51a.59.59 0 01.05-.23L315 2.79l.09-.12 1.26-1.26a.41.41 0 01.2-.12L320.24 0a.41.41 0 01.16 0h3.74a.41.41 0 01.16 0l3.7 1.29a.41.41 0 01.2.12l1.26 1.26a.54.54 0 01.09.12l1.26 2.45a.46.46 0 01.05.23v2.66a.5.5 0 01-.5.5h-1.5a.5.5 0 01-.5-.5V5.69l-1.04-2.09L324 2.51h-3.51l-3.3 1.13-1.02 2.06v2.14l1.07 2.16 7.16 3.6.13.1 1.26 1.26a.38.38 0 01.09.13l1.26 2.48a.46.46 0 01.06.23v3.7a.46.46 0 01-.06.23l-1.26 2.48a.38.38 0 01-.09.13l-1.26 1.26a.39.39 0 01-.19.12L320.63 27a.45.45 0 01-.16 0z" class="a"/></svg>