<svg xmlns="http://www.w3.org/2000/svg" viewBox="0 0 111.82 116.45"><defs><style>.a{fill:#00243e}</style></defs><title>aiga</title><path d="M24 42.36l2.71.67A.38.38 0 0027 43l10.5-9.56 23.13 5.76-2.22 11.37a.37.37 0 00.28.44l2.84.71h.09a.36.36 0 00.2-.06.37.37 0 00.17-.24l9.93-49.7a.38.38 0 00-.28-.44L68.93.6a.38.38 0 00-.34.09l-44.7 40.69a.45.45 0 00-.11.19l-.08.33a.37.37 0 000 .29.4.4 0 00.3.17zm45.4-40.3l.52.13-.66.59zM59.87 50l2-10.46.21.06a.37.37 0 00.45-.28l.14-.52a.38.38 0 00-.28-.46l-.24-.06.22-1.07.28.07a.37.37 0 00.46-.27l.13-.53a.35.35 0 000-.28.33.33 0 00-.24-.2l-.32-.08 6.22-31 1.34-1.24-9.3 46.59zM40.79 30.46L67.23 6.39 61.42 35.6zm20.34 6.41l-.22 1.07-22.22-5.54 1-.88zm-24.71-5h-.09L67.85 3.09l-.23 1.19L37.16 32zm-.54 1.09A.36.36 0 0036 33l-9.45 8.63-.78-.19L36 32.17l-.12.47a.35.35 0 000 .28zM111.76.87a.4.4 0 00-.23-.17l-2.77-.7a.37.37 0 00-.42.18l-26.13 45.4a.3.3 0 000 .1l-.07.26a.34.34 0 00.05.28.33.33 0 00.23.17l2.77.7h.09a.37.37 0 00.33-.19l26.07-45.31a.42.42 0 000-.1l.09-.33a.37.37 0 00-.01-.29zm-28 44.54l25.34-44 1 .25-25.34 44zM44.07 72.37l-1.84-3.05a.39.39 0 00-.08-.1L38 65.74a.28.28 0 00-.15-.08l-7.04-1.76a.3.3 0 00-.13 0l-7.6.63a.43.43 0 00-.16 0L17 68.14 10.55 74l-.06.08-4.06 6.37-4.66 8.77L0 96.29a.49.49 0 000 .12L.57 104a.3.3 0 00.05.16l1.84 3.06.08.09 4.12 3.49a.35.35 0 00.15.07l9.39 2.34h.12l7.6-.63a.3.3 0 00.16 0L30 109l.09-.07 3.58-4.11L38.29 96l.08-.33a.37.37 0 000-.29.4.4 0 00-.23-.17L21.37 91a.39.39 0 00-.28 0 .33.33 0 00-.17.23l-.71 2.84a.38.38 0 00.27.46l12.76 3.27-3 5.7-3.31 3.83L24.2 109l-7.3.58-9-2.23-3.75-3.21-.56-7.09 1.69-6.8 4.59-8.59 3.92-6.21 6.26-5.71 2.75-1.64 7.31-.58 6.66 1.66 3.78 3.23 1.08 4.85L40.45 82a.35.35 0 000 .28.33.33 0 00.23.17l2.84.71a.38.38 0 00.46-.27l1.23-5a.33.33 0 000-.17l-1.15-5.27a.56.56 0 00.01-.08zm-2.14 9l1-4.07a.48.48 0 000-.17l-1.19-5.36a.41.41 0 00-.12-.2L37.45 68a.46.46 0 00-.15 0l-7.07-1.77h-.12l-7.61.64a.33.33 0 00-.16 0l-3 1.83-6.44 5.84a.27.27 0 00-.07.08L8.74 81l-4.65 8.79-1.76 7.08a.25.25 0 000 .12l.61 7.67a.38.38 0 00.13.25l4.17 3.57a.37.37 0 00.15.08l9.39 2.34h.13l7.6-.63a.44.44 0 00.16-.06l3-1.78a.24.24 0 00.09-.08l3.6-4.17 3.2-6.08.38.1a.37.37 0 00.45-.27l.13-.53a.37.37 0 000-.29.4.4 0 00-.23-.17h-.06l.54-1 1 .26-4.22 7.93-3.43 3.87-5.5 3.3-7.3.59-9-2.24-3.89-3.29-1.59-2.66-.54-7.22 1.7-6.8 4.59-8.59 3.92-6.21 6.26-5.71 5.63-3.38 7.3-.59 6.67 1.66 3.89 3.29 1.62 2.7 1.08 5-1 3.85zM22 92.52l12.46 3.11-.54 1-12.18-3zM94.17 66l-2.71-.68a.38.38 0 00-.34.09l-44.7 40.69a.45.45 0 00-.11.19l-.08.33a.34.34 0 000 .28.33.33 0 00.23.17l2.71.68a.36.36 0 00.34-.09L60 98.15l23.13 5.77-2.22 11.37a.37.37 0 00.28.44l2.84.71h.09a.36.36 0 00.2-.06.37.37 0 00.17-.25l9.93-49.7a.37.37 0 00-.25-.43zM82.4 114.69l2-10.46.21.06a.34.34 0 00.28-.05.33.33 0 00.17-.23l.14-.53a.36.36 0 000-.28.33.33 0 00-.23-.17l-.27-.03.22-1.07.29.07a.34.34 0 00.28 0 .33.33 0 00.17-.23l.13-.53a.34.34 0 000-.28.33.33 0 00-.23-.17l-.31-.08 6.21-31 1.34-1.24L83.46 115zM59 96.55h-.1l31.48-28.74-.23 1.19-30.46 27.74zm-10.67 9.64l10.2-9.3-.12.47a.36.36 0 00.15.39l-9.45 8.63zm15-11l26.43-24.08L84 100.32zm20.35 6.41l-.23 1.06-22.23-5.54 1-.88zm8.12-34.1l.13-.72.52.12z" class="a"/></svg>