<svg xmlns="http://www.w3.org/2000/svg" viewBox="0 0 111.82 116.45">
  <defs>
    <style>
      .a {
        fill: #00243e;
      }
    </style>
  </defs>
  <title>aiga</title>
  <g>
    <path class="a" d="M24,42.36l2.71.67A.38.38,0,0,0,27,43L37.5,33.44,60.63,39.2,58.41,50.57a.37.37,0,0,0,.28.44l2.84.71h.09a.36.36,0,0,0,.2-.06.37.37,0,0,0,.17-.24L71.92,1.72a.38.38,0,0,0-.28-.44L68.93.6a.38.38,0,0,0-.34.09L23.89,41.38a.45.45,0,0,0-.11.19l-.08.33a.37.37,0,0,0,0,.29A.4.4,0,0,0,24,42.36ZM69.4,2.06l.52.13-.66.59ZM59.87,50l2-10.46.21.06a.37.37,0,0,0,.45-.28l.14-.52a.38.38,0,0,0-.28-.46l-.24-.06.22-1.07.28.07a.37.37,0,0,0,.46-.27l.13-.53a.35.35,0,0,0,0-.28A.33.33,0,0,0,63,36l-.32-.08,6.22-31,1.34-1.24-9.3,46.59ZM40.79,30.46,67.23,6.39,61.42,35.6Zm20.34,6.41-.22,1.07L38.69,32.4l1-.88Zm-24.71-5h-.09L67.85,3.09l-.23,1.19L37.16,32Zm-.54,1.09A.36.36,0,0,0,36,33l-9.45,8.63-.78-.19L36,32.17l-.12.47A.35.35,0,0,0,35.88,32.92Z"/>
    <path class="a" d="M111.76.87a.4.4,0,0,0-.23-.17L108.76,0a.37.37,0,0,0-.42.18L82.21,45.58a.3.3,0,0,0,0,.1l-.07.26a.34.34,0,0,0,.05.28.33.33,0,0,0,.23.17l2.77.7h.09a.37.37,0,0,0,.33-.19L111.68,1.59a.42.42,0,0,0,0-.1l.09-.33A.37.37,0,0,0,111.76.87Zm-28,44.54,25.34-44,1,.25-25.34,44Z"/>
    <path class="a" d="M44.07,72.37l-1.84-3.05a.39.39,0,0,0-.08-.1L38,65.74a.28.28,0,0,0-.15-.08L30.81,63.9a.3.3,0,0,0-.13,0l-7.6.63a.43.43,0,0,0-.16,0L17,68.14,10.55,74l-.06.08L6.43,80.45,1.77,89.22,0,96.29a.49.49,0,0,0,0,.12L.57,104a.3.3,0,0,0,.05.16l1.84,3.06.08.09,4.12,3.49a.35.35,0,0,0,.15.07l9.39,2.34h.12l7.6-.63a.3.3,0,0,0,.16,0L30,109l.09-.07,3.58-4.11L38.29,96l.08-.33a.37.37,0,0,0,0-.29.4.4,0,0,0-.23-.17L21.37,91a.39.39,0,0,0-.28,0,.33.33,0,0,0-.17.23l-.71,2.84a.38.38,0,0,0,.27.46L33.24,97.8l-3,5.7-3.31,3.83L24.2,109l-7.3.58-9-2.23-3.75-3.21-.56-7.09,1.69-6.8,4.59-8.59,3.92-6.21,6.26-5.71L22.8,68.1l7.31-.58,6.66,1.66,3.78,3.23,1.08,4.85L40.45,82a.35.35,0,0,0,0,.28.33.33,0,0,0,.23.17l2.84.71a.38.38,0,0,0,.46-.27l1.23-5a.33.33,0,0,0,0-.17l-1.15-5.27A.56.56,0,0,0,44.07,72.37Zm-2.14,9,1-4.07a.48.48,0,0,0,0-.17l-1.19-5.36a.41.41,0,0,0-.12-.2l-4.17-3.57A.46.46,0,0,0,37.3,68l-7.07-1.77h-.12l-7.61.64a.33.33,0,0,0-.16,0l-3,1.83-6.44,5.84a.27.27,0,0,0-.07.08L8.74,81,4.09,89.79,2.33,96.87a.25.25,0,0,0,0,.12l.61,7.67a.38.38,0,0,0,.13.25l4.17,3.57a.37.37,0,0,0,.15.08l9.39,2.34h.13l7.6-.63a.44.44,0,0,0,.16-.06l3-1.78a.24.24,0,0,0,.09-.08l3.6-4.17,3.2-6.08.38.1a.37.37,0,0,0,.45-.27l.13-.53a.37.37,0,0,0,0-.29.4.4,0,0,0-.23-.17h-.06l.54-1,1,.26-4.22,7.93L29.12,108l-5.5,3.3-7.3.59-9-2.24-3.89-3.29L1.84,103.7,1.3,96.48,3,89.68l4.59-8.59,3.92-6.21,6.26-5.71,5.63-3.38,7.3-.59,6.67,1.66,3.89,3.29,1.62,2.7,1.08,5-1,3.85ZM22,92.52l12.46,3.11-.54,1-12.18-3Z"/>
    <path class="a" d="M94.17,66l-2.71-.68a.38.38,0,0,0-.34.09L46.42,106.1a.45.45,0,0,0-.11.19l-.08.33a.34.34,0,0,0,0,.28.33.33,0,0,0,.23.17l2.71.68a.36.36,0,0,0,.34-.09L60,98.15l23.13,5.77-2.22,11.37a.37.37,0,0,0,.28.44l2.84.71h.09a.36.36,0,0,0,.2-.06.37.37,0,0,0,.17-.25l9.93-49.7A.37.37,0,0,0,94.17,66ZM82.4,114.69l2-10.46.21.06a.34.34,0,0,0,.28-.05.33.33,0,0,0,.17-.23l.14-.53a.36.36,0,0,0,0-.28.33.33,0,0,0-.23-.17L84.7,103l.22-1.07.29.07a.34.34,0,0,0,.28,0,.33.33,0,0,0,.17-.23l.13-.53a.34.34,0,0,0,0-.28.33.33,0,0,0-.23-.17l-.31-.08,6.21-31,1.34-1.24L83.46,115ZM59,96.55h-.1L90.38,67.81,90.15,69,59.69,96.74Zm-10.67,9.64,10.2-9.3-.12.47a.36.36,0,0,0,.15.39l-9.45,8.63Zm15-11L89.76,71.11,84,100.32Zm20.35,6.41-.23,1.06L61.22,97.12l1-.88ZM91.8,67.5l.13-.72.52.12Z"/>
  </g>
</svg>
