<svg xmlns="http://www.w3.org/2000/svg" viewBox="0 0 66.63 7.03"><defs><style>.a{fill:#fff}</style></defs><title>Asset 19</title><path d="M.55 5.42l-.28-.28L0 4.6V3.52l.27-.81.55-.82.81-.27h.55l.55.28.27.26.22.45.27-1h.32l-1.08 4h-.32l.25-.94-.47.7-.55.28h-.55zm1.08.21l.52-.26.36-.55-.32.33-.55.28h-.55l-.51-.34L.47 5l-.21-.12v-.06l.13.1-.12-.32V3.52l.27-.81.33-.5H.81v-.05h.13l.17-.25h.06L1 2.1l.61-.21h.55l.54.27.4.39-.1-.34-.27-.27-.52-.26h-.57l-.78.26-.54.8-.26.78v1.07l.27.52.25.26.53.26zm0-.26l.52-.26.56-.57.49-1.83-.51-.49L2.16 2h-.52L1 2.19l-.37.55-.26.79v1.06L.52 5l.59.39zm1.05.26l1.06-3.95h-.21l-1 4zM4.39 5.66l1.08-4h.32l-1.08 4h-.32zm.28 0l1-3.95h-.2l-1.06 4zM5.45.3l.6-.3.29.6-.59.29zm.81.27L6 .08l-.47.25.25.48zM6.66 6.76l-.28-.55h.32l.18.37.34.16H8l.53-.26.26-.26.26-.52.27-1-.49.48-.55.28h-.54l-.54-.31-.28-.27-.27-.55v-.81l.27-.81.55-.82.81-.27h.55l.54.28.28.27.22.44.26-1h.33l-1.07 4-.28.55-.53.54L8 7h-.79zM8 7l.53-.27.52-.51.27-.53 1.06-4h-.21l-1.06 4-.27.54-.27.28-.57.26h-.79l-.29-.14.08.11h-.06l-.1-.19-.19-.1V6.4l.12.06-.13-.26h-.2l.24.48.54.32zm.27-1.6l.52-.26.39-.4-.9.45h-.54l-.51-.34-.08-.15-.21-.14v-.05l.13.08-.15-.31v-.76l.26-.81.34-.5h-.06v-.05h.13l.17-.25h.06l-.13.19.61-.21h.55l.54.27.41.41-.21-.37-.26-.26-.52-.26h-.52l-.79.26-.5.8-.26.78v.8l.26.53.25.25.53.27zm0-.27l1.07-.54.49-1.84-.5-.5L8.81 2h-.52l-.68.24-.37.55-.24.74v.79l.2.4.58.38zM11.86 5.42l-.27-.28-.28-.54V3.52l.27-.81.55-.82.81-.27h.55l.51.28.27.26.22.45.27-1h.32L14 5.7h-.32l.32-.98-.47.7-.53.28h-.6zm1.08.21l.52-.26.37-.55-.33.33-.5.28h-.6l-.51-.34h-.06L11.79 5l-.22-.14V4.8l.13.1-.15-.32V3.52l.27-.81.33-.5h-.06v-.04h.13l.16-.25h.06l-.13.19.61-.21h.55l.54.27.4.39-.17-.34-.24-.28-.52-.26H13l-.79.26-.54.8-.26.78v1.07l.27.52.25.26.53.26zm0-.26l.52-.26.54-.57.49-1.83-.49-.49-.53-.22H13l-.69.24-.37.55-.26.79v1.01l.19.39.59.39zm1.06.26l1.06-3.95h-.21l-1.05 4zM15.71 5.66l.8-2.95.27-1.09h.32l-.22.91.45-.67.54-.28h.82l.55.28.27.55V3l-.81 2.7h-.32l.8-2.7v-.54L19 2.12 18.67 2h-.79l-.52.26-.52.52L16 5.7h-.32zm.27 0l.8-2.91.26-1h-.21l-.26 1.05-.8 2.9zm2.68 0L19.45 3v-.54l-.26-.52-.52-.26h-.79l-.51.26-.37.52.3-.3.55-.27h.82L19 2l-.06-.12h.05l.1.19.19.1v.05l-.11-.06.14.29V3l-.8 2.63zM21.19 5.42l-.28-.28-.27-.54V3.52l.26-.81.55-.82.81-.27h.82l.55.28.29.55-.29.55-.81.54-.82.28h-1v.77l.2.39.59.39h.78l.52-.26.28-.55h.31l-.27.55-.27.27-.55.28h-.82zm1.34.21l.53-.26.26-.26.24-.49h-.19l-.27.53-.55.28h-.82l-.51-.34-.11-.09-.21-.14V4.8l.13.1-.13-.3V3.52l.27-.81.34-.5h-.06v-.05h.13l.17-.25h.05l-.13.19.61-.21h.82l.28.14-.06-.12h.05l.1.19.21.11-.12-.06.15.28-.18.34.15-.11v.06l-.24.16-.09.12h-.05l-.49.32-.81.23h-1v.21h1l.79-.26.8-.53.26-.52-.26-.51-.52-.26h-.79l-.79.26-.53.8-.26.78v1.07l.26.52.26.26.53.26zM22 3.49l.79-.26.58-.37.21-.41-.18-.33-.33-.12h-.79l-.68.24-.38.55-.22.7zM24.5 5.66l.27-1.09L26.11 0h.32l-.72 2.46.41-.61.54-.28h.55l.54.28.28.27.27.54V3.8l-.3.8-.56.83-.81.27h-.55l-.54-.28-.27-.28-.2-.58-.27 1.1h-.3zm.27 0l.26-1v-.13L25 4.31h.06l1.3-4.23h-.21l-1.32 4.5-.27 1zm1.89-.26l.68-.24.37-.56.29-.82v-1l-.19-.39-.62-.39h-.52l-.52.26-.5.51-.5 1.7.21.43.25.25.53.27zm0 .26l.79-.26.53-.8.26-.78V2.73L28 2.2l-.28-.2-.53-.27h-.52l-.52.26-.35.54.32-.32.54-.27h.55l.51.33h.05l.08.14.21.15v.05l-.13-.09.16.31v.97l-.27.8-.34.51h.06-.13l-.17.26h-.05l.13-.19-.62.22h-.55l-.54-.28-.27-.27-.08-.16.13.39.26.26.52.26zM29.16 5.66l1.08-4h.32l-.26 1 .75-.73.54-.28h.57V2h-.56l-.52.27-.81.52-.79 3h-.32zm.27 0l1.06-3.95h-.21l-1.05 4zm1.62-3.47l.54-.27h.51v-.24h-.5l-.52.32-.58.57zM33.3 5.42l-.3-.28-.28-.54V3.52l.28-.81.55-.82.81-.27h.55l.55.28.27.26.22.45.27-1h.32l-1.08 4h-.32l.25-.94-.47.7-.55.28h-.55zm1.08.21l.52-.26.37-.55-.33.33-.55.28h-.55l-.51-.34h-.05L33.22 5 33 4.88v-.06l.13.1L33 4.6V3.52l.27-.81.33-.5h-.06v-.04h.13l.16-.25h.06l-.13.19.61-.21h.55l.54.27.4.39-.17-.34-.27-.27-.52-.26h-.52l-.78.26-.54.8-.26.78v1.06l.27.52.25.26.53.26zm0-.26l.52-.26.56-.57.54-1.83-.51-.49-.58-.22h-.52l-.68.24-.37.55-.26.79v1.01l.19.39.59.39zm1 .26l1.06-3.95h-.21l-1.05 4zM37.42 5.42l-.27-.54v-.32h.32v.29l.17.35.35.17h1l.34-.17.17-.35V4.6l-.26-.52-1.07-.8L38 3l-.29-.55.29-.55.55-.28h1.08l.55.28.28.55v.3h-.33v-.28l-.17-.35-.38-.12h-1.06l-.34.17-.18.28.26.52 1.06.79.28.28.27.55v.28l-.28.55-.54.28H38zm1.58.21l.53-.26.25-.52V4.6l-.26-.52-.26-.27L38.22 3l-.28-.55.15-.29-.09.06v-.05l.19-.1.1-.19h.05l-.12.12.29-.14h1.08l.28.14-.06-.12h.06l.1.19.19.1v.05L40 2.16l.14.29v.24h.21v-.23l-.26-.52-.52-.26h-1.05L38 2l-.25.5.25.5.26.26 1.08.74.27.54v.29l-.13.28.11-.06-.19.1-.1.2.06-.11-.28.14H38l-.28-.14.06.11-.1-.2-.19-.1.11.06-.14-.28v-.21h-.2v.24l.26.51.52.26zM45.08 1.67L43 3.27l1 2.39h-.3l-1-2.24-.86.64.87-.66v-.14l-.75.55-.07.25-.56 1.64H41L42.62 0h.32l-1 3.67 2.88-2.1h.31zM42.87.08h-.21l-1.59 5.55h.21zM45 1.68h-.2l-2.14 1.55.06.13zm-2.11 1.63l-.15.11 1 2.21h.2zM46 5.42l-.28-.28-.32-.54V3.52l.27-.81.55-.82.78-.27h.55l.55.28.27.26.22.45.26-1h.33l-1.08 4h-.32l.25-.94-.47.7-.56.33h-.55zm1 .21l.52-.26.36-.55-.32.33-.56.28h-.55L46 5.09 45.87 5l-.21-.14V4.8l.13.1-.15-.32V3.52l.26-.81.34-.5h-.06v-.05h.13l.17-.25h.06l-.13.19.59-.21h.55l.54.27.4.39-.17-.34-.27-.27-.52-.26H47l-.79.26-.53.8-.26.78v1.07l.27.52.25.26.53.26zm0-.26l.52-.26.56-.57.48-1.83-.5-.49-.5-.22H47l-.68.24-.32.5-.26.79v1.06l.19.39.59.39zm1 .26l1.06-3.95h-.21l-1 4zM49.79 5.66l.28-.83h.32l-.27.84h-.33zm.28 0l.24-.74h-.19l-.25.74zM50.71 6.7H51l.34-.16.44-.88 1.08-4h.32l-1.07 4-.54 1.09L51 7h-.31zM51 7l.52-.26.53-1 1.06-4h-.21l-1.06 4-.4.82.12-.06v.05l-.19.1-.1.19.06-.11-.33.04h-.25V7zM52.84.3l.59-.3.3.6-.6.29zm.81.27L53.4.08l-.48.25.25.48zM53.5 7l.5-2.42.8-3h.33l-.26.93.48-.69.54-.28h.55l.56.36.28.27.27.54V3.8l-.26.81-.55.82-.74.27h-.6l-.56-.27-.27-.28-.19-.6L53.82 7h-.32zm.28 0l.52-2.38v-.14l-.05-.14h.06l.73-2.65h-.21l-.73 2.9L53.57 7zm2.15-1.6l.68-.24.39-.59.26-.79v-1l-.2-.39-.59-.39H56l-.52.26-.56.56-.46 1.64.22.44.25.25.53.27zm0 .26l.79-.26.53-.79.26-.79V2.73l-.26-.53L57 2l-.52-.27H56l-.52.26-.48.52.35-.35.54-.27h.55l.51.33H57l.08.14.21.15v.05l-.13-.09.16.31V3.8l-.32.8-.34.51h.06-.13l-.17.26.13-.19-.55.25h-.6l-.55-.28-.27-.27-.09-.17.13.4.27.27.52.25zM59.25 5.42L59 5.14l-.3-.54V3.52l.3-.81.55-.82.81-.27h.81l.55.28.29.55-.32.55-.81.54-.81.27H59v.77l.19.39.59.39h.78l.52-.26.28-.55h.31l-.27.55-.27.27-.55.28h-.82zm1.34.21l.53-.26.26-.26.25-.49h-.2l-.27.53-.55.28h-.82l-.51-.34-.11-.09-.17-.12v-.06l.13.1L59 4.6V3.52l.26-.81.34-.5h-.06v-.05h.13l.17-.25h.05l-.13.19.62-.21h.81l.28.14-.06-.12.1.19.21.11-.13-.06.15.28-.18.34.15-.11v.06l-.24.16-.06.12-.49.32-.81.26H59v.21h1l.78-.26.8-.53.26-.52-.26-.51-.52-.26h-.79l-.79.26-.53.8-.26.78v1.04l.27.52.25.26.53.26zm-.52-2.14l.78-.26.58-.37.21-.41-.18-.33-.33-.12h-.79l-.68.24-.37.55-.29.7zM62.83 6.76l-.27-.55h.31l.18.37.35.16h.79l.53-.26.28-.3.26-.52.27-1-.53.49-.54.28h-.55l-.54-.28-.28-.27-.27-.55v-.81l.26-.81.55-.82.81-.27H65l.55.28.27.27.22.44.27-1h.32l-1.07 4-.27.55-.54.54-.55.3h-.82zm1.36.24l.53-.27.51-.51.27-.53 1.06-4h-.2l-1.07 4-.29.52-.28.28-.55.28h-.82l-.28-.14.06.11-.13-.16-.19-.1v-.05l.11.06-.13-.26h-.2l.25.48.56.29zm.26-1.6l.55-.29.4-.4-.9.45h-.55l-.51-.34-.08-.15-.22-.14v-.05l.13.08-.16-.31v-.73l.27-.81.34-.5h-.07v-.04h.13l.17-.25-.13.19.61-.21H65l.55.27.4.41-.18-.37-.26-.26-.51-.27h-.52l-.79.26-.53.8-.26.78v.8l.26.53.26.25.52.27zm0-.27l1.07-.54.48-1.87-.5-.5L65 2h-.52l-.68.24-.38.55-.26.79v.79l.2.4.58.38z" class="a"/></svg>