<svg xmlns="http://www.w3.org/2000/svg" viewBox="0 0 579.68 183.78">
  <defs>
    <style>
      .a {
        fill: #00243e;
      }
    </style>
  </defs>
  <title>barcamp</title>
  <g>
    <g>
      <path class="a" d="M51.78,65.16l2.53-8.32-1.37-7.75L47.7,42l-8.43-2.51L8.7,44.91,0,128.34l.09.54,34.34-6,10.83-5.91,6.3-9,2.54-8.22L52.05,88.09l-5.37-7.16-7.47-3.34,6.28-3.44ZM33.73,75.45,9.62,79.7,12.85,49l27-4.77L45,45.71l3.33,4.41,1.29,7.32-2.46,8.09-2.92,4.18ZM46.44,46.14l2.73,3.61-2.74-3.62Zm-.71,65.53-.16.1.3-.43ZM9.15,84.56l25.4-4.48,9.11,3.83,3.8,5.21,2,11.08L47,108.3l-3,4.3-10.44,5.62-28.42,5Z"/>
      <path class="a" d="M112.18,40.57,73.23,129.34l.1.54,4.41-.78,9.27-21,38.53-6.8,4.29,18.66,4.63-.81L116.59,39.79Zm-22.86,62.3,24.22-55.21,11.08,49Z"/>
      <path class="a" d="M215.24,41.36l-8.43-2.51-34.33,6.06-8.68,83.54.07.44,4.52-.8,4.12-39.57,15-2.64,25.59,34.33,4.41-.78-.07-.43L192.21,85l10.65-1.88,10.83-5.9,6.3-9,2.53-8.33-2-11.51ZM173,83.66l3.64-34.72,30.78-5.42,5.15,1.53,3.33,4.41,2,11.08-2.46,8.1-2.92,4.17-10.53,5.75Z"/>
      <polygon class="a" points="256.48 69.48 262.02 56.85 265.04 52.55 275.57 46.8 286.65 44.85 294.62 47.22 299.57 53.89 300.96 61.75 305.58 60.93 304.16 52.86 299.04 45.88 294.36 42.6 286.05 40.18 274.54 42.21 263.81 48.1 257.52 57.09 251.89 69.85 250.11 81.81 249.01 97.55 251.04 109.06 256.82 119.81 261.5 123.09 269.81 125.51 285.09 122.81 295.82 116.92 302.11 107.93 304.66 99.72 304.54 99.07 300.13 99.85 297.51 108.3 294.59 112.48 284.06 118.22 269.21 120.84 261.24 118.47 255.65 108.14 253.65 96.84 254.78 81.21 256.48 69.48"/>
      <path class="a" d="M367.74,40.57,328.8,129.34l.09.54,4.41-.78,9.27-21,38.53-6.8,4.3,18.66,4.62-.81L372.15,39.79Zm-22.86,62.3L369.1,47.66l11.08,49Z"/>
      <polygon class="a" points="492.18 35.59 455.98 117.88 432.56 46.11 428.04 46.9 419.34 130.34 419.43 130.88 423.95 130.08 431.56 58.04 453.34 124.9 457.75 124.12 490.54 50.19 483.4 119.15 483.47 119.58 487.99 118.78 496.67 35.24 496.6 34.81 492.18 35.59"/>
      <path class="a" d="M577.65,48.76l-5.24-7.07L564,39.19l-30.57,5.39-8.68,83.54.08.43,4.52-.79,4.12-39.57L560,83.5l10.83-5.91,6.3-9,2.52-8.32ZM575,60.88,572.56,69l-2.92,4.18-10.53,5.74-25.19,4.44,3.65-34.75,27-4.73,5.15,1.53,3.33,4.41ZM568.86,44.2h0L564.64,43Zm-31.15,3.53-.05.05v0Z"/>
    </g>
    <g>
      <polygon class="a" points="199.73 8.28 201.18 6.18 201.93 4.77 201.98 3.16 201.26 1.67 200.51 0.87 199.04 0.08 196.02 0 194.54 0.72 193.74 1.47 192.95 2.94 192.89 4.81 194.25 4.83 194.28 3.18 194.91 1.96 196.16 1.36 198.8 1.41 200.02 2.05 200.62 3.29 200.6 4.53 199.92 5.82 198.49 7.88 192.71 14.87 192.7 15.31 202.47 15.48 202.49 14.12 195 13.99 199.73 8.28"/>
      <path class="a" d="M212.07.87,210.58.08,208.27,0l-1.5.72-1.52,1.44-.67,2.22-.16,6.53.16.78.52,1.38,1.24,1.47,1.55.8,2.34.07,1.52-.73,1.52-1.44.62-2.2,0-6.42v0l-.49-2.17Zm.77,3.8-.11,6.22-.68,1.93-.62.6-1.3.63-1.95,0-1.27-.68-.6-.62-.62-2,.11-6.22.68-1.93.62-.6,1.31-.63,1.94,0,1.28.68.6.62Z"/>
      <path class="a" d="M280,5.33l-.25-.26-1.47-.79L276,4.21l-1.49.72L273,6.38l-.82,2.2-.05,2.26.69,2.17.74.82-.8,1.06v.43l1.2,0,.5-.68,1.3.69,2.31.07,1.49-.73,1.51-1.44.81-2.2.06-2.26-.7-2.17-.34-.4L282,4.75V4.32l-1.2,0Zm-4.79,8.3,4.83-6.35.5,1.59,0,2-.7,2-.6.58-1.31.63L276,14Zm4.06-7.37-5,6.63-.15-.15-.63-2,0-2,.71-1.95.6-.58,1.3-.63,1.94,0Z"/>
      <polygon class="a" points="338.81 2.85 337.25 3.62 337.23 4.84 337.62 4.84 339.13 4.12 340.77 2.55 340.55 15.4 341.91 15.43 342.18 0.06 341.73 0.05 338.81 2.85"/>
      <path class="a" d="M354.23,8.69l-.75-.8-1.63-.61L352.7,7l.83-.76.79-1.48.05-1.61-.69-1.48L352.9.86,351.43.08l-3-.07-1.49.7-.82.77L345.34,3l0,1.61L346,6.05l.75.8.93.36-1.55.49-.83.77-.79,1.47-.07,2.31.72,1.49.75.8,2.21.82,3,.06,2.17-.69.83-.77.79-1.47.07-2.31Zm-.64,1.62,0,1.94-.62,1.21-1.92.6L348.29,14l-1.89-.67-.59-1.22,0-1.94L346.47,9l3.29-1L353,9.09Zm-3.81-3.75-2.55-.91-.58-1.22,0-1.24L347.31,2l1.24-.59,2.64,0,1.23.63L353,3.3l0,1.24-.63,1.2Z"/>
    </g>
    <path class="a" d="M214.69,161.69a.62.62,0,0,0-.12-.19l-1.19-1.28-.12-.09L211,158.82a.54.54,0,0,0-.25-.06H206.2a.58.58,0,0,0-.19,0l-3.39,1.34a.57.57,0,0,0-.18.12l-2.32,2.44-2.28,3.43a.84.84,0,0,0-.06.14l-1,3.42-1,4.5s0,.07,0,.11v3.42a.68.68,0,0,0,0,.14l1,3.39a.46.46,0,0,0,.13.21l1.1,1.11a.45.45,0,0,0,.14.1l2.19,1.05a.54.54,0,0,0,.22,0h4.54a.4.4,0,0,0,.15,0l3.39-1.07a.56.56,0,0,0,.2-.12l2.27-2.24a.27.27,0,0,0,.07-.08l2.27-3.37a.34.34,0,0,0,.06-.12l1.14-3.39,1.14-4.47a.49.49,0,0,0,0-.12v-3.42a.78.78,0,0,0,0-.16Zm-.85,7L212.55,173l-1.17,3.23-2.2,3.25-1,1.12L205,181.76h-4.2l-1.92-1-1-3.11v-3.22L199,170,200,166.8l2.18-3.25,1-.85,3.15-.94h4.25l2.09.84,1.17,2.86Z"/>
    <path class="a" d="M256.34,158.76H254.8a.49.49,0,0,0-.41.22l-13.9,20.8-2.92-20.59a.49.49,0,0,0-.49-.43h-1.35a.5.5,0,0,0-.48.37l-5.44,20.42-1,3.57a.53.53,0,0,0,.08.44.52.52,0,0,0,.4.2h1.06a.51.51,0,0,0,.48-.37l5.2-18.12,2.56,18.06a.5.5,0,0,0,.49.43h1.31a.5.5,0,0,0,.41-.22l11.69-17.1-3.4,12.32-1.24,4.36a.49.49,0,0,0,.23.57.53.53,0,0,0,.22.08h.06l.15,0h.87a.5.5,0,0,0,.48-.36l7-23.5a.32.32,0,0,0,0-.14v-.5A.5.5,0,0,0,256.34,158.76Zm-.52,1h0Z"/>
    <path class="a" d="M283.48,158.76h-1.32a.49.49,0,0,0-.41.22l-15.83,24a.57.57,0,0,0-.08.29.51.51,0,0,0,.5.5h1.39a.51.51,0,0,0,.4-.2l3.6-4.8h10.73l.26,4.53a.5.5,0,0,0,.5.47h1.38a.52.52,0,0,0,.36-.16.55.55,0,0,0,.14-.37l-1.12-24A.51.51,0,0,0,283.48,158.76Zm-1.71,4.35.61,12.65h-9Z"/>
    <path class="a" d="M323.34,158.76h-1.53a.5.5,0,0,0-.48.37l-3.1,11.63H306.07l1.93-7.59.79-2.78a.44.44,0,0,0,0-.3l.05-.18a.49.49,0,0,0,0-.12v-.53a.5.5,0,0,0-.5-.5h-1.09a.5.5,0,0,0-.48.36l-6.9,24a.47.47,0,0,0,0,.17.5.5,0,0,0,.43.49.54.54,0,0,0,.22,0h1.36a.51.51,0,0,0,.48-.36l3.09-10.64h12.16l-2.71,10.36a.45.45,0,0,0,0,.16.5.5,0,0,0,.44.49h.06l.15,0h.91a.5.5,0,0,0,.48-.36l6.94-23.47a.32.32,0,0,0,0-.14v-.53A.5.5,0,0,0,323.34,158.76Z"/>
    <path class="a" d="M351,159.23a.5.5,0,0,0-.5-.47h-1.31a.5.5,0,0,0-.42.22l-15.86,24a.5.5,0,0,0-.09.29.51.51,0,0,0,.5.5h1.44a.54.54,0,0,0,.4-.2l3.59-4.8H349.5l.26,4.53a.51.51,0,0,0,.5.47h1.38a.52.52,0,0,0,.36-.16.55.55,0,0,0,.14-.37Zm-2.21,3.88.61,12.65h-9Z"/>
  </g>
</svg>
