<svg xmlns="http://www.w3.org/2000/svg" viewBox="0 0 579.68 183.78"><defs><style>.a{fill:#00243e}</style></defs><title>barcamp</title><path d="M51.78 65.16l2.53-8.32-1.37-7.75L47.7 42l-8.43-2.51L8.7 44.91 0 128.34l.09.54 34.34-6 10.83-5.91 6.3-9 2.54-8.22-2.05-11.66-5.37-7.16-7.47-3.34 6.28-3.44zM33.73 75.45L9.62 79.7 12.85 49l27-4.77L45 45.71l3.33 4.41 1.29 7.32-2.46 8.09-2.92 4.18zm12.71-29.31l2.73 3.61-2.74-3.62zm-.71 65.53l-.16.1.3-.43zM9.15 84.56l25.4-4.48 9.11 3.83 3.8 5.21 2 11.08-2.46 8.1-3 4.3-10.44 5.62-28.42 5zM112.18 40.57l-38.95 88.77.1.54 4.41-.78 9.27-21 38.53-6.8 4.29 18.66 4.63-.81-17.87-79.36zm-22.86 62.3l24.22-55.21 11.08 49zM215.24 41.36l-8.43-2.51-34.33 6.06-8.68 83.54.07.44 4.52-.8 4.12-39.57 15-2.64 25.59 34.33 4.41-.78-.07-.43-25.23-34 10.65-1.88 10.83-5.9 6.3-9 2.53-8.33-2-11.51zM173 83.66l3.64-34.72 30.78-5.42 5.15 1.53 3.33 4.41 2 11.08-2.46 8.1-2.92 4.17-10.53 5.75zM256.48 69.48l5.54-12.63 3.02-4.3 10.53-5.75 11.08-1.95 7.97 2.37 4.95 6.67 1.39 7.86 4.62-.82-1.42-8.07-5.12-6.98-4.68-3.28-8.31-2.42-11.51 2.03-10.73 5.89-6.29 8.99-5.63 12.76-1.78 11.96-1.1 15.74 2.03 11.51 5.78 10.75 4.68 3.28 8.31 2.42 15.28-2.7 10.73-5.89 6.29-8.99 2.55-8.21-.12-.65-4.41.78-2.62 8.45-2.92 4.18-10.53 5.74-14.85 2.62-7.97-2.37-5.59-10.33-2-11.3 1.13-15.63 1.7-11.73zM367.74 40.57l-38.94 88.77.09.54 4.41-.78 9.27-21 38.53-6.8 4.3 18.66 4.62-.81-17.87-79.36zm-22.86 62.3l24.22-55.21 11.08 49zM492.18 35.59l-36.2 82.29-23.42-71.77-4.52.79-8.7 83.44.09.54 4.52-.8 7.61-72.04 21.78 66.86 4.41-.78 32.79-73.93-7.14 68.96.07.43 4.52-.8 8.68-83.54-.07-.43-4.42.78zM577.65 48.76l-5.24-7.07-8.41-2.5-30.57 5.39-8.68 83.54.08.43 4.52-.79 4.12-39.57L560 83.5l10.83-5.91 6.3-9 2.52-8.32zM575 60.88L572.56 69l-2.92 4.18-10.53 5.74-25.19 4.44 3.65-34.75 27-4.73 5.15 1.53 3.33 4.41zm-6.14-16.68l-4.22-1.2zm-31.15 3.53l-.05.05z" class="a"/><g><path d="M199.73 8.28l1.45-2.1.75-1.41.05-1.61-.72-1.49-.75-.8-1.47-.79-3.02-.08-1.48.72-.8.75-.79 1.47-.06 1.87 1.36.02.03-1.65.63-1.22 1.25-.6 2.64.05 1.22.64.6 1.24-.02 1.24-.68 1.29-1.43 2.06-5.78 6.99-.01.44 9.77.17.02-1.36-7.49-.13 4.73-5.71zM212.07.87l-1.49-.79-2.31-.08-1.5.72-1.52 1.44-.67 2.22-.16 6.53.16.78.52 1.38 1.24 1.47 1.55.8 2.34.07 1.52-.73 1.52-1.44.62-2.2V4.62l-.49-2.17zm.77 3.8l-.11 6.22-.68 1.93-.62.6-1.3.63h-1.95l-1.27-.68-.6-.62-.62-2 .11-6.22.68-1.93.62-.6 1.31-.63h1.94l1.28.68.6.62zM280 5.33l-.25-.26-1.47-.79-2.28-.07-1.49.72L273 6.38l-.82 2.2-.05 2.26.69 2.17.74.82-.8 1.06v.43h1.2l.5-.68 1.3.69 2.31.07 1.49-.73 1.51-1.44.81-2.2.06-2.26-.7-2.17-.34-.4 1.1-1.45v-.43h-1.2zm-4.79 8.3l4.83-6.35.5 1.59v2l-.7 2-.6.58-1.31.63L276 14zm4.06-7.37l-5 6.63-.15-.15-.63-2v-2l.71-1.95.6-.58 1.3-.63h1.94zM338.81 2.85l-1.56.77-.02 1.22h.39l1.51-.72 1.64-1.57-.22 12.85 1.36.03.27-15.37-.45-.01-2.92 2.8zM354.23 8.69l-.75-.8-1.63-.61.85-.28.83-.76.79-1.48.05-1.61-.69-1.48-.78-.81-1.47-.78-3-.07-1.49.7-.82.77-.78 1.52v1.61l.66 1.44.75.8.93.36-1.55.49-.83.77-.79 1.47-.07 2.31.72 1.49.75.8 2.21.82 3 .06 2.17-.69.83-.77.79-1.47.07-2.31zm-.64 1.62v1.94l-.62 1.21-1.92.6-2.76-.06-1.89-.67-.59-1.22v-1.94l.66-1.17 3.29-1L353 9.09zm-3.81-3.75l-2.55-.91-.58-1.22V3.19l.66-1.19 1.24-.59h2.64l1.23.63.58 1.26v1.24l-.63 1.2z" class="a"/></g><path d="M214.69 161.69a.62.62 0 00-.12-.19l-1.19-1.28-.12-.09-2.26-1.31a.54.54 0 00-.25-.06h-4.55a.58.58 0 00-.19 0l-3.39 1.34a.57.57 0 00-.18.12l-2.32 2.44-2.28 3.43a.84.84 0 00-.06.14l-1 3.42-1 4.5v3.53a.68.68 0 000 .14l1 3.39a.46.46 0 00.13.21l1.1 1.11a.45.45 0 00.14.1l2.19 1.05a.54.54 0 00.22 0h4.54a.4.4 0 00.15 0l3.39-1.07a.56.56 0 00.2-.12l2.27-2.24a.27.27 0 00.07-.08l2.27-3.37a.34.34 0 00.06-.12l1.14-3.39 1.14-4.47a.49.49 0 000-.12v-3.42a.78.78 0 000-.16zm-.85 7l-1.29 4.31-1.17 3.23-2.2 3.25-1 1.12-3.18 1.16h-4.2l-1.92-1-1-3.11v-3.22L199 170l1-3.2 2.18-3.25 1-.85 3.15-.94h4.25l2.09.84 1.17 2.86zM256.34 158.76h-1.54a.49.49 0 00-.41.22l-13.9 20.8-2.92-20.59a.49.49 0 00-.49-.43h-1.35a.5.5 0 00-.48.37l-5.44 20.42-1 3.57a.53.53 0 00.08.44.52.52 0 00.4.2h1.06a.51.51 0 00.48-.37l5.2-18.12 2.56 18.06a.5.5 0 00.49.43h1.31a.5.5 0 00.41-.22l11.69-17.1-3.4 12.32-1.24 4.36a.49.49 0 00.23.57.53.53 0 00.22.08h1.08a.5.5 0 00.48-.36l7-23.5a.32.32 0 000-.14v-.5a.5.5 0 00-.52-.51zm-.52 1zM283.48 158.76h-1.32a.49.49 0 00-.41.22l-15.83 24a.57.57 0 00-.08.29.51.51 0 00.5.5h1.39a.51.51 0 00.4-.2l3.6-4.8h10.73l.26 4.53a.5.5 0 00.5.47h1.38a.52.52 0 00.36-.16.55.55 0 00.14-.37l-1.12-24a.51.51 0 00-.5-.48zm-1.71 4.35l.61 12.65h-9zM323.34 158.76h-1.53a.5.5 0 00-.48.37l-3.1 11.63h-12.16l1.93-7.59.79-2.78a.44.44 0 000-.3l.05-.18a.49.49 0 000-.12v-.53a.5.5 0 00-.5-.5h-1.09a.5.5 0 00-.48.36l-6.9 24a.47.47 0 000 .17.5.5 0 00.43.49.54.54 0 00.22 0h1.36a.51.51 0 00.48-.36l3.09-10.64h12.16l-2.71 10.36a.45.45 0 000 .16.5.5 0 00.44.49h1.12a.5.5 0 00.48-.36l6.94-23.47a.32.32 0 000-.14v-.53a.5.5 0 00-.54-.53zM351 159.23a.5.5 0 00-.5-.47h-1.31a.5.5 0 00-.42.22l-15.86 24a.5.5 0 00-.09.29.51.51 0 00.5.5h1.44a.54.54 0 00.4-.2l3.59-4.8h10.75l.26 4.53a.51.51 0 00.5.47h1.38a.52.52 0 00.36-.16.55.55 0 00.14-.37zm-2.21 3.88l.61 12.65h-9z" class="a"/></svg>