<svg xmlns="http://www.w3.org/2000/svg" viewBox="0 0 227.09 177.16">
  <defs>
    <style>
      .a {
        fill: #00243e;
      }
    </style>
  </defs>
  <title>bc</title>
  <g>
    <path class="a" d="M0,176.14,16.41,18.73,74.08,8.55,90,13.28l9.89,13.33,2.58,14.63-4.77,15.7-11.87,17L74,80.39l14.1,6.31L98.2,100.19l3.87,21.94-4.8,15.5-11.88,17L65,165.73.18,177.16Zm7.2-1.9.66-5.77L6,168.8l-.28-1.63L8,166.78l7.65-73-.81.15-.29-1.63,1.22-.21.66-5.77-2.85.5-.28-1.63,3.25-.57L23.4,19.17l-5.48,1L1.72,175.21Zm57.27-10.1,19.86-10.83L95.7,137.07,100.38,122l-3.73-21.12L87.07,88.13l-15-6.77-5,2.75,13.1,5.44-.55-.74,1.28-1.06,2.44,3.13L90,94.1l-.56,1.57-4.12-2,5.77,7.78,3.83,21.73-4.77,15.7L84,147.72,63.7,158.62,9.49,168.19,8.83,174ZM63.21,157l19.7-10.6,5.69-8.12,4.63-15.26-3.69-20.92-7.18-9.83L65.18,85.08,17.26,93.53l-7.65,73Zm1.88-73.62,5-2.76-5.92-2.72L18,86.07l-.66,5.77ZM84.76,72.63,96.13,56.38l4.63-15.26L98.33,27.31,89,14.72,74,10.25,25,18.88,18.15,84.37l45.49-8L83.5,65.52,89,57.63l4.64-15.26L91.22,28.56l-6.28-8.31-9.72-2.89L24.85,26.24l-.28-1.62,50.76-9,8,2.37-2.16-2.76,1.28-1.07,3.53,4.61,5.75,1.71-.36,1.53-3.74-1,5.18,6.83,2.58,14.62L90.59,58.2l-6,8.6L66.05,77,72,79.7Z"/>
    <path class="a" d="M143.93,156.41l-8.84-6.19L124.18,130l-3.83-21.73,2.09-29.68L125.79,56,136.41,31.9l11.87-17L168.52,3.83,190.25,0l15.67,4.56,8.84,6.19,9.65,13.16,2.68,15.24-8.73,1.53-2.61-14.82-9.34-12.59-15-4.47-20.92,3.69L150.6,23.32l-5.69,8.13L134.46,55.27l-3.22,22.14-2.12,29.48,3.76,21.32,10.56,19.49,15,4.47,28-4.94,19.87-10.83,5.52-7.89,4.93-15.94,8.33-1.47.21,1.22-4.8,15.5-11.87,17-20.24,11.11L159.6,161Zm43.81-2.07L207.6,143.5,219,127.26l4.41-14.18-5.29.93-4.67,15.07-6,8.6-20.23,11.1-28.84,5.09-15.91-4.73L131.29,128.7,127.46,107l2.09-29.68,3.35-22.57,10.62-24.07,6-8.6,20.23-11.11L191.5,7.11l15.91,4.73,9.89,13.33,2.4,13.6,5.48-1-2.33-13.2-9.37-12.8-8.12-5.68L190.13,1.7,169.21,5.39,149.35,16.22,137.81,32.7,127.35,56.53l-3.21,22.13L122,108.14l3.76,21.32,10.6,19.7,8.12,5.69,15.23,4.43Z"/>
  </g>
</svg>
