<svg xmlns="http://www.w3.org/2000/svg" viewBox="0 0 227.09 177.16"><defs><style>.a{fill:#00243e}</style></defs><title>bc</title><path d="M0 176.14L16.41 18.73 74.08 8.55 90 13.28l9.89 13.33 2.58 14.63-4.77 15.7-11.87 17L74 80.39l14.1 6.31 10.1 13.49 3.87 21.94-4.8 15.5-11.88 17L65 165.73.18 177.16zm7.2-1.9l.66-5.77-1.86.33-.28-1.63 2.28-.39 7.65-73-.81.15-.29-1.63 1.22-.21.66-5.77-2.85.5-.28-1.63 3.25-.57 6.85-65.45-5.48 1-16.2 155.04zm57.27-10.1l19.86-10.83 11.37-16.24 4.68-15.07-3.73-21.12-9.58-12.75-15-6.77-5 2.75 13.1 5.44-.55-.74 1.28-1.06 2.44 3.13L90 94.1l-.56 1.57-4.12-2 5.77 7.78 3.83 21.73-4.77 15.7-6.15 8.84-20.3 10.9-54.21 9.57-.66 5.81zM63.21 157l19.7-10.6 5.69-8.12 4.63-15.26-3.69-20.92-7.18-9.83-17.18-7.19-47.92 8.45-7.65 73zm1.88-73.62l5-2.76-5.92-2.72L18 86.07l-.66 5.77zm19.67-10.75l11.37-16.25 4.63-15.26-2.43-13.81L89 14.72l-15-4.47-49 8.63-6.85 65.49 45.49-8L83.5 65.52l5.5-7.89 4.64-15.26-2.42-13.81-6.28-8.31-9.72-2.89-50.37 8.88-.28-1.62 50.76-9 8 2.37-2.16-2.76 1.28-1.07 3.53 4.61 5.75 1.71-.36 1.53-3.74-1 5.18 6.83 2.58 14.62-4.8 15.74-6 8.6L66.05 77 72 79.7zM143.93 156.41l-8.84-6.19L124.18 130l-3.83-21.73 2.09-29.68L125.79 56l10.62-24.1 11.87-17 20.24-11.07L190.25 0l15.67 4.56 8.84 6.19 9.65 13.16 2.68 15.24-8.73 1.53-2.61-14.82-9.34-12.59-15-4.47-20.92 3.69-19.89 10.83-5.69 8.13-10.45 23.82-3.22 22.14-2.12 29.48 3.76 21.32 10.56 19.49 15 4.47 28-4.94 19.87-10.83 5.52-7.89 4.93-15.94 8.33-1.47.21 1.22-4.8 15.5-11.87 17-20.24 11.11L159.6 161zm43.81-2.07l19.86-10.84 11.4-16.24 4.41-14.18-5.29.93-4.67 15.07-6 8.6-20.23 11.1-28.84 5.09-15.91-4.73-11.18-20.44-3.83-21.7 2.09-29.68 3.35-22.57 10.62-24.07 6-8.6 20.23-11.11 21.75-3.86 15.91 4.73 9.89 13.33 2.4 13.6 5.48-1-2.33-13.2-9.37-12.8-8.12-5.68-15.23-4.39-20.92 3.69-19.86 10.83-11.54 16.48-10.46 23.83-3.21 22.13-2.14 29.48 3.76 21.32 10.6 19.7 8.12 5.69 15.23 4.43z" class="a"/></svg>