<svg xmlns="http://www.w3.org/2000/svg" viewBox="0 0 150.29 29.37"><defs><style>.a{fill:#00243e}</style></defs><title>kaneko</title><path d="M15.66 22.87a.42.42 0 00-.1-.17l-8.69-9.44L14.11 1.2a.49.49 0 000-.44l-.16-.43a.5.5 0 00-.64-.3l-1.34.49a.49.49 0 00-.26.21L3.24 14.4l-.67-9.36v-.12l-.13-.38a.49.49 0 00-.26-.29.5.5 0 00-.38 0l-1.48.53a.52.52 0 00-.33.51L1.6 27.87a.27.27 0 000 .12l.11.35a.53.53 0 00.26.29.54.54 0 00.22.05h.17l1.48-.54a.49.49 0 00.32-.51l-.61-8.82 1.9-3.19 8 8.68a.5.5 0 00.54.13l1.44-.52a.55.55 0 00.28-.26.5.5 0 000-.38zM34.57 2.41a.5.5 0 00-.63-.28l-1.4.52a.49.49 0 00-.32.35l-6.17 25.37a.48.48 0 000 .29l.14.38a.52.52 0 00.47.33.47.47 0 00.17 0l1.41-.52a.47.47 0 00.32-.35l1.4-5.72 8.87-3.23 1.81 4.28a.51.51 0 00.64.28l1.55-.57a.47.47 0 00.28-.27.48.48 0 000-.39zm-3.84 17.24l3-12.36 4.1 9.77zM68.82.86L68.7.51a.57.57 0 00-.26-.29.58.58 0 00-.39 0l-1.47.54a.51.51 0 00-.33.51l1.27 18.21L56 5a.48.48 0 00-.56-.16l-1.4.51a.49.49 0 00-.33.5l1.61 22.58a.59.59 0 000 .13l.12.35a.53.53 0 00.26.29.52.52 0 00.21 0 .57.57 0 00.18 0l1.47-.54a.49.49 0 00.33-.5L56.62 9.94l11.49 14.52a.48.48 0 00.56.16l1.4-.51a.5.5 0 00.33-.51L68.84 1a.51.51 0 00-.02-.14zM96.26 21.85a.51.51 0 00-.26-.28.5.5 0 00-.38 0l-9.6 3.5-.55-7.88 8.51-3.1a.49.49 0 00.3-.64l-.56-1.55a.48.48 0 00-.26-.28.46.46 0 00-.38 0l-7.81 2.84-.56-7.87 9.62-3.5a.51.51 0 00.28-.26.5.5 0 000-.38L94.04.89A.5.5 0 0093.4.6l-11.1 4a.5.5 0 00-.33.5l1.6 22.55a.5.5 0 000 .13l.13.38a.45.45 0 00.26.28.38.38 0 00.21.05.47.47 0 00.17 0L96.53 24a.5.5 0 00.3-.64zM123.06 22.87a.42.42 0 00-.1-.17l-8.69-9.44 7.24-12.07a.48.48 0 000-.42l-.16-.44a.5.5 0 00-.64-.3l-1.35.49a.51.51 0 00-.25.21l-8.47 13.67L110 5v-.12l-.13-.38a.53.53 0 00-.26-.29.5.5 0 00-.38 0l-1.48.53a.51.51 0 00-.33.51L109 27.86a.5.5 0 000 .12l.12.35a.53.53 0 00.26.29.54.54 0 00.22.05h.17l1.48-.54a.49.49 0 00.32-.51l-.62-8.82 1.91-3.19 8 8.68a.5.5 0 00.54.13l1.43-.52a.5.5 0 00.3-.64zM150.2 13.45l-.44-4.19a.24.24 0 000-.12l-1.08-3a.39.39 0 00-.08-.14l-2.08-2.66a.49.49 0 00-.18-.14l-1.43-.67h-.16l-2.41-.27a.55.55 0 00-.22 0l-4 1.44-.14.08-2.65 2.11a.49.49 0 00-.14.18l-1.3 2.83-.9 3.66a.28.28 0 000 .13l.09 3.31.44 4.2a.27.27 0 000 .12l1.08 3a.61.61 0 00.07.14l2.09 2.65a.52.52 0 00.18.15l1.43.66a.44.44 0 00.15 0l2.41.27h.06a.47.47 0 00.17 0l4-1.44.14-.08 2.64-2.11a.65.65 0 00.15-.18l1.3-2.83.9-3.66a.57.57 0 000-.13zm-3.32 6.92l-.51 1.08-2.29 1.84-3.53 1.28-1.76-.2-1.71-2.15-1-2.7-.42-4-.09-3.07.8-3.37.53-1.13 2.29-1.83 3.53-1.28 1.76.2 1.71 2.15 1 2.7.42 4 .09 3.08z" class="a"/></svg>