<svg viewBox="0 0 110 147">
<path d="M39.184 52.5734C39.2023 52.1645 39.2338 51.7582 39.239 51.3493C39.3308 43.2495 39.4094 35.1496 39.5142 27.0524C39.5719 22.4599 39.6715 17.8647 39.7449 13.2722C39.8392 7.25104 44.3868 1.64406 50.4964 0.422529C56.1474 -0.704633 61.3345 0.328162 65.4522 4.72147C67.6303 7.04395 68.9041 9.85399 68.8857 13.0258C68.8438 20.6118 68.621 28.1979 68.49 35.784C68.448 38.1589 68.4611 40.5364 68.4585 42.9139C68.4533 46.7253 68.4585 50.5393 68.4585 54.4188C71.2028 53.6115 74.1515 53.0741 77.1735 53.6796C80.1772 54.2825 82.8219 55.5879 84.7431 57.6404C86.7325 56.7335 88.5358 55.6482 90.4911 55.0689C97.1722 53.082 104.915 57.6955 105.706 65.3654C106.362 71.7273 107.538 78.0342 108.361 84.3804C108.548 85.8142 108.382 87.3398 108.099 88.7711C107.913 89.7174 107.924 90.5247 108.157 91.45C111.669 105.445 109.032 118.169 99.9138 129.38C92.7504 138.188 83.3828 143.535 72.2486 145.454C58.0949 147.892 45.1495 144.773 33.8763 135.753C25.4051 128.974 20.1132 120.14 18.2785 109.398C17.1068 102.543 17.6861 95.7726 19.9821 89.1852C20.2914 88.294 20.294 87.5207 19.9795 86.6137C13.5422 68.0496 7.14159 49.4751 0.725256 30.9057C-1.75688 23.726 2.3241 16.0796 9.90943 13.7597C15.2616 12.1214 20.1813 12.8842 24.5349 16.52C26.4273 18.1006 27.6959 20.1164 28.4979 22.4468C31.921 32.3946 35.3546 42.3372 38.7856 52.2799C38.8196 52.3821 38.8721 52.4791 38.9166 52.5761C39.0057 52.5734 39.0949 52.5734 39.184 52.5734ZM59.8195 70.5504C59.8195 70.1074 59.8772 69.7535 59.8117 69.4232C59.3346 67.0352 59.5863 64.7206 60.4171 62.4453C60.5193 62.1648 60.5036 61.8319 60.5062 61.5252C60.5927 55.6849 60.6687 49.8447 60.7552 44.007C60.9099 33.9255 61.1117 23.8439 61.1746 13.7597C61.1825 12.5277 60.7002 11.1463 60.0371 10.0873C58.53 7.67831 56.0531 7.24055 53.4006 7.35589C50.2632 7.49219 47.5294 10.1528 47.456 13.2722C47.38 16.4623 47.359 19.6551 47.3092 22.8478C47.2358 27.5557 47.1546 32.2635 47.0786 36.974C46.9685 43.7842 46.8558 50.5944 46.7483 57.4045C46.6933 60.8699 46.6304 64.3326 46.6068 67.798C46.5963 69.1663 46.0171 70.2044 44.9136 70.9331C44.0749 71.4888 43.1916 71.9895 42.2873 72.4325C40.0882 73.5098 37.7267 72.5373 36.9141 70.2175C35.1895 65.292 33.4858 60.3561 31.7821 55.4228C28.2358 45.1499 24.7236 34.8639 21.1328 24.6067C19.7987 20.7953 16.0322 19.351 11.8438 20.8818C8.38135 22.1479 6.92143 25.435 8.19264 29.1075C11.5948 38.9295 15.0021 48.7568 18.4016 58.5867C21.5862 67.798 24.7839 77.004 27.9003 86.2363C28.2122 87.1642 28.2358 88.315 28.0157 89.2744C27.3761 92.0556 26.3723 94.7581 25.8271 97.5551C25.1902 100.826 25.2793 104.158 25.8114 107.736C26.4745 106.68 27.0118 105.846 27.5255 105.002C32.9852 96.0714 38.395 87.1118 43.9359 78.2334C44.9424 76.6187 46.3211 75.1403 47.802 73.9371C51.2408 71.1402 55.3192 70.2175 59.8195 70.5504ZM79.003 133.058C79.003 132.631 79.0187 132.201 78.9978 131.774C78.9768 131.349 78.9427 130.922 78.8693 130.502C77.9651 125.477 74.8513 122.03 70.7415 119.377C65.7038 116.124 60.2022 115.831 54.5014 117.102C52.8528 117.469 51.0075 116.722 50.0404 115.259C49.0575 113.773 49.1256 112.258 50.0823 110.782C54.3022 104.276 58.5405 97.7805 62.7499 91.2666C63.544 90.0372 64.5033 88.8261 64.9306 87.463C65.7877 84.7159 64.8834 82.3043 62.687 80.4851C60.3699 78.5637 57.7463 78.2518 54.9391 79.3239C52.6981 80.181 51.6287 82.0736 50.4729 84.0082C46.9895 89.8327 43.3803 95.5812 39.8209 101.359C36.5682 106.638 33.3416 111.936 30.0444 117.186C29.4284 118.166 29.4127 118.893 30.0077 119.896C32.3299 123.818 35.1397 127.336 38.7358 130.125C50.0089 138.864 62.5218 141.087 76.1408 136.914C79.4512 135.897 78.9375 136.455 79.003 133.058ZM67.8399 99.1252C65.8846 102.14 63.9818 105.081 62.0631 108.038C75.7136 110.006 84.827 116.853 87.8779 130.631C97.2246 125.551 104.666 106.803 101.313 96.462C97.277 98.0007 93.3664 97.7281 89.655 95.4973C85.4403 102.098 75.2104 104.441 67.8399 99.1252ZM71.9891 92.8315C74.1357 95.0412 76.7568 95.2011 79.5089 94.441C82.5493 93.5995 84.3342 90.9179 83.9227 87.8117C83.0001 80.818 81.9989 73.8322 81.0527 66.8412C80.725 64.4218 79.6976 62.5003 77.4225 61.3968C75.8551 60.6366 74.217 60.6444 72.5395 60.9092C69.7743 61.347 67.4049 63.6878 67.3131 66.4847C67.2528 68.3223 67.5752 70.186 67.8609 72.0157C68.0025 72.92 67.8845 73.8873 68.7914 74.658C74.099 79.1614 75.3991 86.6793 71.9891 92.8315ZM93.445 60.8804C92.0821 60.7991 90.7532 61.2919 89.7624 62.3247C89.1334 62.9774 88.4126 63.9552 88.4493 64.7547C88.5541 67.0273 89.0312 69.2843 89.3536 71.5465C90.035 76.3461 90.706 81.1483 91.3875 85.9479C91.5395 87.0096 91.4189 88.2704 91.9536 89.0909C93.9063 92.0792 98.8968 91.9088 100.967 88.9834C102.262 87.1537 101.882 85.2192 101.602 83.2637C100.776 77.4654 99.9059 71.6749 99.1196 65.874C98.7133 62.8568 96.5903 60.8804 93.445 60.8804Z" fill="currentColor"/>
</svg>
