<svg viewBox="0 0 178 179" xmlns="http://www.w3.org/2000/svg">
<path d="M81.29 0.970001C86.29 0.970001 91.29 0.970001 96.29 0.970001C98.97 1.47 101.66 1.95 104.33 2.47C137.14 8.94 159.67 27.92 171.92 58.87C174.66 65.8 175.74 73.4 177.58 80.68C177.58 86.73 177.58 92.78 177.58 98.83C176.92 102.13 176.29 105.43 175.59 108.71C166.03 152.98 123.8 183.88 78.3 177.76C42.09 172.89 17.73 152.58 4.95 118.57C2.4 111.8 1.6 104.38 0 97.26C0 92.26 0 87.26 0 82.26C0.51 79.57 0.98 76.88 1.52 74.2C8.34 40.4 28.07 17.58 60.37 5.84C67.05 3.42 74.3 2.55 81.29 0.970001ZM149.36 127.46C161.22 111.19 165.45 82.87 153.6 58.96C142.39 36.35 124.04 23.27 98.74 18.77C98.74 20.82 98.74 22.24 98.74 23.66C98.74 39.71 98.86 55.75 98.64 71.8C98.59 75.43 99.74 77.92 102.26 80.35C109.17 87 115.9 93.83 122.68 100.62C131.58 109.53 140.45 118.48 149.36 127.46ZM78.87 18.77C52.94 23.45 34.09 36.89 23.44 60.49C13.15 83.29 15.14 105.71 27.88 127.82C44.41 111.27 60.5 95.24 76.42 79.03C77.85 77.58 78.75 74.97 78.77 72.89C78.96 56.46 78.87 40.03 78.87 23.59C78.87 22.18 78.87 20.76 78.87 18.77ZM135.77 143.9C123.33 131.37 111.04 118.98 98.93 106.79C98.93 124.28 98.93 142.23 98.93 160.16C108.27 160.72 126.03 152.72 135.77 143.9ZM78.71 105.92C66.02 118.59 53.71 130.9 41.19 143.39C51.94 152.7 64.21 158.65 78.71 160.58C78.71 142.15 78.71 124.23 78.71 105.92Z" fill="currentColor"/>
</svg>
