<svg viewBox="0 0 300 300" fill="currentColor" style="fill: currentColor;" xmlns="http://www.w3.org/2000/svg">
<path d="M136.898 0.279973C144.825 0.186648 152.751 0.0933242 160.659 0C161.144 0.242643 161.592 0.597275 162.095 0.690599C172.689 2.7064 183.563 3.84496 193.858 6.86866C219.354 14.3719 241.157 28.2026 259.323 47.6887C281.051 71.0011 293.939 98.4757 298.266 130.038C298.676 133.024 299.273 135.973 299.795 138.941C299.87 145.194 299.944 151.428 300 157.681C299.758 158.166 299.366 158.614 299.31 159.118C298.807 163.989 298.695 168.917 297.837 173.714C291.216 210.745 274.02 241.99 244.887 265.806C209.152 294.998 168.026 305.469 122.574 297.312C87.2865 290.985 57.6688 273.944 35.1385 246.189C0.783539 203.82 -8.35541 155.851 7.62843 103.627C16.7674 73.7075 34.7096 49.5552 59.4966 30.5917C78.6511 15.9398 100.137 6.43937 124.01 2.55708C128.318 1.84782 132.608 1.02657 136.898 0.279973ZM248.039 158.203C248.113 159.267 248.169 159.846 248.188 160.424C248.188 161.619 248.263 162.832 248.132 164.027C245.39 188.571 234.517 208.916 215.549 224.538C191.526 244.341 163.569 251.434 133.074 246.525C102.319 241.579 78.3154 225.77 62.5927 198.389C56.1768 187.208 52.745 175.076 51.8871 162.141C53.8267 162.123 55.6918 162.571 57.072 161.955C58.5827 161.283 60.2613 159.771 60.653 158.297C60.8954 157.363 59.0677 155.012 57.8553 154.75C49.966 152.996 42.1326 153.052 35.1758 157.849C33.8703 158.744 32.5274 161.171 32.8445 162.533C33.4972 165.426 36.2016 165.52 38.7009 164.773C40.0064 164.381 41.2187 163.672 42.7481 162.981C43.3636 166.826 43.8672 170.242 44.4826 173.62C48.8843 198.258 61.6601 217.893 80.9452 233.348C98.477 247.402 118.751 254.588 141.132 256.287C161.237 257.799 180.448 254.588 198.558 245.853C223.942 233.591 242.313 214.478 251.694 187.675C254.79 178.809 256.059 169.309 258.185 159.939C258.241 159.958 259.08 160.294 259.845 160.76C262.4 162.291 264.825 162.141 266.41 159.584C268.107 156.841 266.186 155.198 263.967 153.873C256.711 149.543 248.953 149.58 241.119 151.521C240.056 151.783 238.657 154.489 238.993 155.609C239.385 157.009 241.268 158.446 242.798 158.894C244.215 159.342 246.006 158.521 248.039 158.203ZM174.703 92.2417C175.505 99.1103 175.934 106.054 177.221 112.848C178.508 119.604 180.411 126.268 184.756 131.904C188.692 137 193.485 137.373 197.569 132.39C199.621 129.87 201.337 126.828 202.363 123.748C208.853 104.28 208.611 84.6077 203.37 64.9163C201.952 59.5968 200.087 54.4453 195.947 50.5257C192.459 47.2221 188.486 47.1661 185.316 50.7124C183.451 52.8028 181.884 55.3039 180.765 57.8797C175.972 68.8173 175.132 80.4455 174.703 92.2417ZM127.199 92.503C126.379 85.6343 125.875 78.7283 124.663 71.9343C123.432 65.0283 121.474 58.2343 116.811 52.6722C112.54 47.558 107.131 47.7073 103.587 53.3441C101.331 56.9278 99.4469 60.8847 98.2719 64.935C94.2433 78.915 93.6278 93.2682 95.8846 107.528C97.0409 114.826 99.5588 121.993 102.17 128.955C103.662 132.95 106.553 136.776 111.533 136.664C116.363 136.552 118.545 132.558 120.392 128.787C125.987 117.346 126.733 105.008 127.199 92.503Z" fill="#FBAB19" style="fill: currentColor;"/>
</svg>
