<svg xmlns="http://www.w3.org/2000/svg" width="1147" height="270" fill="none" viewBox="0 0 1147 270"><path fill="#000" fill-rule="evenodd" d="M135 .5c0 .285-1.5.5-3.5.5s-3.5.214-3.5.5c0 .275-.675.5-1.5.5s-1.5.225-1.5.5-.45.5-1 .5-1 .225-1 .5-.45.5-1 .5-1 .225-1 .5-.45.5-1 .5-1 .225-1 .5-.355.5-.789.5c-.435 0-1.654.9-2.711 2s-2.173 2-2.48 2c-.307 0-2.566 2.025-5.02 4.5-2.454 2.475-4.717 4.5-5.03 4.5-.313 0-1.199.675-1.97 1.5-.771.825-1.712 1.5-2.09 1.5-.379 0-1.013.45-1.41 1s-1.072 1-1.5 1c-.428 0-1.103.45-1.5 1s-1.121 1-1.61 1c-.49 0-.89.225-.89.5s-.4.5-.89.5c-.489 0-1.213.45-1.61 1s-1.121 1-1.61 1c-.49 0-.89.225-.89.5s-.45.5-1 .5-1 .225-1 .5-.45.5-1 .5-1 .225-1 .5-.675.5-1.5.5-1.5.225-1.5.5-.45.5-1 .5-1 .225-1 .5-.675.5-1.5.5-1.5.225-1.5.5-.675.5-1.5.5-1.5.225-1.5.5-.675.5-1.5.5-1.5.225-1.5.5-.675.5-1.5.5-1.5.225-1.5.5-.9.5-2 .5-2 .225-2 .5c0 .278-1.334.5-3 .5s-3 .222-3 .5c0 .285-1.5.5-3.5.5s-3.5.215-3.5.5c0 .275-.9.5-2 .5s-2 .225-2 .5-.675.5-1.5.5-1.5.225-1.5.5-.45.5-1 .5-1 .225-1 .5-.45.5-1 .5-1 .225-1 .5-.36.5-.8.5c-.439 0-1.43.675-2.2 1.5-.77.825-1.654 1.5-1.964 1.5C32.252 48 28 52.329 28 53.127c0 .358-.45.976-1 1.373s-1 1.072-1 1.5c0 .428-.45 1.103-1 1.5s-1 1.121-1 1.61c0 .49-.225.89-.5.89s-.5.675-.5 1.5-.225 1.5-.5 1.5-.5.675-.5 1.5-.225 1.5-.5 1.5-.5 1.125-.5 2.5-.225 2.5-.5 2.5c-.285 0-.5 1.5-.5 3.5s.215 3.5.5 3.5c.32 0 .5 4.5.5 12.5s-.18 12.5-.5 12.5c-.278 0-.5 1.334-.5 3s-.222 3-.5 3c-.275 0-.5 1.125-.5 2.5s-.225 2.5-.5 2.5-.5.9-.5 2-.225 2-.5 2-.5.9-.5 2-.225 2-.5 2-.5.45-.5 1-.225 1-.5 1-.5.675-.5 1.5-.225 1.5-.5 1.5-.5.675-.5 1.5-.225 1.5-.5 1.5-.5.45-.5 1-.225 1-.5 1-.5.45-.5 1-.225 1-.5 1-.5.45-.5 1-.225 1-.5 1-.5.45-.5 1-.225 1-.5 1-.5.45-.5 1-.225 1-.5 1-.5.4-.5.889c0 .49-.45 1.215-1 1.611-.55.396-1 1.121-1 1.611 0 .489-.225.889-.5.889s-.5.45-.5 1-.225 1-.5 1-.5.45-.5 1-.225 1-.5 1-.5.45-.5 1-.225 1-.5 1-.5.675-.5 1.5-.225 1.5-.5 1.5-.5 1.125-.5 2.5-.225 2.5-.5 2.5c-.3 0-.5 2-.5 5s.2 5 .5 5c.275 0 .5.9.5 2s.225 2 .5 2 .5.675.5 1.5.225 1.5.5 1.5.5.675.5 1.5.225 1.5.5 1.5.5.4.5.889c0 .49.45 1.215 1 1.611.55.396 1 1.072 1 1.5 0 .428.45 1.104 1 1.5.55.396 1 1.015 1 1.374 0 .849 4.277 5.126 5.127 5.126.358 0 .976.45 1.373 1 .396.55 1.031 1 1.41 1 .378 0 1.32.675 2.09 1.5.77.825 1.712 1.5 2.09 1.5.379 0 1.014.45 1.41 1 .396.55 1.031 1 1.41 1 .378 0 1.32.675 2.09 1.5.77.825 1.65 1.5 1.955 1.5C27.672 201 41 214.318 41 215.035c0 .299.9 1.408 2 2.465s2 2.227 2 2.6c0 .374.45 1.004 1 1.4.55.396 1 1.072 1 1.5 0 .428.45 1.104 1 1.5.55.396 1 1.121 1 1.611 0 .489.225.889.5.889s.5.4.5.889c0 .49.45 1.215 1 1.611.55.396 1 1.121 1 1.611 0 .489.225.889.5.889s.5.45.5 1 .225 1 .5 1 .5.45.5 1 .225 1 .5 1 .5.45.5 1 .225 1 .5 1 .5.675.5 1.5.225 1.5.5 1.5.5.675.5 1.5.225 1.5.5 1.5.5.45.5 1 .225 1 .5 1 .5.675.5 1.5.225 1.5.5 1.5.5.45.5 1 .225 1 .5 1 .5.4.5.889c0 .49.45 1.215 1 1.611.55.396 1 1.012 1 1.367 0 .844 8.289 9.133 9.132 9.133.356 0 .971.45 1.368 1 .397.55 1.121 1 1.61 1 .49 0 .89.225.89.5s.675.5 1.5.5 1.5.225 1.5.5.675.5 1.5.5 1.5.225 1.5.5.9.5 2 .5 2 .225 2 .5c0 .303 2.166.5 5.5.5s5.5-.197 5.5-.5c0-.275 1.125-.5 2.5-.5s2.5-.225 2.5-.5.675-.5 1.5-.5 1.5-.225 1.5-.5.675-.5 1.5-.5 1.5-.225 1.5-.5.675-.5 1.5-.5 1.5-.225 1.5-.5 1.125-.5 2.5-.5 2.5-.225 2.5-.5.9-.5 2-.5 2-.225 2-.5c0-.292 1.667-.5 4-.5s4-.208 4-.5c0-.315 3.333-.5 9-.5s9 .185 9 .5c0 .292 1.667.5 4 .5s4 .208 4 .5c0 .275.9.5 2 .5s2 .225 2 .5 1.125.5 2.5.5 2.5.225 2.5.5.675.5 1.5.5 1.5.225 1.5.5.675.5 1.5.5 1.5.225 1.5.5.675.5 1.5.5 1.5.225 1.5.5 1.125.5 2.5.5 2.5.225 2.5.5c0 .303 2.167.5 5.5.5s5.5-.197 5.5-.5c0-.275.9-.5 2-.5s2-.225 2-.5.675-.5 1.5-.5 1.5-.225 1.5-.5.625-.5 1.389-.5c.816 0 1.687-.413 2.111-1 .396-.55 1.121-1 1.611-1 .489 0 .889-.225.889-.5s.341-.5.757-.5c.921 0 9.243-8.223 9.243-9.133 0-.355.45-.971 1-1.367s1-1.121 1-1.611c0-.489.225-.889.5-.889s.5-.675.5-1.5.225-1.5.5-1.5.5-.45.5-1 .225-1 .5-1 .5-.675.5-1.5.225-1.5.5-1.5.5-.45.5-1 .225-1 .5-1 .5-.675.5-1.5.225-1.5.5-1.5.5-.45.5-1 .225-1 .5-1 .5-.45.5-1 .225-1 .5-1 .5-.45.5-1 .225-1 .5-1 .5-.45.5-1 .225-1 .5-1 .5-.4.5-.889c0-.49.45-1.215 1-1.611.55-.396 1-1.072 1-1.5 0-.428.45-1.104 1-1.5.55-.396 1-1.072 1-1.5 0-.428.45-1.104 1-1.5.55-.396 1-1.031 1-1.41s.675-1.319 1.5-2.09c.825-.771 1.5-1.651 1.5-1.955 0-.717 14.319-15.045 15.035-15.045.299 0 1.408-.9 2.465-2s2.227-2 2.6-2c.374 0 1.004-.45 1.4-1 .396-.55 1.072-1 1.5-1 .428 0 1.104-.45 1.5-1 .396-.55 1.031-1 1.41-1s1.319-.675 2.09-1.5c.771-.825 1.659-1.5 1.974-1.5.314 0 1.123-.552 1.798-1.227s1.228-1.485 1.228-1.8c0-.315.675-1.202 1.5-1.973.825-.771 1.5-1.711 1.5-2.09 0-.379.45-1.014 1-1.41.55-.396 1-1.121 1-1.611 0-.489.225-.889.5-.889s.5-.675.5-1.5.225-1.5.5-1.5.5-.675.5-1.5.225-1.5.5-1.5.5-1.125.5-2.5.225-2.5.5-2.5c.292 0 .5-1.667.5-4s-.208-4-.5-4c-.278 0-.5-1.334-.5-3s-.222-3-.5-3c-.275 0-.5-.675-.5-1.5s-.225-1.5-.5-1.5-.5-.45-.5-1-.225-1-.5-1-.5-.45-.5-1-.225-1-.5-1-.5-.4-.5-.889c0-.49-.45-1.215-1-1.611-.55-.396-1-1.121-1-1.611 0-.489-.225-.889-.5-.889s-.5-.45-.5-1-.225-1-.5-1-.5-.45-.5-1-.225-1-.5-1-.5-.45-.5-1-.225-1-.5-1-.5-.45-.5-1-.225-1-.5-1-.5-.45-.5-1-.225-1-.5-1-.5-.45-.5-1-.225-1-.5-1-.5-.675-.5-1.5-.225-1.5-.5-1.5-.5-.45-.5-1-.225-1-.5-1-.5-.675-.5-1.5-.225-1.5-.5-1.5-.5-.9-.5-2-.225-2-.5-2-.5-.675-.5-1.5-.225-1.5-.5-1.5-.5-1.125-.5-2.5-.225-2.5-.5-2.5c-.278 0-.5-1.334-.5-3s-.222-3-.5-3c-.321 0-.5-4.834-.5-13.5s.179-13.5.5-13.5c.275 0 .5-.9.5-2s-.225-2-.5-2c-.285 0-.5-1.5-.5-3.5s-.215-3.5-.5-3.5c-.275 0-.5-.675-.5-1.5s-.225-1.5-.5-1.5-.5-.45-.5-1-.225-1-.5-1-.5-.45-.5-1-.225-1-.5-1-.5-.45-.5-1-.225-1-.5-1-.5-.36-.5-.8c0-.439-.675-1.43-1.5-2.2-.825-.77-1.5-1.656-1.5-1.968 0-.735-3.297-4.032-4.033-4.032-.311 0-1.196-.675-1.967-1.5-.771-.825-1.761-1.5-2.201-1.5-.44 0-.799-.225-.799-.5s-.45-.5-1-.5-1-.225-1-.5-.45-.5-1-.5-1-.225-1-.5-.675-.5-1.5-.5-1.5-.225-1.5-.5-.9-.5-2-.5-2-.225-2-.5c0-.285-1.5-.5-3.5-.5s-3.5-.215-3.5-.5c0-.278-1.334-.5-3-.5s-3-.222-3-.5c0-.275-.9-.5-2-.5s-2-.225-2-.5-.9-.5-2-.5-2-.225-2-.5-.675-.5-1.5-.5-1.5-.225-1.5-.5-.675-.5-1.5-.5-1.5-.225-1.5-.5-.45-.5-1-.5-1-.225-1-.5-.45-.5-1-.5-1-.225-1-.5-.675-.5-1.5-.5-1.5-.225-1.5-.5-.45-.5-1-.5-1-.225-1-.5-.45-.5-1-.5-1-.225-1-.5-.45-.5-1-.5-1-.225-1-.5-.4-.5-.889-.5c-.49 0-1.215-.45-1.611-1-.396-.55-1.072-1-1.5-1-.428 0-1.104-.45-1.5-1-.396-.55-1.072-1-1.5-1-.428 0-1.104-.45-1.5-1-.396-.55-1.031-1-1.41-1s-1.319-.675-2.09-1.5c-.771-.825-1.658-1.5-1.972-1.5-.314 0-2.351-1.8-4.528-4-2.177-2.2-4.207-4-4.511-4-.305 0-1.65-1.125-2.989-2.5S156.213 6 155.783 6c-.431 0-.783-.225-.783-.5s-.45-.5-1-.5-1-.225-1-.5-.45-.5-1-.5-1-.225-1-.5-.45-.5-1-.5-1-.225-1-.5-.9-.5-2-.5-2-.225-2-.5c0-.278-1.334-.5-3-.5s-3-.222-3-.5c0-.275-.9-.5-2-.5s-2 .225-2 .5zm25 81c0 .3 2 .5 5 .5s5 .2 5 .5c0 .275 1.125.5 2.5.5s2.5.225 2.5.5.675.5 1.5.5 1.5.225 1.5.5.675.5 1.5.5 1.5.225 1.5.5.45.5 1 .5 1 .225 1 .5.45.5 1 .5 1 .225 1 .5.45.5 1 .5 1 .225 1 .5.4.5.889.5c.49 0 1.215.45 1.611 1 .396.55 1.015 1 1.374 1 .849 0 5.126 4.277 5.126 5.126 0 .36.45.977 1 1.374.55.397 1 1.121 1 1.61 0 .49.225.89.5.89s.5.45.5 1 .225 1 .5 1 .5.675.5 1.5.225 1.5.5 1.5c.311 0 .5 2.833.5 7.5s-.189 7.5-.5 7.5c-.275 0-.5.675-.5 1.5s-.225 1.5-.5 1.5-.5.45-.5 1-.225 1-.5 1-.5.4-.5.889c0 .49-.45 1.215-1 1.611-.55.396-1 1.015-1 1.374 0 .849-4.277 5.126-5.126 5.126-.359 0-.978.45-1.374 1-.396.55-1.024 1-1.396 1-.371 0-1.013.338-1.426.75-.666.666-.666.834 0 1.5.413.412 1.104.75 1.536.75.432 0 .786.225.786.5s.45.5 1 .5 1 .225 1 .5.4.5.889.5c.49 0 1.215.45 1.611 1 .396.55 1.013 1 1.37 1 .91 0 7.13 6.317 7.13 7.24 0 .418.225.76.5.76s.5.45.5 1 .225 1 .5 1 .5.45.5 1 .225 1 .5 1 .5.45.5 1 .225 1 .5 1 .5.9.5 2 .225 2 .5 2c.306 0 .5 2.333.5 6s-.194 6-.5 6c-.275 0-.5.9-.5 2s-.225 2-.5 2-.5.45-.5 1-.225 1-.5 1-.5.45-.5 1-.225 1-.5 1-.5.359-.5.799c0 .44-.675 1.43-1.5 2.201-.825.771-1.5 1.664-1.5 1.986 0 .322-.321.907-.714 1.3-.393.393-.978.714-1.3.714-.322 0-1.215.675-1.986 1.5-.771.825-1.711 1.5-2.09 1.5-.379 0-1.014.45-1.41 1-.396.55-1.121 1-1.611 1-.489 0-.889.225-.889.5s-.45.5-1 .5-1 .225-1 .5-.675.5-1.5.5-1.5.225-1.5.5-.675.5-1.5.5-1.5.225-1.5.5-.9.5-2 .5-2 .225-2 .5-1.125.5-2.5.5-2.5.225-2.5.5c0 .3-2 .5-5 .5s-5 .2-5 .5c0 .329-14.333.5-42 .5-27.666 0-42-.171-42-.5 0-.275-.353-.5-.785-.5-2.083 0-2.215-.847-2.215-14.214V172h2.772c2.278 0 2.993-.219 4-1.227L84 169.546v-58.092l-1.228-1.226c-1.007-1.008-1.722-1.228-4-1.228H76V96.215C76 82.847 76.132 82 78.215 82c.431 0 .785-.225.785-.5 0-.329 13.834-.5 40.5-.5 26.667 0 40.5.171 40.5.5zm169.625 1.248c-.465.528-.625 3.976-.625 13.481V109h2.772c2.278 0 2.993.22 4 1.228l1.228 1.226v58.092l-1.228 1.227c-1.007 1.008-1.722 1.227-4 1.227H329v12.786c0 10.414.133 12.918.715 13.5.608.609 7.619.714 47.5.714 30.857 0 46.785-.17 46.785-.5 0-.278 1.334-.5 3-.5s3-.222 3-.5c0-.275.9-.5 2-.5s2-.225 2-.5.675-.5 1.5-.5 1.5-.225 1.5-.5.675-.5 1.5-.5 1.5-.225 1.5-.5.45-.5 1-.5 1-.225 1-.5.45-.5 1-.5 1-.225 1-.5.4-.5.889-.5c.49 0 1.215-.45 1.611-1 .396-.55 1.013-1 1.37-1 .91 0 7.13-6.317 7.13-7.24 0-.418.225-.76.5-.76s.5-.45.5-1 .225-1 .5-1 .5-.45.5-1 .225-1 .5-1 .5-.675.5-1.5.225-1.5.5-1.5c.278 0 .5-1.334.5-3s.222-3 .5-3c.275 0 .5-.675.5-1.5s-.225-1.5-.5-1.5c-.285 0-.5-1.5-.5-3.5s-.215-3.5-.5-3.5c-.275 0-.5-.675-.5-1.5s-.225-1.5-.5-1.5-.5-.625-.5-1.389c0-.816-.413-1.687-1-2.111-.55-.396-1-1.031-1-1.41s-.675-1.319-1.5-2.09c-.825-.771-1.5-1.664-1.5-1.986 0-.755-1.258-2.014-2.013-2.014-.322 0-1.216-.675-1.987-1.5-.771-.825-1.761-1.5-2.201-1.5-.44 0-.799-.225-.799-.5s-.45-.5-1-.5-1-.225-1-.5-.45-.5-1-.5-1-.225-1-.5-.353-.5-.785-.5c-.758 0-2.215-1.127-2.215-1.714 0-.157.45-.286 1-.286s1-.225 1-.5.34-.5.757-.5c.987 0 9.243-8.256 9.243-9.243 0-.416.225-.757.5-.757s.5-.45.5-1 .225-1 .5-1 .5-.45.5-1 .225-1 .5-1 .5-.9.5-2 .225-2 .5-2c.303 0 .5-2.167.5-5.5s-.197-5.5-.5-5.5c-.275 0-.5-.9-.5-2s-.225-2-.5-2-.5-.45-.5-1-.225-1-.5-1-.5-.45-.5-1-.225-1-.5-1-.5-.341-.5-.758c0-.922-7.222-8.242-8.132-8.242-.356 0-.972-.45-1.368-1-.396-.55-1.121-1-1.611-1-.489 0-.889-.225-.889-.5s-.45-.5-1-.5-1-.225-1-.5-.675-.5-1.5-.5-1.5-.225-1.5-.5-.675-.5-1.5-.5-1.5-.225-1.5-.5-.9-.5-2-.5-2-.225-2-.5-1.125-.5-2.5-.5-2.5-.225-2.5-.5c0-.33-15.445-.493-45.375-.481-38.549.016-45.469.126-46 .729zM506 106.5c0 .275-1.125.5-2.5.5s-2.5.225-2.5.5-.675.5-1.5.5-1.5.225-1.5.5-.675.5-1.5.5-1.5.225-1.5.5-.675.5-1.5.5-1.5.225-1.5.5-.45.5-1 .5-1 .225-1 .5-.45.5-1 .5-1 .225-1 .5-.4.5-.889.5c-.49 0-1.215.45-1.611 1-.396.55-1.031 1-1.41 1s-1.319.675-2.09 1.5c-.771.825-1.654 1.5-1.964 1.5-.732 0-5.036 4.304-5.036 5.036 0 .309-.675 1.193-1.5 1.964-.825.771-1.5 1.711-1.5 2.09 0 .379-.45 1.014-1 1.41-.55.396-1 1.121-1 1.611 0 .489-.225.889-.5.889s-.5.45-.5 1-.225 1-.5 1-.5.45-.5 1-.225 1-.5 1-.5.675-.5 1.5-.225 1.5-.5 1.5-.5.675-.5 1.5-.225 1.5-.5 1.5-.5 1.125-.5 2.5-.225 2.5-.5 2.5c-.311 0-.5 2.833-.5 7.5s.189 7.5.5 7.5c.275 0 .5.9.5 2s.225 2 .5 2 .5.9.5 2 .225 2 .5 2 .5.45.5 1 .225 1 .5 1 .5.625.5 1.389c0 .816.413 1.687 1 2.111.55.396 1 1.121 1 1.611 0 .489.225.889.5.889s.5.4.5.889c0 .49.45 1.215 1 1.611.55.396 1 1.012 1 1.368 0 .79 7.26 8.132 8.042 8.132.306 0 1.187.675 1.958 1.5.771.825 1.761 1.5 2.201 1.5.44 0 .799.225.799.5s.45.5 1 .5 1 .225 1 .5.45.5 1 .5 1 .225 1 .5.45.5 1 .5 1 .225 1 .5.45.5 1 .5 1 .225 1 .5.675.5 1.5.5 1.5.225 1.5.5.675.5 1.5.5 1.5.225 1.5.5.9.5 2 .5 2 .225 2 .5c0 .278 1.334.5 3 .5s3 .222 3 .5c0 .317 3.667.5 10 .5s10-.183 10-.5c0-.278 1.334-.5 3-.5s3-.222 3-.5c0-.275.9-.5 2-.5s2-.225 2-.5.675-.5 1.5-.5 1.5-.225 1.5-.5.45-.5 1-.5 1-.225 1-.5.45-.5 1-.5 1-.225 1-.5.45-.5 1-.5 1-.225 1-.5.45-.5 1-.5 1-.225 1-.5.355-.5.789-.5c.435 0 1.654-.9 2.711-2s2.276-2 2.711-2c.602 0 .789-.534.789-2.253 0-2.252-.006-2.259-8.747-11C541.39 167.884 539 165.961 539 167.5c0 .275-.45.5-1 .5s-1 .225-1 .5-.45.5-1 .5-1 .225-1 .5-.45.5-1 .5-1 .225-1 .5-.45.5-1 .5-1 .225-1 .5-.675.5-1.5.5-1.5.225-1.5.5c0 .308-2.5.5-6.5.5s-6.5-.192-6.5-.5c0-.275-.9-.5-2-.5s-2-.225-2-.5-.401-.5-.89-.5-1.214-.45-1.61-1c-.396-.55-1.024-1-1.396-1-.87 0-2.104-1.234-2.104-2.104 0-.372-.45-1-1-1.396-.55-.396-1-1.121-1-1.611 0-.489-.225-.889-.5-.889a.501.501 0 0 1-.5-.5c0-.328 10.762-.5 31.286-.5 34.559 0 32.714.181 32.714-3.214 0-.982.225-1.786.5-1.786.285 0 .5-1.5.5-3.5s-.215-3.5-.5-3.5c-.292 0-.5-1.667-.5-4s-.208-4-.5-4c-.275 0-.5-.9-.5-2s-.225-2-.5-2-.5-.675-.5-1.5-.225-1.5-.5-1.5-.5-.625-.5-1.389c0-.816-.413-1.687-1-2.111-.55-.396-1-1.121-1-1.611 0-.489-.225-.889-.5-.889s-.5-.4-.5-.889c0-.49-.45-1.215-1-1.611-.55-.396-1-1.012-1-1.367 0-.843-9.29-10.133-10.133-10.133-.355 0-.971-.45-1.367-1s-1.121-1-1.61-1c-.489 0-.89-.225-.89-.5s-.45-.5-1-.5-1-.225-1-.5-.45-.5-1-.5-1-.225-1-.5-.675-.5-1.5-.5-1.5-.225-1.5-.5-.45-.5-1-.5-1-.225-1-.5-.9-.5-2-.5-2-.225-2-.5-1.125-.5-2.5-.5-2.5-.225-2.5-.5c0-.317-3.667-.5-10-.5s-10 .183-10 .5zm125 0c0 .275-.9.5-2 .5s-2 .225-2 .5-.675.5-1.5.5-1.5.225-1.5.5-.45.5-1 .5-1 .225-1 .5-.45.5-1 .5-1 .225-1 .5-.401.5-.89.5-1.214.45-1.61 1c-.396.55-1.031 1-1.41 1-.378 0-1.319.675-2.09 1.5-2.3 2.462-3 2.049-3-1.772 0-2.809-.174-3.447-1.227-4.5L608.545 107h-15.272c-9.849 0-15.273.178-15.273.5 0 .275-.354.5-.786.5-2.275 0-2.214-1.245-2.214 45.5 0 37.528.106 44.178.714 44.786 1.062 1.062 35.51 1.062 36.572 0 .598-.598.714-4.352.714-23 0-14.524.174-22.286.5-22.286.275 0 .5-.9.5-2s.225-2 .5-2 .5-.45.5-1 .225-1 .5-1 .5-.344.5-.763c0-.993 4.244-5.237 5.237-5.237.419 0 .763-.225.763-.5s.675-.5 1.5-.5 1.5-.225 1.5-.5c0-.308 2.591-.5 6.773-.5 6.524 0 6.818-.045 8-1.227l1.227-1.227v-14.559c0-11.951-.128-14.686-.714-15.272-.846-.847-9.286-1.041-9.286-.215zm49 0c0 .275-.9.5-2 .5s-2 .225-2 .5-.675.5-1.5.5-1.5.225-1.5.5-.675.5-1.5.5-1.5.225-1.5.5-.45.5-1 .5-1 .225-1 .5-.401.5-.89.5-1.214.45-1.61 1c-.396.55-1.072 1-1.5 1-.428 0-1.104.45-1.5 1-.396.55-1.012 1-1.369 1-.356 0-2.331 1.684-4.389 3.742-2.058 2.058-3.742 4.034-3.742 4.39 0 .356-.45.972-1 1.368-.55.396-1 1.121-1 1.611 0 .489-.225.889-.5.889s-.5.45-.5 1-.225 1-.5 1-.5.45-.5 1-.225 1-.5 1-.5.45-.5 1-.225 1-.5 1-.5.675-.5 1.5-.225 1.5-.5 1.5-.5 1.125-.5 2.5-.225 2.5-.5 2.5c-.315 0-.5 3.333-.5 9s.185 9 .5 9c.275 0 .5 1.125.5 2.5s.225 2.5.5 2.5.5.675.5 1.5.225 1.5.5 1.5.5.45.5 1 .225 1 .5 1 .5.45.5 1 .225 1 .5 1 .5.45.5 1 .225 1 .5 1 .5.359.5.799c0 .44.675 1.43 1.5 2.201.825.771 1.5 1.653 1.5 1.96 0 .782 6.338 7.04 7.13 7.04.357 0 .974.45 1.37 1 .396.55 1.072 1 1.5 1 .428 0 1.104.45 1.5 1 .396.55 1.121 1 1.61 1 .489 0 .89.225.89.5s.45.5 1 .5 1 .225 1 .5.675.5 1.5.5 1.5.225 1.5.5.675.5 1.5.5 1.5.225 1.5.5.9.5 2 .5 2 .225 2 .5c0 .315 3.333.5 9 .5s9-.185 9-.5c0-.275.9-.5 2-.5s2-.225 2-.5.45-.5 1-.5 1-.225 1-.5.626-.5 1.39-.5c.816 0 1.686-.413 2.11-1 .396-.55 1.026-1 1.399-1 .374 0 1.544-.9 2.601-2s2.051-2 2.211-2c.159 0 .289 1.8.289 4 0 2.333-.208 4-.5 4-.275 0-.5.675-.5 1.5s-.225 1.5-.5 1.5-.5.343-.5.761c0 .99-5.249 6.239-6.239 6.239-.419 0-.761.225-.761.5s-.675.5-1.5.5-1.5.225-1.5.5c0 .278-1.334.5-3 .5s-3 .222-3 .5c0 .292-1.667.5-4 .5s-4-.208-4-.5c0-.278-1.334-.5-3-.5s-3-.222-3-.5c0-.275-.9-.5-2-.5s-2-.225-2-.5-.675-.5-1.5-.5-1.5-.225-1.5-.5-.675-.5-1.5-.5-1.5-.225-1.5-.5-.45-.5-1-.5-1-.225-1-.5-.45-.5-1-.5-1-.225-1-.5-.45-.5-1-.5-1-.225-1-.5c0-.767-3.478-.594-4.286.214-.393.393-.714 1.068-.714 1.5 0 .432-.225.786-.5.786s-.5.45-.5 1-.225 1-.5 1-.5.45-.5 1-.225 1-.5 1-.5.45-.5 1-.225 1-.5 1-.5.45-.5 1-.225 1-.5 1-.5.675-.5 1.5-.225 1.5-.5 1.5-.5.45-.5 1-.225 1-.5 1-.5.45-.5 1-.225 1-.5 1-.5.45-.5 1-.225 1-.5 1-.5.45-.5 1-.225 1-.5 1-.5.45-.5 1 .225 1 .5 1 .5.45.5 1c0 .666.334 1 1 1 .55 0 1 .225 1 .5s.45.5 1 .5 1 .225 1 .5.45.5 1 .5 1 .225 1 .5.675.5 1.5.5 1.5.225 1.5.5.45.5 1 .5 1 .225 1 .5.675.5 1.5.5 1.5.225 1.5.5.675.5 1.5.5 1.5.225 1.5.5.9.5 2 .5 2 .225 2 .5c0 .278 1.334.5 3 .5s3 .222 3 .5c0 .296 1.833.5 4.5.5s4.5.204 4.5.5c0 .312 3 .5 8 .5s8-.188 8-.5c0-.292 1.667-.5 4-.5s4-.208 4-.5c0-.275.9-.5 2-.5s2-.225 2-.5.9-.5 2-.5 2-.225 2-.5.675-.5 1.5-.5 1.5-.225 1.5-.5.45-.5 1-.5 1-.225 1-.5.45-.5 1-.5 1-.225 1-.5.45-.5 1-.5 1-.225 1-.5.45-.5 1-.5 1-.225 1-.5.359-.5.799-.5c.44 0 1.43-.675 2.201-1.5.771-.825 1.653-1.5 1.961-1.5.783 0 6.039-5.334 6.039-6.129 0-.357.45-.975 1-1.371s1-1.072 1-1.5c0-.428.45-1.104 1-1.5.55-.396 1-1.121 1-1.611 0-.489.225-.889.5-.889s.5-.45.5-1 .225-1 .5-1 .5-.675.5-1.5.225-1.5.5-1.5.5-.675.5-1.5.225-1.5.5-1.5.5-.9.5-2 .225-2 .5-2c.278 0 .5-1.334.5-3s.222-3 .5-3c.329 0 .5-13.924.5-40.773v-40.773l-1.227-1.226-1.228-1.228h-15.272c-9.849 0-15.273.178-15.273.5 0 .275-.354.5-.786.5-1.653 0-2.214 1.322-2.214 5.215 0 2.082-.125 3.785-.278 3.785-.153 0-1.602-1.35-3.222-3-1.62-1.65-3.294-3-3.722-3-.428 0-.778-.225-.778-.5s-.45-.5-1-.5-1-.225-1-.5-.45-.5-1-.5-1-.225-1-.5-.45-.5-1-.5-1-.225-1-.5-.9-.5-2-.5-2-.225-2-.5c0-.315-3.333-.5-9-.5s-9 .185-9 .5zm137 0c0 .275-.9.5-2 .5s-2 .225-2 .5-.45.5-1 .5-1 .225-1 .5-.626.5-1.39.5c-.816 0-1.686.413-2.11 1-.396.55-1.072 1-1.5 1-.428 0-1.104.45-1.5 1-.396.55-1.072 1-1.5 1-.428 0-1.104.45-1.5 1-.396.55-1.121 1-1.61 1-.768 0-.89-.478-.89-3.5 0-3.167-.095-3.5-1-3.5-.55 0-1-.225-1-.5 0-.322-5.5-.5-15.5-.5s-15.5.178-15.5.5c0 .275-.45.5-1 .5-.666 0-1 .334-1 1 0 .55-.225 1-.5 1-.329 0-.5 14.833-.5 43.5s.171 43.5.5 43.5c.275 0 .5.45.5 1 0 .982.334 1 17.786 1 14.748 0 17.908-.122 18.5-.714.599-.599.714-4.552.714-24.5 0-15.524.174-23.786.5-23.786.275 0 .5-.9.5-2s.225-2 .5-2 .5-.569.5-1.263c0-1.413 3.947-5.737 5.237-5.737.419 0 .763-.225.763-.5 0-.294 1.755-.5 4.263-.5h4.263l2.237 2.237c1.469 1.468 2.237 2.67 2.237 3.5 0 .694.225 1.263.5 1.263s.5.9.5 2 .225 2 .5 2c.326 0 .5 8.429.5 24.286 0 20.381.115 24.401.714 25 .592.592 3.752.714 18.5.714 17.452 0 17.786-.018 17.786-1 0-.55.225-1 .5-1 .326 0 .5-8.667.5-25s.174-25 .5-25c.275 0 .5-.675.5-1.5s.225-1.5.5-1.5.5-.345.5-.766c0-.996 3.238-4.234 4.234-4.234.421 0 .766-.225.766-.5 0-.296 1.833-.5 4.5-.5s4.5.204 4.5.5c0 .275.354.5.786.5 1.01 0 2.214 1.204 2.214 2.214 0 .432.225.786.5.786s.5.45.5 1 .225 1 .5 1 .5.675.5 1.5.225 1.5.5 1.5c.326 0 .5 8.762.5 25.286 0 21.248.114 25.4.714 26 1.062 1.062 35.51 1.062 36.572 0 .603-.603.714-5.286.714-30 0-19.191-.173-29.286-.5-29.286-.278 0-.5-1.334-.5-3s-.222-3-.5-3c-.275 0-.5-.9-.5-2s-.225-2-.5-2-.5-.675-.5-1.5-.225-1.5-.5-1.5-.5-.45-.5-1-.225-1-.5-1-.5-.4-.5-.889c0-.49-.45-1.215-1-1.611-.55-.396-1-1.012-1-1.368 0-.909-8.322-9.132-9.243-9.132-.416 0-.757-.225-.757-.5s-.45-.5-1-.5-1-.225-1-.5-.45-.5-1-.5-1-.225-1-.5-.675-.5-1.5-.5-1.5-.225-1.5-.5-.9-.5-2-.5-2-.225-2-.5c0-.313-3.167-.5-8.5-.5s-8.5.187-8.5.5c0 .275-.9.5-2 .5s-2 .225-2 .5-.675.5-1.5.5-1.5.225-1.5.5-.45.5-1 .5-1 .225-1 .5-.45.5-1 .5-1 .225-1 .5-.45.5-1 .5-1 .225-1 .5-.355.5-.789.5c-.435 0-1.654.9-2.711 2s-2.181 2-2.497 2c-.83 0-2.003 1.297-2.003 2.215 0 .539-.469.785-1.5.785-1.01 0-1.5-.249-1.5-.761 0-.927-5.219-6.239-6.129-6.239-.358 0-.975-.45-1.371-1s-1.121-1-1.61-1c-.489 0-.89-.225-.89-.5s-.45-.5-1-.5-1-.225-1-.5-.675-.5-1.5-.5-1.5-.225-1.5-.5-.9-.5-2-.5-2-.225-2-.5c0-.313-3.167-.5-8.5-.5s-8.5.187-8.5.5zm147 0c0 .278-1.334.5-3 .5s-3 .222-3 .5c0 .275-.9.5-2 .5s-2 .225-2 .5-.9.5-2 .5-2 .225-2 .5-.675.5-1.5.5-1.5.225-1.5.5-.45.5-1 .5-1 .225-1 .5-.675.5-1.5.5-1.5.225-1.5.5-.45.5-1 .5-1 .225-1 .5-.348.5-.773.5c-1.447 0-3.227 2.332-3.227 4.228 0 .975.225 1.772.5 1.772s.5.45.5 1 .225 1 .5 1 .5.45.5 1 .225 1 .5 1 .5.45.5 1 .225 1 .5 1 .5.45.5 1 .225 1 .5 1 .5.45.5 1 .225 1 .5 1 .5.45.5 1 .225 1 .5 1 .5.45.5 1 .225 1 .5 1 .5.45.5 1 .225 1 .5 1 .5.348.5.773c0 .425.552 1.325 1.227 2 1.243 1.242 2.773 1.643 2.773.727 0-.275.45-.5 1-.5s1-.225 1-.5.45-.5 1-.5 1-.225 1-.5.675-.5 1.5-.5 1.5-.225 1.5-.5.675-.5 1.5-.5 1.5-.225 1.5-.5.9-.5 2-.5 2-.225 2-.5c0-.31 2.667-.5 7-.5s7 .19 7 .5c0 .275.675.5 1.5.5s1.5.225 1.5.5.45.5 1 .5 1 .225 1 .5.348.5.773.5c1 0 3.227 2.227 3.227 3.227 0 .425.225.773.5.773s.5.675.5 1.5.225 1.5.5 1.5.5.225.5.5c0 .322-5 .5-14 .5s-14 .178-14 .5c0 .278-1.334.5-3 .5s-3 .222-3 .5c0 .275-.9.5-2 .5s-2 .225-2 .5-.675.5-1.5.5-1.5.225-1.5.5-.45.5-1 .5-1 .225-1 .5-.45.5-1 .5-1 .225-1 .5-.359.5-.799.5c-.44 0-1.43.675-2.201 1.5-.771.825-1.665 1.5-1.987 1.5-.794 0-2.013 1.274-2.013 2.104 0 .372-.45 1-1 1.396-.55.396-1 1.121-1 1.611 0 .489-.225.889-.5.889s-.5.45-.5 1-.225 1-.5 1-.5.45-.5 1-.225 1-.5 1-.5 1.125-.5 2.5-.225 2.5-.5 2.5c-.278 0-.5 1.334-.5 3s.222 3 .5 3 .5 1.334.5 3 .222 3 .5 3c.275 0 .5.675.5 1.5s.225 1.5.5 1.5.5.4.5.889c0 .49.45 1.215 1 1.611.55.396 1 1.013 1 1.37 0 .845 6.285 7.13 7.13 7.13.357 0 .974.45 1.37 1 .396.55 1.121 1 1.61 1 .489 0 .89.225.89.5s.675.5 1.5.5 1.5.225 1.5.5.675.5 1.5.5 1.5.225 1.5.5 1.125.5 2.5.5 2.5.225 2.5.5c0 .31 2.667.5 7 .5s7-.19 7-.5c0-.275 1.125-.5 2.5-.5s2.5-.225 2.5-.5.675-.5 1.5-.5 1.5-.225 1.5-.5.401-.5.89-.5 1.214-.45 1.61-1c.396-.55 1.013-1 1.371-1 .91 0 6.129-5.312 6.129-6.239 0-.427.438-.761 1-.761.922 0 1 .334 1 4.286 0 3.048.206 4.492.714 5 1.06 1.06 32.516 1.06 33.576 0 .6-.601.71-4.952.71-27.5 0-17.524-.17-26.786-.5-26.786-.29 0-.5-1.5-.5-3.5s-.21-3.5-.5-3.5c-.28 0-.5-.9-.5-2s-.22-2-.5-2-.5-.675-.5-1.5-.22-1.5-.5-1.5-.5-.45-.5-1-.22-1-.5-1-.5-.45-.5-1-.22-1-.5-1-.5-.4-.5-.889c0-.49-.45-1.215-1-1.611-.55-.396-1-1.013-1-1.37 0-.845-6.28-7.13-7.13-7.13-.36 0-.97-.45-1.37-1-.4-.55-1.12-1-1.61-1s-.89-.225-.89-.5-.45-.5-1-.5-1-.225-1-.5-.45-.5-1-.5-1-.225-1-.5-.45-.5-1-.5-1-.225-1-.5-.68-.5-1.5-.5c-.825 0-1.5-.225-1.5-.5s-.9-.5-2-.5-2-.225-2-.5c0-.278-1.334-.5-3-.5s-3-.222-3-.5c0-.319-4.333-.5-12-.5s-12 .181-12 .5zm129 0c0 .275-.9.5-2 .5s-2 .225-2 .5-.68.5-1.5.5-1.5.225-1.5.5-.68.5-1.5.5-1.5.225-1.5.5-.4.5-.89.5-1.21.45-1.61 1c-.4.55-1.03 1-1.4 1-.37 0-1.54.9-2.6 2-2.96 3.081-3.5 2.773-3.5-2 0-3.667-.08-4-1-4-.55 0-1-.225-1-.5 0-.322-5.5-.5-15.5-.5s-15.5.178-15.5.5c0 .275-.45.5-1 .5-.67 0-1 .334-1 1 0 .55-.22 1-.5 1-.33 0-.5 14.833-.5 43.5s.17 43.5.5 43.5c.28 0 .5.45.5 1 0 .982.33 1 17.79 1 14.74 0 17.9-.122 18.5-.714.59-.599.71-4.486.71-24 0-15.191.17-23.286.5-23.286.28 0 .5-.9.5-2s.22-2 .5-2 .5-.45.5-1 .22-1 .5-1 .5-.344.5-.763c0-.993 4.24-5.237 5.24-5.237.42 0 .76-.225.76-.5 0-.3 2-.5 5-.5s5 .2 5 .5c0 .275.34.5.77.5.99 0 4.23 3.238 4.23 4.234 0 .421.22.766.5.766s.5.9.5 2 .22 2 .5 2c.33 0 .5 8.595.5 24.786 0 20.814.11 24.9.71 25.5 1.07 1.065 43.51 1.065 44.58 0 .58-.582.71-3.086.71-13.5V172h-2.77c-2.28 0-2.99-.219-4-1.227l-1.23-1.227v-14.773c0-9.515-.18-14.773-.5-14.773-.29 0-.5-1.5-.5-3.5s-.21-3.5-.5-3.5c-.28 0-.5-.675-.5-1.5s-.22-1.5-.5-1.5-.5-.675-.5-1.5-.22-1.5-.5-1.5-.5-.625-.5-1.389c0-.816-.41-1.687-1-2.111-.55-.396-1-1.121-1-1.611 0-.489-.22-.889-.5-.889s-.5-.341-.5-.759c0-.924-6.22-7.241-7.13-7.241-.36 0-.97-.45-1.37-1-.4-.55-1.12-1-1.61-1s-.89-.225-.89-.5-.45-.5-1-.5-1-.225-1-.5-.45-.5-1-.5-1-.225-1-.5-.68-.5-1.5-.5-1.5-.225-1.5-.5-.9-.5-2-.5-2-.225-2-.5c0-.313-3.17-.5-8.5-.5s-8.5.187-8.5.5zm-967 3c0 .275-.45.5-1 .5-.778 0-1 .334-1 1.5 0 .825-.225 1.5-.5 1.5-.3 0-.5 2-.5 5s.2 5 .5 5c.275 0 .5.675.5 1.5 0 1.166.222 1.5 1 1.5.55 0 1 .225 1 .5 0 .318 4 .5 11 .5s11-.182 11-.5c0-.275.9-.5 2-.5s2-.225 2-.5.348-.5.773-.5c.425 0 1.325-.552 2-1.227s1.227-1.575 1.227-2c0-.425.225-.773.5-.773.278 0 .5-1.334.5-3s-.222-3-.5-3c-.275 0-.5-.347-.5-.772 0-1.215-2.324-3.228-3.727-3.228-.7 0-1.273-.225-1.273-.5s-1.125-.5-2.5-.5-2.5-.225-2.5-.5c0-.317-3.667-.5-10-.5s-10 .183-10 .5zm274 0c0 .275.9.5 2 .5s2 .225 2 .5.45.5 1 .5 1 .225 1 .5.45.5 1 .5c.666 0 1 .334 1 1 0 .55.225 1 .5 1s.5.45.5 1 .225 1 .5 1 .5.9.5 2-.225 2-.5 2-.5.573-.5 1.273c0 1.403-2.013 3.727-3.228 3.727-.425 0-.772.225-.772.5s-.9.5-2 .5-2 .225-2 .5c0 .319-4.091.5-11.272.5h-11.274l-1.226-1.227c-1.179-1.178-1.228-1.49-1.228-7.786 0-6.783.334-7.987 2.215-7.987.432 0 .785-.225.785-.5 0-.317 3.833-.5 10.5-.5s10.5.183 10.5.5zm122 23c0 .275.45.5 1 .5s1 .225 1 .5.345.5.766.5c.996 0 4.234 3.238 4.234 4.234 0 .421.225.766.5.766s.5.45.5 1 .225 1 .5 1 .5.675.5 1.5v1.5h-29v-1.5c0-.825.225-1.5.5-1.5s.5-.45.5-1 .225-1 .5-1 .5-.344.5-.763c0-1.29 4.324-5.237 5.737-5.237.694 0 1.263-.225 1.263-.5 0-.303 2.167-.5 5.5-.5s5.5.197 5.5.5zm181 3c0 .275.675.5 1.5.5s1.5.225 1.5.5.342.5.761.5c.99 0 6.239 5.249 6.239 6.239 0 .418.225.761.5.761s.5.9.5 2 .225 2 .5 2 .5.9.5 2-.225 2-.5 2-.5.9-.5 2-.225 2-.5 2-.5.343-.5.761c0 .99-5.249 6.239-6.239 6.239-.419 0-.761.225-.761.5s-.675.5-1.5.5-1.5.225-1.5.5c0 .292-1.667.5-4 .5s-4-.208-4-.5c0-.275-.675-.5-1.5-.5s-1.5-.225-1.5-.5-.401-.5-.89-.5-1.214-.45-1.61-1c-.396-.55-1.024-1-1.396-1-.87 0-2.104-1.234-2.104-2.104 0-.372-.45-1-1-1.396-.587-.424-1-1.295-1-2.111 0-.764-.225-1.389-.5-1.389-.292 0-.5-1.667-.5-4s.208-4 .5-4c.275 0 .5-.675.5-1.5s.225-1.5.5-1.5.5-.345.5-.766c0-.996 3.238-4.234 4.234-4.234.421 0 .766-.225.766-.5s.45-.5 1-.5 1-.225 1-.5.675-.5 1.5-.5 1.5-.225 1.5-.5c0-.292 1.667-.5 4-.5s4 .208 4 .5zm-578.375 18.248c-.343.391-.625 1.282-.625 1.981 0 .699-.225 1.271-.5 1.271-.303 0-.5 2.167-.5 5.5s.197 5.5.5 5.5c.275 0 .5.675.5 1.5 0 1.166.222 1.5 1 1.5.55 0 1 .225 1 .5 0 .32 4.5.5 12.5.5s12.5-.18 12.5-.5c0-.278 1.334-.5 3-.5s3-.222 3-.5c0-.275.345-.5.766-.5.422 0 1.547-.78 2.5-1.734 1.692-1.691 1.734-1.831 1.734-5.766s-.042-4.075-1.734-5.766c-.953-.954-2.078-1.734-2.5-1.734-.421 0-.766-.225-.766-.5s-.9-.5-2-.5-2-.225-2-.5c0-.322-4.946-.493-13.875-.481-11.34.015-13.989.149-14.5.729zM406 153.5c0 .275.9.5 2 .5s2 .225 2 .5.345.5.767.5c.422 0 1.547.78 2.5 1.734 1.671 1.671 1.733 1.868 1.733 5.5 0 2.177-.211 3.766-.5 3.766-.275 0-.5.348-.5.773 0 1-2.227 3.227-3.228 3.227-.425 0-.772.225-.772.5s-1.125.5-2.5.5-2.5.225-2.5.5c0 .32-4.667.5-13 .5s-13-.18-13-.5c0-.275-.353-.5-.785-.5-1.907 0-2.215-1.179-2.215-8.482 0-6.625.069-7.127 1.125-8.256l1.125-1.201 13.875-.03c8.937-.02 13.875.147 13.875.469zm582 12c0 1.375-.225 2.5-.5 2.5s-.5.675-.5 1.5-.225 1.5-.5 1.5-.5.57-.5 1.266c0 1.409-2.974 4.734-4.234 4.734-.421 0-.766.225-.766.5 0 .299-1.963.5-4.89.5-4.316 0-4.974-.118-5.61-1-.396-.55-1.121-1-1.61-1-.556 0-.89-.374-.89-1 0-.55-.225-1-.5-1-.282 0-.5-1.422-.5-3.266 0-3.061.11-3.376 1.734-5 1.065-1.066 2.221-1.734 3-1.734.696 0 1.266-.225 1.266-.5 0-.311 2.833-.5 7.5-.5h7.5v2.5z" clip-rule="evenodd"/></svg>