<svg xmlns="http://www.w3.org/2000/svg" xmlns:xlink="http://www.w3.org/1999/xlink" id="Layer_1" x="0" y="0" version="1.1" viewBox="0 0 306 44" xml:space="preserve"><style>.st0{clip-path:url(#SVGID_2_)}.st1{fill:#010101}</style><defs><path id="SVGID_1_" d="M0 0h306v44H0z"/></defs><clipPath id="SVGID_2_"><use overflow="visible" xlink:href="#SVGID_1_"/></clipPath><g class="st0"><path d="M46.6 4.8h9.5c1.4 0 2.7.2 4 .5 1.2.3 2.4.9 3.5 1.6s1.9 1.7 2.6 2.9c.7 1.2 1 2.6 1 4.2v1.7c0 3.8-1.7 6.4-5.2 7.8 1.9.7 3.5 1.8 4.5 3.3 1.1 1.5 1.6 3.3 1.6 5.5v1.6c0 3.1-1 5.5-3.1 7.3-2.1 1.7-4.9 2.5-8.5 2.5h-9.8l-.1-38.9zm15.7 11v-.7c0-1.9-.6-3.3-1.9-4.2-1.2-.9-2.8-1.4-4.6-1.4h-4.4v11.9h4.5c1.8 0 3.4-.5 4.6-1.4 1.3-.9 1.8-2.3 1.8-4.2zm.7 16.9V32c0-2-.6-3.5-1.8-4.6-1.2-1.1-2.8-1.6-5-1.6h-4.8v13h4.8c2.1 0 3.7-.5 5-1.6 1.2-.9 1.8-2.5 1.8-4.5zM79.5 30.6V17.7c0-2.4.3-4.6 1-6.4.7-1.8 1.5-3.2 2.6-4.2s2.3-1.7 3.6-2.1c1.3-.4 2.7-.7 4.1-.7 1.4 0 2.8.2 4.1.7 1.3.4 2.5 1.2 3.6 2.1 1.1 1 2 2.4 2.7 4.2.7 1.8 1 3.9 1 6.4v12.9c0 2.5-.3 4.6-1 6.4-.7 1.8-1.6 3.2-2.7 4.2s-2.3 1.7-3.6 2.1c-1.3.4-2.6.7-4.1.7-1.5 0-2.8-.2-4.1-.7-1.3-.5-2.5-1.2-3.6-2.1-1.1-1-2-2.4-2.6-4.2s-1-4-1-6.4zm17.6-.4v-12c0-3.2-.6-5.5-1.8-7C94.2 9.7 92.6 9 90.8 9c-1.9 0-3.4.7-4.6 2.1-1.1 1.4-1.7 3.8-1.7 7v12c0 3.2.6 5.5 1.7 7 1.1 1.4 2.7 2.1 4.6 2.1 1.9 0 3.4-.7 4.6-2.1 1.1-1.4 1.7-3.7 1.7-6.9zM132.8 4.8h4.8v38.8h-4.8l-12.7-27.7v27.7h-4.8V4.8h4.8l12.7 27.7V4.8zM168.5 9.5h-11.9v11.9h11.3v4.7h-11.3v12.7h11.9v4.7h-16.8V4.8h16.8v4.7zM180.5 31.7h4.7c0 2.6.7 4.5 1.9 5.7 1.3 1.3 2.8 1.9 4.6 1.9 2.1 0 3.7-.5 4.8-1.7 1.1-1.1 1.7-2.7 1.7-4.8 0-2.1-.6-3.6-1.8-4.6-1.2-1-3-1.8-5.5-2.5-1-.3-1.8-.5-2.4-.7-.7-.2-1.5-.6-2.5-1.2-1-.5-1.8-1.2-2.4-1.9-.6-.7-1.1-1.6-1.6-2.8s-.7-2.5-.7-3.9c0-2 .3-3.7.9-5.2.6-1.4 1.4-2.6 2.5-3.4 1-.8 2.1-1.4 3.4-1.8 1.2-.4 2.5-.6 3.9-.6s2.7.2 3.9.6c1.2.4 2.3 1.1 3.4 2 1.1.9 1.9 2.2 2.5 3.9.6 1.7.9 3.6.9 5.8H198c0-2.5-.6-4.4-1.7-5.7-1.1-1.3-2.5-2-4.2-2-1.7 0-3 .5-4.1 1.6-1.1 1-1.6 2.5-1.6 4.4 0 .5 0 .9.2 1.3.1.4.2.8.3 1.1.1.4.3.7.6.9l.7.7c.2.2.5.4.8.6.4.2.7.4.8.5.2.1.5.2 1 .4.5.1.7.2.9.2.1 0 .4.1.9.2s.7.2.7.2c3.5.8 6 2.1 7.6 4.1 1.6 1.9 2.4 4.3 2.4 7.2 0 2.1-.3 4-.9 5.5-.6 1.5-1.4 2.7-2.5 3.6-1.1.9-2.3 1.5-3.6 1.9-1.3.4-2.8.6-4.3.6-1.4 0-2.8-.2-4.1-.6-1.2-.4-2.5-1.1-3.6-2-1.1-.9-2-2.2-2.7-3.9-.8-1.4-1.1-3.4-1.1-5.6zM233.7 30.6V17.7c0-2.4.3-4.6.9-6.4.6-1.8 1.5-3.2 2.6-4.2s2.3-1.7 3.6-2.1c1.2-.4 2.7-.7 4.1-.7 1.4 0 2.7.2 3.9.6 1.2.4 2.4 1.1 3.5 2 1.1.9 1.9 2.2 2.6 3.9.7 1.7 1 3.8 1.1 6.1v1h-4.9V17c-.2-2.9-.8-4.9-1.9-6.2-1.1-1.3-2.5-1.9-4.2-1.9-1.9 0-3.4.7-4.6 2.1-1.1 1.4-1.7 3.8-1.7 7v12c0 3.2.6 5.5 1.7 7 1.1 1.4 2.7 2.1 4.6 2.1 3.7 0 5.8-2.7 6.1-8v-1h4.9v.9c-.1 2.3-.4 4.3-1.1 6.1-.7 1.7-1.5 3-2.6 4-1.1.9-2.2 1.6-3.5 2-1.2.4-2.5.6-3.9.6-1.5 0-2.8-.2-4.1-.7-1.3-.5-2.5-1.2-3.6-2.1-1.1-1-2-2.4-2.6-4.2-.6-1.5-.9-3.7-.9-6.1zM267.8 30.6V17.7c0-2.4.3-4.6 1-6.4.7-1.8 1.5-3.2 2.6-4.2s2.3-1.7 3.6-2.1c1.3-.4 2.7-.7 4.1-.7 1.4 0 2.8.2 4.1.7 1.3.4 2.5 1.2 3.6 2.1 1.1 1 2 2.4 2.7 4.2.7 1.8 1 3.9 1 6.4v12.9c0 2.5-.3 4.6-1 6.4-.7 1.8-1.6 3.2-2.7 4.2s-2.3 1.7-3.6 2.1c-1.3.4-2.6.7-4.1.7-1.5 0-2.8-.2-4.1-.7-1.3-.5-2.5-1.2-3.6-2.1-1.1-1-2-2.4-2.6-4.2-.7-1.8-1-4-1-6.4zm17.6-.4v-12c0-3.2-.6-5.5-1.8-7-1.1-1.5-2.7-2.2-4.6-2.2-1.9 0-3.4.7-4.6 2.1-1.1 1.4-1.7 3.8-1.7 7v12c0 3.2.6 5.5 1.7 7s2.7 2.1 4.6 2.1c1.9 0 3.4-.7 4.6-2.1 1.2-1.4 1.8-3.7 1.8-6.9zM301.4 43.6V39h4.6v4.6h-4.6z" class="st1"/><path d="M16.4 0C7.4 0 0 7.3 0 16.5v27.1h32.8V16.5C32.8 7.3 25.5 0 16.4 0zm6.3 18.4h-5v10.7H15V18.4h-5v-2.7h5V9.9h2.7v5.8h5v2.7z"/></g></svg>