<svg viewBox="0 0 700 195.3"><path d="M98.2 21.8c-41.8 0-75.8 34-75.8 75.8s34 75.8 75.8 75.8 75.8-34 75.8-75.8-33.8-75.8-75.8-75.8zM77.9 32.5c6.4-2 13.2-3.1 20.3-3.1 7.4 0 14.5 1.2 21.2 3.3-4.4 3-7.5 7.1-9.2 12.1-2.9 8.7.1 16.6 2.9 23.5l.2.7c1.5 4.2 2.3 9.4-1.7 13.1-1.7-1.4-3.4-2.6-5.6-3.6.6-8.6-4.4-16-13.9-20.4l-.7-.4c-6.3-2.9-11.8-5.3-14.4-10.5-3-5.7-1.3-11.1.7-14.7h.2zM109 97.3c0 5.9-4.8 10.7-10.7 10.7-5.9 0-10.7-4.8-10.7-10.7s4.8-10.7 10.7-10.7c6 .1 10.7 4.9 10.7 10.7zm-42.7-60c-.8 5 0 10 2.4 14.5 4.3 8.1 12 11.6 18.9 14.7l.7.4c4 1.8 8.3 5 8.4 10.2-2.3.1-4.4.7-6.4 1.5-5.7-6.5-14.6-8.4-24.5-5l-.8.2c-6.4 2.4-12 4.4-17.7 2.5-5.7-1.8-8.6-6.3-9.9-9.9C43.8 54.3 53.8 44 66.3 37.3zm-33.2 80.4c-1.9-6.3-3-13.1-3-20.1 0-6.8 1.1-13.4 2.9-19.6 3 3.7 6.9 6.3 11.4 7.7 8.8 2.9 16.8 0 23.9-2.6l.8-.2c4.3-1.5 9.7-2.3 13.7 1.8-1.3 1.5-2.4 3.3-3.1 5.2-8.9-.8-16.8 3.9-21.2 13.4l-.4.7c-2.9 6.1-5.3 11.4-10.6 14-5.3 2.6-10.7 1.3-14.1-.2l-.3-.1zm32.4 39.7c-11.9-6.5-21.6-16.5-27.9-28.6 1.1.1 2.1.2 3.2.2 3.8 0 7.4-.8 10.8-2.5 8.3-4 11.9-11.8 15-18.4l.4-.7c1.9-4 5.3-8.4 11.2-8.1.2 2 .7 4 1.4 5.8-6.9 5.6-8.9 14.5-5.1 24.4l.2.8c2.4 6.3 4.5 11.8 2.7 17.2-2 6.1-7.1 8.7-11.2 9.9h-.7zm53.3 5.2c-6.5 2-13.4 3.2-20.6 3.2-7.2 0-14.4-1.2-20.9-3.3 4.4-3 7.5-7.1 9.2-12.1 2.9-8.7-.1-16.6-2.9-23.5l-.2-.7c-1.5-4.2-2.4-9.5 1.9-13.3 1.7 1.4 3.4 2.5 5.3 3.3-.8 8.7 4.2 16.4 13.9 20.8l.7.4c6.3 2.9 11.8 5.3 14.4 10.5 3 5.7 1.3 11.1-.7 14.7.1-.2.1 0-.1 0zm11.7-5c.7-5-.1-9.9-2.4-14.4-4.3-8.1-12-11.6-18.9-14.7l-.7-.4c-4.2-1.9-8.6-5.2-8.4-10.7 2.1-.2 4.2-.7 6.1-1.4 5.7 6.8 14.7 8.9 24.7 5.3l.8-.2c6.4-2.4 12-4.4 17.7-2.5 5.6 1.8 8.4 6.1 9.7 9.6-6.2 12.4-16.2 22.7-28.6 29.4zm35.9-60c0 6.8-1 13.3-2.9 19.5-3-3.6-6.8-6.2-11.3-7.6-8.8-2.9-16.8 0-23.9 2.6l-.8.2c-4.4 1.5-10 2.3-13.9-2 1.3-1.5 2.3-3.2 3.1-5 .8.1 1.5.1 2.3.1 8.1 0 15-4.9 19.1-13.5l.4-.7c2.9-6.1 5.3-11.4 10.6-14 5.3-2.6 10.7-1.4 14.3.2 2 6.4 3 13.2 3 20.2zM145 68.7c-8.3 4-11.9 11.8-15 18.4l-.4.7c-1.9 4.2-5.3 8.6-11.3 8.1-.1-2-.6-4-1.3-5.8 6.9-5.6 8.9-14.5 5.1-24.4l-.4-.8c-2.4-6.3-4.5-11.8-2.7-17.2 2-6.1 7.1-8.7 11.2-9.9l.5-.1c11.9 6.5 21.6 16.5 27.9 28.6-4.5-.6-9.3.3-13.6 2.4z"/><path d="M98.2 1C44.9 1 1.6 44.2 1.6 97.6s43.3 96.6 96.6 96.6 96.6-43.3 96.6-96.6S151.6 1 98.2 1zm0 181c-46.6 0-84.5-37.9-84.5-84.5s38-84.4 84.5-84.4c46.6 0 84.5 37.9 84.5 84.5S144.8 182 98.2 182z"/><path d="M178.6 18c-9-9.2-20.7-15.8-31.1-17.9-.6-.1-1.3.2-1.5.8-.2.6.1 1.3.7 1.5 9.9 4.5 19.5 11.3 27.7 19.6 8.3 8.4 15.1 18.1 19.5 28 .2.5.7.8 1.2.8.1 0 .2 0 .4-.1.6-.2 1.1-.8.8-1.5-2.3-10.8-8.6-22.1-17.7-31.2zM49.6 192.7c-9.9-4.5-19.5-11.3-27.7-19.6-8.3-8.4-15.1-18.1-19.5-28-.2-.6-1-1-1.5-.7-.6.2-1.1.8-.8 1.5 2.3 11.1 8.6 22.2 17.7 31.5 9 9.2 20.7 15.8 31.1 17.9h.2c.6 0 1.1-.4 1.2-1 .3-.7-.1-1.4-.7-1.6zM272.7 59.2H237c-1.2 0-2.1 1-2.1 2.1v73.2c0 1.2 1 2.1 2.1 2.1h7.1c1.2 0 2.1-1 2.1-2.1v-31.1h23.1c1.2 0 2.1-1 2.1-2.1v-7.1c0-1.2-1-2.1-2.1-2.1h-23.1V70.4h26.4c1.2 0 2.1-1 2.1-2.1v-7.1c.1-1.2-.8-2-2-2zM327.7 125.3h-26.4V61.2c0-1.2-1-2.1-2.1-2.1H292c-1.2 0-2.1 1-2.1 2.1v73.2c0 1.2 1 2.1 2.1 2.1h35.7c1.2 0 2.1-1 2.1-2.1v-7.1c-.1-1.1-1-2-2.1-2zM377.5 58.8h-8c-.7 0-1.4.5-1.8 1.1l-16.2 29.8-16.4-29.8c-.4-.7-1.1-1.1-1.8-1.1h-8c-.7 0-1.4.4-1.8 1.1-.4.6-.4 1.4 0 2l22.2 40.9v31.6c0 1.2 1 2.1 2.1 2.1h7.1c1.2 0 2.1-1 2.1-2.1v-30.9l22.2-41.7c.4-.6.4-1.4 0-2-.3-.5-1-1-1.7-1zM697.9 125.3h-26.4V61.2c0-1.2-1-2.1-2.1-2.1h-7.1c-1.2 0-2.1 1-2.1 2.1v73.2c0 1.2 1 2.1 2.1 2.1H698c1.2 0 2.1-1 2.1-2.1v-7.1c-.1-1.1-1.1-2-2.2-2zM527.3 59.2h-7.1c-1.2 0-2.1 1-2.1 2.1v30.8h-25.5V61.3c0-1.2-1-2.1-2.1-2.1h-7.1c-1.2 0-2.1 1-2.1 2.1v73.2c0 1.2 1 2.1 2.1 2.1h7.1c1.2 0 2.1-1 2.1-2.1v-31.1h25.5v31.1c0 1.2 1 2.1 2.1 2.1h7.1c1.2 0 2.1-1 2.1-2.1V61.3c0-1.3-1-2.1-2.1-2.1zM584.7 59.2h-36.1c-1.2 0-2.1 1-2.1 2.1v73.2c0 1.2 1 2.1 2.1 2.1h36.1c1.2 0 2.1-1 2.1-2.1v-7.1c0-1.2-1-2.1-2.1-2.1h-26.9v-21.9h23.4c1.2 0 2.1-1 2.1-2.1v-7.1c0-1.2-1-2.1-2.1-2.1h-23.4V70.4h26.9c1.2 0 2.1-1 2.1-2.1v-7.1c.1-1.2-.9-2-2.1-2zM641.7 59.2h-36c-1.2 0-2.1 1-2.1 2.1v73.2c0 1.2 1 2.1 2.1 2.1h36.1c1.2 0 2.1-1 2.1-2.1v-7.1c0-1.2-1-2.1-2.1-2.1h-26.9v-21.9h23.5c1.2 0 2.1-1 2.1-2.1v-7.1c0-1.2-1-2.1-2.1-2.1h-23.5V70.4h26.9c1.2 0 2.1-1 2.1-2.1v-7.1c-.1-1.2-1.1-2-2.2-2zM466.7 59.1h-7.8c-.7 0-1.3.5-1.4 1.2l-12 51.8-12.2-51.9c-.1-.7-.7-1.2-1.4-1.2h-8c-.7 0-1.3.5-1.4 1.2L410.2 112l-12-51.8c-.1-.7-.7-1.2-1.4-1.2H389c-.5 0-.8.2-1.2.6-.2.4-.4.8-.2 1.3l17.3 74.5c0 .2.1.5.4.7.2.4.7.6 1.2.6h7.8c.7 0 1.3-.5 1.4-1.2l12.4-52 12.2 52c.1.7.7 1.2 1.4 1.2h7.8c.7 0 1.3-.5 1.4-1.2l17.3-74.6c.1-.5 0-1-.2-1.3-.4-.3-.9-.5-1.3-.5z"/></svg>