<svg xmlns="http://www.w3.org/2000/svg" width="195" height="76"><g fill="#1A1919" fill-rule="evenodd"><path d="M28.724 61.85c-.776.397-2.499.714-3.311-1.099-.841-1.88-.734-1.873-.944-3.83-.178-1.66-1.669-2.404-2.993-1.382-.607.469-3.83 4.14-3.893 4.111.076-.265 4.607-13.021 4.783-14.095.168-1.024-1.496-1.706-1.788-.555-.495 1.928-3.12 8.355-3.506 9.554-.631 1.957-1.3 4.244-1.897 6.212-.196.643-.562 1.863-.57 2.488-.009.801.748 1.355 2.361-.059 1.265-1.108 3.162-3.327 5.323-5.927.362 1.6.081 5.457 2.933 6.546 3.686 1.256 8.235-4.494 9.944-5.494 1.079-.631-.861-1.138-2.533-.375-.588.269-2.828 3.352-3.909 3.905"/><path d="M29.473 40.312c-.88.103-6.57 1-8.033 1.331-1.136.258-3.786.893-3.983.904-1.049.061-.953.849-1.019 1.56-.135 1.466-.525 2.871-1.037 4.249-.397 1.07-4.484 14.566-4.695 15.298-.102.357-.975.684-1.287.538-.442-.206-.617-.675-.477-1.192.274-1.013 4.81-15.082 5.317-16.814.187-.64.319-1.3.413-1.961.037-.262-.097-.549-.172-.92-1.909.62-12.409 3.942-12.808 4.08-.473.163-.939.226-1.35-.139-.14-.125-.371-.332-.339-.429.072-.224.242-.512.441-.582C1.677 45.796 9.66 43.297 10.629 43c.79-.242 6.015-1.666 7.843-2.121 1.192-.297 5.399-1.207 6.309-1.378.909-.172 4.536-.795 5.45-.845a57.327 57.327 0 0 1 3.685-.09c.403.003.981-.029 1.198.316.604.959-4.202 1.262-5.641 1.43m82.452 9.888c-.328-.361-.827-.734-1.077-1.232-.243-.486.226-.845.649-1.013.221-.088.547-.002.795.088.218.08.419.252.584.424.234.247.646.595.591.786-.088.298-.487.522-.785.734-.143.102-.357.106-.757.213M50.584 62.456c2.202.115 4.212-.501 6.118-1.562a2.976 2.976 0 0 1 1.216-.365c.493-.032.766.253.401.724-.331.427-.69.865-1.127 1.167-.595.411-1.245.789-1.926 1.017-.934.313-1.91.574-2.886.667-.949.091-1.924-.022-2.882-.108-2.26-.203-3.897-1.385-4.957-3.352-.719-1.336-1.087-6.378 1.787-11.122.661-1.089 5.459-9.423 9.561-10.832 1.679-.66 3.675.042 4.293 1.682.287.76.225 1.824-.075 2.596-.463 1.188-1.262 2.246-1.927 3.355-.413.69-.891 1.346-1.249 2.063-.46.919-1.274 1.608-2.127 1.492-.325-.045-.881-.324-.874-.683.024-1.277 2.614-4.668 3.777-6.657.227-.388.997-2.689-.906-2.241-3.47.815-7.947 8.764-8.496 9.904-.635 1.32-1.304 2.645-1.739 4.037-.569 1.819-.938 3.676-.091 5.581.81 1.826 2.018 2.681 4.109 2.637M153.76 52.46c.092-.593 1.293-.8 2.101-1.925 1.247-1.737 1.474-4.016 2.267-6.002.339-.848.732-1.081 1.373-.869.819.272 1.293.806 1.061 1.53-.397 1.239-1.921 5.205-2.296 6.238 2.778-.48 5.335-.851 7.858-1.384 1.603-.339 3.182-.847 4.72-1.42.683-.254 3.318-1.696 1.546-3.377-4.353-3.944-11.296-4.827-14.974-4.9-8.517-.169-9.638 1.955-10.349 1.783-.481-.116-1.79-1.797.823-3.064 1.802-.873 15.079-1.733 23.555 2.948 1.622.895 3.401 1.935 3.925 3.831.41 1.483-1.191 3.107-2.747 4.103-3.306 2.349-13.537 3.355-14.442 3.352-.861-.003-1.123.997-1.432 1.931-.349 1.051-1.402 4.333-1.893 6.751-.569 2.798-3.95 4.321-1.677-3.263.302-1.459.78-2.891 1.284-4.297.291-.813-.838-1.092-.703-1.966m-79.889 8.609c-3.084 3.113-5.01 3.495-7.104 2.794-.643-.215-1.069-.972-1.653-1.535-.39.288-.876.698-1.413 1.025-.534.325-1.092.666-1.686.822-.905.237-3.145-1.45-1.145-5.701.561-1.191 2.625-3.583 3.687-2.944.758.456.647.925.042 1.527-1.281 1.277-2.687 4.269-2.687 4.635 1.25-.438 2.202-1.161 2.857-1.972.659-.816 1.178-1.744 1.764-2.618.325-.486 1.419-.326 1.851.276.283.395.359.754.046 1.237-.343.529-1.807 2.328-1.893 2.88.943.585 1.875 1.23 3.875.25 1.468-.72 4.562-3.188 4.518-5.149-.017-.735.592-1.102 1.14-1.08 1.029.041 1.484 1.318 1.494 1.335 1.166-.66 2.313-1.338 3.486-1.966 1.313-.702 2.744-1.053 4.219-1.151.42-.028 2.477.15 1.327 1.127-.319.271-.772.377-1.182.475-1.908.452-4.286 1.396-5.877 2.596-2.04 1.539-3.223 3.995-3.472 4.594-.274.66-1.038 1.149-1.776.722-.762-.441-.487-1.932-.418-2.179m29.541-4.401c-.498.143-1.932.695-3.393 2.995-1.047 1.648-.92 2.353-.785 3.062.951-.193 2.553-1.488 3.105-2.505.948-1.746 1.319-3.623 1.073-3.552zm6.798 5.338c-.848.557-1.855 1.336-2.802 1.765-1.974.894-3.163-.012-3.899-1.939-.679.585-1.332 1.193-2.033 1.741-.822.643-1.784.748-2.748.43-.671-.221-1.295-1.35-1.092-2.459.323-1.764 1.222-3.202 2.46-4.484.856-.886 1.83-1.537 3-1.848.746-.198 1.856.049 2.112 1.074.109.438.344.638.656.814.492.276.073.758-.077 1.207-.219.655-1.004 1.644-.75 3.334.125.833.916 1.084 1.946.741 1.315-.44 2.525-1.312 3.262-2.491.481-.769.075-1.532.548-2.306.303-.494.976-.539 1.664-.111.439.274.48.849.261 1.346-.443 1.006-.696 2.072-.407 3.174.142.542.858.822 1.377.546.392-.209.778-.434 1.125-.04.158.179.231.528.187.771-.108.598-.612.832-1.14.898-.941.117-1.835-.072-2.525-.764-.426-.428-.764-.944-1.125-1.399zm12.853-3.873c-.201.185-2.093 2.122-2.913 3.055-.747.852-1.696 1.722-3.121 1.109-.767-.33-1.232-.855-1.232-1.741 0-1.857.832-3.453 1.988-4.864.325-.396.813-.721 1.368-.293 1.074.825.681 1.005.153 1.822-.413.639-.979 2.394-.886 2.468a209.24 209.24 0 0 1 3.805-3.538c1.417-1.255 3.49-.248 3.606 1.532.08 1.223.437 2.408 1.285 3.267.557.564 2.407 2.101 5.686 1.068.553-.174 1.243-.061 1.226.51-.162 1.657-4.077 1.919-5.604 1.441-1.853-.58-3.453-1.592-4.383-3.38-.392-.755-.637-1.585-.978-2.456m-26.995-5.048c1.24.252 3.427-.277 3.387 1.097-.043 1.5-2.635.686-4.119 1.009-.288.959-1.561 6.109-1.833 7.534-.278 1.457-1.54 1.662-2.046 1.334-1.233-1.002.463-6.189 1.038-8.703-.744.099-3.583.31-3.66-.549-.06-.67-.064-1.04.577-1.25.706-.23 2.811-.243 3.67-.37.176-.026 3.649-7.223 4.248-8.587.25-.57.621-.966 1.305-.662 1.068.476 1.328.988.971 1.752-.517 1.106-3.009 6.223-3.538 7.395m47.972-2.711c1.129.252 3.183-1.432 3.822.017.35.793-.824 1.19-1.505 1.395-.776.233-1.592.35-2.399.457-.917.122-1.614.533-1.861 1.244-.45 1.3-.9 2.829-.864 4.204.031 1.167-1.114 1.637-1.576 1.565-.416-.065-1.476-.649-1.075-2.171.395-1.495 1.247-2.787.682-4.016-.214-.466-2.451-.645-2.998-.935-.735-.391-1.137-1.083-.884-1.596.318-.645 1.225-.443 1.781-.322 1.135.247 1.878.424 3.027.57.55.069.965-.312 1.08-.903.067-.343.176-.691.16-1.031-.03-.654.357-.919.879-1.08a1.179 1.179 0 0 1 1.472.66c.239.546.178 1.225.259 1.942"/><path d="M161.436 61.287c-1.583.292-3.747-.536-3.58-1.459.078-.436.501-.719.986-.51 1.193.515 2.407.871 3.236.031.397-.401.658-.799.82-1.083.915-1.598 2.29-2.923 4.049-3.011 1.465-.073 1.798 1.052 1.36 2.023-.873 1.936-2.041 2.256-3.479 3.1-1.966 1.155-1.229 2.179-.55 2.271.813.11 1.644-.064 2.467-.059.238.002 1.444.602-.427 1.245-4.469 1.535-4.857-2.443-4.882-2.548m13.59-2.772c3.183-2.151 4.607.924 7.385 2.443 5.911 2.866 9.148 1.595 11.72 1.355 1.103-.102.858 1.024-1.454 1.521-7.346 1.58-10.28-.895-14.085-2.969-2.534-1.38-5.805 2.637-7.315 3.244-1.149.463-2.462-.372-1.761-2.575.441-1.779 1.267-6.122 2.619-6.255 1.991-.195 1.113 2.496.991 2.962-.204.779-.405 1.559-.607 2.339.048.022 1.629-1.472 2.507-2.065M29.932 61.218c.117-1.522 3.752-5.944 5.511-6.032 1.465-.073 1.798 1.052 1.36 2.022-.873 1.936-2.041 2.256-3.479 3.101-1.966 1.155-1.229 2.179-.55 2.27.813.11 1.644-.063 2.467-.058.238.001 1.444.602-.427 1.244-4.469 1.535-4.857-2.442-4.882-2.547m79.969-52.952c8.853-3.873 24.988-6.82 38.383-4.413l.011.054.232.059c.308.078 1.9.566 2.969 2.496 1.401 2.529 1.299 6.491-.297 11.457-2.025 6.308-9.029 10.014-19.721 10.432-5.98.233-19.882.772-24.901-10.45-.011-.044-.025-.087-.035-.132-.895-3.745-.512-7.809 3.359-9.503zm44.22 9.504c-1.049 4.154-3.283 9.194-13.068 11.088-7.904 1.53-26.136 2.747-31.812-5.016a14.694 14.694 0 0 1-1.253-2.107c6.253 8.039 18.076 7.58 23.52 7.365 11.029-.432 18.276-4.321 20.406-10.951 1.684-5.243 1.764-9.297.238-12.051a6.267 6.267 0 0 0-1.259-1.6c2.991 1.202 5.463 4.429 3.228 13.272zM43.873 4.498c-.44.404-.881.916-1.26 1.601-1.525 2.753-1.445 6.808.239 12.05 2.129 6.63 9.376 10.519 20.406 10.951 5.44.213 17.268.674 23.52-7.367a14.63 14.63 0 0 1-1.254 2.109c-5.676 7.763-23.907 6.546-31.812 5.016-9.785-1.894-12.018-6.934-13.068-11.088-2.234-8.842.237-12.07 3.229-13.272zm40.991 3.768c3.871 1.693 4.255 5.758 3.36 9.503l-.036.135c-5.021 11.219-18.92 10.68-24.901 10.447-10.691-.419-17.695-4.124-19.721-10.432-1.595-4.966-1.698-8.927-.297-11.456 1.069-1.931 2.661-2.419 2.969-2.497l.232-.059.011-.054c13.394-2.407 29.53.54 38.383 4.413zm72.963-4.879C139.048-2.031 116.4 1.456 104.225 6.55c-3.852 1.612-6.473 1.596-6.821 1.585v-.001l-.021.001-.021-.001v.001c-.348.011-2.969.027-6.822-1.585-12.174-5.094-34.823-8.581-53.601-3.163-2.353.679-2.741 3.03-2.526 5.405.214 2.375 2.083 12.18 2.854 14.284.987 2.693 1.468 3.448 3.905 4.462 10.56 4.393 30.096 5.676 41.082 1.601 3.367-1.249 7.626-4.428 9.606-13.008.364-1.577.792-3.233 5.502-3.113h.042c4.71-.12 5.138 1.536 5.501 3.113 1.98 8.58 6.239 11.759 9.607 13.008 10.985 4.075 30.521 2.792 41.081-1.601 2.438-1.014 2.919-1.769 3.905-4.462.771-2.104 2.64-11.909 2.855-14.284.214-2.375-.173-4.726-2.526-5.405zM34.379 71.416a1.58 1.58 0 0 0-.607-.479 1.807 1.807 0 0 0-.761-.168c-.32 0-.61.059-.868.179s-.48.284-.663.492a2.228 2.228 0 0 0-.429.733c-.102.279-.152.58-.152.899 0 .299.048.582.144.849.096.267.234.501.416.703.182.203.402.363.664.481.262.117.558.175.888.175.325 0 .611-.066.856-.2.245-.133.453-.319.624-.559l.648.488a2.613 2.613 0 0 1-.224.252 2.231 2.231 0 0 1-.424.328 2.97 2.97 0 0 1-.636.287 2.711 2.711 0 0 1-.86.124 2.79 2.79 0 0 1-1.212-.256 2.906 2.906 0 0 1-1.5-1.611c-.134-.35-.2-.703-.2-1.061 0-.437.072-.841.216-1.212.144-.37.346-.69.604-.96.259-.269.57-.478.932-.627.362-.15.763-.224 1.2-.224.373 0 .74.071 1.1.216.36.143.655.365.884.664l-.64.487m5.44 3.864c.326 0 .619-.059.88-.179a2.084 2.084 0 0 0 1.104-1.201c.101-.274.152-.566.152-.875 0-.31-.051-.602-.152-.876a2.069 2.069 0 0 0-1.104-1.201 2.081 2.081 0 0 0-.88-.179c-.325 0-.619.059-.88.179a2.075 2.075 0 0 0-1.104 1.201 2.49 2.49 0 0 0-.151.876c0 .309.049.601.151.875a2.09 2.09 0 0 0 1.104 1.201c.261.12.555.179.88.179zm0 .72c-.431 0-.829-.075-1.192-.227a2.81 2.81 0 0 1-.932-.628 2.897 2.897 0 0 1-.608-.945 3.094 3.094 0 0 1-.22-1.175 3.1 3.1 0 0 1 .22-1.176c.146-.364.35-.678.608-.945a2.81 2.81 0 0 1 .932-.628 3.058 3.058 0 0 1 1.192-.227c.432 0 .829.075 1.192.227.363.153.674.362.932.628.259.267.461.581.608.945a3.1 3.1 0 0 1 .221 1.176c0 .421-.074.813-.221 1.175a2.897 2.897 0 0 1-.608.945 2.79 2.79 0 0 1-.932.628c-.363.152-.76.227-1.192.227zm6.15-3.311h1.008c.149 0 .296-.012.444-.037a1.2 1.2 0 0 0 .392-.131.727.727 0 0 0 .276-.277.93.93 0 0 0 .103-.468.929.929 0 0 0-.103-.467.727.727 0 0 0-.276-.277 1.25 1.25 0 0 0-.392-.132 2.76 2.76 0 0 0-.444-.036h-1.008v1.825zm-.769-2.497h1.992c.364 0 .662.05.897.149.234.099.42.223.556.376.135.151.23.322.284.512.052.189.08.372.08.547 0 .176-.028.359-.08.548a1.3 1.3 0 0 1-.284.513 1.546 1.546 0 0 1-.556.376c-.235.099-.533.147-.897.147h-1.223v2.497H45.2v-5.665zm7.45 3.249l-2.144-3.249h.984l1.544 2.489 1.592-2.489h.936l-2.144 3.249v2.416h-.768v-2.416m4.575-3.249h.799l1.252 4.529h.017l1.332-4.529h.88l1.332 4.529h.016l1.252-4.529h.8l-1.648 5.665h-.817l-1.367-4.625h-.016l-1.36 4.625h-.816l-1.656-5.665m10.538 2.497h1.007c.15 0 .297-.012.445-.037.146-.023.277-.068.391-.131a.73.73 0 0 0 .277-.277.93.93 0 0 0 .103-.468.929.929 0 0 0-.103-.467.73.73 0 0 0-.277-.277 1.235 1.235 0 0 0-.391-.132 2.763 2.763 0 0 0-.445-.036h-1.007v1.825zm-.769-2.497h1.992c.364 0 .661.05.897.149.234.099.42.223.556.376.135.151.23.322.284.512.052.189.08.372.08.547a1.484 1.484 0 0 1-.813 1.325c-.173.092-.366.15-.58.172l1.608 2.584h-.959l-1.441-2.497h-.855v2.497h-.769v-5.665zm6.241 5.664h.769v-5.664h-.769zm4.724-4.944h-1.824v-.72h4.416v.72h-1.825v4.945h-.767v-4.945m4.724 4.944h.769v-5.664h-.769zm3.533-5.664h1.009l3.12 4.657h.015v-4.657h.768v5.665h-.976L87 71.2h-.016v4.657h-.768v-5.665m12.521 2.497v2.791a2.54 2.54 0 0 1-.471.224 4.77 4.77 0 0 1-1.124.265c-.195.02-.377.031-.548.031-.481 0-.909-.079-1.284-.239a2.811 2.811 0 0 1-.953-.649 2.765 2.765 0 0 1-.591-.948 3.19 3.19 0 0 1-.205-1.139c0-.421.074-.814.22-1.176a2.796 2.796 0 0 1 1.54-1.573 3.063 3.063 0 0 1 1.193-.227c.522 0 .949.065 1.28.195.33.131.607.312.832.54l-.544.584a2.03 2.03 0 0 0-.744-.468 2.595 2.595 0 0 0-.824-.131c-.326 0-.62.059-.88.179-.262.12-.486.282-.672.485a2.116 2.116 0 0 0-.433.716 2.512 2.512 0 0 0-.151.876c0 .32.056.617.168.891.111.275.266.514.464.717a2.168 2.168 0 0 0 1.567.647c.273 0 .529-.025.773-.076.242-.05.449-.124.62-.22v-1.576h-1.256v-.719h2.023m6.192 1.984c.137.208.315.361.531.46.216.098.438.147.668.147.128 0 .259-.019.392-.059.133-.04.254-.101.364-.181a.974.974 0 0 0 .268-.296.778.778 0 0 0 .104-.407c0-.219-.07-.386-.208-.5a1.79 1.79 0 0 0-.516-.288c-.205-.077-.43-.152-.672-.225a2.72 2.72 0 0 1-.672-.299 1.63 1.63 0 0 1-.516-.516c-.139-.217-.208-.509-.208-.876 0-.166.036-.342.108-.529.072-.186.186-.357.34-.511a1.89 1.89 0 0 1 .596-.389c.243-.103.535-.155.876-.155.309 0 .605.042.888.128.283.085.531.259.745.519l-.624.569a1.045 1.045 0 0 0-.409-.361 1.296 1.296 0 0 0-.6-.135c-.213 0-.391.028-.532.084a.936.936 0 0 0-.339.215.76.76 0 0 0-.181.285.884.884 0 0 0-.052.28c0 .239.07.424.208.552.139.128.311.231.516.311.206.08.43.153.672.217.243.063.467.153.673.268.205.114.377.269.515.463.139.196.208.463.208.804 0 .273-.052.518-.156.736a1.627 1.627 0 0 1-.42.552c-.176.15-.384.265-.624.345-.24.079-.496.119-.768.119a2.79 2.79 0 0 1-1.032-.191 1.703 1.703 0 0 1-.776-.592l.633-.544m5.589-4.481h3.656v.72h-2.888v1.689h2.688v.719h-2.688v1.817h3.032v.72h-3.8v-5.665m6.926 2.497h1.008c.149 0 .297-.012.444-.037.147-.023.278-.068.392-.131a.727.727 0 0 0 .276-.277.92.92 0 0 0 .104-.468.918.918 0 0 0-.104-.467.727.727 0 0 0-.276-.277 1.233 1.233 0 0 0-.392-.132 2.751 2.751 0 0 0-.444-.036h-1.008v1.825zm-.768-2.497h1.992c.363 0 .661.05.896.149.235.099.42.223.556.376.136.151.231.322.284.512.053.189.08.372.08.547 0 .182-.032.357-.095.525a1.516 1.516 0 0 1-.717.8c-.173.092-.366.15-.58.172l1.608 2.584h-.96l-1.44-2.497h-.856v2.497h-.768v-5.665zm5.48 0h.888l1.664 4.609h.016l1.728-4.609h.84l-2.232 5.665h-.72l-2.184-5.665m7.199 5.664h.769v-5.664h-.769zm7.503-4.44a1.58 1.58 0 0 0-.607-.479 1.8 1.8 0 0 0-.761-.168c-.319 0-.609.059-.868.179-.258.12-.479.284-.663.492a2.246 2.246 0 0 0-.429.733c-.101.279-.151.58-.151.899 0 .299.048.582.143.849.096.267.235.501.416.703.182.203.403.363.664.481.262.117.558.175.888.175.325 0 .611-.066.857-.2.245-.133.453-.319.624-.559l.647.488a2.613 2.613 0 0 1-.224.252 2.254 2.254 0 0 1-.423.328 2.993 2.993 0 0 1-.636.287 2.711 2.711 0 0 1-.86.124c-.449 0-.853-.085-1.212-.256a2.904 2.904 0 0 1-1.5-1.611 2.944 2.944 0 0 1-.201-1.061c0-.437.073-.841.216-1.212.145-.37.346-.69.605-.96.259-.269.569-.478.931-.627.363-.15.763-.224 1.201-.224.373 0 .74.071 1.099.216.361.143.655.365.884.664l-.64.487m2.952-1.224h3.656v.72h-2.888v1.689h2.688v.719h-2.688v1.817h3.032v.72h-3.8v-5.665m6.466 4.481c.138.208.316.361.532.46.215.098.438.147.668.147.127 0 .258-.019.392-.059.133-.04.254-.101.363-.181.11-.08.2-.178.269-.296a.787.787 0 0 0 .103-.407c0-.219-.069-.386-.208-.5a1.77 1.77 0 0 0-.515-.288c-.205-.077-.43-.152-.672-.225a2.72 2.72 0 0 1-.672-.299 1.643 1.643 0 0 1-.517-.516c-.138-.217-.208-.509-.208-.876 0-.166.037-.342.109-.529.072-.186.185-.357.34-.511.154-.155.353-.284.595-.389.244-.103.536-.155.876-.155.31 0 .606.042.889.128.282.085.53.259.744.519l-.624.569a1.042 1.042 0 0 0-.408-.361 1.3 1.3 0 0 0-.601-.135c-.213 0-.39.028-.531.084a.941.941 0 0 0-.34.215.757.757 0 0 0-.18.285.857.857 0 0 0-.052.28c0 .239.069.424.208.552.139.128.31.231.515.311.207.08.43.153.672.217.244.063.467.153.673.268.205.114.377.269.516.463.139.196.208.463.208.804a1.64 1.64 0 0 1-.576 1.288c-.176.15-.384.265-.624.345a2.446 2.446 0 0 1-.768.119 2.79 2.79 0 0 1-1.032-.191 1.711 1.711 0 0 1-.777-.592l.633-.544m8.63-2.356h.48v3.089h1.625v.451h-2.105v-3.54m3.476 0h.479v3.089h1.625v.451h-2.104v-3.54m5.826.764c-.1-.13-.227-.229-.38-.3a1.143 1.143 0 0 0-.475-.104c-.2 0-.38.037-.543.112a1.257 1.257 0 0 0-.415.308c-.115.13-.204.282-.267.457a1.622 1.622 0 0 0-.095.562c0 .187.03.363.09.53.06.167.146.314.26.441.113.126.252.227.415.3.163.073.348.109.555.109.204 0 .381-.041.535-.125a1.14 1.14 0 0 0 .39-.35l.405.305a1.378 1.378 0 0 1-.405.363c-.11.068-.243.128-.397.18a1.695 1.695 0 0 1-.538.077c-.28 0-.533-.052-.757-.16a1.815 1.815 0 0 1-.938-1.007 1.83 1.83 0 0 1-.125-.663c0-.273.045-.525.135-.757.09-.232.216-.431.377-.6.162-.168.357-.299.583-.393a1.98 1.98 0 0 1 .75-.139c.233 0 .463.045.688.134.224.09.409.229.552.415l-.4.305"/></g></svg>