<svg xmlns="http://www.w3.org/2000/svg" width="1683" height="523" overflow="visible" viewBox="0 0 1683 523"><path d="M595.699 100.211h52.828l-38.148 201.004h95l-8.797 46.234H548.754zM1014.441 341.934c-11.367 5.518-29.711 9.547-50.979 9.547-44.391 0-75.561-27.141-75.561-73.727 0-63.832 48.771-113.719 117.008-113.719 15.404 0 28.607 2.938 36.311 5.875l-12.844 40.719c-6.227-2.574-13.562-4.406-24.195-4.406-37.797 0-60.896 31.906-60.896 65.656 0 24.57 15.406 37.047 35.219 37.047 15.398 0 26.406-3.664 35.578-7.336l.359 40.344zM1227.191 237.77c0 65.648-44.75 113.71-107.117 113.71-45.479 0-75.93-29.719-75.93-74.095 0-62.354 43.289-113.352 107.107-113.352 48.049.002 75.94 33.018 75.94 73.737M1098.8 276.293c0 20.891 10.273 34.836 28.609 34.836 28.977 0 45.117-42.18 45.117-73 0-16.504-6.971-34.113-28.242-34.113-30.445 0-45.851 44.382-45.484 72.277M1231.66 347.441l22.742-121.051c4.404-22.742 7.328-42.547 9.529-58.312h46.953l-3.664 29.711h.734c16.883-23.477 39.242-33.754 63.094-33.754 29.336 0 45.854 17.977 45.854 48.789 0 8.074-1.479 21.637-2.938 30.445l-19.812 104.172h-52.82l18.719-99.402c1.096-6.234 1.82-13.578 1.82-20.176 0-12.479-4.398-21.273-17.602-21.273-17.234 0-37.414 21.641-44.75 61.258l-15.039 79.594h-52.82v-.001zM1432.519 347.441l34.117-179.363h52.813l-34.11 179.363zM1656.488 341.934c-11.367 5.518-29.711 9.547-50.979 9.547-44.391 0-75.561-27.141-75.561-73.727 0-63.832 48.771-113.719 117-113.719 15.414 0 28.615 2.938 36.311 5.875l-12.836 40.719c-6.227-2.574-13.561-4.406-24.203-4.406-37.779 0-60.891 31.906-60.891 65.656 0 24.57 15.406 37.047 35.219 37.047 15.406 0 26.398-3.664 35.578-7.336l.362 40.344z"/><path d="M841.824 168.074l-32.648 78.863c-7.695 19.441-11.732 31.176-15.771 41.809h-.729c-1.469-11.359-3.297-24.203-5.875-42.543l-11-78.129h-55.75l35.578 162.484c.734 4.047.734 6.25-1.102 8.818-6.609 12.104-16.875 22.742-28.979 31.172-10.281 7.336-22.016 11.742-30.443 14.307-25.971 5.219-43.164 5.154-43.164 5.154l-170.246-.086 5.322 45.023s163.436.039 164.924 0c36.289-.953 54.896-4.971 54.896-4.971 11.742-1.844 36.68-10.641 57.586-30.451 23.854-22.367 45.125-55.023 68.961-102.703l64.195-128.75-55.755.003z"/><path d="M417.129 7.785H105.941c-54.117 0-98.156 44.023-98.156 98.145v311.207c0 54.109 44.039 98.143 98.156 98.143h311.188c54.117 0 98.141-44.031 98.141-98.143V105.93c0-54.121-44.024-98.145-98.141-98.145zm13.87 292.61l-106.801 13.524c-25.551 3.209-58.111 23.401-72.397 44.819l-57.134 85.758c-6.272 9.451-12.465 14.077-17.574 14.077-6.504 0-11.312-7.377-12.641-21.698l-29.166-316.146c-1.629-17.679 5.417-27.788 17.117-27.788 5.216 0 11.37 2.023 18.099 6.287l267.43 170.178c21.712 13.794 18.6 27.753-6.933 30.989z"/></svg>