<svg width="319" height="58" viewBox="0 0 319 58" fill="none" xmlns="http://www.w3.org/2000/svg">
<path d="M0.690002 56.19V2H14.78L40.8 35.13V2H54.82V56.19H40.8L14.78 23.06V56.19H0.690002Z" fill="currentColor"/>
<path d="M70.36 29.1C70.36 25.08 71.1 21.33 72.59 17.85C74.07 14.38 76.14 11.35 78.77 8.76C81.4 6.17 84.56 4.15 88.22 2.69C91.88 1.23 95.92 0.5 100.33 0.5C104.69 0.5 108.71 1.23 112.41 2.69C116.1 4.15 119.27 6.18 121.93 8.76C124.59 11.35 126.66 14.38 128.15 17.85C129.63 21.32 130.38 25.07 130.38 29.1C130.38 33.13 129.64 36.88 128.15 40.35C126.66 43.82 124.59 46.85 121.93 49.44C119.27 52.03 116.1 54.05 112.41 55.51C108.72 56.97 104.69 57.7 100.33 57.7C95.92 57.7 91.89 56.97 88.22 55.51C84.55 54.05 81.4 52.02 78.77 49.44C76.13 46.85 74.07 43.82 72.59 40.35C71.1 36.87 70.36 33.12 70.36 29.1ZM85.09 29.1C85.09 31.26 85.5 33.25 86.31 35.07C87.12 36.89 88.23 38.47 89.62 39.81C91.01 41.15 92.63 42.19 94.47 42.94C96.31 43.68 98.27 44.05 100.33 44.05C102.39 44.05 104.34 43.68 106.19 42.94C108.03 42.2 109.66 41.16 111.08 39.81C112.49 38.47 113.61 36.89 114.42 35.07C115.23 33.25 115.64 31.26 115.64 29.1C115.64 26.94 115.23 24.96 114.42 23.13C113.6 21.31 112.49 19.73 111.08 18.39C109.67 17.05 108.04 16.01 106.19 15.26C104.34 14.52 102.39 14.15 100.33 14.15C98.27 14.15 96.32 14.52 94.47 15.26C92.62 16 91.01 17.05 89.62 18.39C88.23 19.73 87.13 21.31 86.31 23.13C85.5 24.95 85.09 26.94 85.09 29.1Z" fill="currentColor"/>
<path d="M166.33 13.93V56.19H152.24V13.93H140.67V2H177.9V13.93H166.33Z" fill="currentColor"/>
<path d="M210.3 2V56.19H196.21V2H210.3Z" fill="currentColor"/>
<path d="M259.48 15.87C257.95 14.62 256.41 13.7 254.88 13.1C253.35 12.5 251.86 12.2 250.42 12.2C248.6 12.2 247.11 12.63 245.96 13.49C244.81 14.35 244.23 15.48 244.23 16.87C244.23 17.83 244.52 18.62 245.09 19.24C245.67 19.86 246.42 20.4 247.35 20.86C248.28 21.32 249.34 21.71 250.51 22.05C251.68 22.39 252.85 22.75 254 23.13C258.6 24.66 261.97 26.71 264.1 29.28C266.23 31.84 267.3 35.19 267.3 39.31C267.3 42.09 266.83 44.6 265.9 46.86C264.97 49.11 263.6 51.04 261.8 52.65C260 54.26 257.8 55.5 255.19 56.39C252.58 57.28 249.62 57.72 246.31 57.72C239.46 57.72 233.11 55.68 227.26 51.61L233.3 40.25C235.41 42.12 237.49 43.51 239.55 44.42C241.61 45.33 243.65 45.79 245.66 45.79C247.96 45.79 249.67 45.26 250.8 44.21C251.92 43.16 252.49 41.96 252.49 40.62C252.49 39.81 252.35 39.1 252.06 38.5C251.77 37.9 251.29 37.35 250.62 36.85C249.95 36.35 249.07 35.88 248 35.45C246.92 35.02 245.62 34.54 244.08 34.01C242.26 33.43 240.47 32.8 238.73 32.11C236.98 31.42 235.42 30.49 234.06 29.34C232.7 28.19 231.59 26.74 230.75 24.99C229.91 23.24 229.49 21.03 229.49 18.34C229.49 15.66 229.93 13.23 230.82 11.05C231.71 8.87002 232.95 7.00002 234.56 5.44002C236.17 3.88002 238.13 2.67002 240.45 1.81002C242.77 0.950019 245.37 0.52002 248.25 0.52002C250.93 0.52002 253.74 0.890019 256.66 1.63002C259.58 2.37002 262.39 3.46002 265.07 4.90002L259.48 15.87Z" fill="currentColor"/>
<path d="M307.06 13.93V56.19H292.97V13.93H281.4V2H318.63V13.93H307.06Z" fill="currentColor"/>
</svg>
