<svg xmlns="http://www.w3.org/2000/svg" width="319" height="58" fill="none" viewBox="0 0 319 58"><path fill="currentColor" d="M.69 56.19V2h14.09L40.8 35.13V2h14.02v54.19H40.8L14.78 23.06v33.13H.69zM70.36 29.1c0-4.02.74-7.77 2.23-11.25 1.48-3.47 3.55-6.5 6.18-9.09s5.79-4.61 9.45-6.07C91.88 1.23 95.92.5 100.33.5c4.36 0 8.38.73 12.08 2.19 3.69 1.46 6.86 3.49 9.52 6.07 2.66 2.59 4.73 5.62 6.22 9.09 1.48 3.47 2.23 7.22 2.23 11.25s-.74 7.78-2.23 11.25c-1.49 3.47-3.56 6.5-6.22 9.09-2.66 2.59-5.83 4.61-9.52 6.07-3.69 1.46-7.72 2.19-12.08 2.19-4.41 0-8.44-.73-12.11-2.19s-6.82-3.49-9.45-6.07c-2.64-2.59-4.7-5.62-6.18-9.09-1.49-3.48-2.23-7.23-2.23-11.25zm14.73 0c0 2.16.41 4.15 1.22 5.97.81 1.82 1.92 3.4 3.31 4.74 1.39 1.34 3.01 2.38 4.85 3.13 1.84.74 3.8 1.11 5.86 1.11 2.06 0 4.01-.37 5.86-1.11 1.84-.74 3.47-1.78 4.89-3.13 1.41-1.34 2.53-2.92 3.34-4.74.81-1.82 1.22-3.81 1.22-5.97 0-2.16-.41-4.14-1.22-5.97-.82-1.82-1.93-3.4-3.34-4.74a15.443 15.443 0 00-4.89-3.13c-1.85-.74-3.8-1.11-5.86-1.11-2.06 0-4.01.37-5.86 1.11-1.85.74-3.46 1.79-4.85 3.13-1.39 1.34-2.49 2.92-3.31 4.74-.81 1.82-1.22 3.81-1.22 5.97zM166.33 13.93v42.26h-14.09V13.93h-11.57V2h37.23v11.93h-11.57zM210.3 2v54.19h-14.09V2h14.09zM259.48 15.87c-1.53-1.25-3.07-2.17-4.6-2.77-1.53-.6-3.02-.9-4.46-.9-1.82 0-3.31.43-4.46 1.29-1.15.86-1.73 1.99-1.73 3.38 0 .96.29 1.75.86 2.37.58.62 1.33 1.16 2.26 1.62.93.46 1.99.85 3.16 1.19 1.17.34 2.34.7 3.49 1.08 4.6 1.53 7.97 3.58 10.1 6.15 2.13 2.56 3.2 5.91 3.2 10.03 0 2.78-.47 5.29-1.4 7.55a15.74 15.74 0 01-4.1 5.79c-1.8 1.61-4 2.85-6.61 3.74-2.61.89-5.57 1.33-8.88 1.33-6.85 0-13.2-2.04-19.05-6.11l6.04-11.36c2.11 1.87 4.19 3.26 6.25 4.17 2.06.91 4.1 1.37 6.11 1.37 2.3 0 4.01-.53 5.14-1.58 1.12-1.05 1.69-2.25 1.69-3.59 0-.81-.14-1.52-.43-2.12-.29-.6-.77-1.15-1.44-1.65-.67-.5-1.55-.97-2.62-1.4-1.08-.43-2.38-.91-3.92-1.44-1.82-.58-3.61-1.21-5.35-1.9-1.75-.69-3.31-1.62-4.67-2.77-1.36-1.15-2.47-2.6-3.31-4.35-.84-1.75-1.26-3.96-1.26-6.65 0-2.68.44-5.11 1.33-7.29.89-2.18 2.13-4.05 3.74-5.61 1.61-1.56 3.57-2.77 5.89-3.63 2.32-.86 4.92-1.29 7.8-1.29 2.68 0 5.49.37 8.41 1.11 2.92.74 5.73 1.83 8.41 3.27l-5.59 10.97zM307.06 13.93v42.26h-14.09V13.93H281.4V2h37.23v11.93h-11.57z"/></svg>