<svg xmlns="http://www.w3.org/2000/svg" xmlns:xlink="http://www.w3.org/1999/xlink" viewBox="0 0 247.8 34.2"><defs><path id="a" d="M0 0h247.8v34.2H0z"/></defs><clipPath id="b"><use overflow="visible" xlink:href="#a"/></clipPath><path d="M10.8 25.8c.6-.1 1.2-.2 1.7-.4.6-.2 1.1-.4 1.6-.6.5-.2 1-.5 1.5-.8.5-.3.9-.6 1.4-1 .4-.4.9-.8 1.2-1.2.4-.4.7-.9 1.1-1.3l.9-1.5c.3-.5.5-1 .7-1.6.2-.5.4-1.1.5-1.7l.3-1.8V13v-.9c-.1 2-.5 4-1.6 5.8-.6 1-1.4 1.9-2.3 2.7C16 22.2 13.5 23 11 23c-1 0-2-.1-3-.4-2.4-.7-4.4-2.5-5.6-4.9-1.3-2.8-1.5-6.1-.3-8.9.8-2 2.3-3.8 4.1-5v-.1C3 5.2.8 8.2.2 11.7c-.6 3.3.3 6.8 2.4 9.8 1.6 2.2 3.6 3.7 6 4.5H9c.6 0 1.2-.1 1.8-.2" clip-path="url(#b)"/><path d="M28 8.3C27 3.4 23.1 0 18.4 0c-1 0-1.9.1-2.8.4-.9.3-1.7.7-2.5 1.2s-1.4 1.2-2 1.9c-.4.5-.8 1.1-1.1 1.7v-.1c0 .2-.1.3-.1.5v0c-.1.1-.2.3-.2.4 0 0 0 .1-.1.1V6c0 .2-.1.4-.1.6v-.1l-.3.9v-.1c0 .2-.1.4-.1.6 0 .2-.1.4-.1.5v.2s.5-.8.9-1.1c.3-.3.6-.6 1-.9 1.9-1.5 4.2-2.3 6.8-2.3 5 0 9.3 3.4 10.6 7.9v-1.1c0-.9-.1-1.9-.3-2.8M9.3 7" clip-path="url(#b)"/><path d="M28.3 12.4v-.6.6c-1.4-4.7-5.6-8-10.7-8-2.6 0-4.9.9-6.8 2.3 1.1-.8 2.5-1.3 4-1.3 1.3 0 2.6.4 3.7 1.1 1.6 1 2.8 2.8 3.1 4.7.1.6.1 1.3.1 1.9v.9c-.1.6-.1 1.2-.3 1.8-.1.6-.3 1.1-.5 1.7-.2.5-.4 1.1-.7 1.6l-.9 1.5c-.3.5-.7.9-1.1 1.3L17 23.1c-.4.4-.9.7-1.4 1-.5.3-1 .6-1.5.8-.5.2-1.1.5-1.6.6-.6.2-1.1.3-1.7.4-.6.1-1.2.2-1.8.2h-.4c.6.2 1.1.3 1.7.4.8.1 1.6.2 2.4.2h.3c8-.1 14.7-6.4 15.3-14.3 0-.1 0 0 0 0" clip-path="url(#b)"/><path d="M14.6 8.4c-2.4.1-4.4 1.3-5.6 3.2v22.5c0 .1.1.1.1.1 2.4-.1 4.4-1.3 5.6-3.2V8.5s0-.1-.1-.1M61.1 13.5c0 3.8-2.3 7.3-7.2 7.3s-7.2-3.6-7.2-7.3c0-4.3 3-7.4 7.3-7.4 4.7 0 7.1 3.5 7.1 7.4m-7.3 5.2c3.5 0 5-2.5 5-5.2 0-2.6-1.5-5.3-5-5.4-3.3 0-5 2.3-5 5.4.1 2.5 1.5 5.2 5 5.2M70.3 6.3c2.7 0 4.8 1.2 4.8 4 0 1.2-.6 2.3-2 2.8 1.7.5 2.4 2.2 2.4 3.3 0 3.1-2.5 4-5.3 4h-6.5V6.3h6.6zM66 12.2h4.3c1.7 0 2.5-.7 2.5-1.8 0-1-.9-2-2.6-2H66v3.8zm0 6.2h4.2c1.3 0 3-.4 3-2 0-1.5-1.7-2.2-3-2.2H66v4.2zM89.5 6.3v8.3c0 3.6-2.3 6.1-6.1 6.1-3.5 0-6-2.2-6-6h2.2c0 2.5 1.4 3.9 3.8 3.9 2.5 0 3.8-1.7 3.8-4V6.3h2.3zM103.3 20.5H92.9V6.3h10.4v2.2h-8.1v3.9h7.8v2.1h-7.8v3.8h8.1zM118.3 18.7c-1.5 1.4-3.3 2.1-5.3 2.1-5.1 0-7.4-3.5-7.5-7.3 0-3.7 2.4-7.4 7.5-7.4 1.9 0 3.7.7 5.2 2.1l-1.5 1.5c-1-1-2.3-1.5-3.7-1.5-3.6 0-5.2 2.6-5.2 5.3 0 2.6 1.6 5.2 5.2 5.2 1.3 0 2.8-.5 3.8-1.5l1.5 1.5zM124.2 8.4h-4.7V6.3h11.6v2.1h-4.7v12.1h-2.2zM139.9 16.1v4.3h-2.3V6.3h6.6c6.8 0 6.8 9.8 0 9.8h-4.3zm0-2h4.3c3.7 0 3.7-5.7 0-5.7h-4.3v5.7zM160.4 17.5h-7.7l-1.3 3H149l6.3-14.2h2.5l6.3 14.2h-2.4l-1.3-3zm-3.8-8.8l-3 6.7h6l-3-6.7zM178.5 20.5h-2.6l-4.3-4.9h-3v4.9h-2.3V6.3h6.6c3.3 0 5 2.2 5 4.6 0 2-1.1 4-3.8 4.4l4.2 4.7.2.5zm-10-12.1v5.1h4.3c1.9 0 2.7-1.2 2.7-2.5s-.8-2.6-2.7-2.6h-4.3zM184.3 8.4h-4.7V6.3h11.6v2.1h-4.7v12.1h-2.2zM203.2 16.4V6.3h2.3v14.2h-1.7l-8-10v10h-2.3V6.3h1.7zM219.5 20.5h-10.4V6.3h10.4v2.2h-8.2v3.9h7.8v2.1h-7.8v3.8h8.2zM234.7 20.5H232l-4.3-4.9h-3v4.9h-2.3V6.3h6.6c3.3 0 5 2.2 5 4.6 0 2-1.1 4-3.8 4.4l4.2 4.7.3.5zm-10-12.1v5.1h4.3c1.9 0 2.7-1.2 2.7-2.5s-.8-2.6-2.7-2.6h-4.3zM245.5 9.5c-.7-1-2-1.6-3.5-1.6-1.9 0-3.3.8-3.3 2.1 0 1.4 1.6 1.8 3.4 2 2.9.4 5.7 1.2 5.7 4.4s-2.9 4.4-5.9 4.4c-2.7 0-4.8-.8-6.1-3.2l1.7-1.1c1 1.7 2.8 2.3 4.4 2.3 1.7 0 3.6-.6 3.6-2.3 0-1.5-1.6-2.1-3.6-2.3-2.8-.4-5.5-1.1-5.5-4.1 0-2.9 2.9-4.1 5.5-4.1 2 0 4.1.5 5.3 2.4l-1.7 1.1z" clip-path="url(#b)"/></svg>