<svg xmlns="http://www.w3.org/2000/svg" viewBox="0 0 1296 504">
  <title>horizontal</title>
  <g>
    <g>
      <path d="M489.38,332.44c-.08-2.42-.46-4.81-.75-7.28-.18-1.22-.42-2.44-.63-3.67l-.33-1.86-.42-1.91c-.29-1.27-.58-2.56-.88-3.86-.31-1.14-.63-2.29-.95-3.45l-.54-2c-.2-.63-.41-1.27-.62-1.91-.41-1.28-.84-2.57-1.26-3.87a101.4,101.4,0,0,0-7.15-15.52,84.18,84.18,0,0,0-9-12.58,146.93,146.93,0,0,0,7-46.62c.05-2.11-.13-4.21-.21-6.32s-.19-4.22-.45-6.32-.41-4.21-.67-6.31-.65-4.18-1-6.27c-.89-5-2-9.93-3.26-14.84A33.29,33.29,0,0,0,478.64,170c2.16-10.43-1.17-21.09-9.11-29.24-6.33-6.5-15.6-10-25.42-9.56-.84,0-1.67.11-2.5.2a165.34,165.34,0,0,0-35.2-36.21l-2.61-1.94-1.31-1-1.35-.9-5.43-3.62c-3.74-2.22-7.44-4.5-11.34-6.44l-2.89-1.51c-1-.48-2.05-.95-3.07-1.41L375.32,77l-1.54-.69c-.53-.24-.95-.38-1.44-.57L366.7,73.6l-.35-.13a4.06,4.06,0,0,0-.65-.24l-.77-.25-1.53-.51-3.06-1c-1-.32-2-.67-3.06-1l-3.09-.85c-2.07-.54-4.11-1.16-6.19-1.64l-6.23-1.38-1.56-.34L338.64,66l-3.13-.54c-4.17-.8-8.38-1.23-12.56-1.78-2.1-.22-4.2-.35-6.3-.53l-3.14-.25-3.15-.13-6.28-.22-6.27,0c-2.08,0-4.17.08-6.25.18s-4.15.15-6.22.31c-4.14.38-8.27.66-12.36,1.26-2.05.28-4.11.47-6.13.85l-6.09,1a214.12,214.12,0,0,0-23.83,5.7,226.17,226.17,0,0,0-22.81,8.17l-5.52,2.41c-1.83.81-3.6,1.75-5.4,2.61-3.62,1.69-7.06,3.71-10.54,5.6a191.34,191.34,0,0,0-19.71,13,161.68,161.68,0,0,0-24.88,23c-2,.17-4,.34-6,.68-1.26.2-2.53.36-3.78.6l-3.75.8c-.62.13-1.25.24-1.87.4l-1.86.5-3.7,1-3.65,1.21-1.83.59-1.8.69-2.32.92a33.8,33.8,0,0,0-5.58-4.69L109.64,128l-.43-.25-2-.93c-.18-.08-.29-.15-.56-.25l-.88-.34-2-.71a16.51,16.51,0,0,0-2.17-.56c-.73-.14-1.52-.34-2.34-.45a42,42,0,0,0-11.45.11,59.9,59.9,0,0,0-13.69,3.63,53.53,53.53,0,0,0-7.37,3.59,38,38,0,0,0-7.32,5.75l-.22.22,0,.05c.14-.17-.26.3-.24.26l-.08.1-.32.36-.65.74-.33.37a4.74,4.74,0,0,0-.36.43l-.8,1a43.37,43.37,0,0,0-2.78,4.13,56,56,0,0,0-4.14,8.82,52.08,52.08,0,0,0-2.57,9.73,44.85,44.85,0,0,0-.55,10.7,37.83,37.83,0,0,0,.86,5.73,25.51,25.51,0,0,0,.84,2.94l.24.74.06.18,0,.09s.16.38.1.25l.1.26.21.53.35.79c.25.58.49,1,.73,1.51s.51.93.77,1.4a26.31,26.31,0,0,0,1.82,2.72,27.73,27.73,0,0,0,1.82,2.13c-.29.59-.58,1.19-.83,1.8-1,2.41-2.12,4.8-3,7.27l-.69,1.84-.34.92-.33,1-.58,1.74c-.19.57-.38,1.14-.57,1.81-.37,1.28-.78,2.59-1.1,3.84s-.67,2.5-1,3.76L45,221.59l-.74,3.8a129.85,129.85,0,0,0-1.89,30.81,99.06,99.06,0,0,0,6.67,30.25,86.8,86.8,0,0,0,7.11,13.87,84.58,84.58,0,0,0,9.6,12.14,77.86,77.86,0,0,0,6.42,5.93c-.66,1.23-1.28,2.47-1.92,3.71l-.49,1-.42,1-.83,2.05-.81,2-.64,2.1a38.66,38.66,0,0,0-1.14,4.22c-.27,1.43-.61,2.84-.84,4.27s-.32,2.87-.48,4.29a59.27,59.27,0,0,0,6.64,32c.65,1.15,1.29,2.29,1.94,3.41a13.34,13.34,0,0,0,1,1.64l1.09,1.58A60.81,60.81,0,0,0,80,387.63a64.07,64.07,0,0,0,21.79,15.51,70,70,0,0,0,19.73,5.48,64,64,0,0,0,7.45.69c1.09.05,2.1.15,3,.14l2.49,0,4.56-.09.29,0,1-.09c.67-.05,1.65-.13,2.94-.27,1.52-.22,3.57-.53,5.72-1l3.42-.89,3.87-1.2c1.36-.49,2.79-1,4.28-1.6l2.26-1,1.17-.51,1.18-.59a62.08,62.08,0,0,0,9.87-6.06c.32-.24.63-.5.94-.75.49.85,1,1.69,1.52,2.52,1,1.6,2.07,3.11,3.16,4.64s2.27,3,3.5,4.35a97.18,97.18,0,0,0,16.29,15l2.24,1.6,1.12.79.28.2.14.1.46.29.53.34,4.26,2.72.55.34.65.36,1.32.72,2.64,1.44a58,58,0,0,0,5.25,2.51,96.78,96.78,0,0,0,22,6.79c15.23,2.67,31.37,1.77,46.36-4.21,1.87-.77,3.7-1.67,5.54-2.52l2.68-1.52,1.34-.78.66-.38.6-.4.12-.09.26-.18,2-1.44,1-.71c.4-.3.88-.7,1.31-1.05.88-.73,1.75-1.47,2.61-2.21l.64-.56c.21-.18.37-.36.56-.55l1.09-1.1a60.87,60.87,0,0,0,13-20,73.18,73.18,0,0,0,3.8-13.16,207.59,207.59,0,0,0,44.2-12.92,83.78,83.78,0,0,0,26,14.31,94.86,94.86,0,0,0,40.23,4.64,87.47,87.47,0,0,0,10.38-1.75c1.57-.38,3.06-.72,4.45-1.18s2.71-.79,3.91-1.27,2.3-.85,3.38-1.32,2.12-1,3-1.46c.43-.22.9-.47,1.21-.65l.76-.46,1.17-.74,1-.6.41-.25s1.63-1.17,4.59-3.46l2.35-2.14,1.34-1.25c.46-.43.89-1,1.36-1.46.91-1.05,2-2.12,2.91-3.39s2-2.64,2.93-4.14l1.38-2.37c.45-.82,1-1.63,1.35-2.52l1.23-2.71c.2-.46.42-.92.6-1.4l.51-1.46,1-3c.3-1,.52-2.08.79-3.14a62.62,62.62,0,0,0,1.18-6.6A75.16,75.16,0,0,0,489.38,332.44ZM460.22,149.87c4.95,5.09,7,11.32,5.69,17.54a18.94,18.94,0,0,1-2.28,5.85,190.55,190.55,0,0,0-8.09-18.85c-1.69-3.3-3.5-6.55-5.38-9.76A19,19,0,0,1,460.22,149.87Zm-397.6,15.9a36.67,36.67,0,0,1,1.13-7.08,35.26,35.26,0,0,1,2.38-6.52c.5-1,1.06-2,1.51-2.72l.34-.58a3.07,3.07,0,0,1,.25-.35l.3-.4.6-.78.3-.39h0l.07-.08a24.65,24.65,0,0,1,4.37-3.81,33.42,33.42,0,0,1,5.21-2.83,31.09,31.09,0,0,1,10.17-2.53,26,26,0,0,1,7.56.54c.48.1.89.27,1.3.38a6,6,0,0,1,1,.35,4.81,4.81,0,0,0,.64.28l.29.1c.1,0,.31.17.45.25l1.88,1.09-.44-.25,1,.72a118.84,118.84,0,0,0-33,27.87c-2,2.52-3.94,5.1-5.78,7.75a5.74,5.74,0,0,1-.4-1,20.39,20.39,0,0,1-.79-3.06,28.33,28.33,0,0,1-.33-6.94C62.78,163.39,62.48,168.15,62.62,165.77ZM67.33,278.6a80,80,0,0,1-6.62-24.05A109.7,109.7,0,0,1,61,228l.5-3.36.59-3.35c.2-1.12.46-2.22.68-3.34s.51-2.14.76-3.22c.11-.51.28-1.11.44-1.7l.49-1.76.12-.44.06-.22,0-.09.26-.8.52-1.62c.64-2.18,1.49-4.29,2.28-6.43l.25-.6c.34-.86.73-1.7,1.08-2.55.47-1,.87-2.12,1.4-3.13,1-2,2-4.13,3.16-6.11a94.27,94.27,0,0,1,5-8.13c.81-1.17,1.62-2.34,2.45-3.5a106,106,0,0,1,19.1-20,78.13,78.13,0,0,1,8.18-5.86c1-.67,2.12-1.33,3.18-2l3-1.62,1.52-.81,1.56-.71c1-.48,2.06-1,3.11-1.43l2.92-1.11.27-.1a71.81,71.81,0,0,1,13.28-3.62,88.29,88.29,0,0,1,13-1.27c.87-.06,1.73,0,2.59,0l.71,0c1.1,0,2.19,0,3.28.11l3.26.3,1.62.14c.54.07,1.08.17,1.61.25l3.21.5c1.07.15,2.11.45,3.17.67s2.09.47,3.13.74l3.08.92c.75.2,1.49.45,2.23.7-1,.71-2,1.47-2.94,2.29a36,36,0,0,0-8.23,9.88,30.32,30.32,0,0,0-3.8,13.6c0,1.3.05,2.65.12,4l0,.25,0,.18,0,.35.08.7.17,1.4,0,.35v.09l.12.55v0l0,.21.18.83.38,1.66c.29,1.08.59,2.16.93,3.23a74,74,0,0,0,12.49,22.83,71.12,71.12,0,0,0,19.79,17.59,48.57,48.57,0,0,0,13.33,5.43,34.51,34.51,0,0,0,16,0,31.67,31.67,0,0,0,7.81-3l.46-.24.5-.31,1-.65.47-.33a114.83,114.83,0,0,1,.26,20,98.09,98.09,0,0,1-2.21,14.72c-.23,1.12-.57,2.17-.84,3.22-.14.52-.27,1-.41,1.55s-.33,1-.48,1.47c-.31,1-.62,1.93-.92,2.85l-1,2.63a65.94,65.94,0,0,1-4.16,8.62c-.68,1.2-1.41,2.21-2,3.19l-.45.71-.43.55-.76,1a43.81,43.81,0,0,1-2.93,3.57l-1.18,1.36.34-.4-1.07,1.09-1.32,1.34c-.52.54-1.18,1.1-1.89,1.77a87.46,87.46,0,0,1-13.54,10.17A95.93,95.93,0,0,1,185,312c-2.42.87-5,1.69-7.65,2.43-2.31.63-4.73,1.19-7.24,1.7a117.23,117.23,0,0,1-16.34,2,119.43,119.43,0,0,1-12.29.08A132.47,132.47,0,0,1,121,315.71l-.41-.08c-1.77-.4-3.58-.75-5.37-1.23l-2.69-.7L110,313l-.65-.18-.73-.24-1.47-.47-1.48-.48-.19-.06-.11,0-.22-.08-.64-.24c-1.7-.63-3.47-1.2-5.12-2-.81-.36-1.65-.7-2.46-1.08l-.06,0-2.45-1.25-1.24-.62L92,305.54l-2.39-1.4c-1.21-.8-2.4-1.64-3.57-2.5a57.91,57.91,0,0,1-5.24-4.31,64.23,64.23,0,0,1-7.53-8.53A68.1,68.1,0,0,1,67.33,278.6ZM198,145.42l1.76-.53c.58-.18,1.29-.3,1.92-.45l1-.21,1-.15c.65-.08,1.28-.21,1.92-.27a41.63,41.63,0,0,1,7.75.05,30.49,30.49,0,0,1,6.07,1.21,28.31,28.31,0,0,1,9.21,4.64c.58.39,1,.88,1.51,1.27a10.21,10.21,0,0,1,1.25,1.18l1,1.09.44.47c.12.16.24.32.34.47.65.86,1.06,1.42,1.24,1.66l1.43,2.33a23.86,23.86,0,0,1,1.36,2.58c.49.92,1,2.2,1.51,3.55a36.75,36.75,0,0,1,1.89,8.16c.07.61.12,1.22.14,1.86a29.21,29.21,0,0,1-2,12.08,42.7,42.7,0,0,1-7.32,11.78l-.23.29c-.92,1-1.78,2-2.73,3l-1.53,1.47q-.37.36-.75.75l-.38.38-.18.19,0,0-.71.59-.51.42-.25.21-.13.11s0,0-.05,0a.6.6,0,0,0-.25.1l-.1.08s0,0,0,0l-.13.06a8.89,8.89,0,0,1-2.15.9,12.86,12.86,0,0,1-5.83.17,30.16,30.16,0,0,1-7.69-2.54A61.69,61.69,0,0,1,192,193.23,59.53,59.53,0,0,1,180,177.37c-.34-.71-.64-1.42-1-2.13l-.4-1.06-.2-.54-.05-.13c-.09-.39.09.46.06.34l0-.09-.09-.34-.35-1.37-.18-.68-.09-.34,0-.16v-.1c-.06-.53-.16-1.05-.27-1.6a15.4,15.4,0,0,1,1.09-7.66c2-5,6.57-9.32,11.63-12.31l.51-.31c.46-.28.93-.54,1.4-.79.65-.35,1.28-.71,1.95-1l1-.46.49-.23.06,0c-.06,0,.24-.09-.13,0l.14,0,.28-.11Zm-36.2,231.76a38,38,0,0,1-6.51,3.25l-.78.32-.8.26-1.54.53-3,.83-2.74.61-2.48.41c-.79.17-1.41.2-2,.3l-1.66.29c-1.29.17-2.27.32-2.93.43l-1,.15-3.08.33-1.85.2c-.67.07-1.4.05-2.19.08a44.72,44.72,0,0,1-5.42,0c-1-.07-2.08-.07-3.18-.19l-3.42-.48-.91-.12-.9-.2-1.85-.4c-.63-.15-1.29-.23-1.92-.44l-1.93-.61c-.65-.21-1.33-.39-2-.63l-2-.83c-.66-.29-1.38-.52-2-.87l-2-1.06a42.69,42.69,0,0,1-4-2.43,19.41,19.41,0,0,1-2-1.46c-.64-.52-1.35-1-2-1.56a43.35,43.35,0,0,1-3.65-3.65l-.88-1a7.71,7.71,0,0,1-.85-1L86.82,366a40.93,40.93,0,0,1-7.2-22.38,41,41,0,0,1,1.78-12.92,33.27,33.27,0,0,1,1.67-4.56l.4.23,3.16,1.82c1.07.56,2.15,1.08,3.22,1.62,2.13,1.12,4.32,2,6.48,2.9l.81.35.41.17.53.2,1.46.54,1.45.54.73.27.82.28,3.27,1.1,3.16,1c2.09.66,4.2,1.17,6.28,1.74A156.84,156.84,0,0,0,139.82,343c1,.1,2,.18,3,.25.67.64,1.35,1.28,2,1.89.86.79,1.68,1.61,2.55,2.35l2.6,2.18c1.73,1.42,3.37,2.87,5.11,4.1l5,3.71,4.95,3.25c.81.52,1.59,1.06,2.39,1.54l.4.24c-.07,1.28-.11,2.57-.08,3.87a52.25,52.25,0,0,0,.41,5.83A33.82,33.82,0,0,1,161.83,377.18Zm138.73,16.21A40.07,40.07,0,0,1,292,405.51a25.88,25.88,0,0,1-2.45,2.17c-.21.18-.35.33-.61.53l-1,.7-2.06,1.39-.08.05-.39.22-.84.45-1.67,1c-1.2.52-2.37,1.11-3.6,1.61a58.74,58.74,0,0,1-16.2,3.79,72.56,72.56,0,0,1-17.4-.43,82.35,82.35,0,0,1-17.1-4.53c-1.36-.55-2.82-1.05-4-1.65l-1.89-.85-1-.42-.47-.21-.55-.3-4.43-2.44-.55-.31c-.19-.11-.07,0,.05,0l-.23-.14-1-.6-1.94-1.21c-2.52-1.67-5-3.37-7.31-5.21a69.63,69.63,0,0,1-6.54-5.73c-1-1-2-2-2.92-3.07s-1.82-2.13-2.62-3.23a49.92,49.92,0,0,1-4.21-6.53c0-.1-.11-.19-.15-.28a42.78,42.78,0,0,1-3.31-8.36,39.36,39.36,0,0,1-1.25-6.42,44.58,44.58,0,0,1,1.09-15.18,54.88,54.88,0,0,1,2.1-6.55q1-2.6,2.28-5.05c.41-.81.84-1.62,1.29-2.41.92-1.64,1.94-3.21,3-4.74.33-.5.66-1,1-1.48a69.85,69.85,0,0,1,4.49-5.64,78.16,78.16,0,0,1,9.91-9.38,83,83,0,0,1,10.23-7,67.31,67.31,0,0,1,18.65-7.58,68.05,68.05,0,0,1,7.3-1.24l.44,0c1.94-.2,3.64-.28,5-.31l1.85,0,1.53,0,1.25,0h-.12l1.13.11c.73.09,1.84.14,3.26.35a51.61,51.61,0,0,1,11.89,3.25,47.27,47.27,0,0,1,7.82,4,52,52,0,0,1,8.15,6.29,48.71,48.71,0,0,1,3.81,4l.45.53.35.47c.23.31.45.57.8,1.1l.49.7.06.09c.13.19-.12-.15-.07-.09l.1.17.21.34.84,1.36a83.32,83.32,0,0,1,6,11.94c.88,2.14,1.67,4.35,2.35,6.62a66.3,66.3,0,0,1,1.75,7c.24,1.19.42,2.4.61,3.61s.32,2.48.4,3.59l.08.86.07,1.06.07,1.07,0,.27v.13c0,.2,0-.11,0,0v.49l0,1.46.06,2.55c0,10.2-1.39,20.79-5.25,29.88C300.92,392.56,300.75,393,300.56,393.39Zm25.34-38,0-.14-.16-1.07-.17-1.07-.22-1.26c-.29-1.71-.66-3.21-1-4.75s-.79-3-1.25-4.5a84.56,84.56,0,0,0-3.05-8.51c-1.13-2.72-2.37-5.32-3.69-7.79a99.32,99.32,0,0,0-8.57-13.44l-1.14-1.49-.69-.89-.56-.65c-.31-.39-.84-1-1.33-1.51l-.74-.8-.68-.69a62.72,62.72,0,0,0-5.47-4.83,65.16,65.16,0,0,0-10.9-7,67.3,67.3,0,0,0-10.1-4.22,64.25,64.25,0,0,0-15-2.95c-1.76-.12-3.11-.09-4-.13l-1.38,0h-.11l-1.25,0-1.54.06-.59,0a84.27,84.27,0,0,0,3.26-8.24,98,98,0,0,0,4-15.7,123.27,123.27,0,0,0,1.64-18.59,124.92,124.92,0,0,0-1.47-20.81,139.72,139.72,0,0,0-5.21-22.22,45.63,45.63,0,0,0,3.22-11.48c.21-1.81.36-3.58.48-5.29,0-1.73-.07-3.41-.14-5s-.41-3.16-.6-4.68l-1-4.27A61,61,0,0,0,251,158.49c-1-1.66-1.77-3.12-2.71-4.4s-1.62-2.45-2.16-3.07l-1.7-2.19-.12-.17-2.21-2.46-.58-.63-.7-.63-1.6-1.44a19.24,19.24,0,0,0-2-1.53c-.73-.51-1.46-1.11-2.32-1.6A43.94,43.94,0,0,0,222.11,135a55.18,55.18,0,0,0-17.46-1.33c-.8,0-1.61.17-2.43.26l-1.23.15-1.23.22c-.84.17-1.64.28-2.54.51l-.69.18c-1-.45-2-.89-3-1.24l-3.41-1.28-1.72-.64-1.76-.54c-2.35-.7-4.68-1.48-7.11-2a107.91,107.91,0,0,0-15.41-2.54,139.24,139.24,0,0,1,16-13.43c1.48-1,2.93-2.16,4.45-3.17l4.62-3c1.52-1,3.13-1.92,4.72-2.85s3.19-1.87,4.83-2.72c3.32-1.66,6.57-3.45,10-4.92,1.71-.75,3.38-1.57,5.12-2.28l5.22-2.08c1.73-.74,3.52-1.32,5.3-1.94s3.54-1.29,5.35-1.83c3.63-1.06,7.24-2.2,10.94-3a201.36,201.36,0,0,1,22.44-4.27c30.3-3.89,62-.7,90.15,10.31l2.62,1.06,1.31.52.66.27,0,0,.34.16,5.48,2.54c.44.21,1,.42,1.33.64l1.17.63,2.34,1.27,2.34,1.26,2.37,1.44c3.21,1.84,6.23,4,9.29,6.06l4.41,3.35,1.1.83,1.05.9,2.12,1.78a145.82,145.82,0,0,1,27,30.56c.56.85,1.13,1.69,1.68,2.55,2.27,3.66,4.37,7.41,6.33,11.21,1.34,2.61,2.63,5.23,3.82,7.89,2,4.63,3.75,9.34,5.27,14.09.63,2,1.24,4,1.78,6,.89,3.3,1.63,6.61,2.25,9.93q1,5.29,1.57,10.57c.16,1.71.31,3.41.47,5.11s.14,3.41.21,5.1.06,3.38,0,5.07,0,3.36-.15,5-.22,3.33-.33,5-.4,3.29-.6,4.92-.46,3.25-.75,4.86l-.42,2.41-.21,1.2-.28,1.18c-.37,1.58-.74,3.15-1.1,4.72-.34,1.32-.75,2.61-1.14,3.91l-.81-.18-2.43-.57-1.22-.28c-.41-.09-.85-.13-1.28-.2-1.7-.23-3.48-.49-5.14-.65l-4.49-.19-.56,0-.42,0h-1.62l-2.4,0c-1.62.05-3.26.15-4.91.3a70.41,70.41,0,0,0-9.91,1.65c-1.62.47-3.27.86-4.85,1.45-.8.29-1.61.54-2.4.85l-2.34,1c-.79.3-1.55.67-2.31,1l-2.27,1.11c-1.46.84-2.95,1.63-4.37,2.53a78.89,78.89,0,0,0-8.14,5.88l-2,1.67-1,.84c-.31.28-.56.54-.85.81l-1.66,1.6-.84.79-.54.53-.43.46c-1.14,1.24-2.34,2.44-3.37,3.77l-1.6,1.95-1.47,2a78.13,78.13,0,0,0-5.31,8.49,82.79,82.79,0,0,0-4.07,9.08,77.39,77.39,0,0,0-4.55,19.2,70.69,70.69,0,0,0,.76,19.62,56.87,56.87,0,0,0,1.75,7.06A190.86,190.86,0,0,1,325.9,355.39Zm141.3-22.58a52.57,52.57,0,0,1-1.29,9.8,35.45,35.45,0,0,1-1.2,4c-.24.62-.43,1.24-.67,1.82s-.53,1.09-.77,1.63c-.11.27-.23.53-.35.8s-.28.48-.42.72l-.79,1.39a10.39,10.39,0,0,1-.85,1.24l-.82,1.16a30.58,30.58,0,0,1-6.2,5.76c-1.18.7-2,1.19-2.36,1.44l-.89.48-1.22.65-.78.43c-.25.14-.4.17-.61.27-.4.2-.85.39-1.32.67s-1.27.58-2,.94-1.55.67-2.42,1-1.84.69-2.87,1A62.12,62.12,0,0,1,432.3,370a72.7,72.7,0,0,1-8.83,1.09,69.45,69.45,0,0,1-10.31,0,72,72,0,0,1-11.4-1.64,68.52,68.52,0,0,1-11.15-3.5,56.08,56.08,0,0,1-12.11-6.74,44.64,44.64,0,0,1-9.6-9.61,41.22,41.22,0,0,1-5-9.19c-.46-1.18-.88-2.39-1.24-3.63l-.27-.89-.13-.45c0,.07-.07-.32,0,.13l0-.13,0-.27-.45-2.14-.22-1.07c-.08-.37-.09-.61-.14-.92l-.25-1.79c-.1-.57-.14-1.23-.19-1.88l-.15-2c-.05-1.31-.05-2.64-.05-4a59.26,59.26,0,0,1,2.73-16,57.15,57.15,0,0,1,7.19-15l1.19-1.73,1.28-1.64c.83-1.13,1.8-2.13,2.71-3.18l.34-.39,0,0h0l.1-.1.2-.21.82-.81L379,280.8c.28-.27.56-.56.82-.8l.78-.66L382.1,278a53.63,53.63,0,0,1,14.19-8.78,48.54,48.54,0,0,1,7.83-2.51,54,54,0,0,1,8.12-1.12c1.38-.07,2.76-.09,4.16-.08l2.12,0,1.08,0h.22c-.05,0-.07,0,.05,0l.56.05,4.48.41c1.31.23,2.47.51,3.7.73.3.07.6.1.91.19l.94.28,1.83.54h0a27.91,27.91,0,0,1,3.61,1.36c.59.24,1.18.47,1.76.73l1.67.9,1.66.88c.56.29,1.05.7,1.57,1a43,43,0,0,1,10.72,10,59.33,59.33,0,0,1,6.23,10.19c.34.7.69,1.4,1,2.11a83.75,83.75,0,0,1,4.26,13.11c.22,1.11.43,2.2.65,3.29.11.54.22,1.08.32,1.61l0,.1c-.08-.36,0,0,0-.08l0,.22.07.45.14.89c.19,1.19.37,2.37.55,3.54q.15,1.53.3,3l.15,1.5.09,1.53c.05,1,.13,2,.16,3C467.25,329.11,467.34,331,467.2,332.81Z" />
      <path d="M131.73,240.18c1.92-3.86,2.4-8.27,2.54-12.58.21-6.4-2.72-13.15-10.4-12.87-9.59.35-10.7,15.49-9.91,22.3C115.18,247.44,126.62,250.45,131.73,240.18Z" />
      <path d="M86.55,236.23c2.44-3.41,3.7-7.6,4.64-11.76,1.39-6.18,0-13.23-6.85-14.29-8.61-1.32-12.45,13.17-13,19.92C70.43,240.41,80.07,245.31,86.55,236.23Z" />
      <path d="M90.31,266.31c1.59,1.7,3.57,3.21,5.88,3.41a8,8,0,0,0,6.13-2.59c3.25-3.25,7.23-8.47,3.86-13-2.22-3-6.27-4.07-10-3.87C86.38,250.8,83.65,259.2,90.31,266.31Z" />
    </g>
    <g>
      <path d="M733.2,324.52c5.83-6.26,12.29-9.59,19.74-10.19a41.17,41.17,0,0,1,8.38.62c5.68.81,11.56,1.64,14.92-2.14,2.68-3,3.53-6.55,2.4-9.95-1.4-4.21-5.72-7.72-10.76-8.75-15.08-3.08-22.6-1.32-30.83.34s-20.74,9.34-26.1,16.8c-10.24,14.26-19,38.45-16,56.06,1.45,8.42,5.87,23.23,19,27.81a53.47,53.47,0,0,0,17.58,3c14.09,0,26.23-5.8,33.46-13.24,7-7.21,12.64-26.21,10.6-35.67-2.85-13.16-13.67-14.68-24.5-15.12-1.17-.05-11.46-.32-14.74,4.33a5.91,5.91,0,0,0-.36,5.9c.93,2.28,3.59,6.76,7,7.4a33,33,0,0,0,6.06.35c3.16,0,6.15,0,7.31,1.44.73.93.82,2.58.28,4.91-3,12.65-6.62,14.66-18.54,15.44-3.46.22-8.83-1.6-12.36-3.22-5.18-2.39-6.1-10-6-16C720.15,344.46,726.86,331.32,733.2,324.52Z" />
      <path d="M853.28,333.44c-1.74-15.1-7.51-40.4-26.59-40.4h-.09c-19.07.07-31,29.38-37.35,45.12l-1,2.4a262,262,0,0,0-10.59,31.93c-1.36,5.14-4.74,14.65-2.69,20,8.41,21.84,28.21-23.94,30.77-30.11l1.4-3.39c.11-.25.21-.49.31-.74a131.69,131.69,0,0,1,19.6-6.79c2.62-.71,5.22-1.34,7.78-1.92,0,.76.09,1.5.11,2.19.46,13.87-1.66,30.71,5.43,34.5,9.55,5.1,11.83-13.86,12.59-19.92A138.47,138.47,0,0,0,853.28,333.44Zm-32.76,1.34c-1.18,0-2.4,0-3.62.07.56-1.43,1.11-2.84,1.63-4.19.8-2.05,7.09-16.1,8.35-16.15s4.28,9.43,5.37,15.59c.26,1.49.55,3.16.83,4.92C829.11,334.83,825,334.75,820.52,334.78Z" />
      <path d="M947,322.92c0-9.18-1.36-24-15.28-27-9.39-2-17.8,3.69-23.4,15.26-3.84-10.38-11.69-19.54-23.79-17.62C871,295.71,867,309.74,864.83,323.18c-.89,5.66-1.64,11.43-2.36,17-.54,4.21-1.1,8.56-1.72,12.82-1.11,7.6-2.17,18.4-3.09,27.93-.48,4.88-2.07,14.59,3.9,14.22,9.78-.6,14.84-13.74,16.49-19.71a106.65,106.65,0,0,0,2.57-13.58c1.31-10,4.38-33.32,8.22-34.44a3.46,3.46,0,0,1,3,.31c3.67,2.36,4.93,11.17,5.77,17.67.89,6.89,2.34,11.47,5.05,11.41,6-.12,9.77-14.11,13.79-22.17,2.07-4.13,4.49-5.12,5.67-4.92,1.44.26,2.71,2.64,3.39,6.38.93,5.08-.58,16.85-1.61,31.4-.72,10.26.09,26,4.05,27,10.65,2.69,14.78-18.47,16.25-31.35C946.34,344.78,947,332.11,947,322.92Z" />
      <path d="M994.44,313.12l2.09-.86a55.94,55.94,0,0,1,5.71-1.92c5.87-1.76,11.67-2.89,14.5-6.17,3.68-4.24,2.37-10.62-10.2-11.38-6.48-.39-13.87-.7-20.25.85-18.12,4.41-30.91,12-31.27,30.91-.23,11.9,2.71,18.07,4,20.05,0,.13-3.94,4.86-5.15,7.68-3.44,8-6.74,19.55-2,29.38,5.5,11.28,17.7,16.79,32.51,16.48,10.39-.22,34.38-12.21,30.6-26.21-1.49-5.54-18.57,4.46-25,5.2-9.22,1.07-14.23-3.42-14.51-9.28-.15-3.05,3.61-5.89,10.18-8.79,11.36-5,37.92-23.85,11.07-24.38-2.3-.05-4.68-.09-7.41-.33-3.75-.33-8.92-3.25-8.64-8.71C981.11,318.6,988.19,315.69,994.44,313.12Z" />
      <path d="M1080.83,314.42c-2.11.71-5.26-2.8-8.36-4.81a20.27,20.27,0,0,0-12.49-3.22c-5.76.15-13.4,2.6-16.13,9.68-2.6,6.69.49,10.2,3.89,11.24,4.69,1.44,10.09,1.66,17.63,4.23,7.7,2.62,16.38,7.25,17.48,23.81,1,14.39-11.28,44-48.09,39.34-11.11-1.4-21.33-9.7-14.57-15.83,4.19-3.79,13.39-1.86,19.17-2.88,7-1.23,18.11-5.75,18.17-14.49.33-10.6-7.28-6.81-15.73-9.24-17-4.9-26.14-19.36-21.6-36.34,5.64-21.15,26.71-27.79,44.42-25.91,13.66,1.45,19.57,10.4,18.45,19.48C1082.67,312.65,1081.88,314.06,1080.83,314.42Z" />
    </g>
    <g>
      <g>
        <path d="M690.28,113.06c-2.92-14.54-12.59-21.48-20-23-3.78-.78-6.95-.09-8.26,1.81-1.08,1.56-.77,5.76-.2,13.37,1.37,18.41,4.23,56.71-11.62,108.18-4.15,13.46-13.32,32.34-20.79,32.34h-.08c-3.78-.08-7-4.89-9.47-14.3-2.35-8.83-2.84-18.16-3.31-27.18-.08-1.55-.16-3.1-.25-4.65,0-.25,0-.77,0-1.49C615.77,180,614,171.4,610.53,171c-8.21-.86-11.75,8.69-16.65,21.9l-1.21,3.28c-5.49,14.87-10.67,28.91-20,41.57-4.2,5.67-8,7.92-11.29,6.67-9.15-3.49-12.69-32.2-11.86-41.35a327.84,327.84,0,0,1,9.14-52.4c2.21-8.55,4.76-17,7.56-25,.45-1.29,1.18-2.91,1.95-4.62,2.35-5.17,5.27-11.62,3.72-16.07a4.42,4.42,0,0,0-3.53-3.25c-7-1.06-20.34,13-27.13,22.15C532.11,136.14,524.31,161,520.91,179a178.21,178.21,0,0,0-2.4,49.89c2,19.15,7.47,34.75,16.3,46.37,6.51,8.57,14.55,13,23.38,13q1.24,0,2.52-.12c13.32-1.26,27.12-12.32,35.46-28.32,6.32,18.42,23.44,28.44,42.05,24.45,11-2.36,20.69-8.87,28.71-19.34,6.77-8.83,12.14-20.29,15.53-33.12A313.83,313.83,0,0,0,692,175.24C694.07,146.54,694.44,133.75,690.28,113.06Z" />
        <path d="M759.06,198.93c-.22-16.11-6.74-25.63-20.5-30-8-2.51-17.28-1.05-23.17,3.63-6.95,5.53-13.67,20.17-11.07,24.11.86,1.29,2.54.53,3.09.28a34.88,34.88,0,0,0,4.37-2.65c5.6-3.71,14.07-9.33,22.66-6.05,6.13,2.34,5.21,10.9,3.79,17.52a26.89,26.89,0,0,0-31.39.14c-16.31,11.94-24.91,39.29-18.05,57.37a28.36,28.36,0,0,0,22.6,18.36,31.89,31.89,0,0,0,5.14.41,32.59,32.59,0,0,0,24.85-11.45c1.59,3,6.92,11.3,10.54,10.37,3.27-.84,3.67-10.87,4-27.28,0-3.11.1-6.22.2-9.18.12-3.91.69-11,1.3-18.59C758.2,215.76,759.13,204.22,759.06,198.93Zm-28,43.26c-2,9.26-6.46,14.56-12.35,14.56h-.05c-3,0-5.16-.95-6.54-2.78-2.33-3.08-2.4-8.67-.2-16.6,3.2-11.51,9.3-15.61,13.61-14.56S733.57,230.41,731.07,242.19Z" />
        <path d="M824.94,153.55c-.94-.58-16.77,1.66-34,3.37l-1.58.16c-7.44-22-21.79-20.94-23.45-19-1.2,1.4.72,9.16,2.6,21-12.21,1.12-21.66,2-22,2.51-1.09,1.42,7.63,11.5,12,13.74a23.32,23.32,0,0,0,12.25,2.18,177.74,177.74,0,0,1,.48,20.4c-1,26.38-11,79.62-7.89,79.64,3.61,0,9.83-2.74,13.47-9.36s5.84-12.87,8.86-23.8,8.13-42.34,8.13-53.88a146.28,146.28,0,0,0-.88-16.62c6.83-.86,18.49-4.3,25.71-10.18C822.11,160.84,827,154.83,824.94,153.55Z" />
        <path d="M866,185.93c0-.35,0-.76,0-1.25v0c-.62-11-6-15.21-10.39-16.75-10.92-3.83-27.92,4-36.36,13.4-16.47,18.39-22.91,43.94-25.27,57.54-.94,5.35-5,32.39,7.46,39.06a30.61,30.61,0,0,0,14.68,3.84c15.51,0,27.81-12.26,31.92-16.93a73.13,73.13,0,0,0,8.56-13.4c2.18-4.24,4.61-9.76,3.84-11.9a1.76,1.76,0,0,0-1.38-1.19c-1.59-.26-3.87,1.58-8.84,5.76-6.5,5.45-15.39,12.92-23.42,14.46-2.92.56-10,1.52-12.26-1.69-1.43-2-1.17-5.91-1-8.5l0-.77c0-.3,0-.61,0-.93a15,15,0,0,1,.38-3.32,19.57,19.57,0,0,0,.47-2,9.49,9.49,0,0,0,1.48-.44,123.47,123.47,0,0,0,18.28-8.13A82.18,82.18,0,0,0,851,220.18,46.5,46.5,0,0,0,866,186.58v-.06h0C866,186.46,866,186.22,866,185.93Zm-27.06.7c1.32-.9,5.16-3.52,7.44-3.52a2.35,2.35,0,0,1,.47,0,1.35,1.35,0,0,1,1,.66c1.15,2-.57,7.23-1.22,9.21h0c-3.16,9.62-11.28,16.65-25.49,22C824.9,203.8,829.84,192.83,838.91,186.63Z" />
        <path d="M916.38,165.77c-5.89-1.74-11.81-2.23-16.59-1.18-5.49,1.2-9.24,4.48-12.58,8.53a45.1,45.1,0,0,0-6.43-3.85c-1.54-.78-7.51-2-8.37-.7s-1.11,16.46-1.36,21.35c-.62,11.76-.83,13.55-3.69,37.43-1.53,12.78-6.84,36-6.85,43.07,0,8.55,1,12.78,5.21,13.83,6.31,1.56,12.39-10.31,14.7-19.64,2.81-11.35,4.43-18.82,6.34-27.44.24-1.12.49-2.22.73-3.29,3.23-14.28,6-27,8.89-39.91s7.43-10.41,19.73-14c2.86-.85,11-2.11,11.33-4.08C928,172.17,920.89,167.1,916.38,165.77Z" />
      </g>
      <g>
        <path d="M1245.3,166.59c-9.22.07-18,5-25.9,11.78a44.81,44.81,0,0,0-6.32-6.77c-3-2.66-10.29-4.14-11.21-3s3.23,17.61,3.73,25.54c1.48,23.94-2,48.57-5.61,74.27l-.41,2.88c-.12.87-.26,1.74-.39,2.59-.76,4.78-1.35,8.56.71,10.25a3.27,3.27,0,0,0,2.12.71,6.68,6.68,0,0,0,2.28-.47c8.53-3.17,15-25.77,18.18-39,2.18-9.21,3.57-17.39,5-26,1.07-6.32,2.18-12.86,3.63-19.89,2.45-11.83,13.46-15.44,25.13-19.26,1.78-.59,7.38-1.44,7.38-2.51C1263.65,171.67,1253.56,166.52,1245.3,166.59Z" />
        <path d="M1088.6,234.38c5.68-1.83,12.75-4.11,16.15-5.59,8.39-3.67,16.79-11.34,22.47-20.52s8.09-18.81,6.9-27.41a3.15,3.15,0,0,0,0-.56h0s-.09-.35-.17-.7-.19-.83-.32-1.4a15,15,0,0,0-7.4-10.14c-5.18-2.81-12.6-2.82-20.38,0-11.69,4.22-28,15.46-39.34,45.13-10.84,28.38-12,48.74-3.44,60.52,3.78,5.2,10.11,7.29,16.93,7.29a42.3,42.3,0,0,0,15-3c8.5-3.3,16.43-10.94,21.77-21,3.32-6.23,9.89-26.52,6-25.39-2.62.75-14.23,11.94-21.4,17.57-4.48,3.53-14.15,7.48-20,7.29a2.48,2.48,0,0,1-2.38-1.64c-2.11-4.72,1.94-16.83,3-18.26C1082.55,236.33,1085.62,235.34,1088.6,234.38ZM1117,190.22c-.61,5.31-4.21,11.07-9.64,15.38a29.52,29.52,0,0,1-20.35,6.63c3.91-11,13.78-29.82,26.09-29.82h.33a4,4,0,0,1,3,1.06C1117.64,184.81,1117.32,187.56,1117,190.22Z" />
        <path d="M1198.14,206.12c.2-4.86-.21,4.86,0,0,.6-14.44-3-32.42-17.9-37.61-10.61-3.69-24.33,2.32-31.3,12.44-3.85,5.6-8,19.32-6.33,19.63,3.51.64,15.82-16.91,29.29-14.32,10.28,2,8.56,20.46,7.39,28.18-6.81-7.3-18.42-9.33-27.31-5.51-13.71,5.88-22.11,19.42-25.24,35.71-3.52,18.24,4.29,32.9,18.59,36.49,12.45,3.12,23.56,2.6,32-8.56,1.45,2.6,10.54,8.5,11.25,6.81,1-2.24,1.76-15.55,2.64-22.33C1193.5,239.47,1197.32,225.26,1198.14,206.12Zm-36.48,53.61c-3.63,2.37-8.79,2-12.47-1.92-4.94-5.25-.31-28.71,10.48-31.44,5.83-1.47,10.63,4.21,10.15,10.5C1169.24,244.66,1166.07,256.86,1161.66,259.73Z" />
        <path d="M1084.51,117.75c-.74-3.08,1.53,6.18,0,0-4.4-18.37-18.13-29.47-41.61-30.19-25.82-.8-47.14,7.88-60,24.33-18.29,23.43-24.62,58-30.73,86.38q-5.43,25.22-9.43,50.71c-2.48,15.7-6.34,35.51-4.31,39s52.46-7.28,65-12.87c57-25.39,60.23-54,49.85-66.79-7.23-8.92-21.06-12-31.77-12.46,17-6.14,33.59-12.68,47.16-26.9C1081.16,155.92,1088.89,135.45,1084.51,117.75ZM1038.94,220s-.5-.33,0,0Zm-31.25,20.68a252.53,252.53,0,0,1-37.83,14.9c1.27-9.55,1.81-16.4,3.37-25.91,1.1-6.69,2.54-8.7,8.14-10.86a96.9,96.9,0,0,1,16.82-5c10.82-2,36.15-.39,36.4,6.28S1010.35,239.34,1007.69,240.65Zm54.86-108.56c-7.36,33-56,44.51-81.95,55.73,5-24.66,8-54.52,30.61-69.54,13.61-9,31.09-17.94,44.81-4.43,5,4.91,8.22,10.79,6.53,18.24C1061.88,135.07,1063.23,129.1,1062.55,132.09Z" />
      </g>
    </g>
  </g>
</svg>
