<?xml version="1.0" encoding="utf-8"?>
<!-- Generator: Adobe Illustrator 22.1.0, SVG Export Plug-In . SVG Version: 6.00 Build 0)  -->
<svg version="1.1" id="Layer_1" xmlns="http://www.w3.org/2000/svg" xmlns:xlink="http://www.w3.org/1999/xlink" x="0px" y="0px"
	 viewBox="0 0 700 195.3" style="enable-background:new 0 0 700 195.3;" xml:space="preserve">
<g>
	<g>
		<path d="M98.2,21.8c-41.8,0-75.8,34-75.8,75.8s34,75.8,75.8,75.8s75.8-34,75.8-75.8S140.2,21.8,98.2,21.8z M77.9,32.5
			c6.4-2,13.2-3.1,20.3-3.1c7.4,0,14.5,1.2,21.2,3.3c-4.4,3-7.5,7.1-9.2,12.1c-2.9,8.7,0.1,16.6,2.9,23.5l0.2,0.7
			c1.5,4.2,2.3,9.4-1.7,13.1c-1.7-1.4-3.4-2.6-5.6-3.6c0.6-8.6-4.4-16-13.9-20.4l-0.7-0.4c-6.3-2.9-11.8-5.3-14.4-10.5
			c-3-5.7-1.3-11.1,0.7-14.7L77.9,32.5z M109,97.3c0,5.9-4.8,10.7-10.7,10.7c-5.9,0-10.7-4.8-10.7-10.7s4.8-10.7,10.7-10.7
			C104.3,86.7,109,91.5,109,97.3z M66.3,37.3c-0.8,5,0,10,2.4,14.5c4.3,8.1,12,11.6,18.9,14.7l0.7,0.4c4,1.8,8.3,5,8.4,10.2
			c-2.3,0.1-4.4,0.7-6.4,1.5c-5.7-6.5-14.6-8.4-24.5-5l-0.8,0.2c-6.4,2.4-12,4.4-17.7,2.5c-5.7-1.8-8.6-6.3-9.9-9.9
			C43.8,54.3,53.8,44,66.3,37.3z M33.1,117.7c-1.9-6.3-3-13.1-3-20.1c0-6.8,1.1-13.4,2.9-19.6c3,3.7,6.9,6.3,11.4,7.7
			c8.8,2.9,16.8,0,23.9-2.6l0.8-0.2c4.3-1.5,9.7-2.3,13.7,1.8c-1.3,1.5-2.4,3.3-3.1,5.2c-8.9-0.8-16.8,3.9-21.2,13.4l-0.4,0.7
			c-2.9,6.1-5.3,11.4-10.6,14c-5.3,2.6-10.7,1.3-14.1-0.2L33.1,117.7z M65.5,157.4c-11.9-6.5-21.6-16.5-27.9-28.6
			c1.1,0.1,2.1,0.2,3.2,0.2c3.8,0,7.4-0.8,10.8-2.5c8.3-4,11.9-11.8,15-18.4l0.4-0.7c1.9-4,5.3-8.4,11.2-8.1c0.2,2,0.7,4,1.4,5.8
			c-6.9,5.6-8.9,14.5-5.1,24.4l0.2,0.8c2.4,6.3,4.5,11.8,2.7,17.2c-2,6.1-7.1,8.7-11.2,9.9L65.5,157.4z M118.8,162.6
			c-6.5,2-13.4,3.2-20.6,3.2c-7.2,0-14.4-1.2-20.9-3.3c4.4-3,7.5-7.1,9.2-12.1c2.9-8.7-0.1-16.6-2.9-23.5l-0.2-0.7
			c-1.5-4.2-2.4-9.5,1.9-13.3c1.7,1.4,3.4,2.5,5.3,3.3c-0.8,8.7,4.2,16.4,13.9,20.8l0.7,0.4c6.3,2.9,11.8,5.3,14.4,10.5
			c3,5.7,1.3,11.1-0.7,14.7C119,162.4,119,162.6,118.8,162.6z M130.5,157.6c0.7-5-0.1-9.9-2.4-14.4c-4.3-8.1-12-11.6-18.9-14.7
			l-0.7-0.4c-4.2-1.9-8.6-5.2-8.4-10.7c2.1-0.2,4.2-0.7,6.1-1.4c5.7,6.8,14.7,8.9,24.7,5.3l0.8-0.2c6.4-2.4,12-4.4,17.7-2.5
			c5.6,1.8,8.4,6.1,9.7,9.6C152.9,140.6,142.9,150.9,130.5,157.6z M166.4,97.6c0,6.8-1,13.3-2.9,19.5c-3-3.6-6.8-6.2-11.3-7.6
			c-8.8-2.9-16.8,0-23.9,2.6l-0.8,0.2c-4.4,1.5-10,2.3-13.9-2c1.3-1.5,2.3-3.2,3.1-5c0.8,0.1,1.5,0.1,2.3,0.1
			c8.1,0,15-4.9,19.1-13.5l0.4-0.7c2.9-6.1,5.3-11.4,10.6-14c5.3-2.6,10.7-1.4,14.3,0.2C165.4,83.8,166.4,90.6,166.4,97.6z
			 M145,68.7c-8.3,4-11.9,11.8-15,18.4l-0.4,0.7c-1.9,4.2-5.3,8.6-11.3,8.1c-0.1-2-0.6-4-1.3-5.8c6.9-5.6,8.9-14.5,5.1-24.4
			l-0.4-0.8c-2.4-6.3-4.5-11.8-2.7-17.2c2-6.1,7.1-8.7,11.2-9.9l0.5-0.1c11.9,6.5,21.6,16.5,27.9,28.6
			C154.1,65.7,149.3,66.6,145,68.7z"/>
		<path d="M98.2,1C44.9,1,1.6,44.2,1.6,97.6s43.3,96.6,96.6,96.6s96.6-43.3,96.6-96.6S151.6,1,98.2,1z M98.2,182
			c-46.6,0-84.5-37.9-84.5-84.5s38-84.4,84.5-84.4c46.6,0,84.5,37.9,84.5,84.5S144.8,182,98.2,182z"/>
		<path d="M178.6,18c-9-9.2-20.7-15.8-31.1-17.9c-0.6-0.1-1.3,0.2-1.5,0.8c-0.2,0.6,0.1,1.3,0.7,1.5c9.9,4.5,19.5,11.3,27.7,19.6
			c8.3,8.4,15.1,18.1,19.5,28c0.2,0.5,0.7,0.8,1.2,0.8c0.1,0,0.2,0,0.4-0.1c0.6-0.2,1.1-0.8,0.8-1.5C194,38.4,187.7,27.1,178.6,18z"
			/>
		<path d="M49.6,192.7c-9.9-4.5-19.5-11.3-27.7-19.6c-8.3-8.4-15.1-18.1-19.5-28c-0.2-0.6-1-1-1.5-0.7c-0.6,0.2-1.1,0.8-0.8,1.5
			c2.3,11.1,8.6,22.2,17.7,31.5c9,9.2,20.7,15.8,31.1,17.9c0.1,0,0.1,0,0.2,0c0.6,0,1.1-0.4,1.2-1C50.6,193.6,50.2,192.9,49.6,192.7
			z"/>
		<path d="M272.7,59.2H237c-1.2,0-2.1,1-2.1,2.1v73.2c0,1.2,1,2.1,2.1,2.1h7.1c1.2,0,2.1-1,2.1-2.1v-31.1h23.1c1.2,0,2.1-1,2.1-2.1
			v-7.1c0-1.2-1-2.1-2.1-2.1h-23.1V70.4h26.4c1.2,0,2.1-1,2.1-2.1v-7.1C274.8,60,273.9,59.2,272.7,59.2z"/>
		<path d="M327.7,125.3h-26.4V61.2c0-1.2-1-2.1-2.1-2.1H292c-1.2,0-2.1,1-2.1,2.1v73.2c0,1.2,1,2.1,2.1,2.1h35.7
			c1.2,0,2.1-1,2.1-2.1v-7.1C329.7,126.2,328.8,125.3,327.7,125.3z"/>
		<path d="M377.5,58.8h-8c-0.7,0-1.4,0.5-1.8,1.1l-16.2,29.8l-16.4-29.8c-0.4-0.7-1.1-1.1-1.8-1.1h-8c-0.7,0-1.4,0.4-1.8,1.1
			c-0.4,0.6-0.4,1.4,0,2l22.2,40.9v31.6c0,1.2,1,2.1,2.1,2.1h7.1c1.2,0,2.1-1,2.1-2.1v-30.9l22.2-41.7c0.4-0.6,0.4-1.4,0-2
			C378.9,59.3,378.2,58.8,377.5,58.8z"/>
		<path d="M697.9,125.3h-26.4V61.2c0-1.2-1-2.1-2.1-2.1h-7.1c-1.2,0-2.1,1-2.1,2.1v73.2c0,1.2,1,2.1,2.1,2.1h35.7
			c1.2,0,2.1-1,2.1-2.1v-7.1C700,126.2,699,125.3,697.9,125.3z"/>
		<path d="M527.3,59.2h-7.1c-1.2,0-2.1,1-2.1,2.1v30.8h-25.5V61.3c0-1.2-1-2.1-2.1-2.1h-7.1c-1.2,0-2.1,1-2.1,2.1v73.2
			c0,1.2,1,2.1,2.1,2.1h7.1c1.2,0,2.1-1,2.1-2.1v-31.1h25.5v31.1c0,1.2,1,2.1,2.1,2.1h7.1c1.2,0,2.1-1,2.1-2.1V61.3
			C529.4,60,528.4,59.2,527.3,59.2z"/>
		<path d="M584.7,59.2h-36.1c-1.2,0-2.1,1-2.1,2.1v73.2c0,1.2,1,2.1,2.1,2.1h36.1c1.2,0,2.1-1,2.1-2.1v-7.1c0-1.2-1-2.1-2.1-2.1
			h-26.9v-21.9h23.4c1.2,0,2.1-1,2.1-2.1v-7.1c0-1.2-1-2.1-2.1-2.1h-23.4V70.4h26.9c1.2,0,2.1-1,2.1-2.1v-7.1
			C586.9,60,585.9,59.2,584.7,59.2z"/>
		<path d="M641.7,59.2h-36c-1.2,0-2.1,1-2.1,2.1v73.2c0,1.2,1,2.1,2.1,2.1h36.1c1.2,0,2.1-1,2.1-2.1v-7.1c0-1.2-1-2.1-2.1-2.1h-26.9
			v-21.9h23.5c1.2,0,2.1-1,2.1-2.1v-7.1c0-1.2-1-2.1-2.1-2.1h-23.5V70.4h26.9c1.2,0,2.1-1,2.1-2.1v-7.1
			C643.8,60,642.8,59.2,641.7,59.2z"/>
		<path d="M466.7,59.1h-7.8c-0.7,0-1.3,0.5-1.4,1.2l-12,51.8l-12.2-51.9c-0.1-0.7-0.7-1.2-1.4-1.2h-8c-0.7,0-1.3,0.5-1.4,1.2
			L410.2,112l-12-51.8c-0.1-0.7-0.7-1.2-1.4-1.2h-7.8c-0.5,0-0.8,0.2-1.2,0.6c-0.2,0.4-0.4,0.8-0.2,1.3l17.3,74.5
			c0,0.2,0.1,0.5,0.4,0.7c0.2,0.4,0.7,0.6,1.2,0.6h7.8c0.7,0,1.3-0.5,1.4-1.2l12.4-52l12.2,52c0.1,0.7,0.7,1.2,1.4,1.2h7.8
			c0.7,0,1.3-0.5,1.4-1.2l17.3-74.6c0.1-0.5,0-1-0.2-1.3C467.6,59.3,467.1,59.1,466.7,59.1z"/>
	</g>
</g>
</svg>
