<svg xmlns="http://www.w3.org/2000/svg" width="533.333" height="533.333" version="1.0" viewBox="0 0 400 400"><path d="M0 125c0 68.7.2 125 .5 125 .2 0 2.5-1 5-2.2 3.6-1.8 14.2-12.6 49.6-51C79.9 170 100.4 148 100.7 148c.3 0 .4 21 .3 46.7-.2 25.8-.2 47.4-.1 48.1 0 .7 3.4 2.8 7.4 4.6l7.2 3.4-24.7.1c-13.7.1-24.8-.1-24.8-.3 0-.3 3.9-1.7 8.8-3.1 4.8-1.5 9.2-3.1 9.8-3.6 1.7-1.4 3-31.7 1.5-33.2-.7-.7-7-1.3-16.9-1.5l-15.8-.4-3.1 2.6c-5 4.2-26.6 31.5-26 32.9.3.8 5.2 2.4 11.8 3.8l11.4 2.4-23.7.3L0 251v149h400V0H0v125zm367.5 71.7v47.6l6.2 2.6c3.4 1.5 6.5 3 6.9 3.4.4.4-10.5.7-24.2.6l-24.9-.1 10.2-3.4 10.1-3.5.7-8.2c.3-4.5.5-12 .3-16.7l-.3-8.5-4-.7c-6.2-1.1-28.4-.9-30.5.2-2.3 1.2-28 32.3-28 33.9 0 1.1 3.5 2.2 14.9 4.6 4.1.9 7.7 1.8 8 2 .2.3-10.1.5-22.9.5-12.8 0-23.1-.2-22.8-.5.3-.3 2.5-1.6 4.9-2.8 3.3-1.6 15.8-14.6 49.4-50.9 24.7-26.8 45.2-48.5 45.5-48.2.3.3.5 22 .5 48.1zM275.7 152c2.8.6 5.6 1.7 6.2 2.4.8.9-.4 5.6-4 16.7-2.9 8.5-5.6 15.8-6.1 16.4-.6.6-.7-4.6-.2-14 .8-18.4 1.3-17.8-12.6-18.3-27.8-1.1-50.6 14.8-59.6 41.5-2.2 6.6-2.6 9.1-2.2 16.3.9 18.3 12.1 30.9 30.6 34.1 6.9 1.2 18.2.4 20.5-1.4 1.3-1.1 5.7-16.5 5.7-20 0-1-3.5-2.3-10.7-4.2-6-1.6-11.5-3.2-12.3-3.6-.8-.5 7.8-.9 19.3-.9 24.4 0 22.6-1.6 17.2 15.6-4 12.8-3.2 12.1-19.7 16.6-11.8 3.1-31.6 3.1-40.2 0-8.3-3.1-15.1-7.7-19.1-12.9-13.4-17.5-9.4-43.5 9.5-63.3 9.8-10.2 25.1-18.2 41-21.6 7.5-1.6 28.5-1.2 36.7.6zm-98.9 2.6c-5.2 1.6-8.3 3.2-9.2 4.7-1.7 2.6-20.9 82.5-20.2 84.2.2.7 4 2.5 8.3 4.1l7.8 2.9-12.3.3c-6.8.1-17.6.1-24 0l-11.7-.3 7.8-2.9c4.2-1.5 7.9-3.2 8.2-3.6 1.1-1.8 20.6-83.3 20.3-84.9-.2-1-3.1-2.6-7.8-4.3l-7.5-2.7h24l24 .1-7.7 2.4z"/><path d="M337.9 186.6c-7.9 8.5-14.4 16-14.4 16.7 0 1.7 27.2 2.2 29.1.6 1.1-.9 1.4-4.7 1.4-17 0-8.8-.4-15.9-.9-15.9s-7.4 7-15.2 15.6zM71.5 186.7c-8 8.6-14.4 16.1-14.2 16.7.2.7 5.3 1.1 14.7 1.1h14.4l.7-2.5c1.1-3.9 1-31-.1-31-.5 0-7.5 7.1-15.5 15.7z"/></svg>