<svg xmlns="http://www.w3.org/2000/svg" viewBox="0 0 201.61 51.81"><defs><style>.a{fill:#00243e}</style></defs><title>about-logo</title><path d="M18 10.56l.88-2.9L18.41 5l-1.82-2.49-2.93-.87L3 3.51l-3 29v.19l12-2.09 3.77-2.05 2.19-3.13.89-2.86-.72-4L16.24 16l-2.6-1.16 2.18-1.2zm-6.28 3.58l-8.37 1.47L4.47 4.92l9.4-1.66 1.79.53 1.16 1.54.44 2.54-.85 2.82-1 1.45zm4.42-10.2l1 1.26-1-1.26zm-.24 22.79h-.05l.1-.15zM3.18 17.3L12 15.74l3.17 1.34 1.33 1.81.68 3.86-.86 2.81-1 1.5-3.63 2-9.92 1.69zM39 2L25.47 32.88v.18l1.53-.27 3.22-7.32 13.4-2.36 1.5 6.49 1.61-.28-6.18-27.59zm-8 21.67l8.42-19.2 3.85 17zM74.86 2.28l-2.93-.87L60 3.51l-3 29.06v.15l1.58-.28L60 18.68l5.2-.92 8.9 11.94 1.54-.27v-.15l-8.79-11.81 3.7-.65 3.77-2.06 2.19-3.12.88-2.9-.71-4zM60.17 17l1.26-12.08L72.14 3l1.79.53 1.16 1.57.68 3.9-.86 2.82-1 1.45-3.67 2zM89.2 12.06l1.93-4.39 1.05-1.5 3.66-2 3.86-.68 2.77.83 1.72 2.32.48 2.73 1.61-.29-.49-2.8L104 3.85l-1.62-1.14-2.89-.84-4.01.7-3.73 2.05-2.19 3.13-1.95 4.44-.62 4.16-.38 5.47.7 4 2.01 3.74 1.63 1.14 2.89.85 5.31-.94 3.74-2.05 2.18-3.13.89-2.86-.04-.22-1.54.27-.91 2.94-1.01 1.45-3.66 2-5.17.91-2.77-.82-1.94-3.6-.7-3.93.39-5.43.59-4.08zM127.9 2l-13.54 30.88v.18l1.53-.27 3.22-7.32 13.41-2.36L134 29.6l1.61-.28-6.18-27.59zm-8 21.67l8.42-19.2 3.86 17zM171.18.27l-12.59 28.62-8.15-24.96-1.57.28-3.03 29.02.04.18 1.57-.28 2.64-25.05 7.58 23.25 1.53-.27 11.41-25.71-2.49 23.98.03.15 1.57-.28L172.74.15l-.02-.15-1.54.27zM200.9 4.85l-1.82-2.46-2.93-.87-10.63 1.88-3 29.05v.15l1.57-.27 1.43-13.76 9.25-1.64 3.76-2 2.19-3.13.88-2.89zm-.9 4.22l-.86 2.81-1 1.45-3.66 2-8.77 1.54L187 4.79l9.4-1.65 1.79.54 1.16 1.53zm-2.15-5.8l-1.47-.44zM187 4.5z" class="a"/><g><path d="M69.12 51.37l-.46-.46-.44-1.32v-1.32l.44-1.74.43-1.31.91-1.31.88-.89 1.31-.44h1.77l.88.43.46.46.43 1.32v1.33l-.43 1.74-.44 1.3-.86 1.32-.88.88-1.32.45H70zm2.62-.53l1.26-.43.87-1.3.42-1.28.44-1.73v-1.3l-.34-1-.5-.24H72.2l-1.28.44-.87 1.3-.42 1.28-.44 1.73v1.3l.34 1 .5.25zM78.78 51.76l2.62-9.18h1l1.14 8 5.31-8h.94v.06l-2.62 9.17h-1v-.05L88 45.21l-4.39 6.6h-.94l-1-6.9-2 6.9h-1zM91.51 51.74l6.11-9.16h.94l.44 9.16v.07h-1l-.11-2.18h-4l-1.45 2.18h-.95zm6.39-3.08L97.66 44l-3.12 4.65zM102.94 51.76l2.62-9.18h1v.06l-1.11 3.85h4.25l1.12-3.91h1v.06l-2.62 9.17h-1v-.05l1.23-4.3h-4.25l-1.24 4.35h-1zM113.5 51.74l6.11-9.16h.93l.45 9.16v.07h-1l-.11-2.18h-4l-1.45 2.18h-.94zm6.38-3.08l-.23-4.66-3.12 4.65z" class="a"/></g></svg>