<svg xmlns="http://www.w3.org/2000/svg" viewBox="0 0 973.53 504.67">
  <defs>
    <style>
      .a {
        fill: none;
        stroke: #00243e;
        stroke-miterlimit: 10;
        stroke-width: 1.2px;
      }

      .b {
        fill: #d8ffff;
      }
    </style>
  </defs>
  <title>tray-bg</title>
  <g>
    <g>
      <g>
        <path class="a" d="M517.32,7.75a7.15,7.15,0,1,0-14.3,0"/>
        <path class="a" d="M629.46,31.88c-11.87,0-11.87,15.37-23.74,15.37S593.84,31.88,582,31.88,570.1,47.25,558.24,47.25s-11.86-15.37-23.71-15.37-11.86,15.37-23.72,15.37S499,31.88,487.09,31.88s-11.86,15.37-23.72,15.37-11.86-15.37-23.71-15.37S427.8,47.25,416,47.25s-11.85-15.37-23.7-15.37l-106.94.17"/>
      </g>
      <line class="a" x1="736.16" y1="31.75" x2="629.22" y2="31.92"/>
    </g>
    <path class="b" d="M972.84,40.94V504.16L0,504.67V51a7.91,7.91,0,0,1,7.91-7.91H52a31.42,31.42,0,1,0,62.83,0V42l273.62-.18c12.19,0,12.19,15.81,24.37,15.81S425,41.84,437.21,41.84s12.19,15.81,24.38,15.81S473.79,41.84,486,41.84s12.19,15.81,24.39,15.81,12.19-15.81,24.39-15.81S547,57.65,559.14,57.65s12.2-15.81,24.4-15.81S595.75,57.65,608,57.65s12.21-15.81,24.42-15.81H973.53"/>
  </g>
</svg>
