<svg width="1147" height="270" viewBox="0 0 1147 270" fill="none" xmlns="http://www.w3.org/2000/svg">
<path fill-rule="evenodd" clip-rule="evenodd" d="M135 0.5C135 0.7855 133.5 1 131.5 1C129.5 1 128 1.2145 128 1.5C128 1.775 127.325 2 126.5 2C125.675 2 125 2.225 125 2.5C125 2.775 124.55 3 124 3C123.45 3 123 3.225 123 3.5C123 3.775 122.55 4 122 4C121.45 4 121 4.225 121 4.5C121 4.775 120.55 5 120 5C119.45 5 119 5.225 119 5.5C119 5.775 118.645 6 118.211 6C117.776 6 116.557 6.9 115.5 8C114.443 9.1 113.327 10 113.02 10C112.713 10 110.454 12.025 108 14.5C105.546 16.975 103.283 19 102.97 19C102.657 19 101.771 19.675 101 20.5C100.229 21.325 99.2885 22 98.91 22C98.531 22 97.8965 22.45 97.5 23C97.1035 23.55 96.4285 24 96 24C95.5715 24 94.8965 24.45 94.5 25C94.1035 25.55 93.379 26 92.8895 26C92.4005 26 92 26.225 92 26.5C92 26.775 91.5995 27 91.1105 27C90.621 27 89.8965 27.45 89.5 28C89.1035 28.55 88.379 29 87.8895 29C87.4005 29 87 29.225 87 29.5C87 29.775 86.55 30 86 30C85.45 30 85 30.225 85 30.5C85 30.775 84.55 31 84 31C83.45 31 83 31.225 83 31.5C83 31.775 82.325 32 81.5 32C80.675 32 80 32.225 80 32.5C80 32.775 79.55 33 79 33C78.45 33 78 33.225 78 33.5C78 33.775 77.325 34 76.5 34C75.675 34 75 34.225 75 34.5C75 34.775 74.325 35 73.5 35C72.675 35 72 35.225 72 35.5C72 35.775 71.325 36 70.5 36C69.675 36 69 36.225 69 36.5C69 36.775 68.325 37 67.5 37C66.675 37 66 37.225 66 37.5C66 37.775 65.1 38 64 38C62.9 38 62 38.225 62 38.5C62 38.778 60.6665 39 59 39C57.3335 39 56 39.222 56 39.5C56 39.7855 54.5 40 52.5 40C50.5 40 49 40.2145 49 40.5C49 40.775 48.1 41 47 41C45.9 41 45 41.225 45 41.5C45 41.775 44.325 42 43.5 42C42.675 42 42 42.225 42 42.5C42 42.775 41.55 43 41 43C40.45 43 40 43.225 40 43.5C40 43.775 39.55 44 39 44C38.45 44 38 44.225 38 44.5C38 44.775 37.6405 45 37.2005 45C36.761 45 35.7705 45.675 35 46.5C34.2295 47.325 33.3455 48 33.036 48C32.2525 48 28 52.329 28 53.1265C28 53.4855 27.55 54.1035 27 54.5C26.45 54.8965 26 55.5715 26 56C26 56.4285 25.55 57.1035 25 57.5C24.45 57.8965 24 58.621 24 59.1105C24 59.5995 23.775 60 23.5 60C23.225 60 23 60.675 23 61.5C23 62.325 22.775 63 22.5 63C22.225 63 22 63.675 22 64.5C22 65.325 21.775 66 21.5 66C21.225 66 21 67.125 21 68.5C21 69.875 20.775 71 20.5 71C20.2145 71 20 72.5 20 74.5C20 76.5 20.2145 78 20.5 78C20.82 78 21 82.5 21 90.5C21 98.5 20.82 103 20.5 103C20.222 103 20 104.334 20 106C20 107.666 19.778 109 19.5 109C19.225 109 19 110.125 19 111.5C19 112.875 18.775 114 18.5 114C18.225 114 18 114.9 18 116C18 117.1 17.775 118 17.5 118C17.225 118 17 118.9 17 120C17 121.1 16.775 122 16.5 122C16.225 122 16 122.45 16 123C16 123.55 15.775 124 15.5 124C15.225 124 15 124.675 15 125.5C15 126.325 14.775 127 14.5 127C14.225 127 14 127.675 14 128.5C14 129.325 13.775 130 13.5 130C13.225 130 13 130.45 13 131C13 131.55 12.775 132 12.5 132C12.225 132 12 132.45 12 133C12 133.55 11.775 134 11.5 134C11.225 134 11 134.45 11 135C11 135.55 10.775 136 10.5 136C10.225 136 10 136.45 10 137C10 137.55 9.775 138 9.5 138C9.225 138 9 138.45 9 139C9 139.55 8.775 140 8.5 140C8.225 140 8 140.4 8 140.889C8 141.379 7.55 142.104 7 142.5C6.45 142.896 6 143.621 6 144.111C6 144.6 5.775 145 5.5 145C5.225 145 5 145.45 5 146C5 146.55 4.775 147 4.5 147C4.225 147 4 147.45 4 148C4 148.55 3.775 149 3.5 149C3.225 149 3 149.45 3 150C3 150.55 2.775 151 2.5 151C2.225 151 2 151.675 2 152.5C2 153.325 1.775 154 1.5 154C1.225 154 1 155.125 1 156.5C1 157.875 0.775 159 0.5 159C0.2 159 0 161 0 164C0 167 0.2 169 0.5 169C0.775 169 1 169.9 1 171C1 172.1 1.225 173 1.5 173C1.775 173 2 173.675 2 174.5C2 175.325 2.225 176 2.5 176C2.775 176 3 176.675 3 177.5C3 178.325 3.225 179 3.5 179C3.775 179 4 179.4 4 179.889C4 180.379 4.45 181.104 5 181.5C5.55 181.896 6 182.572 6 183C6 183.428 6.45 184.104 7 184.5C7.55 184.896 8 185.515 8 185.874C8 186.723 12.277 191 13.1265 191C13.4855 191 14.1035 191.45 14.5 192C14.8965 192.55 15.531 193 15.91 193C16.2885 193 17.2295 193.675 18 194.5C18.7705 195.325 19.7115 196 20.09 196C20.469 196 21.1035 196.45 21.5 197C21.8965 197.55 22.531 198 22.91 198C23.2885 198 24.2295 198.675 25 199.5C25.7705 200.325 26.6505 201 26.955 201C27.672 201 41 214.318 41 215.035C41 215.334 41.9 216.443 43 217.5C44.1 218.557 45 219.727 45 220.1C45 220.474 45.45 221.104 46 221.5C46.55 221.896 47 222.572 47 223C47 223.428 47.45 224.104 48 224.5C48.55 224.896 49 225.621 49 226.111C49 226.6 49.225 227 49.5 227C49.775 227 50 227.4 50 227.889C50 228.379 50.45 229.104 51 229.5C51.55 229.896 52 230.621 52 231.111C52 231.6 52.225 232 52.5 232C52.775 232 53 232.45 53 233C53 233.55 53.225 234 53.5 234C53.775 234 54 234.45 54 235C54 235.55 54.225 236 54.5 236C54.775 236 55 236.45 55 237C55 237.55 55.225 238 55.5 238C55.775 238 56 238.675 56 239.5C56 240.325 56.225 241 56.5 241C56.775 241 57 241.675 57 242.5C57 243.325 57.225 244 57.5 244C57.775 244 58 244.45 58 245C58 245.55 58.225 246 58.5 246C58.775 246 59 246.675 59 247.5C59 248.325 59.225 249 59.5 249C59.775 249 60 249.45 60 250C60 250.55 60.225 251 60.5 251C60.775 251 61 251.4 61 251.889C61 252.379 61.45 253.104 62 253.5C62.55 253.896 63 254.512 63 254.867C63 255.711 71.289 264 72.1325 264C72.488 264 73.1035 264.45 73.5 265C73.8965 265.55 74.621 266 75.1105 266C75.5995 266 76 266.225 76 266.5C76 266.775 76.675 267 77.5 267C78.325 267 79 267.225 79 267.5C79 267.775 79.675 268 80.5 268C81.325 268 82 268.225 82 268.5C82 268.775 82.9 269 84 269C85.1 269 86 269.225 86 269.5C86 269.803 88.1665 270 91.5 270C94.8335 270 97 269.803 97 269.5C97 269.225 98.125 269 99.5 269C100.875 269 102 268.775 102 268.5C102 268.225 102.675 268 103.5 268C104.325 268 105 267.775 105 267.5C105 267.225 105.675 267 106.5 267C107.325 267 108 266.775 108 266.5C108 266.225 108.675 266 109.5 266C110.325 266 111 265.775 111 265.5C111 265.225 112.125 265 113.5 265C114.875 265 116 264.775 116 264.5C116 264.225 116.9 264 118 264C119.1 264 120 263.775 120 263.5C120 263.208 121.667 263 124 263C126.333 263 128 262.792 128 262.5C128 262.185 131.333 262 137 262C142.667 262 146 262.185 146 262.5C146 262.792 147.667 263 150 263C152.333 263 154 263.208 154 263.5C154 263.775 154.9 264 156 264C157.1 264 158 264.225 158 264.5C158 264.775 159.125 265 160.5 265C161.875 265 163 265.225 163 265.5C163 265.775 163.675 266 164.5 266C165.325 266 166 266.225 166 266.5C166 266.775 166.675 267 167.5 267C168.325 267 169 267.225 169 267.5C169 267.775 169.675 268 170.5 268C171.325 268 172 268.225 172 268.5C172 268.775 173.125 269 174.5 269C175.875 269 177 269.225 177 269.5C177 269.803 179.167 270 182.5 270C185.833 270 188 269.803 188 269.5C188 269.225 188.9 269 190 269C191.1 269 192 268.775 192 268.5C192 268.225 192.675 268 193.5 268C194.325 268 195 267.775 195 267.5C195 267.225 195.625 267 196.389 267C197.205 267 198.076 266.587 198.5 266C198.896 265.45 199.621 265 200.111 265C200.6 265 201 264.775 201 264.5C201 264.225 201.341 264 201.757 264C202.678 264 211 255.777 211 254.867C211 254.512 211.45 253.896 212 253.5C212.55 253.104 213 252.379 213 251.889C213 251.4 213.225 251 213.5 251C213.775 251 214 250.325 214 249.5C214 248.675 214.225 248 214.5 248C214.775 248 215 247.55 215 247C215 246.45 215.225 246 215.5 246C215.775 246 216 245.325 216 244.5C216 243.675 216.225 243 216.5 243C216.775 243 217 242.55 217 242C217 241.45 217.225 241 217.5 241C217.775 241 218 240.325 218 239.5C218 238.675 218.225 238 218.5 238C218.775 238 219 237.55 219 237C219 236.45 219.225 236 219.5 236C219.775 236 220 235.55 220 235C220 234.45 220.225 234 220.5 234C220.775 234 221 233.55 221 233C221 232.45 221.225 232 221.5 232C221.775 232 222 231.55 222 231C222 230.45 222.225 230 222.5 230C222.775 230 223 229.6 223 229.111C223 228.621 223.45 227.896 224 227.5C224.55 227.104 225 226.428 225 226C225 225.572 225.45 224.896 226 224.5C226.55 224.104 227 223.428 227 223C227 222.572 227.45 221.896 228 221.5C228.55 221.104 229 220.469 229 220.09C229 219.711 229.675 218.771 230.5 218C231.325 217.229 232 216.349 232 216.045C232 215.328 246.319 201 247.035 201C247.334 201 248.443 200.1 249.5 199C250.557 197.9 251.727 197 252.1 197C252.474 197 253.104 196.55 253.5 196C253.896 195.45 254.572 195 255 195C255.428 195 256.104 194.55 256.5 194C256.896 193.45 257.531 193 257.91 193C258.289 193 259.229 192.325 260 191.5C260.771 190.675 261.659 190 261.974 190C262.288 190 263.097 189.448 263.772 188.773C264.447 188.098 265 187.288 265 186.973C265 186.658 265.675 185.771 266.5 185C267.325 184.229 268 183.289 268 182.91C268 182.531 268.45 181.896 269 181.5C269.55 181.104 270 180.379 270 179.889C270 179.4 270.225 179 270.5 179C270.775 179 271 178.325 271 177.5C271 176.675 271.225 176 271.5 176C271.775 176 272 175.325 272 174.5C272 173.675 272.225 173 272.5 173C272.775 173 273 171.875 273 170.5C273 169.125 273.225 168 273.5 168C273.792 168 274 166.333 274 164C274 161.667 273.792 160 273.5 160C273.222 160 273 158.666 273 157C273 155.334 272.778 154 272.5 154C272.225 154 272 153.325 272 152.5C272 151.675 271.775 151 271.5 151C271.225 151 271 150.55 271 150C271 149.45 270.775 149 270.5 149C270.225 149 270 148.55 270 148C270 147.45 269.775 147 269.5 147C269.225 147 269 146.6 269 146.111C269 145.621 268.55 144.896 268 144.5C267.45 144.104 267 143.379 267 142.889C267 142.4 266.775 142 266.5 142C266.225 142 266 141.55 266 141C266 140.45 265.775 140 265.5 140C265.225 140 265 139.55 265 139C265 138.45 264.775 138 264.5 138C264.225 138 264 137.55 264 137C264 136.45 263.775 136 263.5 136C263.225 136 263 135.55 263 135C263 134.45 262.775 134 262.5 134C262.225 134 262 133.55 262 133C262 132.45 261.775 132 261.5 132C261.225 132 261 131.55 261 131C261 130.45 260.775 130 260.5 130C260.225 130 260 129.325 260 128.5C260 127.675 259.775 127 259.5 127C259.225 127 259 126.55 259 126C259 125.45 258.775 125 258.5 125C258.225 125 258 124.325 258 123.5C258 122.675 257.775 122 257.5 122C257.225 122 257 121.1 257 120C257 118.9 256.775 118 256.5 118C256.225 118 256 117.325 256 116.5C256 115.675 255.775 115 255.5 115C255.225 115 255 113.875 255 112.5C255 111.125 254.775 110 254.5 110C254.222 110 254 108.666 254 107C254 105.334 253.778 104 253.5 104C253.179 104 253 99.1665 253 90.5C253 81.8335 253.179 77 253.5 77C253.775 77 254 76.1 254 75C254 73.9 253.775 73 253.5 73C253.215 73 253 71.5 253 69.5C253 67.5 252.785 66 252.5 66C252.225 66 252 65.325 252 64.5C252 63.675 251.775 63 251.5 63C251.225 63 251 62.55 251 62C251 61.45 250.775 61 250.5 61C250.225 61 250 60.55 250 60C250 59.45 249.775 59 249.5 59C249.225 59 249 58.55 249 58C249 57.45 248.775 57 248.5 57C248.225 57 248 56.6405 248 56.2005C248 55.761 247.325 54.7705 246.5 54C245.675 53.2295 245 52.344 245 52.0325C245 51.2965 241.703 48 240.967 48C240.656 48 239.771 47.325 239 46.5C238.229 45.675 237.239 45 236.799 45C236.359 45 236 44.775 236 44.5C236 44.225 235.55 44 235 44C234.45 44 234 43.775 234 43.5C234 43.225 233.55 43 233 43C232.45 43 232 42.775 232 42.5C232 42.225 231.325 42 230.5 42C229.675 42 229 41.775 229 41.5C229 41.225 228.1 41 227 41C225.9 41 225 40.775 225 40.5C225 40.2145 223.5 40 221.5 40C219.5 40 218 39.7855 218 39.5C218 39.222 216.666 39 215 39C213.334 39 212 38.778 212 38.5C212 38.225 211.1 38 210 38C208.9 38 208 37.775 208 37.5C208 37.225 207.1 37 206 37C204.9 37 204 36.775 204 36.5C204 36.225 203.325 36 202.5 36C201.675 36 201 35.775 201 35.5C201 35.225 200.325 35 199.5 35C198.675 35 198 34.775 198 34.5C198 34.225 197.55 34 197 34C196.45 34 196 33.775 196 33.5C196 33.225 195.55 33 195 33C194.45 33 194 32.775 194 32.5C194 32.225 193.325 32 192.5 32C191.675 32 191 31.775 191 31.5C191 31.225 190.55 31 190 31C189.45 31 189 30.775 189 30.5C189 30.225 188.55 30 188 30C187.45 30 187 29.775 187 29.5C187 29.225 186.55 29 186 29C185.45 29 185 28.775 185 28.5C185 28.225 184.6 28 184.111 28C183.621 28 182.896 27.55 182.5 27C182.104 26.45 181.428 26 181 26C180.572 26 179.896 25.55 179.5 25C179.104 24.45 178.428 24 178 24C177.572 24 176.896 23.55 176.5 23C176.104 22.45 175.469 22 175.09 22C174.711 22 173.771 21.325 173 20.5C172.229 19.675 171.342 19 171.028 19C170.714 19 168.677 17.2 166.5 15C164.323 12.8 162.293 11 161.989 11C161.684 11 160.339 9.875 159 8.5C157.661 7.125 156.213 6 155.783 6C155.352 6 155 5.775 155 5.5C155 5.225 154.55 5 154 5C153.45 5 153 4.775 153 4.5C153 4.225 152.55 4 152 4C151.45 4 151 3.775 151 3.5C151 3.225 150.55 3 150 3C149.45 3 149 2.775 149 2.5C149 2.225 148.1 2 147 2C145.9 2 145 1.775 145 1.5C145 1.222 143.666 1 142 1C140.334 1 139 0.778 139 0.5C139 0.225 138.1 0 137 0C135.9 0 135 0.225 135 0.5ZM160 81.5C160 81.8 162 82 165 82C168 82 170 82.2 170 82.5C170 82.775 171.125 83 172.5 83C173.875 83 175 83.225 175 83.5C175 83.775 175.675 84 176.5 84C177.325 84 178 84.225 178 84.5C178 84.775 178.675 85 179.5 85C180.325 85 181 85.225 181 85.5C181 85.775 181.45 86 182 86C182.55 86 183 86.225 183 86.5C183 86.775 183.45 87 184 87C184.55 87 185 87.225 185 87.5C185 87.775 185.45 88 186 88C186.55 88 187 88.225 187 88.5C187 88.775 187.4 89 187.889 89C188.379 89 189.104 89.45 189.5 90C189.896 90.55 190.515 91 190.874 91C191.723 91 196 95.277 196 96.1265C196 96.4855 196.45 97.1035 197 97.5C197.55 97.8965 198 98.621 198 99.1105C198 99.5995 198.225 100 198.5 100C198.775 100 199 100.45 199 101C199 101.55 199.225 102 199.5 102C199.775 102 200 102.675 200 103.5C200 104.325 200.225 105 200.5 105C200.811 105 201 107.833 201 112.5C201 117.167 200.811 120 200.5 120C200.225 120 200 120.675 200 121.5C200 122.325 199.775 123 199.5 123C199.225 123 199 123.45 199 124C199 124.55 198.775 125 198.5 125C198.225 125 198 125.4 198 125.889C198 126.379 197.55 127.104 197 127.5C196.45 127.896 196 128.515 196 128.874C196 129.723 191.723 134 190.874 134C190.515 134 189.896 134.45 189.5 135C189.104 135.55 188.476 136 188.104 136C187.733 136 187.091 136.338 186.678 136.75C186.012 137.416 186.012 137.584 186.678 138.25C187.091 138.662 187.782 139 188.214 139C188.646 139 189 139.225 189 139.5C189 139.775 189.45 140 190 140C190.55 140 191 140.225 191 140.5C191 140.775 191.4 141 191.889 141C192.379 141 193.104 141.45 193.5 142C193.896 142.55 194.513 143 194.87 143C195.78 143 202 149.317 202 150.24C202 150.658 202.225 151 202.5 151C202.775 151 203 151.45 203 152C203 152.55 203.225 153 203.5 153C203.775 153 204 153.45 204 154C204 154.55 204.225 155 204.5 155C204.775 155 205 155.45 205 156C205 156.55 205.225 157 205.5 157C205.775 157 206 157.9 206 159C206 160.1 206.225 161 206.5 161C206.806 161 207 163.333 207 167C207 170.667 206.806 173 206.5 173C206.225 173 206 173.9 206 175C206 176.1 205.775 177 205.5 177C205.225 177 205 177.45 205 178C205 178.55 204.775 179 204.5 179C204.225 179 204 179.45 204 180C204 180.55 203.775 181 203.5 181C203.225 181 203 181.359 203 181.799C203 182.239 202.325 183.229 201.5 184C200.675 184.771 200 185.664 200 185.986C200 186.308 199.679 186.893 199.286 187.286C198.893 187.679 198.308 188 197.986 188C197.664 188 196.771 188.675 196 189.5C195.229 190.325 194.289 191 193.91 191C193.531 191 192.896 191.45 192.5 192C192.104 192.55 191.379 193 190.889 193C190.4 193 190 193.225 190 193.5C190 193.775 189.55 194 189 194C188.45 194 188 194.225 188 194.5C188 194.775 187.325 195 186.5 195C185.675 195 185 195.225 185 195.5C185 195.775 184.325 196 183.5 196C182.675 196 182 196.225 182 196.5C182 196.775 181.1 197 180 197C178.9 197 178 197.225 178 197.5C178 197.775 176.875 198 175.5 198C174.125 198 173 198.225 173 198.5C173 198.8 171 199 168 199C165 199 163 199.2 163 199.5C163 199.829 148.667 200 121 200C93.3335 200 79 199.829 79 199.5C79 199.225 78.6465 199 78.2145 199C76.132 199 76 198.153 76 184.786V172H78.7725C81.05 172 81.765 171.781 82.7725 170.773L84 169.546V140.5V111.454L82.7725 110.228C81.765 109.22 81.05 109 78.7725 109H76V96.2145C76 82.847 76.132 82 78.2145 82C78.6465 82 79 81.775 79 81.5C79 81.171 92.8335 81 119.5 81C146.167 81 160 81.171 160 81.5ZM329.625 82.748C329.16 83.276 329 86.724 329 96.229V109H331.772C334.05 109 334.765 109.22 335.772 110.228L337 111.454V140.5V169.546L335.772 170.773C334.765 171.781 334.05 172 331.772 172H329V184.786C329 195.2 329.133 197.704 329.715 198.286C330.323 198.895 337.334 199 377.215 199C408.072 199 424 198.83 424 198.5C424 198.222 425.334 198 427 198C428.666 198 430 197.778 430 197.5C430 197.225 430.9 197 432 197C433.1 197 434 196.775 434 196.5C434 196.225 434.675 196 435.5 196C436.325 196 437 195.775 437 195.5C437 195.225 437.675 195 438.5 195C439.325 195 440 194.775 440 194.5C440 194.225 440.45 194 441 194C441.55 194 442 193.775 442 193.5C442 193.225 442.45 193 443 193C443.55 193 444 192.775 444 192.5C444 192.225 444.4 192 444.889 192C445.379 192 446.104 191.55 446.5 191C446.896 190.45 447.513 190 447.87 190C448.78 190 455 183.683 455 182.76C455 182.342 455.225 182 455.5 182C455.775 182 456 181.55 456 181C456 180.45 456.225 180 456.5 180C456.775 180 457 179.55 457 179C457 178.45 457.225 178 457.5 178C457.775 178 458 177.325 458 176.5C458 175.675 458.225 175 458.5 175C458.778 175 459 173.666 459 172C459 170.334 459.222 169 459.5 169C459.775 169 460 168.325 460 167.5C460 166.675 459.775 166 459.5 166C459.215 166 459 164.5 459 162.5C459 160.5 458.785 159 458.5 159C458.225 159 458 158.325 458 157.5C458 156.675 457.775 156 457.5 156C457.225 156 457 155.375 457 154.611C457 153.795 456.587 152.924 456 152.5C455.45 152.104 455 151.469 455 151.09C455 150.711 454.325 149.771 453.5 149C452.675 148.229 452 147.336 452 147.014C452 146.259 450.742 145 449.987 145C449.665 145 448.771 144.325 448 143.5C447.229 142.675 446.239 142 445.799 142C445.359 142 445 141.775 445 141.5C445 141.225 444.55 141 444 141C443.45 141 443 140.775 443 140.5C443 140.225 442.55 140 442 140C441.45 140 441 139.775 441 139.5C441 139.225 440.647 139 440.215 139C439.457 139 438 137.873 438 137.286C438 137.129 438.45 137 439 137C439.55 137 440 136.775 440 136.5C440 136.225 440.34 136 440.757 136C441.744 136 450 127.744 450 126.757C450 126.341 450.225 126 450.5 126C450.775 126 451 125.55 451 125C451 124.45 451.225 124 451.5 124C451.775 124 452 123.55 452 123C452 122.45 452.225 122 452.5 122C452.775 122 453 121.1 453 120C453 118.9 453.225 118 453.5 118C453.803 118 454 115.833 454 112.5C454 109.167 453.803 107 453.5 107C453.225 107 453 106.1 453 105C453 103.9 452.775 103 452.5 103C452.225 103 452 102.55 452 102C452 101.45 451.775 101 451.5 101C451.225 101 451 100.55 451 100C451 99.45 450.775 99 450.5 99C450.225 99 450 98.659 450 98.242C450 97.32 442.778 90 441.868 90C441.512 90 440.896 89.55 440.5 89C440.104 88.45 439.379 88 438.889 88C438.4 88 438 87.775 438 87.5C438 87.225 437.55 87 437 87C436.45 87 436 86.775 436 86.5C436 86.225 435.325 86 434.5 86C433.675 86 433 85.775 433 85.5C433 85.225 432.325 85 431.5 85C430.675 85 430 84.775 430 84.5C430 84.225 429.1 84 428 84C426.9 84 426 83.775 426 83.5C426 83.225 424.875 83 423.5 83C422.125 83 421 82.775 421 82.5C421 82.17 405.555 82.0065 375.625 82.019C337.076 82.035 330.156 82.145 329.625 82.748ZM506 106.5C506 106.775 504.875 107 503.5 107C502.125 107 501 107.225 501 107.5C501 107.775 500.325 108 499.5 108C498.675 108 498 108.225 498 108.5C498 108.775 497.325 109 496.5 109C495.675 109 495 109.225 495 109.5C495 109.775 494.325 110 493.5 110C492.675 110 492 110.225 492 110.5C492 110.775 491.55 111 491 111C490.45 111 490 111.225 490 111.5C490 111.775 489.55 112 489 112C488.45 112 488 112.225 488 112.5C488 112.775 487.6 113 487.111 113C486.621 113 485.896 113.45 485.5 114C485.104 114.55 484.469 115 484.09 115C483.711 115 482.771 115.675 482 116.5C481.229 117.325 480.346 118 480.036 118C479.304 118 475 122.304 475 123.036C475 123.345 474.325 124.229 473.5 125C472.675 125.771 472 126.711 472 127.09C472 127.469 471.55 128.104 471 128.5C470.45 128.896 470 129.621 470 130.111C470 130.6 469.775 131 469.5 131C469.225 131 469 131.45 469 132C469 132.55 468.775 133 468.5 133C468.225 133 468 133.45 468 134C468 134.55 467.775 135 467.5 135C467.225 135 467 135.675 467 136.5C467 137.325 466.775 138 466.5 138C466.225 138 466 138.675 466 139.5C466 140.325 465.775 141 465.5 141C465.225 141 465 142.125 465 143.5C465 144.875 464.775 146 464.5 146C464.189 146 464 148.833 464 153.5C464 158.167 464.189 161 464.5 161C464.775 161 465 161.9 465 163C465 164.1 465.225 165 465.5 165C465.775 165 466 165.9 466 167C466 168.1 466.225 169 466.5 169C466.775 169 467 169.45 467 170C467 170.55 467.225 171 467.5 171C467.775 171 468 171.625 468 172.389C468 173.205 468.413 174.076 469 174.5C469.55 174.896 470 175.621 470 176.111C470 176.6 470.225 177 470.5 177C470.775 177 471 177.4 471 177.889C471 178.379 471.45 179.104 472 179.5C472.55 179.896 473 180.512 473 180.868C473 181.658 480.26 189 481.042 189C481.348 189 482.229 189.675 483 190.5C483.771 191.325 484.761 192 485.201 192C485.641 192 486 192.225 486 192.5C486 192.775 486.45 193 487 193C487.55 193 488 193.225 488 193.5C488 193.775 488.45 194 489 194C489.55 194 490 194.225 490 194.5C490 194.775 490.45 195 491 195C491.55 195 492 195.225 492 195.5C492 195.775 492.45 196 493 196C493.55 196 494 196.225 494 196.5C494 196.775 494.675 197 495.5 197C496.325 197 497 197.225 497 197.5C497 197.775 497.675 198 498.5 198C499.325 198 500 198.225 500 198.5C500 198.775 500.9 199 502 199C503.1 199 504 199.225 504 199.5C504 199.778 505.334 200 507 200C508.666 200 510 200.222 510 200.5C510 200.817 513.667 201 520 201C526.333 201 530 200.817 530 200.5C530 200.222 531.334 200 533 200C534.666 200 536 199.778 536 199.5C536 199.225 536.9 199 538 199C539.1 199 540 198.775 540 198.5C540 198.225 540.675 198 541.5 198C542.325 198 543 197.775 543 197.5C543 197.225 543.45 197 544 197C544.55 197 545 196.775 545 196.5C545 196.225 545.45 196 546 196C546.55 196 547 195.775 547 195.5C547 195.225 547.45 195 548 195C548.55 195 549 194.775 549 194.5C549 194.225 549.45 194 550 194C550.55 194 551 193.775 551 193.5C551 193.225 551.355 193 551.789 193C552.224 193 553.443 192.1 554.5 191C555.557 189.9 556.776 189 557.211 189C557.813 189 558 188.466 558 186.747C558 184.495 557.994 184.488 549.253 175.747C541.39 167.884 539 165.961 539 167.5C539 167.775 538.55 168 538 168C537.45 168 537 168.225 537 168.5C537 168.775 536.55 169 536 169C535.45 169 535 169.225 535 169.5C535 169.775 534.55 170 534 170C533.45 170 533 170.225 533 170.5C533 170.775 532.55 171 532 171C531.45 171 531 171.225 531 171.5C531 171.775 530.325 172 529.5 172C528.675 172 528 172.225 528 172.5C528 172.808 525.5 173 521.5 173C517.5 173 515 172.808 515 172.5C515 172.225 514.1 172 513 172C511.9 172 511 171.775 511 171.5C511 171.225 510.599 171 510.11 171C509.621 171 508.896 170.55 508.5 170C508.104 169.45 507.476 169 507.104 169C506.234 169 505 167.766 505 166.896C505 166.524 504.55 165.896 504 165.5C503.45 165.104 503 164.379 503 163.889C503 163.4 502.775 163 502.5 163C502.225 163 502 162.775 502 162.5C502 162.172 512.762 162 533.286 162C567.845 162 566 162.181 566 158.786C566 157.804 566.225 157 566.5 157C566.785 157 567 155.5 567 153.5C567 151.5 566.785 150 566.5 150C566.208 150 566 148.333 566 146C566 143.667 565.792 142 565.5 142C565.225 142 565 141.1 565 140C565 138.9 564.775 138 564.5 138C564.225 138 564 137.325 564 136.5C564 135.675 563.775 135 563.5 135C563.225 135 563 134.375 563 133.611C563 132.795 562.587 131.924 562 131.5C561.45 131.104 561 130.379 561 129.889C561 129.4 560.775 129 560.5 129C560.225 129 560 128.6 560 128.111C560 127.621 559.55 126.896 559 126.5C558.45 126.104 558 125.488 558 125.133C558 124.29 548.71 115 547.867 115C547.512 115 546.896 114.55 546.5 114C546.104 113.45 545.379 113 544.89 113C544.401 113 544 112.775 544 112.5C544 112.225 543.55 112 543 112C542.45 112 542 111.775 542 111.5C542 111.225 541.55 111 541 111C540.45 111 540 110.775 540 110.5C540 110.225 539.325 110 538.5 110C537.675 110 537 109.775 537 109.5C537 109.225 536.55 109 536 109C535.45 109 535 108.775 535 108.5C535 108.225 534.1 108 533 108C531.9 108 531 107.775 531 107.5C531 107.225 529.875 107 528.5 107C527.125 107 526 106.775 526 106.5C526 106.183 522.333 106 516 106C509.667 106 506 106.183 506 106.5ZM631 106.5C631 106.775 630.1 107 629 107C627.9 107 627 107.225 627 107.5C627 107.775 626.325 108 625.5 108C624.675 108 624 108.225 624 108.5C624 108.775 623.55 109 623 109C622.45 109 622 109.225 622 109.5C622 109.775 621.55 110 621 110C620.45 110 620 110.225 620 110.5C620 110.775 619.599 111 619.11 111C618.621 111 617.896 111.45 617.5 112C617.104 112.55 616.469 113 616.09 113C615.712 113 614.771 113.675 614 114.5C611.7 116.962 611 116.549 611 112.728C611 109.919 610.826 109.281 609.773 108.228L608.545 107H593.273C583.424 107 578 107.178 578 107.5C578 107.775 577.646 108 577.214 108C574.939 108 575 106.755 575 153.5C575 191.028 575.106 197.678 575.714 198.286C576.776 199.348 611.224 199.348 612.286 198.286C612.884 197.688 613 193.934 613 175.286C613 160.762 613.174 153 613.5 153C613.775 153 614 152.1 614 151C614 149.9 614.225 149 614.5 149C614.775 149 615 148.55 615 148C615 147.45 615.225 147 615.5 147C615.775 147 616 146.656 616 146.237C616 145.244 620.244 141 621.237 141C621.656 141 622 140.775 622 140.5C622 140.225 622.675 140 623.5 140C624.325 140 625 139.775 625 139.5C625 139.192 627.591 139 631.773 139C638.297 139 638.591 138.955 639.773 137.773L641 136.546V121.987C641 110.036 640.872 107.301 640.286 106.715C639.44 105.868 631 105.674 631 106.5ZM680 106.5C680 106.775 679.1 107 678 107C676.9 107 676 107.225 676 107.5C676 107.775 675.325 108 674.5 108C673.675 108 673 108.225 673 108.5C673 108.775 672.325 109 671.5 109C670.675 109 670 109.225 670 109.5C670 109.775 669.55 110 669 110C668.45 110 668 110.225 668 110.5C668 110.775 667.599 111 667.11 111C666.621 111 665.896 111.45 665.5 112C665.104 112.55 664.428 113 664 113C663.572 113 662.896 113.45 662.5 114C662.104 114.55 661.488 115 661.131 115C660.775 115 658.8 116.684 656.742 118.742C654.684 120.8 653 122.776 653 123.132C653 123.488 652.55 124.104 652 124.5C651.45 124.896 651 125.621 651 126.111C651 126.6 650.775 127 650.5 127C650.225 127 650 127.45 650 128C650 128.55 649.775 129 649.5 129C649.225 129 649 129.45 649 130C649 130.55 648.775 131 648.5 131C648.225 131 648 131.45 648 132C648 132.55 647.775 133 647.5 133C647.225 133 647 133.675 647 134.5C647 135.325 646.775 136 646.5 136C646.225 136 646 137.125 646 138.5C646 139.875 645.775 141 645.5 141C645.185 141 645 144.333 645 150C645 155.667 645.185 159 645.5 159C645.775 159 646 160.125 646 161.5C646 162.875 646.225 164 646.5 164C646.775 164 647 164.675 647 165.5C647 166.325 647.225 167 647.5 167C647.775 167 648 167.45 648 168C648 168.55 648.225 169 648.5 169C648.775 169 649 169.45 649 170C649 170.55 649.225 171 649.5 171C649.775 171 650 171.45 650 172C650 172.55 650.225 173 650.5 173C650.775 173 651 173.359 651 173.799C651 174.239 651.675 175.229 652.5 176C653.325 176.771 654 177.653 654 177.96C654 178.742 660.338 185 661.13 185C661.487 185 662.104 185.45 662.5 186C662.896 186.55 663.572 187 664 187C664.428 187 665.104 187.45 665.5 188C665.896 188.55 666.621 189 667.11 189C667.599 189 668 189.225 668 189.5C668 189.775 668.45 190 669 190C669.55 190 670 190.225 670 190.5C670 190.775 670.675 191 671.5 191C672.325 191 673 191.225 673 191.5C673 191.775 673.675 192 674.5 192C675.325 192 676 192.225 676 192.5C676 192.775 676.9 193 678 193C679.1 193 680 193.225 680 193.5C680 193.815 683.333 194 689 194C694.667 194 698 193.815 698 193.5C698 193.225 698.9 193 700 193C701.1 193 702 192.775 702 192.5C702 192.225 702.45 192 703 192C703.55 192 704 191.775 704 191.5C704 191.225 704.626 191 705.39 191C706.206 191 707.076 190.587 707.5 190C707.896 189.45 708.526 189 708.899 189C709.273 189 710.443 188.1 711.5 187C712.557 185.9 713.551 185 713.711 185C713.87 185 714 186.8 714 189C714 191.333 713.792 193 713.5 193C713.225 193 713 193.675 713 194.5C713 195.325 712.775 196 712.5 196C712.225 196 712 196.343 712 196.761C712 197.751 706.751 203 705.761 203C705.342 203 705 203.225 705 203.5C705 203.775 704.325 204 703.5 204C702.675 204 702 204.225 702 204.5C702 204.778 700.666 205 699 205C697.334 205 696 205.222 696 205.5C696 205.792 694.333 206 692 206C689.667 206 688 205.792 688 205.5C688 205.222 686.666 205 685 205C683.334 205 682 204.778 682 204.5C682 204.225 681.1 204 680 204C678.9 204 678 203.775 678 203.5C678 203.225 677.325 203 676.5 203C675.675 203 675 202.775 675 202.5C675 202.225 674.325 202 673.5 202C672.675 202 672 201.775 672 201.5C672 201.225 671.55 201 671 201C670.45 201 670 200.775 670 200.5C670 200.225 669.55 200 669 200C668.45 200 668 199.775 668 199.5C668 199.225 667.55 199 667 199C666.45 199 666 198.775 666 198.5C666 197.733 662.522 197.906 661.714 198.714C661.321 199.107 661 199.782 661 200.214C661 200.646 660.775 201 660.5 201C660.225 201 660 201.45 660 202C660 202.55 659.775 203 659.5 203C659.225 203 659 203.45 659 204C659 204.55 658.775 205 658.5 205C658.225 205 658 205.45 658 206C658 206.55 657.775 207 657.5 207C657.225 207 657 207.45 657 208C657 208.55 656.775 209 656.5 209C656.225 209 656 209.675 656 210.5C656 211.325 655.775 212 655.5 212C655.225 212 655 212.45 655 213C655 213.55 654.775 214 654.5 214C654.225 214 654 214.45 654 215C654 215.55 653.775 216 653.5 216C653.225 216 653 216.45 653 217C653 217.55 652.775 218 652.5 218C652.225 218 652 218.45 652 219C652 219.55 651.775 220 651.5 220C651.225 220 651 220.45 651 221C651 221.55 651.225 222 651.5 222C651.775 222 652 222.45 652 223C652 223.666 652.334 224 653 224C653.55 224 654 224.225 654 224.5C654 224.775 654.45 225 655 225C655.55 225 656 225.225 656 225.5C656 225.775 656.45 226 657 226C657.55 226 658 226.225 658 226.5C658 226.775 658.675 227 659.5 227C660.325 227 661 227.225 661 227.5C661 227.775 661.45 228 662 228C662.55 228 663 228.225 663 228.5C663 228.775 663.675 229 664.5 229C665.325 229 666 229.225 666 229.5C666 229.775 666.675 230 667.5 230C668.325 230 669 230.225 669 230.5C669 230.775 669.9 231 671 231C672.1 231 673 231.225 673 231.5C673 231.778 674.334 232 676 232C677.666 232 679 232.222 679 232.5C679 232.796 680.833 233 683.5 233C686.167 233 688 233.204 688 233.5C688 233.812 691 234 696 234C701 234 704 233.812 704 233.5C704 233.208 705.667 233 708 233C710.333 233 712 232.792 712 232.5C712 232.225 712.9 232 714 232C715.1 232 716 231.775 716 231.5C716 231.225 716.9 231 718 231C719.1 231 720 230.775 720 230.5C720 230.225 720.675 230 721.5 230C722.325 230 723 229.775 723 229.5C723 229.225 723.45 229 724 229C724.55 229 725 228.775 725 228.5C725 228.225 725.45 228 726 228C726.55 228 727 227.775 727 227.5C727 227.225 727.45 227 728 227C728.55 227 729 226.775 729 226.5C729 226.225 729.45 226 730 226C730.55 226 731 225.775 731 225.5C731 225.225 731.359 225 731.799 225C732.239 225 733.229 224.325 734 223.5C734.771 222.675 735.653 222 735.961 222C736.744 222 742 216.666 742 215.871C742 215.514 742.45 214.896 743 214.5C743.55 214.104 744 213.428 744 213C744 212.572 744.45 211.896 745 211.5C745.55 211.104 746 210.379 746 209.889C746 209.4 746.225 209 746.5 209C746.775 209 747 208.55 747 208C747 207.45 747.225 207 747.5 207C747.775 207 748 206.325 748 205.5C748 204.675 748.225 204 748.5 204C748.775 204 749 203.325 749 202.5C749 201.675 749.225 201 749.5 201C749.775 201 750 200.1 750 199C750 197.9 750.225 197 750.5 197C750.778 197 751 195.666 751 194C751 192.334 751.222 191 751.5 191C751.829 191 752 177.076 752 150.227V109.454L750.773 108.228L749.545 107H734.273C724.424 107 719 107.178 719 107.5C719 107.775 718.646 108 718.214 108C716.561 108 716 109.322 716 113.215C716 115.297 715.875 117 715.722 117C715.569 117 714.12 115.65 712.5 114C710.88 112.35 709.206 111 708.778 111C708.35 111 708 110.775 708 110.5C708 110.225 707.55 110 707 110C706.45 110 706 109.775 706 109.5C706 109.225 705.55 109 705 109C704.45 109 704 108.775 704 108.5C704 108.225 703.55 108 703 108C702.45 108 702 107.775 702 107.5C702 107.225 701.1 107 700 107C698.9 107 698 106.775 698 106.5C698 106.185 694.667 106 689 106C683.333 106 680 106.185 680 106.5ZM817 106.5C817 106.775 816.1 107 815 107C813.9 107 813 107.225 813 107.5C813 107.775 812.55 108 812 108C811.45 108 811 108.225 811 108.5C811 108.775 810.374 109 809.61 109C808.794 109 807.924 109.413 807.5 110C807.104 110.55 806.428 111 806 111C805.572 111 804.896 111.45 804.5 112C804.104 112.55 803.428 113 803 113C802.572 113 801.896 113.45 801.5 114C801.104 114.55 800.379 115 799.89 115C799.122 115 799 114.522 799 111.5C799 108.333 798.905 108 798 108C797.45 108 797 107.775 797 107.5C797 107.178 791.5 107 781.5 107C771.5 107 766 107.178 766 107.5C766 107.775 765.55 108 765 108C764.334 108 764 108.334 764 109C764 109.55 763.775 110 763.5 110C763.171 110 763 124.833 763 153.5C763 182.167 763.171 197 763.5 197C763.775 197 764 197.45 764 198C764 198.982 764.334 199 781.786 199C796.534 199 799.694 198.878 800.286 198.286C800.885 197.687 801 193.734 801 173.786C801 158.262 801.174 150 801.5 150C801.775 150 802 149.1 802 148C802 146.9 802.225 146 802.5 146C802.775 146 803 145.431 803 144.737C803 143.324 806.947 139 808.237 139C808.656 139 809 138.775 809 138.5C809 138.206 810.755 138 813.263 138H817.526L819.763 140.237C821.232 141.705 822 142.907 822 143.737C822 144.431 822.225 145 822.5 145C822.775 145 823 145.9 823 147C823 148.1 823.225 149 823.5 149C823.826 149 824 157.429 824 173.286C824 193.667 824.115 197.687 824.714 198.286C825.306 198.878 828.466 199 843.214 199C860.666 199 861 198.982 861 198C861 197.45 861.225 197 861.5 197C861.826 197 862 188.333 862 172C862 155.667 862.174 147 862.5 147C862.775 147 863 146.325 863 145.5C863 144.675 863.225 144 863.5 144C863.775 144 864 143.655 864 143.234C864 142.238 867.238 139 868.234 139C868.655 139 869 138.775 869 138.5C869 138.204 870.833 138 873.5 138C876.167 138 878 138.204 878 138.5C878 138.775 878.354 139 878.786 139C879.796 139 881 140.204 881 141.214C881 141.646 881.225 142 881.5 142C881.775 142 882 142.45 882 143C882 143.55 882.225 144 882.5 144C882.775 144 883 144.675 883 145.5C883 146.325 883.225 147 883.5 147C883.826 147 884 155.762 884 172.286C884 193.534 884.114 197.686 884.714 198.286C885.776 199.348 920.224 199.348 921.286 198.286C921.889 197.683 922 193 922 168.286C922 149.095 921.827 139 921.5 139C921.222 139 921 137.666 921 136C921 134.334 920.778 133 920.5 133C920.225 133 920 132.1 920 131C920 129.9 919.775 129 919.5 129C919.225 129 919 128.325 919 127.5C919 126.675 918.775 126 918.5 126C918.225 126 918 125.55 918 125C918 124.45 917.775 124 917.5 124C917.225 124 917 123.6 917 123.111C917 122.621 916.55 121.896 916 121.5C915.45 121.104 915 120.488 915 120.132C915 119.223 906.678 111 905.757 111C905.341 111 905 110.775 905 110.5C905 110.225 904.55 110 904 110C903.45 110 903 109.775 903 109.5C903 109.225 902.55 109 902 109C901.45 109 901 108.775 901 108.5C901 108.225 900.325 108 899.5 108C898.675 108 898 107.775 898 107.5C898 107.225 897.1 107 896 107C894.9 107 894 106.775 894 106.5C894 106.187 890.833 106 885.5 106C880.167 106 877 106.187 877 106.5C877 106.775 876.1 107 875 107C873.9 107 873 107.225 873 107.5C873 107.775 872.325 108 871.5 108C870.675 108 870 108.225 870 108.5C870 108.775 869.55 109 869 109C868.45 109 868 109.225 868 109.5C868 109.775 867.55 110 867 110C866.45 110 866 110.225 866 110.5C866 110.775 865.55 111 865 111C864.45 111 864 111.225 864 111.5C864 111.775 863.645 112 863.211 112C862.776 112 861.557 112.9 860.5 114C859.443 115.1 858.319 116 858.003 116C857.173 116 856 117.297 856 118.215C856 118.754 855.531 119 854.5 119C853.49 119 853 118.751 853 118.239C853 117.312 847.781 112 846.871 112C846.513 112 845.896 111.55 845.5 111C845.104 110.45 844.379 110 843.89 110C843.401 110 843 109.775 843 109.5C843 109.225 842.55 109 842 109C841.45 109 841 108.775 841 108.5C841 108.225 840.325 108 839.5 108C838.675 108 838 107.775 838 107.5C838 107.225 837.1 107 836 107C834.9 107 834 106.775 834 106.5C834 106.187 830.833 106 825.5 106C820.167 106 817 106.187 817 106.5ZM964 106.5C964 106.778 962.666 107 961 107C959.334 107 958 107.222 958 107.5C958 107.775 957.1 108 956 108C954.9 108 954 108.225 954 108.5C954 108.775 953.1 109 952 109C950.9 109 950 109.225 950 109.5C950 109.775 949.325 110 948.5 110C947.675 110 947 110.225 947 110.5C947 110.775 946.55 111 946 111C945.45 111 945 111.225 945 111.5C945 111.775 944.325 112 943.5 112C942.675 112 942 112.225 942 112.5C942 112.775 941.55 113 941 113C940.45 113 940 113.225 940 113.5C940 113.775 939.652 114 939.227 114C937.78 114 936 116.332 936 118.228C936 119.203 936.225 120 936.5 120C936.775 120 937 120.45 937 121C937 121.55 937.225 122 937.5 122C937.775 122 938 122.45 938 123C938 123.55 938.225 124 938.5 124C938.775 124 939 124.45 939 125C939 125.55 939.225 126 939.5 126C939.775 126 940 126.45 940 127C940 127.55 940.225 128 940.5 128C940.775 128 941 128.45 941 129C941 129.55 941.225 130 941.5 130C941.775 130 942 130.45 942 131C942 131.55 942.225 132 942.5 132C942.775 132 943 132.45 943 133C943 133.55 943.225 134 943.5 134C943.775 134 944 134.45 944 135C944 135.55 944.225 136 944.5 136C944.775 136 945 136.348 945 136.773C945 137.198 945.552 138.098 946.227 138.773C947.47 140.015 949 140.416 949 139.5C949 139.225 949.45 139 950 139C950.55 139 951 138.775 951 138.5C951 138.225 951.45 138 952 138C952.55 138 953 137.775 953 137.5C953 137.225 953.675 137 954.5 137C955.325 137 956 136.775 956 136.5C956 136.225 956.675 136 957.5 136C958.325 136 959 135.775 959 135.5C959 135.225 959.9 135 961 135C962.1 135 963 134.775 963 134.5C963 134.19 965.667 134 970 134C974.333 134 977 134.19 977 134.5C977 134.775 977.675 135 978.5 135C979.325 135 980 135.225 980 135.5C980 135.775 980.45 136 981 136C981.55 136 982 136.225 982 136.5C982 136.775 982.348 137 982.773 137C983.773 137 986 139.227 986 140.227C986 140.652 986.225 141 986.5 141C986.775 141 987 141.675 987 142.5C987 143.325 987.225 144 987.5 144C987.775 144 988 144.225 988 144.5C988 144.822 983 145 974 145C965 145 960 145.178 960 145.5C960 145.778 958.666 146 957 146C955.334 146 954 146.222 954 146.5C954 146.775 953.1 147 952 147C950.9 147 950 147.225 950 147.5C950 147.775 949.325 148 948.5 148C947.675 148 947 148.225 947 148.5C947 148.775 946.55 149 946 149C945.45 149 945 149.225 945 149.5C945 149.775 944.55 150 944 150C943.45 150 943 150.225 943 150.5C943 150.775 942.641 151 942.201 151C941.761 151 940.771 151.675 940 152.5C939.229 153.325 938.335 154 938.013 154C937.219 154 936 155.274 936 156.104C936 156.476 935.55 157.104 935 157.5C934.45 157.896 934 158.621 934 159.111C934 159.6 933.775 160 933.5 160C933.225 160 933 160.45 933 161C933 161.55 932.775 162 932.5 162C932.225 162 932 162.45 932 163C932 163.55 931.775 164 931.5 164C931.225 164 931 165.125 931 166.5C931 167.875 930.775 169 930.5 169C930.222 169 930 170.334 930 172C930 173.666 930.222 175 930.5 175C930.778 175 931 176.334 931 178C931 179.666 931.222 181 931.5 181C931.775 181 932 181.675 932 182.5C932 183.325 932.225 184 932.5 184C932.775 184 933 184.4 933 184.889C933 185.379 933.45 186.104 934 186.5C934.55 186.896 935 187.513 935 187.87C935 188.715 941.285 195 942.13 195C942.487 195 943.104 195.45 943.5 196C943.896 196.55 944.621 197 945.11 197C945.599 197 946 197.225 946 197.5C946 197.775 946.675 198 947.5 198C948.325 198 949 198.225 949 198.5C949 198.775 949.675 199 950.5 199C951.325 199 952 199.225 952 199.5C952 199.775 953.125 200 954.5 200C955.875 200 957 200.225 957 200.5C957 200.81 959.667 201 964 201C968.333 201 971 200.81 971 200.5C971 200.225 972.125 200 973.5 200C974.875 200 976 199.775 976 199.5C976 199.225 976.675 199 977.5 199C978.325 199 979 198.775 979 198.5C979 198.225 979.401 198 979.89 198C980.379 198 981.104 197.55 981.5 197C981.896 196.45 982.513 196 982.871 196C983.781 196 989 190.688 989 189.761C989 189.334 989.438 189 990 189C990.922 189 991 189.334 991 193.286C991 196.334 991.206 197.778 991.714 198.286C992.774 199.346 1024.23 199.346 1025.29 198.286C1025.89 197.685 1026 193.334 1026 170.786C1026 153.262 1025.83 144 1025.5 144C1025.21 144 1025 142.5 1025 140.5C1025 138.5 1024.79 137 1024.5 137C1024.22 137 1024 136.1 1024 135C1024 133.9 1023.78 133 1023.5 133C1023.22 133 1023 132.325 1023 131.5C1023 130.675 1022.78 130 1022.5 130C1022.22 130 1022 129.55 1022 129C1022 128.45 1021.78 128 1021.5 128C1021.22 128 1021 127.55 1021 127C1021 126.45 1020.78 126 1020.5 126C1020.22 126 1020 125.6 1020 125.111C1020 124.621 1019.55 123.896 1019 123.5C1018.45 123.104 1018 122.487 1018 122.13C1018 121.285 1011.72 115 1010.87 115C1010.51 115 1009.9 114.55 1009.5 114C1009.1 113.45 1008.38 113 1007.89 113C1007.4 113 1007 112.775 1007 112.5C1007 112.225 1006.55 112 1006 112C1005.45 112 1005 111.775 1005 111.5C1005 111.225 1004.55 111 1004 111C1003.45 111 1003 110.775 1003 110.5C1003 110.225 1002.55 110 1002 110C1001.45 110 1001 109.775 1001 109.5C1001 109.225 1000.32 109 999.5 109C998.675 109 998 108.775 998 108.5C998 108.225 997.1 108 996 108C994.9 108 994 107.775 994 107.5C994 107.222 992.666 107 991 107C989.334 107 988 106.778 988 106.5C988 106.181 983.667 106 976 106C968.333 106 964 106.181 964 106.5ZM1093 106.5C1093 106.775 1092.1 107 1091 107C1089.9 107 1089 107.225 1089 107.5C1089 107.775 1088.32 108 1087.5 108C1086.68 108 1086 108.225 1086 108.5C1086 108.775 1085.32 109 1084.5 109C1083.68 109 1083 109.225 1083 109.5C1083 109.775 1082.6 110 1082.11 110C1081.62 110 1080.9 110.45 1080.5 111C1080.1 111.55 1079.47 112 1079.1 112C1078.73 112 1077.56 112.9 1076.5 114C1073.54 117.081 1073 116.773 1073 112C1073 108.333 1072.92 108 1072 108C1071.45 108 1071 107.775 1071 107.5C1071 107.178 1065.5 107 1055.5 107C1045.5 107 1040 107.178 1040 107.5C1040 107.775 1039.55 108 1039 108C1038.33 108 1038 108.334 1038 109C1038 109.55 1037.78 110 1037.5 110C1037.17 110 1037 124.833 1037 153.5C1037 182.167 1037.17 197 1037.5 197C1037.78 197 1038 197.45 1038 198C1038 198.982 1038.33 199 1055.79 199C1070.53 199 1073.69 198.878 1074.29 198.286C1074.88 197.687 1075 193.8 1075 174.286C1075 159.095 1075.17 151 1075.5 151C1075.78 151 1076 150.1 1076 149C1076 147.9 1076.22 147 1076.5 147C1076.78 147 1077 146.55 1077 146C1077 145.45 1077.22 145 1077.5 145C1077.78 145 1078 144.656 1078 144.237C1078 143.244 1082.24 139 1083.24 139C1083.66 139 1084 138.775 1084 138.5C1084 138.2 1086 138 1089 138C1092 138 1094 138.2 1094 138.5C1094 138.775 1094.34 139 1094.77 139C1095.76 139 1099 142.238 1099 143.234C1099 143.655 1099.22 144 1099.5 144C1099.78 144 1100 144.9 1100 146C1100 147.1 1100.22 148 1100.5 148C1100.83 148 1101 156.595 1101 172.786C1101 193.6 1101.11 197.686 1101.71 198.286C1102.78 199.351 1145.22 199.351 1146.29 198.286C1146.87 197.704 1147 195.2 1147 184.786V172H1144.23C1141.95 172 1141.24 171.781 1140.23 170.773L1139 169.546V154.773C1139 145.258 1138.82 140 1138.5 140C1138.21 140 1138 138.5 1138 136.5C1138 134.5 1137.79 133 1137.5 133C1137.22 133 1137 132.325 1137 131.5C1137 130.675 1136.78 130 1136.5 130C1136.22 130 1136 129.325 1136 128.5C1136 127.675 1135.78 127 1135.5 127C1135.22 127 1135 126.375 1135 125.611C1135 124.795 1134.59 123.924 1134 123.5C1133.45 123.104 1133 122.379 1133 121.889C1133 121.4 1132.78 121 1132.5 121C1132.22 121 1132 120.659 1132 120.241C1132 119.317 1125.78 113 1124.87 113C1124.51 113 1123.9 112.55 1123.5 112C1123.1 111.45 1122.38 111 1121.89 111C1121.4 111 1121 110.775 1121 110.5C1121 110.225 1120.55 110 1120 110C1119.45 110 1119 109.775 1119 109.5C1119 109.225 1118.55 109 1118 109C1117.45 109 1117 108.775 1117 108.5C1117 108.225 1116.32 108 1115.5 108C1114.68 108 1114 107.775 1114 107.5C1114 107.225 1113.1 107 1112 107C1110.9 107 1110 106.775 1110 106.5C1110 106.187 1106.83 106 1101.5 106C1096.17 106 1093 106.187 1093 106.5ZM126 109.5C126 109.775 125.55 110 125 110C124.222 110 124 110.334 124 111.5C124 112.325 123.775 113 123.5 113C123.2 113 123 115 123 118C123 121 123.2 123 123.5 123C123.775 123 124 123.675 124 124.5C124 125.666 124.222 126 125 126C125.55 126 126 126.225 126 126.5C126 126.818 130 127 137 127C144 127 148 126.818 148 126.5C148 126.225 148.9 126 150 126C151.1 126 152 125.775 152 125.5C152 125.225 152.348 125 152.773 125C153.198 125 154.098 124.448 154.773 123.773C155.448 123.098 156 122.198 156 121.773C156 121.348 156.225 121 156.5 121C156.778 121 157 119.666 157 118C157 116.334 156.778 115 156.5 115C156.225 115 156 114.653 156 114.228C156 113.013 153.676 111 152.273 111C151.573 111 151 110.775 151 110.5C151 110.225 149.875 110 148.5 110C147.125 110 146 109.775 146 109.5C146 109.183 142.333 109 136 109C129.667 109 126 109.183 126 109.5ZM400 109.5C400 109.775 400.9 110 402 110C403.1 110 404 110.225 404 110.5C404 110.775 404.45 111 405 111C405.55 111 406 111.225 406 111.5C406 111.775 406.45 112 407 112C407.666 112 408 112.334 408 113C408 113.55 408.225 114 408.5 114C408.775 114 409 114.45 409 115C409 115.55 409.225 116 409.5 116C409.775 116 410 116.9 410 118C410 119.1 409.775 120 409.5 120C409.225 120 409 120.573 409 121.273C409 122.676 406.987 125 405.772 125C405.347 125 405 125.225 405 125.5C405 125.775 404.1 126 403 126C401.9 126 401 126.225 401 126.5C401 126.819 396.909 127 389.728 127H378.454L377.228 125.773C376.049 124.595 376 124.283 376 117.987C376 111.204 376.334 110 378.215 110C378.647 110 379 109.775 379 109.5C379 109.183 382.833 109 389.5 109C396.167 109 400 109.183 400 109.5ZM522 132.5C522 132.775 522.45 133 523 133C523.55 133 524 133.225 524 133.5C524 133.775 524.345 134 524.766 134C525.762 134 529 137.238 529 138.234C529 138.655 529.225 139 529.5 139C529.775 139 530 139.45 530 140C530 140.55 530.225 141 530.5 141C530.775 141 531 141.675 531 142.5V144H516.5H502V142.5C502 141.675 502.225 141 502.5 141C502.775 141 503 140.55 503 140C503 139.45 503.225 139 503.5 139C503.775 139 504 138.656 504 138.237C504 136.947 508.324 133 509.737 133C510.431 133 511 132.775 511 132.5C511 132.197 513.167 132 516.5 132C519.833 132 522 132.197 522 132.5ZM703 135.5C703 135.775 703.675 136 704.5 136C705.325 136 706 136.225 706 136.5C706 136.775 706.342 137 706.761 137C707.751 137 713 142.249 713 143.239C713 143.657 713.225 144 713.5 144C713.775 144 714 144.9 714 146C714 147.1 714.225 148 714.5 148C714.775 148 715 148.9 715 150C715 151.1 714.775 152 714.5 152C714.225 152 714 152.9 714 154C714 155.1 713.775 156 713.5 156C713.225 156 713 156.343 713 156.761C713 157.751 707.751 163 706.761 163C706.342 163 706 163.225 706 163.5C706 163.775 705.325 164 704.5 164C703.675 164 703 164.225 703 164.5C703 164.792 701.333 165 699 165C696.667 165 695 164.792 695 164.5C695 164.225 694.325 164 693.5 164C692.675 164 692 163.775 692 163.5C692 163.225 691.599 163 691.11 163C690.621 163 689.896 162.55 689.5 162C689.104 161.45 688.476 161 688.104 161C687.234 161 686 159.766 686 158.896C686 158.524 685.55 157.896 685 157.5C684.413 157.076 684 156.205 684 155.389C684 154.625 683.775 154 683.5 154C683.208 154 683 152.333 683 150C683 147.667 683.208 146 683.5 146C683.775 146 684 145.325 684 144.5C684 143.675 684.225 143 684.5 143C684.775 143 685 142.655 685 142.234C685 141.238 688.238 138 689.234 138C689.655 138 690 137.775 690 137.5C690 137.225 690.45 137 691 137C691.55 137 692 136.775 692 136.5C692 136.225 692.675 136 693.5 136C694.325 136 695 135.775 695 135.5C695 135.208 696.667 135 699 135C701.333 135 703 135.208 703 135.5ZM124.625 153.748C124.282 154.139 124 155.03 124 155.729C124 156.428 123.775 157 123.5 157C123.197 157 123 159.167 123 162.5C123 165.833 123.197 168 123.5 168C123.775 168 124 168.675 124 169.5C124 170.666 124.222 171 125 171C125.55 171 126 171.225 126 171.5C126 171.82 130.5 172 138.5 172C146.5 172 151 171.82 151 171.5C151 171.222 152.334 171 154 171C155.666 171 157 170.778 157 170.5C157 170.225 157.345 170 157.766 170C158.188 170 159.313 169.22 160.266 168.266C161.958 166.575 162 166.435 162 162.5C162 158.565 161.958 158.425 160.266 156.734C159.313 155.78 158.188 155 157.766 155C157.345 155 157 154.775 157 154.5C157 154.225 156.1 154 155 154C153.9 154 153 153.775 153 153.5C153 153.178 148.054 153.007 139.125 153.019C127.785 153.034 125.136 153.168 124.625 153.748ZM406 153.5C406 153.775 406.9 154 408 154C409.1 154 410 154.225 410 154.5C410 154.775 410.345 155 410.767 155C411.189 155 412.314 155.78 413.267 156.734C414.938 158.405 415 158.602 415 162.234C415 164.411 414.789 166 414.5 166C414.225 166 414 166.348 414 166.773C414 167.773 411.773 170 410.772 170C410.347 170 410 170.225 410 170.5C410 170.775 408.875 171 407.5 171C406.125 171 405 171.225 405 171.5C405 171.82 400.333 172 392 172C383.667 172 379 171.82 379 171.5C379 171.225 378.647 171 378.215 171C376.308 171 376 169.821 376 162.518C376 155.893 376.069 155.391 377.125 154.262L378.25 153.061L392.125 153.031C401.062 153.011 406 153.178 406 153.5ZM988 165.5C988 166.875 987.775 168 987.5 168C987.225 168 987 168.675 987 169.5C987 170.325 986.775 171 986.5 171C986.225 171 986 171.57 986 172.266C986 173.675 983.026 177 981.766 177C981.345 177 981 177.225 981 177.5C981 177.799 979.037 178 976.11 178C971.794 178 971.136 177.882 970.5 177C970.104 176.45 969.379 176 968.89 176C968.334 176 968 175.626 968 175C968 174.45 967.775 174 967.5 174C967.218 174 967 172.578 967 170.734C967 167.673 967.11 167.358 968.734 165.734C969.799 164.668 970.955 164 971.734 164C972.43 164 973 163.775 973 163.5C973 163.189 975.833 163 980.5 163H988V165.5Z" fill="black"/>
</svg>
