<svg xmlns="http://www.w3.org/2000/svg" width="101" height="38" overflow="visible" viewBox="-.625 -.697 101 38"><path fill="#FFF" d="M0 0v22.797l.045-.014c.029-.018.585-.209.871-.428.146-.094 8.093-8.757 8.227-8.889.043-.037.091-.03.112.008.031.067-.089 8.29-.085 8.422.008.143.023.314.249.422.211.104 1.001.443 1.105.48.039.016.013.059-.054.059H6.024s-.064-.014-.017-.037a99.005 99.005 0 0 1 1.59-.518c.218-.076.279-.121.286-.463.007-.33.101-2.268.101-2.385 0-.119.036-.358-.281-.384-.15-.013-.639-.053-1.149-.065a23.327 23.327 0 0 0-1.349 0c-.345.005-.429.024-.624.175-.151.12-2.289 2.765-2.371 2.876-.084.125-.06.258.161.33.233.066 1.586.346 1.896.408.047.008.034.062-.027.062H-.001v13.748h36.605V0H0zm15.557 14.23a.573.573 0 0 0-.353.381c-.042.138-1.723 7.221-1.749 7.346-.029.16-.039.297.149.369.19.076 1.146.418 1.222.445.08.031.059.086-.024.086h-4.12c-.079 0-.117-.023-.047-.059.087-.037.992-.365 1.082-.398.095-.037.33-.125.395-.33.047-.156 1.775-7.28 1.804-7.415.042-.175.023-.35-.18-.421-.11-.04-1.168-.404-1.205-.415-.06-.019-.06-.06-.006-.06h4.325c.047 0 .092.034.029.051-.065.016-.771.228-.848.25-.085.028-.343.11-.474.17zm8.354 8.065c-.12.043-1.564.598-2.964.637-3.587.092-4.899-2.41-4.285-4.693.324-1.2 1.11-2.327 2.111-3.115.573-.449 2.272-1.5 4.487-1.5.419 0 1.491.05 2.27.257.385.101.327.312.285.466a310.89 310.89 0 0 1-.892 2.677c-.036.094-.113.097-.113-.005-.005-.056.103-2.306.099-2.398-.004-.237-.004-.383-.268-.469-.368-.117-2.133-.271-3.432.334-2.181 1.016-3.448 3.365-3.191 5.237.21 1.541 1.437 2.801 3.387 2.852.617.014 1.064-.074 1.193-.115.2-.059.224-.117.27-.229.04-.115.367-1.492.383-1.551.01-.059.094-.25-.106-.309l-2.06-.555c-.094-.023-.051-.07.02-.07h3.32c.135 0 .484-.035.389.299a92.93 92.93 0 0 1-.643 2.031c-.042.112-.136.173-.26.219zm10.931.563h-4.449s-.064-.014-.014-.037a87.477 87.477 0 0 1 1.59-.518c.217-.076.276-.121.286-.463.007-.33.099-2.268.099-2.385 0-.119.035-.358-.281-.384a19.238 19.238 0 0 0-1.146-.065 23.416 23.416 0 0 0-1.352 0c-.342.005-.43.024-.622.175-.152.12-2.292 2.765-2.372 2.876-.086.125-.062.258.16.33.232.066 1.59.346 1.898.408.045.008.037.062-.025.062h-4.189c-.043 0-.041-.049-.008-.062.028-.02.586-.221.87-.439.146-.094 8.093-8.757 8.231-8.889.042-.037.087-.03.105.008.032.067-.086 8.29-.082 8.422.01.143.019.314.246.422.215.104 1.007.443 1.104.48.047.016.017.059-.049.059z"/><path fill="#FFF" d="M5.466 18.648l2.169.004c.305 0 .384-.105.384-.291 0-.123.037-2.385.037-2.642 0-.247-.146-.258-.309-.071-.084.094-2.357 2.537-2.48 2.674-.123.137-.134.322.199.326zM32.116 15.648c-.085.094-2.354 2.537-2.48 2.674-.124.137-.134.321.202.325l2.167.004c.302 0 .384-.105.384-.291 0-.123.034-2.385.034-2.642 0-.245-.139-.257-.307-.07zM46.486 17.135l.172 2.174-.023.023-2.631-4.383h-2.277v7.85h1.957v-3.662c0-.538-.046-.812-.16-1.316l-.024-.091.023-.022.698 1.418 2.254 3.673h1.968v-7.85h-1.957v2.186zM49.54 22.799h5.893v-1.875h-3.537v-1.271h2.862v-1.751h-2.862v-1.145h3.537V14.95H49.54zM61.302 18.736v-.021c.8-.183 1.325-.881 1.325-1.705 0-.642-.309-1.282-.834-1.659-.491-.356-1.099-.401-1.693-.401h-3.834v7.85h3.594c.709 0 1.556-.012 2.162-.445.562-.4.801-1.156.801-1.83-.001-.941-.618-1.628-1.521-1.789zm-2.827-2.104h.938c.458 0 .938.079.938.663a.71.71 0 01-.229.515c-.172.16-.446.148-.675.148h-.973v-1.326zm1.739 4.269c-.194.158-.458.148-.698.148h-1.041v-1.42h.95c.217 0 .491 0 .697.104a.692.692 0 01.378.619.697.697 0 01-.286.549zM70.554 17.308c0-.767-.308-1.465-.96-1.877-.583-.389-1.339-.48-2.025-.48h-3.993v7.85h2.437v-2.998h.756l1.144 2.998h2.678l-1.418-3.422c.925-.424 1.381-1.042 1.381-2.071zm-3.66.812h-.882v-1.499h.974c.228 0 .48 0 .687.103a.719.719 0 01.377.641c-.001.675-.631.755-1.156.755zM73.172 14.95l-2.436 7.85h1.955l.48-1.545h2.095l.447 1.545h2.459l-2.459-7.85h-2.541zm.401 4.59l.641-2.278.642 2.278h-1.283zM83.927 18.269c-.687-.355-1.477-.481-2.22-.63-.297-.068-.869-.149-.869-.56 0-.413.457-.503.777-.503.607 0 1.041.206 1.271.79l1.99-.607c-.48-1.361-1.796-1.922-3.157-1.922-.778 0-1.614.148-2.255.595a2.442 2.442 0 00-1.007 1.968c0 1.865 1.751 2.266 3.227 2.553.356.068.961.16.961.639 0 .436-.617.48-.926.48-.698 0-1.225-.25-1.431-.949l-2.232.402c.426 1.703 1.89 2.391 3.537 2.391 1.624 0 3.501-.756 3.501-2.645 0-.858-.401-1.591-1.167-2.002zM97.54 14.95h-2.541l-2.317 7.463-2.269-4.591 1.979-2.872H90.23l-2.173 3.238V14.95h-2.268v7.85h2.268v-1.82l.822-1.143L90.23 22.8h4.29l.48-1.545h2.094l.447 1.545H100l-2.46-7.85zm-2.141 4.59l.641-2.278.642 2.278h-1.283z"/></svg>