<?xml version="1.0" encoding="utf-8"?>
<!-- Generator: Adobe Illustrator 26.0.1, SVG Export Plug-In . SVG Version: 6.00 Build 0)  -->
<svg version="1.1" xmlns="http://www.w3.org/2000/svg" xmlns:xlink="http://www.w3.org/1999/xlink" x="0px" y="0px"
	 viewBox="0 0 430.03 87.74" style="enable-background:new 0 0 430.03 87.74;" xml:space="preserve">
<g id="Layer_1">
</g>
<g id="BrandElements">
	<g>
		<g>
			<path class="st0" d="M38.19,7.79h11.53c9.06,0,11.24,6.53,11.24,11.77c0,2.65-0.82,5.59-2.82,7.89c3.53,2.3,5,6.3,5,9.65
				c0,5.3-1.77,11.89-13.42,11.89H38.19V7.79z M44.13,25.21h5c5.06,0,5.88-3.35,5.88-5.65c0-2.3-0.41-5.94-5.3-5.94h-5.59V25.21z
				 M44.13,43.16h5.59c6.53-0.18,7.47-2.77,7.47-6.06c0-3.24-1.41-6.06-8.06-6.06h-5V43.16z"/>
			<path class="st0" d="M70.21,7.79h9.53c11.65,0,13.48,7.89,13.48,14.07c0,4.65-1.06,10.24-6.71,12.77l7.77,14.36h-6.65
				l-7.12-13.06h-4.35v13.06h-5.94V7.79z M76.15,30.04h3.59c6.59-0.24,7.53-3.59,7.53-8.18c0-4.53-0.94-8.24-7.53-8.24h-3.59V30.04z
				"/>
			<path class="st0" d="M108.46,35.33L97.52,7.79h6.18l7.77,19.36c1.71-4.41,3.41-8.71,7.77-19.36h6.06l-10.89,27.54v13.65h-5.94
				V35.33z"/>
			<path class="st0" d="M137.06,7.79h6.06l11.77,41.2h-6.12l-2.06-7.65h-13.24l-2.06,7.65h-6.12L137.06,7.79z M135.06,35.51h10.06
				c-1.06-3.71-2.24-7.47-5.06-17.36L135.06,35.51z"/>
			<path class="st0" d="M162.25,7.79h5.59l13.77,27.13V7.79h5.88v41.2h-5.47L168.2,21.92v27.07h-5.94V7.79z"/>
			<path class="st0" d="M209.75,7.79h19.77v5.83h-13.83v14.42h11.42v5.83h-11.42v15.12h-5.94V7.79z"/>
			<path class="st0" d="M237.17,7.79h5.94v41.2h-5.94V7.79z"/>
			<path class="st0" d="M251.95,7.79h5.59l13.77,27.13V7.79h5.89v41.2h-5.47l-13.83-27.07v27.07h-5.94V7.79z"/>
			<path class="st0" d="M286.02,7.79h11.71c11.65,0,13.48,9.18,13.48,20.6s-1.82,20.6-13.48,20.6h-11.71V7.79z M291.97,43.22h5.77
				c6.53-0.24,7.53-5.71,7.53-14.83c0-9-1-14.77-7.53-14.77h-5.77V43.22z"/>
			<path class="st0" d="M319.45,7.79h19.36v5.83H325.4v12.77h11.18v5.83H325.4v10.95h13.83v5.83h-19.77V7.79z"/>
			<path class="st0" d="M346.88,7.79h5.88v35.13h13.07v6.06h-18.95V7.79z"/>
			<path class="st0" d="M372.89,7.79h5.88v35.13h13.06v6.06h-18.95V7.79z"/>
		</g>
		<g>
			<path class="st0" d="M43.26,59.89h2.61l5.07,17.73H48.3l-0.89-3.29h-5.7l-0.89,3.29h-2.63L43.26,59.89z M42.4,71.82h4.33
				c-0.46-1.6-0.96-3.22-2.18-7.47L42.4,71.82z"/>
			<path class="st0" d="M54.27,66.27l-0.18-2.58h2.2l0.18,0.96c0.66-0.66,1.62-1.09,2.94-1.09c3.62,0,4.76,1.92,4.76,6.18v7.88H61.8
				v-7.67c0-2.71-0.41-4.03-2.38-4.03c-1.57,0-2.76,0.86-2.76,4.03v7.67h-2.38V66.27z"/>
			<path class="st0" d="M68.91,61.31c-0.81,0-1.44-0.66-1.44-1.47c0-0.84,0.63-1.47,1.44-1.47c0.76,0,1.39,0.63,1.39,1.47
				C70.31,60.65,69.67,61.31,68.91,61.31z M70.08,77.62V63.69h-2.41v13.93H70.08z"/>
			<path class="st0" d="M74.03,66.25l-0.18-2.56h2.25l0.13,0.94c0.63-0.58,1.62-1.06,2.84-1.06c1.82,0,3.12,0.71,3.82,1.82
				c0.89-1.16,2.13-1.82,3.47-1.82c3.62,0,4.63,1.92,4.63,6.18v7.88h-2.38v-7.67c0-2.71-0.3-4.03-2.25-4.03
				c-1.54,0-2.58,0.81-2.63,3.77v7.93h-2.41v-8.13c-0.05-2.41-0.43-3.57-2.25-3.57c-1.57,0-2.66,0.86-2.66,4.03v7.67h-2.38V66.25z"
				/>
			<path class="st0" d="M103.28,75.44c0.1,1.29,0.1,1.95,0.1,2.18H101l-0.03-0.58c-0.56,0.35-1.37,0.71-2.41,0.71
				c-3.55,0-4.53-2.38-4.53-4.36c0-2.2,1.62-4.53,4.79-4.53c0.81,0,1.52,0.18,2.08,0.41v-0.68c0-2.33-1.6-2.66-2.33-2.66
				c-0.71,0-1.72,0.51-2.28,1.49l-1.98-1.37c1.11-1.52,2.58-2.48,4.25-2.48c1.7,0,4.71,0.73,4.71,5.01V75.44z M96.42,73.39
				c0,1.04,0.48,2,2.15,2c0.91,0,1.8-0.3,2.33-0.96v-2.84c-0.51-0.2-1.09-0.38-2.08-0.38C97.36,71.21,96.42,72.22,96.42,73.39z"/>
			<path class="st0" d="M105.92,63.69h1.85v-2.74h2.38v2.74h2.68v2.33h-2.68v6.71c0,1.77,0.1,2.66,0.73,2.66
				c0.35,0,0.53-0.18,0.68-0.41l1.44,1.82c-0.94,0.76-1.54,0.94-2.38,0.94c-2.86,0-2.86-2.38-2.86-5.01v-6.71h-1.85V63.69z"/>
			<path class="st0" d="M117.24,61.31c-0.81,0-1.44-0.66-1.44-1.47c0-0.84,0.63-1.47,1.44-1.47c0.76,0,1.39,0.63,1.39,1.47
				C118.63,60.65,118,61.31,117.24,61.31z M118.4,77.62V63.69H116v13.93H118.4z"/>
			<path class="st0" d="M126.41,77.74c-4.96,0-4.99-5.07-4.99-7.09s0.03-7.09,4.99-7.09c4.96,0,4.94,5.07,4.94,7.09
				S131.37,77.74,126.41,77.74z M126.41,65.92c-2.68,0-2.61,3.52-2.61,4.74c0,1.22-0.08,4.74,2.61,4.74c2.63,0,2.51-3.52,2.51-4.74
				C128.91,69.44,129.04,65.92,126.41,65.92z"/>
			<path class="st0" d="M134.33,66.27l-0.18-2.58h2.2l0.18,0.96c0.66-0.66,1.62-1.09,2.94-1.09c3.62,0,4.76,1.92,4.76,6.18v7.88
				h-2.38v-7.67c0-2.71-0.41-4.03-2.38-4.03c-1.57,0-2.76,0.86-2.76,4.03v7.67h-2.38V66.27z"/>
			<path class="st0" d="M153.81,79.95V56.39h2.2v23.55H153.81z"/>
			<path class="st0" d="M165.34,59.89h5.04c5.01,0,5.8,3.95,5.8,8.86s-0.79,8.86-5.8,8.86h-5.04V59.89z M167.89,75.13h2.48
				c2.81-0.1,3.24-2.46,3.24-6.38c0-3.88-0.43-6.36-3.24-6.36h-2.48V75.13z"/>
			<path class="st0" d="M181.16,61.31c-0.81,0-1.44-0.66-1.44-1.47c0-0.84,0.63-1.47,1.44-1.47c0.76,0,1.39,0.63,1.39,1.47
				C182.56,60.65,181.92,61.31,181.16,61.31z M182.33,77.62V63.69h-2.41v13.93H182.33z"/>
			<path class="st0" d="M186.26,66.27l-0.15-2.58h2.23l0.1,1.95c0.41-1.32,1.54-2.08,2.76-2.08c0.96,0,1.8,0.28,2.51,0.84
				l-1.49,1.98c-0.25-0.28-0.81-0.46-1.14-0.46c-1.6,0-2.43,0.86-2.43,4.03v7.67h-2.38V66.27z"/>
			<path class="st0" d="M204.64,72.4c0,3.04-1.62,5.34-4.81,5.34c-4.03,0-4.99-3.14-4.99-7.09c0-4.08,1.24-7.09,4.99-7.09
				c3.77,0,4.91,3.06,4.91,6.15v1.16h-7.52c0.08,2.63,0.71,4.51,2.61,4.51c1.82,0,2.43-1.44,2.43-2.99H204.64z M197.25,69.06h5.17
				c-0.13-1.9-0.89-3.14-2.58-3.14C198.13,65.92,197.37,67.16,197.25,69.06z"/>
			<path class="st0" d="M216.85,72.4c0,3.47-1.77,5.34-4.41,5.34c-3.85,0-5.17-3.47-5.17-7.09c0-3.62,1.32-7.09,5.17-7.09
				c2.86,0,4.41,2.33,4.41,5.34h-2.33c0-1.92-0.68-2.99-2.08-2.99c-2.05,0-2.76,1.7-2.76,4.74s0.71,4.74,2.76,4.74
				c1.39,0,2.05-1.19,2.05-2.99H216.85z"/>
			<path class="st0" d="M218.88,63.69h1.85v-2.74h2.38v2.74h2.68v2.33h-2.68v6.71c0,1.77,0.1,2.66,0.73,2.66
				c0.35,0,0.53-0.18,0.68-0.41l1.44,1.82c-0.94,0.76-1.55,0.94-2.38,0.94c-2.86,0-2.86-2.38-2.86-5.01v-6.71h-1.85V63.69z"/>
			<path class="st0" d="M230.2,61.31c-0.81,0-1.44-0.66-1.44-1.47c0-0.84,0.63-1.47,1.44-1.47c0.76,0,1.39,0.63,1.39,1.47
				C231.59,60.65,230.96,61.31,230.2,61.31z M231.36,77.62V63.69h-2.41v13.93H231.36z"/>
			<path class="st0" d="M239.37,77.74c-4.96,0-4.99-5.07-4.99-7.09s0.03-7.09,4.99-7.09s4.94,5.07,4.94,7.09
				S244.33,77.74,239.37,77.74z M239.37,65.92c-2.68,0-2.61,3.52-2.61,4.74c0,1.22-0.08,4.74,2.61,4.74c2.63,0,2.51-3.52,2.51-4.74
				C241.87,69.44,242,65.92,239.37,65.92z"/>
			<path class="st0" d="M247.3,66.27l-0.18-2.58h2.2l0.18,0.96c0.66-0.66,1.62-1.09,2.94-1.09c3.62,0,4.76,1.92,4.76,6.18v7.88
				h-2.38v-7.67c0-2.71-0.4-4.03-2.38-4.03c-1.57,0-2.76,0.86-2.76,4.03v7.67h-2.38V66.27z"/>
			<path class="st0" d="M266.77,79.95V56.39h2.2v23.55H266.77z"/>
			<path class="st0" d="M278.04,59.89h2.56v17.73h-2.56V59.89z"/>
			<path class="st0" d="M284.4,59.1h2.38v14.28c0,1.57-0.03,2,0.43,2c0.25,0,0.46-0.23,0.61-0.43l1.37,1.75
				c-1.01,1.04-2.03,1.04-2.41,1.04c-2.38,0-2.38-1.6-2.38-4.36V59.1z"/>
			<path class="st0" d="M291.21,59.1h2.38v14.28c0,1.57-0.03,2,0.43,2c0.25,0,0.46-0.23,0.61-0.43l1.37,1.75
				c-1.01,1.04-2.03,1.04-2.41,1.04c-2.38,0-2.38-1.6-2.38-4.36V59.1z"/>
			<path class="st0" d="M308.18,75.03l0.18,2.58h-2.18L306,76.65c-0.68,0.66-1.65,1.09-2.94,1.09c-3.65,0-4.79-1.92-4.79-6.18v-7.88
				h2.38v7.67c0,2.71,0.43,4.03,2.41,4.03c1.57,0,2.74-0.86,2.74-4.03v-7.67h2.38V75.03z"/>
			<path class="st0" d="M313.53,72.96c0,1.37,0.73,2.43,2.38,2.43c1.67,0,1.9-1.11,1.9-1.65c0-1.16-1.24-1.6-2.51-2
				c-1.8-0.56-3.98-1.42-3.98-4.23c0-1.11,0.86-3.95,4.43-3.95c3.5,0,4.31,2.94,4.31,4.43h-2.38c0-1.34-0.71-2.08-1.93-2.08
				c-1.34,0-2.03,0.71-2.03,1.6c0,1.22,1.29,1.65,2.56,2.05c1.8,0.56,3.95,1.52,3.95,4.18c0,1.72-1.17,4-4.33,4
				c-4.41,0-4.76-4.1-4.76-4.79H313.53z"/>
			<path class="st0" d="M322.26,63.69h1.85v-2.74h2.38v2.74h2.68v2.33h-2.68v6.71c0,1.77,0.1,2.66,0.73,2.66
				c0.35,0,0.53-0.18,0.68-0.41l1.44,1.82c-0.94,0.76-1.55,0.94-2.38,0.94c-2.86,0-2.86-2.38-2.86-5.01v-6.71h-1.85V63.69z"/>
			<path class="st0" d="M332.55,66.27l-0.15-2.58h2.23l0.1,1.95c0.41-1.32,1.54-2.08,2.76-2.08c0.96,0,1.8,0.28,2.51,0.84
				l-1.49,1.98c-0.25-0.28-0.81-0.46-1.14-0.46c-1.6,0-2.43,0.86-2.43,4.03v7.67h-2.38V66.27z"/>
			<path class="st0" d="M350.88,75.44c0.1,1.29,0.1,1.95,0.1,2.18h-2.38l-0.03-0.58c-0.56,0.35-1.37,0.71-2.41,0.71
				c-3.55,0-4.53-2.38-4.53-4.36c0-2.2,1.62-4.53,4.79-4.53c0.81,0,1.52,0.18,2.08,0.41v-0.68c0-2.33-1.6-2.66-2.33-2.66
				c-0.71,0-1.72,0.51-2.28,1.49l-1.98-1.37c1.11-1.52,2.58-2.48,4.26-2.48c1.7,0,4.71,0.73,4.71,5.01V75.44z M344.02,73.39
				c0,1.04,0.48,2,2.15,2c0.91,0,1.8-0.3,2.33-0.96v-2.84c-0.51-0.2-1.09-0.38-2.08-0.38C344.96,71.21,344.02,72.22,344.02,73.39z"
				/>
			<path class="st0" d="M353.52,63.69h1.85v-2.74h2.38v2.74h2.68v2.33h-2.68v6.71c0,1.77,0.1,2.66,0.73,2.66
				c0.35,0,0.53-0.18,0.68-0.41l1.44,1.82c-0.94,0.76-1.55,0.94-2.38,0.94c-2.86,0-2.86-2.38-2.86-5.01v-6.71h-1.85V63.69z"/>
			<path class="st0" d="M364.84,61.31c-0.81,0-1.44-0.66-1.44-1.47c0-0.84,0.63-1.47,1.44-1.47c0.76,0,1.39,0.63,1.39,1.47
				C366.23,60.65,365.6,61.31,364.84,61.31z M366.01,77.62V63.69h-2.41v13.93H366.01z"/>
			<path class="st0" d="M374.01,77.74c-4.96,0-4.99-5.07-4.99-7.09s0.03-7.09,4.99-7.09c4.96,0,4.94,5.07,4.94,7.09
				S378.97,77.74,374.01,77.74z M374.01,65.92c-2.68,0-2.61,3.52-2.61,4.74c0,1.22-0.08,4.74,2.61,4.74c2.63,0,2.51-3.52,2.51-4.74
				C376.52,69.44,376.64,65.92,374.01,65.92z"/>
			<path class="st0" d="M381.94,66.27l-0.18-2.58h2.2l0.18,0.96c0.66-0.66,1.62-1.09,2.94-1.09c3.62,0,4.76,1.92,4.76,6.18v7.88
				h-2.38v-7.67c0-2.71-0.4-4.03-2.38-4.03c-1.57,0-2.76,0.86-2.76,4.03v7.67h-2.38V66.27z"/>
		</g>
	</g>
</g>
</svg>
