<svg xmlns="http://www.w3.org/2000/svg" viewBox="0 0 1070 470"><defs><style>.cls-1{fill:none;}</style></defs><g id="Layer_2" data-name="Layer 2"><g id="Black_and_White_Logo" data-name="Black and White Logo"><g id="Black"><path d="M150.35,35.81a7.53,7.53,0,0,0,7.53-7.48,8.91,8.91,0,0,0-.14-1.46,5.59,5.59,0,0,1-8.89-5.94,7.52,7.52,0,0,0,1.5,14.88Z"/><path d="M23.53,394.35v.49a7.7,7.7,0,0,1,.41-2.43A5.15,5.15,0,0,0,23.53,394.35Z"/><path d="M170.61,392.41a7.17,7.17,0,0,1,.41,2.43v-.49A4.79,4.79,0,0,0,170.61,392.41Z"/><path d="M293.38,134.32c-2.7,3.42-5.29,8.64-7.77,11.94a4.14,4.14,0,0,0-.46,2.14c-.39,15.89.21,36.78-.1,52.67a25.16,25.16,0,0,0,.65,5.67,6.78,6.78,0,0,0,5.09,5.59c.32.1.63.22.93.34,2,.77,3.81,1.76,3.31,4.28s-2.64,2.4-4.59,2.34c-18.35-.09-30.64-2.68-57.66.4-1.91-.05-3.9.34-5.72-.07a5.19,5.19,0,0,1-3.17-2.54c-.72-1.55.46-2.8,2-3.5a2.53,2.53,0,0,1,.23-.12c6.06-1.18,6.93-5.71,7.3-10.86,2.37-32.53,5.41-81,5.44-94.83s1.57-34.76.81-47.38c-.24-4-1.13-7.15-5.35-8.33a6.4,6.4,0,0,1-1.36-.62c-1.59-.88-2.67-2.14-2.16-4s2.17-2.16,3.81-2c5.73.44,11.44,2.25,17.17,2.37,17.06,1.26,21.28-.75,34.42-.66,1.33,0,2.73-.37,4,0,1,.29,2.46,1.21,2.65,2.08s-.51,2.42-1.17,3.45a3.76,3.76,0,0,1-2.16,1.15,6.9,6.9,0,0,0-5.38,7c-.16,5.56,0,11.13.1,16.7.26,16.39,1.54,33.78,1.81,50.17a5.91,5.91,0,0,0,.48,2.53c.69-.92,1.42-1.81,2.07-2.77,14.14-21.11,30.33-46.15,44.38-67.31,4.92-7.39,10.46-14,18.66-17.91,8.43-4,16.82-4.49,24.93.93S388,58.51,384.33,66.75c-3.58,8.06-13.71,12.69-22.93,10.3A91.22,91.22,0,0,1,352,73.77c-5.87-2.25-11.19-4.24-15.28.36-3.74,4.21-9.59,14.19-13.3,18.43-3,3.42-2.43,6-.39,9.73,13.17,24.28,26.76,50.69,39.73,75.08,3.36,6.32,7.93,16.7,11.53,22.88,2.92,5,7,8.91,12.69,10.68a26.17,26.17,0,0,1,2.58.75c1.66.84,1.61,2.14,1.14,4s-2.16,2.14-3.79,2c-6.65-.35-13.29-.86-19.94-1.11A345.69,345.69,0,0,0,323.3,218a8.9,8.9,0,0,1-3.45.08,4,4,0,0,1-2.44-2,3.33,3.33,0,0,1,.94-3c4.43-2.72,3.93-6.47,2.19-10.25-3-6.41-5.52-15-9.37-24s-10.07-28.92-16.56-42.39C294.21,135.73,293.86,135.15,293.38,134.32Z"/><path d="M856.33,403.82a9.85,9.85,0,0,0-.22,1.34c0,11.73.54,31,1.21,36.47a84.31,84.31,0,0,0,1.64,9.44c.77,3.74,3.8,6.42,7.36,7.68.94.32,1.94.49,2.89.79,1.79.61,3.2,1.53,2.86,3.77s-2,2.67-3.9,2.51c-7.13-.54-9.42-1.29-17.24-2.23-17.61-1.69-35.1,1.9-47.58,2.09a6.64,6.64,0,0,1-2.22.07c-1.08-.38-2.75-.95-2.89-1.68a5.93,5.93,0,0,1,1.09-3.73,4,4,0,0,1,2.38-1.19,8.4,8.4,0,0,0,6.34-7.27c.48-3,1.37-8.13,2.35-19.64s1.53-43.63,1.25-67.18c-.18-14.64.09-29.29.18-43.93,0-4.41-.76-8.82-.86-13.23-.09-3.86-1.81-7.66-5.88-8.62-2-.48-3.5-1.67-3.31-4s1.75-3.43,4-3.78c9.71-.73,17.76.35,29.4-3.09,4.1-.7,10-3.81,14.06-4.68,3.88-.82,5,0,5.23,4,.18,3.58.23,7.15.35,10.73,0,.79.09,1.58.15,2.53,2.81-3,5.25-4.92,8.08-7.45,7.09-6.34,15.59-9.42,25-10.1,11.69-.85,22.93.68,33.35,6.43,12.77,7.06,18,18.39,21.74,32,5.1,18.49,6.14,37.32,2,56.08-4.53,20.2-14,34.87-34.53,40.8-15.13,4.37-30.07,3.28-43.79-5.15-3.27-2-5.85-5.11-8.72-7.74A24.4,24.4,0,0,1,856.33,403.82Zm47.91-46.21a19.8,19.8,0,0,1-.21-2.21c-1.07-8.9-1.25-16.27-2.72-25.11a38.17,38.17,0,0,0-9.91-20.81c-9.3-10.47-19.95-10.11-28.46,1-3.82,5-5.81,8.87-7.05,14.92-2.78,13.59-2.65,27.28-.82,41a60.56,60.56,0,0,0,8.54,24.7c2.91,4.89,6.6,9,11.81,11.48,8.72,4.15,16.86,1.87,21.67-6.47a43.91,43.91,0,0,0,4.34-10.82c2.6-10,3.08-17.56,2.81-27.74Z"/><path d="M437.74,102.52c1-1.88,1.78-3.33,2.58-4.76,7.23-12.89,18.54-19.69,32.91-21.63a55.82,55.82,0,0,1,22.07.93c14.55,3.91,25.09,13.82,29.48,27.75a79.79,79.79,0,0,1,3.42,22.87c.34,19.13-3.15,42.31-2.69,61.45a82.7,82.7,0,0,0,1.1,10.64c.53,3.11,2.61,9.14,5.77,10.07,3.51,1,4.8,2.48,4.46,4.48s-2.07,2.58-5.81,2.41c-17.61-.84-38.1-.64-55.5,2.07-3.54.55-5.24,0-5.79-1.89s.6-3.54,3.77-4.82c3.33-1.35,4.56-8,5-11s.62-7.33,1.46-15.16a354,354,0,0,0,2.88-54.15c-.14-6.93-.7-13.81-3.06-20.39-2.44-6.77-7.55-14-15.21-14.77-8.18-.85-14.91,2-19.45,9.13-4.34,6.75-5.66,16.4-5.59,24.2.19,20.55,2.7,43.05,3.16,63.59a110.16,110.16,0,0,0,1.12,11.61c.61,3.56,2.45,6.11,6.3,6.8a4,4,0,0,1,3.75,4,3.89,3.89,0,0,1-2,2.45,9,9,0,0,1-3.43.41c-17.83-3.66-39.5-1.66-57.22-1-1.05-.07-4.26,0-5.14-.17-1.13-.22.2-1.37,0-2.3s-1.48-2.11-.88-3c.37-.55,3.21-.9,3.91-1.09,4.06-1.13,5.38-4.16,5.55-7.94.1-2.15,1-13.32,1-15.48.2-12,2-41.33,1.39-65.46a65.7,65.7,0,0,0-.83-8.18c-.6-4-2.61-6.93-6.84-7.94-2.09-.5-3.77-1.62-3.69-4s1.89-3.24,4-3.65c14.26-2.77,25.64-7.86,38.27-15,3.72-2.11,5.46-1.35,6.37,2.83C435.45,91.52,436.52,96.73,437.74,102.52Z"/><path d="M751.61,397.25c-2.6,3.74-4.89,9.74-7.85,13.15-6.71,7.7-13.6,11.23-23.6,11.82a63.83,63.83,0,0,1-26.29-3.54c-11.93-4.41-19.75-12.88-24.2-24.65A68,68,0,0,1,665,370.65c-.22-20.22.93-40.45.93-60.67,0-1.16,0-2.33-.09-3.49-.24-4.13-1.83-7.15-6.3-8.1a3.43,3.43,0,0,1-2.94-3.8c.13-2,1.53-3,3.36-3.51a12,12,0,0,1,2-.21c3.65-.17,12.18,1.55,15.83,1.29,16.16,0,19.72-3.35,30.5-4.25,4.7-.39,5.77.5,5.69,5.31-.36,22.62-3.83,45.28-4,67.91.3,10.52-.11,16,2.13,24.93s5.43,16.73,14.89,18c8.33,1.12,15.43-6.69,17.77-12.46s3.36-7,3.93-22.88c.6-16.9-.89-43.35-1.2-47.12-.29-2.86-.73-5.69-1.3-8.49a6.76,6.76,0,0,0-5-5.65c-.4-.12-.78-.28-1.17-.43-1.91-.76-3-2.06-2.78-4.2.29-2.35,2-3.18,4.06-3.29,4.82-.25,12.88,1.49,22.5-.13,9.66-1.1,12.24-3,21.88-4.32.74-.1,1.47-.3,2.21-.41,3.56-.58,4.76.45,4.7,4.06-.39,21.79.85,36.57.92,58.36.05,14.21,1,30,2,43.64.12,2.3,1.4,4.73,2.26,6.82a14.66,14.66,0,0,0,3.76,5c1.19,1.12,2.89,2,2.07,3.75a5.19,5.19,0,0,1-3.37,2.68c-7.7.7-18.42,1.32-26.14-.07-10.26-1.84-17.38-10.55-21.61-20C752.17,398.28,751.83,397.63,751.61,397.25Z"/><path d="M543.61,323.37c1,17.45,5.73,29.76,15.35,43.06,10.65,14.72,23.87,26.32,42.25,28.72,15.3,2,28.77-1.66,41.34-10.08a14.14,14.14,0,0,1,3.87-2.2c1.32-.32,3.19-.33,4.13.4.77.6,1,2.63.62,3.79-1.63,5.52-4.77,10.25-8.44,14.6-19.11,22.68-36.53,31.5-72.28,27.08s-57.4-22.43-70.52-50.86c-12.92-28-8-60.67,8.65-86.64,12.06-18.75,26.24-28.4,46.71-33,24.33-5.52,48.5-4.84,71.42,6.4,9.9,4.86,17.26,12.45,20.59,23.28a25.89,25.89,0,0,1-.21,16.92c-4.2,11.42-20.77,17.78-30.38,15.12C612,318.67,606,313.53,605,307.36s.77-10.31.14-18.67c-.36-4.81-.75-8.16-2.18-12-4.27-11.6-14.49-15.22-25.69-14.6s-18.91,6.71-24.41,16c-6.71,11.28-8.25,23.94-9.07,36.87C543.61,318.15,543.61,321.41,543.61,323.37Z"/><path d="M618.61,191.15c-1,1.84-1.79,3.55-2.78,5.16a39.6,39.6,0,0,1-23,17.7,49,49,0,0,1-33.74-1.68c-17.82-7.45-23.73-23.84-19.27-41,2.27-8.76,7.65-15.4,14.88-20.64,9.09-6.59,20.56-6.91,31.34-11.15,12-4.71,14.9-6.88,17.25-8.27a42.84,42.84,0,0,0,5.15-3.71,11.28,11.28,0,0,0,3.7-9.88c-.83-9.12-1.61-14-2.41-22a11.35,11.35,0,0,0-.61-2.16c-3.19-10.56-16-8.07-19.28-5.91s-5.19,4.49-5.76,8c-.81,4.91-1.29,9.88-1.81,14.84-1.15,10.92-3.16,18.71-17.2,17.57-13.23-1.08-23.13-16.38-16.68-28.51,2.87-5.4,7.29-9.21,12.61-12.08,6.83-3.67,11.06-5.09,21.82-7.83a93.66,93.66,0,0,1,36.79-1.7c22.18,3.71,33.13,22.58,35.72,39.86s2.88,21.28,4.53,34.76,5.17,32.2,6.43,38.48,3.09,15.87,8.06,18.38c2.24,1.13,1.81,4-.47,5.14a3.28,3.28,0,0,1-1.41.47c-8.31.08-19.32,1.09-32.15-2-11.91-3.84-17.11-11.38-21.11-20.84A9.12,9.12,0,0,0,618.61,191.15Zm-6.34-57.31c-8.07,11-15.26,15.47-21.93,24.51A23.42,23.42,0,0,0,585.92,169c-.94,6.69,1.52,12.47,6.44,15.14a15.54,15.54,0,0,0,17.43-2.21,17.29,17.29,0,0,0,6-13c.2-7-.83-14.56-1.76-21.22-.65-3.63-1.81-10.28-1.76-13.86Z"/><path d="M297.8,284c16.31.05,31.33,3.92,43.74,15.17,10.32,9.36,16.07,21.32,18.67,34.79,3.67,19.07,2.49,37.7-7.14,55s-24.71,27.29-43.81,31.42c-14.27,3.08-28.43,2.26-41.81-3.8-22.46-10.17-37.64-28-42.9-51.81-6.35-28.63,8.86-58,34.06-71.63C270.82,286.57,284,283.88,297.8,284Zm-29.66,44.65c1,20.58,5,37.83,14.65,57.66A125.07,125.07,0,0,0,292.93,403a30.08,30.08,0,0,0,5.49,5.89c8.32,5.59,16.57,3,20.86-6.07,2.61-5.54,2.21-13.5,2.27-19.53a152.43,152.43,0,0,0-3.09-32.1,169.72,169.72,0,0,0-12.57-39.92c-2.49-5.41-6.57-12.44-11.24-16.28-7.54-6.19-16.76-4.94-22.35,3.06-1.13,1.61-2,4.46-2.74,6.29C266.85,316.91,268.39,319.85,268.14,328.66Z"/><path d="M1012.26,422.5c-11.79-.15-22.46-1.09-33.71-4.9-7.72-2.6-15.9-6.29-20.93-12.91a26.66,26.66,0,0,1-4.54-9.16c-2.79-10.71,6.74-23.15,18.65-20.72a23.47,23.47,0,0,1,15.58,11.6c2.75,5.19.89,8.43,2.38,14.25s1.51,6.12,4.86,9.77c6.56,7,18.39,7.17,25.68.91,6.69-5.74,7.2-16.66,1.09-24.21-4.22-5.2-9.87-8.48-15.8-11.21-9.33-4.3-26.91-9.82-31.2-12.54a83.08,83.08,0,0,1-11.12-8.15C951.32,345,949.11,327.49,957,313.3c5.27-11.26,15.68-19.55,26.64-22,11.48-3,23.09-2.51,34.7-.84a67.68,67.68,0,0,1,21.16,6.31,26.92,26.92,0,0,1,10.31,8.5c3.63,5.26,5.52,10.86,2.12,16.52s-7.41,10.81-18.09,11.09-17.29-8.06-16.64-16.87c.42-5.71,2.17-6.74-.11-12.41s-9.32-8.34-17.52-7.68c-7.47.61-13.7,6.74-15.9,11.36-1.49,3.13-5,11,.26,17,8.05,7.91,16.62,9.65,26.74,13s22.25,6.79,30.82,11c7.64,3.76,15.6,8.54,20.12,16.07,10.13,16.85,7.18,39.66-9.92,49.91-7.47,4.48-20.53,6.58-29,7.54C1019.16,422.15,1015.71,422.26,1012.26,422.5Z"/><path d="M826,139.23c1.1,8.31,2.82,16.44,6.46,24,10.35,21.56,32.23,29.56,55.61,23.42,2.89-.76,5.7-1.81,8.55-2.73,2.11-.68,4.44-2,6.16.37s.11,4.44-1.3,6.33c-9.16,12.33-23.27,22-38.52,24.24-18.47,2.68-37.66,1.33-53.77-8.29-17.27-10.31-26.18-27-28.54-47-2.58-21.73,4.71-42.14,18.33-59.54,12.3-15.71,28.85-22.73,48.71-22.16,13.16.38,25.56,3.47,36.46,11.14,13.82,9.73,21.1,23.2,22,40,.46,7.9-1,9.47-8.82,9.53-19.64.15-39.28.11-58.93.19C834.33,138.85,830.27,139.15,826,139.23Zm-.25-9.35c8.92,0,17.49.09,26.06.06a55.59,55.59,0,0,0,7.42-.48c4.38-.63,6.09-2.38,6.39-6.74a40.36,40.36,0,0,0-6.77-26,23.62,23.62,0,0,0-5.84-6c-5.68-4-12.19-3.32-16.93,1.81a27.59,27.59,0,0,0-4.46,6.5C826.86,108.73,825.8,119.15,825.71,129.88Z"/><path d="M373.85,300c-2.27.07-4.41.18-6.55.19-2.85,0-3.92-1-4.18-3.79a25,25,0,0,1,0-2.74c.18-3.36,1.09-4.26,4.42-4.35l5.73-.15a4.12,4.12,0,0,0,.65-.2c.15-4.33.05-8.72.49-13.08a77.64,77.64,0,0,1,2.17-12.5c3.08-11.35,10.56-18.53,21.93-21.31a70,70,0,0,1,35.34.36c6.3,1.7,13,4.64,16.92,10.1,4.74,6.54,4.66,17.39-.47,22.62-12.94,11.14-26.23,3-27.82-8.5-1-3.23-.46-6.66-1.16-10-.23-1.06-.4-2.13-.7-3.16-1.85-6.47-8.44-9.63-13.8-5.5-3.68,2.85-5,7.93-5.61,12.32a27.76,27.76,0,0,0,13.21,27.84,12.35,12.35,0,0,0,5.38,1.45c3.66.17,7.33-.07,11-.12,3,0,4.11.95,4.35,3.89a15.28,15.28,0,0,1-.07,3.24c-.31,2.55-1.51,3.66-4.12,3.75-3.41.13-6.83.13-10.24.19l-3.67.11c-.11,5.65.33,11.13.69,16.4,1.68,27.81,5,57,8.54,84.67a61.77,61.77,0,0,0,1.42,8.85,7.37,7.37,0,0,0,5.56,5.8c3.31.95,4.62,2.44,4.32,4.35s-1.95,2.7-5.5,2.58c-10.48-.35-26.58-1.87-37.06-2-7.15-.09-14.63.7-24.8,1.76a6.34,6.34,0,0,1-3,0c-1.11-.47-2.55-1.33-2.79-2.3s.67-2.34,1.34-3.36a3.42,3.42,0,0,1,2-1c3.72-1,5.25-3.7,5.34-7.24.09-3.9.89-9.82.69-13.72,0-21.48-.25-49.64,0-59.4s.09-22.13.18-33.2C373.94,302,373.89,301.22,373.85,300Z"/><path d="M739.79,190.29c.33-.91-.34-1.83,0-2.73,7.54-19.3,17.39-49.91,23-69.85,2.82-7.17-2.18-12.27-7.4-17.87a50.72,50.72,0,0,1-5.9-7.42C742.6,81.5,749.71,67,762.1,65.87c11.79-1.06,23.67,7.2,24.31,19,.5,9-2.88,17.27-6.31,25.38-8.92,21.15-18.22,53.25-27.06,74.44-3.77,9.05-8.15,18.24-11.7,27.39-1.32,3.41-2.34,4.2-5.91,4.13-7.82-.16-11-1.23-21.47.49-4.73-.11-5.86-.84-7.54-5.37-3.78-10.3-8.66-21.6-12.2-32-7.77-22.84-15.3-43.75-23-66.6-1.51-4.48-3.4-8.84-5.27-13.19-1.74-4.08-4.51-7.16-9-8.42a8.28,8.28,0,0,1-1.16-.47c-1.82-.9-3.4-2.09-2.82-4.4s2.54-2.12,4.3-2c11.56.45,26.53,3,38.1,3.32,7.32.23,15.22-1.68,22.55-1.61a8.9,8.9,0,0,1,2,.25,4.67,4.67,0,0,1,3,2A2.8,2.8,0,0,1,721.67,92l-.06,0a2.17,2.17,0,0,1-.38.16c-4.08,1.83-4.16,5-3.15,8.56,3,10.72,4.18,21.37,7,32.14,4.94,18.75,8.64,36.46,13.46,55.23.19.72.42,1.42.64,2.13Z"/><path d="M150.39,35.77a7.5,7.5,0,0,0,7.52-7.48h0a7.15,7.15,0,0,0-.14-1.46,5.59,5.59,0,0,1-8.89-5.94,7.52,7.52,0,0,0,1.51,14.88Z"/><path d="M187,75.15a24.14,24.14,0,0,0-5.51-3c-.63-.26-1.28-.52-2-.78a85.43,85.43,0,0,1,6.83-13.83c13-20.81,15.09-33.88,6.75-41.14-3.11-2.72-6.92.57-11.73,4.74-1.3,1.14-3.17,2.76-4.66,3.84,0-1.9.13-4.39.23-6.29.45-8.94.65-13-3-13.74-16.91-3.31-34,3.52-60.9,24.9-18.41.08-45.48,15.76-46.65,16.44-2.66,1.58-5.16,3.45-5.42,6.37-.25,2.7,1.58,4.7,3,6l4.19,4.28-3.59.2-1.17.08h-.59c-3.08.21-6.08.46-9,.73l-.68.06c-3,.29-5.87.6-8.65.94H44.2c-4.37.54-8.47,1.14-12.26,1.81h-.4l-1.78.33-.92.17-1.16.23-1.61.33-.38.08C5.2,72.42,2.61,77.61,2.61,81.27a6.47,6.47,0,0,0,1.26,3.88c.65,15,4,93.36,4,102.35C7.87,192.1,12,202.35,48,238l1.43,1.42c3.25,3.25,8.43,5.83,19.67,7.32,3.8,12.28,8.07,27.34,8.07,32.3,0,3.22-1.91,6.78-4.12,10.9-3.17,5.92-7.13,13.29-7.13,23.14,0,11.58,7.66,45.52,12.23,64.8a269.89,269.89,0,0,0-27.36,2.73c-18.63,3-27.31,7.53-27.31,14.24V415a4.86,4.86,0,0,0,3.17,4.55l.17.07c20.77,9.15,55.57,10.14,69.57,10.14,41.85,0,63.62-7,71-10.09l.21-.08a4.84,4.84,0,0,0,3.31-4.6V394.84c0-6.71-8.69-11.24-27.31-14.24-7.5-1.2-16.64-2.12-26.24-2.67,4.24-19.34,11.4-53.64,11.4-64.86,0-9.29-3.52-16.13-6.63-22.16-2.26-4.38-4.21-8.16-4.21-11.89,0-5.26,3.82-19.59,7.33-31.54,9.61-.9,15.64-3,20.7-8.08,1.11-1.11,2.83-2.73,4.82-4.6,21.5-20.26,35.82-36,35.82-47.31,0-13.44,2.87-94.57,3.18-103.18A6.21,6.21,0,0,0,190.5,82v-.77C190.61,79.51,190,77.38,187,75.15ZM171,10.7h0c.09,1.89-.08,5.26-.2,7.67-.44,8.61-.62,12.17,2.25,13.5,3.51,1.61,7.43-1.78,12.38-6.07,1.4-1.21,3.36-2.91,4.6-3.75,4.14,5.24,1.15,16.06-8.89,32.22a89,89,0,0,0-6.31,12.24h-.31a60.72,60.72,0,0,1-6.27,1.18H168l-.76.1-1.68.18c-1.18.12-2.37.2-3.55.26a64.24,64.24,0,0,1-7.85-.07,19.06,19.06,0,0,1-2-.19c-.68-.08-.76-.08-1.65-.23a40,40,0,0,1-4.08-.89,24.48,24.48,0,0,1-7.21-3.07,16.61,16.61,0,0,1-5.41-5.17,27.07,27.07,0,0,1-3.36-8.27c-1.93-7.5-2.24-15.29-3.06-23a6.42,6.42,0,0,0-.13-.66c18.46-13.17,31.45-17.77,43.7-16ZM121.82,30.76a166.73,166.73,0,0,0,2.44,19c1.38,6.43,3.92,13,9.22,17.14,9.29,7.34,22.16,8.11,33.49,6.79,1.78-.21,3.56-.45,5.34-.76a103.58,103.58,0,0,0-3.19,11.37,163.27,163.27,0,0,0-25.31-.72c-20,.9-17.5,6.19-63.79.73-2-.24-4-.37-5.87-.43,8.57-12.73,22.72-32.55,33.57-41.73C112.72,37.88,117.44,34.15,121.82,30.76ZM67.24,53.15a12.4,12.4,0,0,1,2.25-1.59c.22-.09,18.72-10.81,34.59-14.41l-.35.29C96.08,43.91,87.12,55,79.4,65.61L68.3,54.24l-.18-.16A9.67,9.67,0,0,1,67.24,53.15ZM9.35,81.76l-.07-.08v-.06l-.06-.08v-.06c.1-.33,1.09-1.73,5.79-3.59,4.25-1.63,11-3.45,20.75-5l2.4-.38,1.45-.24c1.27-.19,2.07-.38,3.39-.55l.6-.08c2.9-.38,5.87-.82,9-1.13l.56-.05c3.07-.31,6.24-.56,9.49-.79l1-.09C67,69.35,70.53,69.11,74,69l1.71,1.75c-2.71,3.84-5.14,7.44-7.29,10.62-18.72,1.09-34.9,3.2-45.53,6.06-9.27-2.33-12.45-4.51-13.49-5.54ZM76.61,249.4l37.74,14.23a121.19,121.19,0,0,0-2.45,12.22H83.29C82.4,269.5,79.45,258.82,76.61,249.4Zm66.06,137.47c18,2.89,22,6.73,22,8s-3.88,5-21.43,7.89v6.39l.47-.08c9.55-1.54,16.47-3.47,21-5.89V414c-21.86,8.75-57.7,9.44-68.21,9.44s-46.29-.67-66.57-9.41V403.15c4.49,2.42,11.42,4.36,21,5.89,12.69,2,30.05,3.27,46.42,3.27,10.69,0,21.79-.53,31.75-1.46v-6.36c-9.91.95-21,1.48-31.75,1.48a307.9,307.9,0,0,1-45.41-3.18c-18-2.9-22-6.74-22-8s3.95-5.07,22-8a266.44,266.44,0,0,1,27.77-2.64c1,4.17,1.7,6.92,1.82,7.42l.09.36.18.33c.76,1.46,3.84,4.83,16,4.83,12,0,15.33-3.24,16.19-4.61l.29-.45.12-.52c.11-.5.73-3.19,1.65-7.3A260.78,260.78,0,0,1,142.67,386.87ZM108.46,389c-1,.55-3.82,1.7-10.65,1.7s-9.5-1.15-10.35-1.64c-1.49-6-9.94-40.45-13.53-62h47C117.61,348.44,109.91,382.69,108.46,389Zm14-76h0a62,62,0,0,1-.63,7.7H73a64,64,0,0,1-.65-7.7c0-8.26,3.38-14.57,6.37-20.14,2-3.64,3.79-7.11,4.53-10.74H112c.71,4,2.6,7.74,4.61,11.63,2.91,5.68,5.93,11.53,5.93,19.28Zm24-82.89-1.71,1.61,2.5-23.11h-6.34l-3.15,29.17c-2.66,1.54-5.91,2.48-10.47,3-2,.25-4.23.43-6.79.58-5.81.28-13.21.33-22.9.33s-17.33-.29-23.61-.89c-2.56-.25-4.88-.54-6.95-.9a40.44,40.44,0,0,1-8.43-2.15L49.4,164.88,43,165l8.53,67.51c-34.57-34.35-37.3-43.13-37.3-45,0-8.48-2.84-74.88-3.82-97.61,4.36,2,11.08,4,21.41,5.84l2.47.4,3.41,27L44.1,123,40.82,97.15c6.41.87,13.36,1.59,20.73,2.12,11,.81,22.83,1.23,35.05,1.23,11.15,0,22-.36,32.14-1,8.67-.57,16.81-1.38,24.21-2.4l-10.12,93.78h6.38l10.23-94.73,1.93-.32c10.71-1.89,17.55-4,21.94-6.07-.73,20.83-3,85.62-3,97.78,0,10.78-23.7,33.11-33.83,42.61ZM184.22,81.3v.14l-.05.06-.07.08-.07.08-.1.1-.09.09-.13.12-.11.1-.17.14-.13.11-.21.15-.16.12-.27.18-.18.11-.34.21-.19.11-.44.25-.17.09-.65.33h-.08c-.51.24-1.09.51-1.76.77l-.23.1-.8.3-.35.13-.61.22-1.47-.24c.47-2.1,1.16-4.8,2.13-7.88.61.22,1.15.44,1.66.65l.61.26.23.11.36.16.47.23h.09c2.63,1.32,3.28,2.28,3.41,2.51Z"/><path d="M152.69,61.33a27.43,27.43,0,0,0,5.71.62,25.17,25.17,0,0,0,15-4.88l-3.89-4.79a19.29,19.29,0,0,1-15.53,3,11.14,11.14,0,0,1-9-9.35l-.06-.29-6,1.36v.15A17.31,17.31,0,0,0,152.69,61.33Z"/><path d="M123.34,166.45c-4.12,5.4-10.1,6.9-17.56,6.22-9.76-.89-16.64-8.16-17.53-17.93-.68-7.45.82-13,6.21-17.17a1.28,1.28,0,0,0,.25-1.78,1.25,1.25,0,0,0-1.25-.48,27.84,27.84,0,1,0,32.15,32.15,1.28,1.28,0,0,0-1-1.48,1.3,1.3,0,0,0-1.22.48Z"/><polygon points="40.63 146.07 42.09 157.72 48.48 157.6 47.01 145.96 40.63 146.07"/></g><rect class="cls-1" width="1070" height="470"/></g></g></svg>