<?xml version="1.0" encoding="UTF-8"?>
<svg width="800px" height="311px" viewBox="0 0 800 311" version="1.1" xmlns="http://www.w3.org/2000/svg" xmlns:xlink="http://www.w3.org/1999/xlink">
    <title>Group</title>
    <defs>
        <polygon id="path-1" points="0 0 323.406498 0 323.406498 51.6581378 0 51.6581378"></polygon>
        <polygon id="path-3" points="0 0 799.94 0 799.94 253.055903 0 253.055903"></polygon>
    </defs>
    <g id="Page-1" stroke="none" stroke-width="1">
        <g id="Group" transform="translate(0.060000, 0.470097)">
            <path d="M683.071,289.164903 C685.056,289.298903 687,288.548903 688.381,287.115903 C689.713,285.453903 690.378,283.354903 690.244,281.228903 C690.387,279.118903 689.721,277.032903 688.381,275.397903 C687.017,273.932903 685.067,273.159903 683.071,273.291903 C681.048,273.167903 679.073,273.937903 677.668,275.397903 C676.35,277.045903 675.687,279.121903 675.805,281.228903 C675.696,283.351903 676.357,285.442903 677.668,287.115903 C679.107,288.510903 681.073,289.222903 683.071,289.071903 L683.071,289.164903 Z M683.071,266.808903 C684.786,266.916903 686.456,266.229903 687.598,264.945903 C688.841,263.401903 689.453,261.444903 689.312,259.468903 C689.453,257.491903 688.841,255.534903 687.598,253.990903 C685.231,251.485903 681.281,251.373903 678.775,253.740903 C678.69,253.821903 678.606,253.905903 678.525,253.990903 C677.347,255.564903 676.772,257.507903 676.904,259.468903 C676.772,261.429903 677.347,263.372903 678.525,264.945903 C679.672,266.234903 681.349,266.922903 683.071,266.808903 Z M683.071,295.443903 C679.771,295.578903 676.486,294.940903 673.476,293.580903 C671.202,292.479903 669.318,290.711903 668.074,288.512903 C666.926,286.330903 666.337,283.898903 666.36,281.433903 C666.331,279.013903 666.976,276.632903 668.223,274.558903 C669.57,272.420903 671.588,270.789903 673.961,269.919903 C671.974,268.868903 670.317,267.289903 669.173,265.355903 C668.119,263.430903 667.568,261.271903 667.571,259.076903 C667.533,256.722903 668.125,254.400903 669.285,252.351903 C670.541,250.284903 672.347,248.607903 674.501,247.507903 C679.955,245.074903 686.187,245.074903 691.641,247.507903 C693.781,248.592903 695.561,250.275903 696.764,252.351903 C697.998,254.376903 698.643,256.705903 698.627,259.076903 C698.648,261.287903 698.089,263.465903 697.006,265.392903 C695.85,267.323903 694.188,268.901903 692.2,269.957903 C694.604,270.814903 696.655,272.446903 698.031,274.595903 C699.278,276.670903 699.923,279.050903 699.894,281.470903 C699.927,283.936903 699.337,286.371903 698.18,288.549903 C696.944,290.748903 695.065,292.516903 692.796,293.617903 C689.743,294.983903 686.411,295.608903 683.071,295.443903 L683.071,295.443903 Z" id="Fill-1"></path>
            <path d="M528.235,274.353903 L541.276,274.353903 L541.276,274.167903 C541.306,272.743903 541.04,271.328903 540.494,270.012903 C539.537,267.668903 537.211,266.177903 534.681,266.286903 C533.425,266.246903 532.188,266.598903 531.141,267.292903 C530.147,267.994903 529.372,268.963903 528.906,270.087903 C528.375,271.407903 528.115,272.819903 528.142,274.241903 L528.235,274.353903 Z M534.83,295.853903 C530.325,296.088903 525.909,294.542903 522.534,291.549903 C519.325,288.180903 517.607,283.661903 517.765,279.011903 L517.765,276.179903 C517.836,273.038903 518.64,269.956903 520.112,267.181903 C521.465,264.740903 523.506,262.751903 525.981,261.461903 C528.716,260.081903 531.749,259.396903 534.812,259.468903 C538.133,259.350903 541.422,260.156903 544.313,261.796903 C546.782,263.311903 548.757,265.512903 549.995,268.131903 C551.304,271.018903 551.941,274.165903 551.858,277.334903 L551.858,278.880903 C551.866,279.318903 551.698,279.741903 551.392,280.054903 C551.079,280.387903 550.638,280.570903 550.181,280.557903 L528.235,280.557903 L528.235,281.023903 C528.261,282.377903 528.532,283.715903 529.036,284.972903 C529.496,286.110903 530.256,287.102903 531.235,287.842903 C532.266,288.577903 533.508,288.956903 534.774,288.922903 C535.697,288.956903 536.614,288.777903 537.457,288.400903 C538.135,288.123903 538.764,287.740903 539.32,287.264903 C539.704,286.927903 540.054,286.553903 540.363,286.146903 C540.634,285.785903 540.969,285.475903 541.351,285.233903 C541.704,285.113903 542.077,285.056903 542.45,285.066903 L549.604,285.066903 C549.99,285.069903 550.362,285.215903 550.647,285.476903 C550.921,285.735903 551.059,286.106903 551.02,286.482903 C550.876,287.472903 550.492,288.412903 549.902,289.220903 C549.064,290.421903 548.024,291.468903 546.828,292.313903 C545.302,293.418903 543.611,294.273903 541.816,294.847903 C539.558,295.561903 537.198,295.901903 534.83,295.853903 L534.83,295.853903 Z" id="Fill-2"></path>
            <path d="M559.366,295.182903 C558.93,295.180903 558.511,295.013903 558.192,294.716903 C557.857,294.397903 557.674,293.949903 557.689,293.487903 L557.689,261.815903 C557.674,261.358903 557.858,260.916903 558.192,260.604903 C558.504,260.293903 558.926,260.119903 559.366,260.120903 L565.98,260.120903 C566.433,260.109903 566.87,260.284903 567.191,260.604903 C567.508,260.925903 567.677,261.364903 567.657,261.815903 L567.657,264.442903 C568.913,262.972903 570.461,261.779903 572.202,260.939903 C574.298,259.953903 576.594,259.468903 578.909,259.524903 C581.37,259.495903 583.793,260.139903 585.914,261.387903 C587.961,262.594903 589.602,264.384903 590.628,266.529903 C591.831,269.109903 592.411,271.936903 592.323,274.782903 L592.323,293.487903 C592.337,293.945903 592.162,294.390903 591.839,294.716903 C591.513,295.026903 591.077,295.193903 590.628,295.182903 L583.492,295.182903 C583.043,295.193903 582.607,295.026903 582.281,294.716903 C581.963,294.388903 581.795,293.943903 581.816,293.487903 L581.816,275.098903 C581.949,273.085903 581.332,271.094903 580.083,269.509903 C578.799,268.122903 576.957,267.390903 575.072,267.516903 C573.187,267.430903 571.356,268.156903 570.041,269.509903 C568.716,271.059903 568.048,273.064903 568.178,275.098903 L568.178,293.487903 C568.199,293.943903 568.031,294.388903 567.713,294.716903 C567.386,295.024903 566.951,295.191903 566.502,295.182903 L559.366,295.182903" id="Fill-3"></path>
            <path d="M608.643,274.353903 L621.777,274.353903 L621.777,274.167903 C621.808,272.743903 621.541,271.328903 620.995,270.012903 C620.528,268.884903 619.745,267.913903 618.741,267.218903 C617.679,266.526903 616.431,266.175903 615.164,266.212903 C613.908,266.174903 612.672,266.526903 611.624,267.218903 C610.64,267.926903 609.873,268.893903 609.407,270.012903 C608.867,271.329903 608.607,272.744903 608.643,274.167903 L608.643,274.353903 Z M615.238,295.853903 C610.734,296.088903 606.317,294.542903 602.942,291.549903 C599.715,288.187903 597.976,283.669903 598.117,279.011903 L598.117,276.179903 C598.205,273.038903 599.015,269.959903 600.483,267.181903 C601.836,264.740903 603.877,262.751903 606.352,261.461903 C609.081,260.084903 612.107,259.399903 615.164,259.468903 C618.486,259.345903 621.776,260.151903 624.665,261.796903 C627.141,263.308903 629.123,265.509903 630.366,268.131903 C631.675,271.018903 632.312,274.165903 632.229,277.334903 L632.229,278.880903 C632.227,279.316903 632.061,279.735903 631.763,280.054903 C631.45,280.387903 631.009,280.570903 630.552,280.557903 L608.643,280.557903 L608.643,281.023903 C608.658,282.378903 608.93,283.718903 609.444,284.972903 C609.897,286.109903 610.651,287.101903 611.624,287.842903 C612.656,288.574903 613.898,288.953903 615.164,288.922903 C616.092,288.955903 617.016,288.777903 617.865,288.400903 C618.543,288.123903 619.172,287.740903 619.728,287.264903 C620.112,286.927903 620.462,286.553903 620.771,286.146903 C621.041,285.790903 621.368,285.481903 621.74,285.233903 C622.1,285.113903 622.478,285.056903 622.858,285.066903 L629.993,285.066903 C630.381,285.061903 630.756,285.208903 631.037,285.476903 C631.327,285.723903 631.468,286.104903 631.409,286.482903 C631.282,287.473903 630.904,288.416903 630.31,289.220903 C629.466,290.416903 628.427,291.462903 627.236,292.313903 C625.671,293.430903 623.934,294.286903 622.094,294.847903 C619.877,295.546903 617.563,295.885903 615.238,295.853903 L615.238,295.853903 Z" id="Fill-4"></path>
            <path d="M639.774,295.182903 C639.338,295.180903 638.919,295.013903 638.601,294.716903 C638.265,294.397903 638.082,293.949903 638.098,293.487903 L638.098,261.815903 C638.095,261.371903 638.277,260.946903 638.601,260.641903 C638.899,260.308903 639.326,260.118903 639.774,260.120903 L646.314,260.120903 C646.781,260.101903 647.232,260.293903 647.543,260.641903 C647.84,260.960903 648.007,261.379903 648.009,261.815903 L648.009,264.498903 C649.131,263.115903 650.56,262.011903 652.182,261.275903 C653.941,260.494903 655.847,260.100903 657.771,260.120903 L660.659,260.120903 C661.113,260.102903 661.553,260.278903 661.87,260.604903 C662.194,260.922903 662.369,261.361903 662.354,261.815903 L662.354,267.665903 C662.361,268.101903 662.185,268.519903 661.87,268.820903 C661.551,269.141903 661.11,269.311903 660.659,269.286903 L654.809,269.286903 C653.076,269.171903 651.374,269.786903 650.114,270.981903 C648.965,272.243903 648.374,273.916903 648.475,275.620903 L648.475,293.468903 C648.49,293.931903 648.307,294.378903 647.972,294.697903 C647.642,294.989903 647.219,295.154903 646.779,295.163903 L639.774,295.182903" id="Fill-5"></path>
            <path d="M723.35,295.182903 C720.905,295.247903 718.476,294.776903 716.233,293.803903 C714.313,292.904903 712.742,291.398903 711.762,289.518903 C710.662,287.258903 710.131,284.764903 710.215,282.252903 L710.215,268.093903 L704.961,268.093903 C704.067,268.135903 703.309,267.443903 703.268,266.549903 C703.267,266.524903 703.266,266.498903 703.266,266.473903 L703.266,261.834903 C703.251,261.380903 703.427,260.941903 703.751,260.623903 C704.067,260.297903 704.507,260.121903 704.961,260.138903 L710.215,260.138903 L710.215,248.960903 C710.2,248.503903 710.383,248.061903 710.718,247.749903 C711.03,247.438903 711.452,247.264903 711.892,247.265836 L718.562,247.265836 C718.997,247.261903 719.415,247.436903 719.717,247.749903 C720.034,248.070903 720.202,248.509903 720.182,248.960903 L720.182,260.138903 L728.603,260.138903 C729.498,260.107903 730.249,260.806903 730.281,261.701903 C730.282,261.745903 730.282,261.789903 730.28,261.834903 L730.28,266.529903 C730.291,266.961903 730.123,267.380903 729.814,267.684903 C729.493,268.001903 729.054,268.170903 728.603,268.149903 L720.182,268.149903 L720.182,281.433903 C720.102,282.832903 720.432,284.224903 721.133,285.438903 C721.85,286.457903 723.059,287.012903 724.3,286.891903 L729.218,286.891903 C729.667,286.882903 730.102,287.049903 730.429,287.357903 C730.737,287.661903 730.906,288.079903 730.895,288.512903 L730.895,293.487903 C730.916,293.943903 730.747,294.388903 730.429,294.716903 C730.102,295.024903 729.667,295.191903 729.218,295.182903 L723.35,295.182903" id="Fill-6"></path>
            <g id="Group-11" transform="translate(476.533250, 258.811765)">
                <g id="Clip-8"></g>
                <path d="M276.38275,29.5891378 C278.26075,29.7251378 280.09475,28.9741378 281.33775,27.5591378 C282.57275,25.8041378 283.22475,23.7051378 283.20075,21.5601378 C283.20075,20.8891378 283.20075,19.9951378 283.20075,18.8771378 C283.20075,17.7411378 283.20075,16.8461378 283.20075,16.1761378 C283.20975,14.0441378 282.55875,11.9621378 281.33775,10.2141378 C280.10775,8.78013781 278.26675,8.01813781 276.38275,8.16513781 C274.49475,8.02713781 272.65175,8.78613781 271.40775,10.2141378 C270.17175,11.9541378 269.51875,14.0411378 269.54475,16.1761378 C269.54475,16.8461378 269.54475,17.7411378 269.54475,18.8771378 C269.54475,20.0141378 269.54475,20.8891378 269.54475,21.5601378 C269.50375,23.7081378 270.15675,25.8121378 271.40775,27.5591378 C272.66775,28.9601378 274.50275,29.7031378 276.38275,29.5711378 L276.38275,29.5891378 Z M276.38275,37.0421378 C273.17675,37.1341378 269.99175,36.4971378 267.06775,35.1791378 C264.65875,34.0351378 262.65275,32.1911378 261.31075,29.8881378 C259.92775,27.4331378 259.17275,24.6751378 259.11275,21.8581378 C259.11275,20.9641378 259.11275,19.9951378 259.11275,18.8031378 C259.11275,17.6101378 259.11275,16.6601378 259.11275,15.8031378 C259.15075,12.9581378 259.92775,10.1721378 261.36675,7.71813781 C262.77375,5.43613781 264.81175,3.61113781 267.23475,2.46413781 C273.06675,-0.0208621912 279.66075,-0.0208621912 285.49275,2.46413781 C287.91375,3.60613781 289.94675,5.43313781 291.34275,7.71813781 C292.78775,10.1621378 293.60075,12.9281378 293.70875,15.7661378 C293.70875,16.6231378 293.70875,17.6291378 293.70875,18.7651378 C293.70875,19.9021378 293.70875,20.9261378 293.70875,21.8211378 C293.59375,24.6361378 292.82175,27.3861378 291.45475,29.8501378 C290.10475,32.1541378 288.09175,33.9981378 285.67875,35.1411378 C282.76575,36.4751378 279.58575,37.1241378 276.38275,37.0421378 L276.38275,37.0421378 Z" id="Fill-7"></path>
                <path d="M300.67675,36.3711378 C300.24075,36.3691378 299.82175,36.2021378 299.50275,35.9051378 C299.16675,35.5861378 298.98375,35.1381378 298.99975,34.6761378 L298.99975,3.00413781 C298.99775,2.56013781 299.17975,2.13513781 299.50275,1.83013781 C299.80075,1.49713781 300.22875,1.30713781 300.67675,1.30913781 L307.28975,1.30913781 C307.75175,1.29313781 308.19575,1.48513781 308.50075,1.83013781 C308.80675,2.14413781 308.97475,2.56613781 308.96675,3.00413781 L308.96675,5.68713781 C310.11775,4.29913781 311.57975,3.20113781 313.23275,2.48213781 C314.99275,1.70313781 316.89775,1.30913781 318.82175,1.32713781 L321.72875,1.32713781 C322.18175,1.31713781 322.61875,1.49213781 322.93975,1.81213781 C323.25675,2.13313781 323.42575,2.57213781 323.40475,3.02313781 L323.40475,8.87313781 C323.41875,9.30613781 323.24975,9.72513781 322.93975,10.0281378 C322.61675,10.3431378 322.17875,10.5111378 321.72875,10.4931378 L315.84175,10.4931378 C314.11475,10.3821378 312.41875,10.9961378 311.16475,12.1891378 C310.00875,13.4481378 309.41075,15.1211378 309.50675,16.8281378 L309.50675,34.6761378 C309.52275,35.1381378 309.33975,35.5861378 309.00375,35.9051378 C308.68475,36.2021378 308.26575,36.3691378 307.82975,36.3711378 L300.67675,36.3711378" id="Fill-9"></path>
                <path d="M17.55275,27.9501378 C20.30075,28.1201378 22.85275,26.5251378 23.90575,23.9821378 C24.41475,22.8041378 24.69275,21.5391378 24.72475,20.2561378 C24.72475,19.7341378 24.72475,19.0261378 24.72475,18.0761378 C24.76175,17.3501378 24.76175,16.6221378 24.72475,15.8961378 C24.69975,14.6121378 24.42075,13.3461378 23.90575,12.1701378 C23.39675,11.0301378 22.60075,10.0411378 21.59575,9.30113781 C19.07975,7.78413781 15.93175,7.78413781 13.41675,9.30113781 C12.40675,10.0601378 11.64675,11.1051378 11.23675,12.3011378 C10.78675,13.6171378 10.52375,14.9911378 10.45475,16.3811378 C10.36175,17.4591378 10.36175,18.5441378 10.45475,19.6221378 C10.51875,21.0311378 10.78175,22.4241378 11.23675,23.7581378 C11.63275,24.9511378 12.39575,25.9871378 13.41675,26.7201378 C14.62575,27.5671378 16.07675,27.9991378 17.55275,27.9501378 Z M10.91975,0.489137809 C10.97775,0.371137809 11.08875,0.288137809 11.21875,0.265137809 C12.26475,0.0901378088 13.32475,0.00313780878 14.38575,0.00513780878 C16.63375,-0.0568621912 18.86175,0.443137809 20.86875,1.45813781 C22.56475,2.34313781 24.06675,3.55913781 25.28375,5.03513781 L25.28375,2.40813781 C25.27675,1.96113781 25.45175,1.53013781 25.76875,1.21613781 C26.06275,0.876137809 26.49275,0.684137809 26.94175,0.694137809 L33.77975,0.694137809 C34.24675,0.675137809 34.69775,0.867137809 35.00875,1.21613781 C35.31975,1.53513781 35.49275,1.96313781 35.49375,2.40813781 L35.49375,35.6071378 C35.58975,38.6501378 34.89675,41.6671378 33.48175,44.3631378 C32.14475,46.7641378 30.08475,48.6801378 27.59475,49.8411378 C24.54075,51.1861378 21.22275,51.8231378 17.88775,51.7041378 C15.00375,51.7881378 12.12875,51.3331378 9.41075,50.3621378 C7.43475,49.6411378 5.61775,48.5391378 4.06475,47.1201378 C2.90775,46.0641378 1.95975,44.8001378 1.26975,43.3941378 C0.80275,42.4661378 0.50075,41.4641378 0.37575,40.4321378 C0.32375,39.9731378 0.50575,39.5181378 0.85975,39.2211378 C1.19075,38.9011378 1.62875,38.7161378 2.08975,38.7001378 L9.54175,38.7001378 C9.93175,38.6871378 10.31675,38.7981378 10.64075,39.0161378 C10.98075,39.3161378 11.22075,39.7131378 11.32975,40.1531378 C11.63475,40.7611378 11.98275,41.3471378 12.37375,41.9041378 C12.83875,42.5871378 13.48275,43.1291378 14.23675,43.4691378 C15.29875,43.9271378 16.45275,44.1381378 17.60875,44.0841378 C18.97675,44.1291378 20.33975,43.8951378 21.61375,43.3941378 C22.66875,42.9301378 23.51775,42.0951378 23.99875,41.0471378 C24.58175,39.6251378 24.84875,38.0931378 24.78075,36.5571378 L24.78075,31.9371378 C23.60275,33.1991378 22.18375,34.2131378 20.60775,34.9181378 C18.66175,35.7521378 16.55775,36.1531378 14.44175,36.0911378 C12.27975,36.1341378 10.13175,35.7411378 8.12575,34.9361378 C6.37375,34.2441378 4.81875,33.1301378 3.59875,31.6951378 C2.35775,30.2011378 1.42175,28.4801378 0.84075,26.6271378 C0.47275,25.4591378 0.19875,24.2631378 0.02175,23.0501378 C-0.00725,22.9661378 -0.00725,22.8741378 0.02175,22.7891378 L10.91975,0.489137809 L10.91975,0.489137809 Z" id="Fill-10"></path>
            </g>
            <path d="M472.81,284.861903 C472.717,285.028903 472.382,284.954984 472.419,284.768903 L475.008,268.597903 C475.008,268.597903 475.008,268.410903 474.804,268.429903 L468.507,269.584903 C468.357,269.584903 468.246,269.472903 468.302,269.360903 L479.219,244.265903 C479.219,244.098903 479.629,244.265903 479.61,244.359903 L478.828,260.548903 C478.828,260.641903 478.921,260.735903 479.051,260.735903 L484.827,259.300903 C484.936,259.270903 485.049,259.334903 485.079,259.443903 C485.091,259.488903 485.088,259.537903 485.069,259.579903 L472.81,284.861903" id="Fill-12"></path>
            <path d="M304.728,277.297903 C303.773,277.318903 302.831,277.073903 302.008,276.589903 C301.22,276.094903 300.607,275.364903 300.257,274.502903 C299.831,273.418903 299.628,272.258903 299.661,271.093903 L300.76,271.093903 C300.741,271.785903 300.915,272.469903 301.263,273.068903 C301.579,273.606903 302.045,274.039903 302.604,274.316903 C303.179,274.614903 303.82,274.762903 304.467,274.744903 C305.128,274.732903 305.772,274.539903 306.33,274.186903 C306.988,273.783903 307.518,273.201903 307.858,272.509903 C308.287,271.648903 308.492,270.694903 308.454,269.733903 C308.483,268.805903 308.305,267.882903 307.933,267.032903 C307.622,266.338903 307.126,265.745903 306.498,265.318903 C305.345,264.562903 303.868,264.504903 302.66,265.169903 C302.096,265.481903 301.632,265.946903 301.319,266.510903 C300.966,267.161903 300.792,267.894903 300.816,268.634903 L299.661,268.634903 C299.614,267.398903 299.85,266.169903 300.35,265.038903 C300.747,264.156903 301.395,263.411903 302.213,262.896903 C303.002,262.428903 303.904,262.183903 304.821,262.188828 C305.94,262.185903 307.037,262.494903 307.988,263.082903 C309,263.717903 309.824,264.611903 310.373,265.672903 C311.02,266.925903 311.341,268.322903 311.305,269.733903 C311.341,271.144903 311.02,272.541903 310.373,273.794903 C309.821,274.870903 308.983,275.772903 307.951,276.403903 C306.979,276.991903 305.864,277.300903 304.728,277.297903 Z M297.928,283.948903 L297.928,262.579903 L300.275,262.579903 L300.76,266.026903 L300.76,283.948903 L297.928,283.948903 L297.928,283.948903 Z" id="Fill-13"></path>
            <path d="M321.216,274.819903 C321.974,274.843903 322.722,274.635903 323.358,274.223903 C323.984,273.795903 324.47,273.193903 324.756,272.490903 C325.097,271.618903 325.262,270.688903 325.24,269.752903 C325.309,268.434903 324.957,267.129903 324.234,266.026903 C323.575,265.120903 322.502,264.608903 321.384,264.666903 C320.623,264.647903 319.876,264.862903 319.241,265.280903 C318.61,265.702903 318.122,266.307903 317.844,267.013903 C317.503,267.898903 317.338,268.841903 317.359,269.789903 C317.285,271.107903 317.638,272.414903 318.365,273.515903 C319.039,274.397903 320.108,274.886903 321.216,274.819903 Z M321.309,277.297903 C320.095,277.318903 318.896,277.030903 317.825,276.458903 C316.787,275.889903 315.938,275.027903 315.385,273.981903 C314.751,272.683903 314.444,271.251903 314.49,269.807903 C314.44,268.358903 314.747,266.918903 315.385,265.616903 C315.924,264.549903 316.775,263.672903 317.825,263.101903 C318.891,262.515903 320.093,262.219903 321.309,262.244903 C322.519,262.222903 323.714,262.517903 324.774,263.101903 C325.814,263.678903 326.658,264.554903 327.196,265.616903 C327.827,266.920903 328.127,268.360903 328.072,269.807903 C328.124,271.249903 327.823,272.682903 327.196,273.981903 C326.653,275.043903 325.811,275.924903 324.774,276.514903 C323.704,277.064903 322.512,277.333903 321.309,277.297903 L321.309,277.297903 Z" id="Fill-14"></path>
            <polyline id="Fill-15" points="330.252 262.579903 333.214 262.579903 336.623 274.092903 336.306 274.092903 339.604 263.306903 342.063 263.306903 345.342 274.111903 345.044 274.111903 348.453 262.579903 351.285 262.579903 346.572 276.906903 343.796 276.906903 340.554 266.771903 340.983 266.771903 337.778 276.906903 335.002 276.906903 330.252 262.579903"></polyline>
            <path d="M360.097,277.297903 C358.917,277.312903 357.758,276.982903 356.762,276.347903 C355.749,275.695903 354.931,274.781903 354.396,273.701903 C353.795,272.473903 353.495,271.119903 353.521,269.752903 C353.48,268.355903 353.774,266.969903 354.378,265.709903 C355.436,263.522903 357.668,262.148903 360.097,262.188903 C362.021,262.098903 363.847,263.043903 364.885,264.666903 C365.38,265.458903 365.721,266.337903 365.891,267.255903 C366.063,268.239903 366.094,269.243903 365.984,270.236903 L355.794,270.236903 L355.794,268.597903 L364.047,268.597903 L363.357,269.044903 C363.413,268.505903 363.413,267.962903 363.357,267.423903 C363.267,266.912903 363.104,266.416903 362.873,265.951903 C362.636,265.506903 362.29,265.128903 361.867,264.852903 C361.36,264.574903 360.787,264.439903 360.209,264.461903 C359.465,264.434903 358.733,264.649903 358.122,265.075903 C357.548,265.505903 357.103,266.085903 356.837,266.752903 C356.549,267.488903 356.403,268.272903 356.408,269.062903 L356.408,270.255903 C356.395,271.094903 356.541,271.928903 356.837,272.714903 C357.07,273.388903 357.498,273.978903 358.066,274.409903 C359.337,275.205903 360.951,275.205903 362.221,274.409903 C362.781,273.987903 363.145,273.354903 363.227,272.658903 L366.115,272.658903 C365.961,273.561903 365.576,274.408903 364.997,275.117903 C364.446,275.814903 363.737,276.370903 362.929,276.738903 C362.035,277.120903 361.07,277.311903 360.097,277.297903" id="Fill-16"></path>
            <path d="M372.766,270.497903 C372.726,268.949903 372.92,267.403903 373.343,265.914903 C373.613,264.875903 374.168,263.933903 374.945,263.194903 C375.625,262.612903 376.492,262.295903 377.386,262.299903 C377.646,262.270903 377.909,262.270903 378.169,262.299903 L378.895,262.449903 L378.783,265.280903 C378.495,265.204903 378.202,265.141903 377.908,265.094903 C377.623,265.069903 377.336,265.069903 377.051,265.094903 C376.33,265.066903 375.622,265.297903 375.057,265.746903 C374.502,266.244903 374.101,266.890903 373.902,267.609903 C373.639,268.555903 373.513,269.534903 373.53,270.515903 L372.766,270.497903 Z M370.698,276.906903 L373.53,276.906903 L373.53,262.523903 L370.698,262.523903 L370.698,276.906903 Z" id="Fill-17"></path>
            <path d="M387.241,277.297903 C386.061,277.312903 384.902,276.982903 383.907,276.347903 C382.902,275.685903 382.087,274.773903 381.541,273.701903 C380.946,272.471903 380.652,271.117903 380.684,269.752903 C380.643,268.355903 380.936,266.969903 381.541,265.709903 C382.585,263.518903 384.815,262.141903 387.241,262.188903 C388.24,262.159903 389.228,262.391903 390.11,262.858903 C390.874,263.318903 391.514,263.958903 391.973,264.721903 C392.468,265.514903 392.809,266.392903 392.98,267.311903 C393.185,268.278903 393.235,269.272903 393.129,270.255903 L382.938,270.255903 L382.938,268.615903 L391.191,268.615903 L390.52,269.062903 C390.545,268.520903 390.514,267.977903 390.427,267.441903 C390.354,266.926903 390.19,266.428903 389.943,265.970903 C389.705,265.524903 389.359,265.146903 388.937,264.870903 C388.453,264.601903 387.907,264.466903 387.353,264.479903 C386.604,264.455903 385.866,264.670903 385.248,265.094903 C384.674,265.520903 384.234,266.102903 383.981,266.771903 C383.684,267.504903 383.538,268.290903 383.553,269.081903 L383.553,270.255903 C383.533,271.093903 383.673,271.927903 383.963,272.714903 C384.207,273.387903 384.64,273.976903 385.211,274.409903 C385.821,274.835903 386.553,275.051903 387.297,275.024903 C388.025,275.058903 388.744,274.855903 389.347,274.446903 C389.907,274.024903 390.27,273.392903 390.353,272.695903 L393.259,272.695903 C393.126,273.590903 392.767,274.437903 392.216,275.154903 C391.677,275.855903 390.973,276.412903 390.166,276.775903 C389.24,277.155903 388.242,277.333903 387.241,277.297903" id="Fill-18"></path>
            <path d="M407.623,276.906903 L407.139,273.478903 L407.139,256.543903 L409.97,256.543903 L409.97,276.906903 L407.623,276.906903 Z M403.058,277.297903 C401.914,277.307903 400.792,276.976903 399.835,276.347903 C398.824,275.699903 398.011,274.783903 397.488,273.701903 C396.892,272.446903 396.611,271.065903 396.668,269.677903 C396.631,268.305903 396.925,266.943903 397.525,265.709903 C398.033,264.650903 398.818,263.748903 399.798,263.101903 C400.728,262.492903 401.817,262.174903 402.928,262.188903 C404.941,262.100903 406.785,263.307903 407.511,265.187903 C407.981,266.313903 408.204,267.526903 408.163,268.746903 L407.194,268.746903 C407.202,267.966903 406.996,267.199903 406.598,266.529903 C406.292,265.955903 405.826,265.483903 405.257,265.169903 C404.69,264.845903 404.046,264.684903 403.394,264.703903 C402.674,264.701903 401.968,264.908903 401.363,265.299903 C400.744,265.735903 400.249,266.326903 399.929,267.013903 C399.57,267.848903 399.392,268.750903 399.407,269.658903 C399.391,270.585903 399.568,271.506903 399.929,272.360903 C400.239,273.063903 400.735,273.669903 401.363,274.111903 C401.955,274.517903 402.657,274.732903 403.375,274.726903 C403.991,274.719903 404.594,274.552903 405.126,274.241903 C405.696,273.899903 406.17,273.418903 406.505,272.844903 C406.89,272.190903 407.083,271.442903 407.064,270.683903 L408.033,270.683903 C408.069,271.922903 407.84,273.154903 407.362,274.297903 C406.97,275.207903 406.323,275.984903 405.499,276.533903 C404.775,277.016903 403.928,277.281903 403.058,277.297903 L403.058,277.297903 Z" id="Fill-19"></path>
            <path d="M430.445,277.297903 C429.539,277.308903 428.65,277.049903 427.893,276.552903 C427.072,275.998903 426.426,275.223903 426.03,274.316903 C425.536,273.177903 425.3,271.943903 425.34,270.702903 L426.309,270.702903 C426.29,271.460903 426.483,272.209903 426.868,272.863903 C427.203,273.437903 427.677,273.917903 428.247,274.260903 C428.812,274.587903 429.456,274.754903 430.11,274.744903 C430.81,274.748903 431.493,274.533903 432.066,274.130903 C432.689,273.686903 433.178,273.080903 433.482,272.378903 C433.857,271.528903 434.042,270.606903 434.022,269.677903 C434.037,268.768903 433.859,267.867903 433.5,267.032903 C433.187,266.346903 432.698,265.755903 432.084,265.318903 C431.485,264.907903 430.78,264.680903 430.054,264.666903 C429.402,264.647903 428.757,264.808903 428.191,265.131903 C427.611,265.444903 427.132,265.916903 426.812,266.491903 C426.452,267.167903 426.272,267.924903 426.29,268.690903 L425.322,268.690903 C425.286,267.469903 425.515,266.255903 425.992,265.131903 C426.387,264.223903 427.033,263.448903 427.855,262.896903 C428.681,262.380903 429.639,262.114903 430.613,262.132903 C431.729,262.121903 432.824,262.439903 433.761,263.045903 C434.732,263.703903 435.515,264.602903 436.034,265.653903 C436.635,266.887903 436.929,268.249903 436.891,269.621903 C436.922,271.013903 436.622,272.392903 436.015,273.645903 C435.481,274.719903 434.671,275.632903 433.668,276.291903 C432.715,276.934903 431.594,277.283903 430.445,277.297903 Z M423.533,276.906903 L423.533,256.543903 L426.365,256.543903 L426.365,273.478903 L425.471,276.906903 L423.533,276.906903 L423.533,276.906903 Z" id="Fill-20"></path>
            <path d="M439.518,262.579903 L442.704,262.579903 L446.97,274.446903 L446.392,274.446903 L449.876,262.579903 L452.764,262.579903 L447.324,279.682903 C446.985,280.967903 446.347,282.155903 445.461,283.147903 C444.688,283.920903 443.629,284.338903 442.536,284.302903 C441.907,284.306903 441.28,284.224903 440.673,284.060903 C440.028,283.877903 439.403,283.627903 438.81,283.314903 L438.81,280.762903 C439.284,281.106903 439.805,281.382903 440.356,281.582903 C440.855,281.747903 441.377,281.829903 441.903,281.824903 C442.382,281.861903 442.859,281.722903 443.244,281.433903 C443.654,281.085903 443.985,280.653903 444.213,280.166903 C444.49,279.602903 444.721,279.016903 444.902,278.415903 L445.331,276.999903 L439.518,262.579903" id="Fill-21"></path>
            <path d="M315.576,67.2049027 L358.403,67.2049027 L332.102,194.873903 L299.229,194.873903 L315.043,117.575903 C304.025,134.795903 284.835,167.213903 274.529,185.350903 L247.34,185.350903 C245.03,167.948903 240.232,133.875903 236.501,117.575903 L220.685,194.873903 L187.988,194.873903 L214.289,67.2049027 L259.068,67.2049027 C264.044,84.9689027 270.085,113.544903 273.995,134.795903 C286.256,113.361903 303.848,84.6049027 315.576,67.2049027" id="Fill-22"></path>
            <path d="M394.849,147.797903 C390.408,169.227903 392.541,171.795903 402.665,171.795903 C412.975,171.795903 416.171,169.227903 420.617,147.797903 C425.236,125.635903 422.928,123.619903 412.617,123.619903 C402.49,123.619903 399.469,125.635903 394.849,147.797903 Z M362.507,147.250903 C370.327,108.782903 388.453,97.9759027 417.947,97.9759027 C447.981,97.9759027 461.305,108.782903 453.49,147.250903 C445.495,185.896903 427.722,197.435903 397.514,197.435903 C367.662,197.435903 354.513,185.896903 362.507,147.250903 L362.507,147.250903 Z" id="Fill-23"></path>
            <path d="M512.499,129.297903 L506.277,159.157903 C504.678,166.481903 506.277,169.411903 514.981,169.411903 C520.319,169.411903 524.755,168.312903 529.2,167.029903 L529.021,192.309903 C521.024,195.420903 509.116,197.435903 498.1,197.435903 C478.201,197.435903 467.185,191.210903 472.872,163.003903 L479.979,129.297903 L465.579,129.297903 L471.444,100.721903 L485.842,100.721903 L488.325,88.6359027 L523.693,75.0809027 L518.364,100.721903 L545.189,100.721903 L539.332,129.297903 L512.499,129.297903" id="Fill-24"></path>
            <path d="M599.043,73.6139027 C596.017,88.2679027 591.046,90.8299027 577.36,90.8299027 C563.675,90.8299027 559.774,88.2679027 562.792,73.6139027 C565.63,60.2439027 570.434,58.2289027 584.117,58.2289027 C597.795,58.2289027 601.882,60.2439027 599.043,73.6139027 Z M572.387,194.873903 L539.867,194.873903 L559.239,100.721903 L591.758,100.721903 L572.387,194.873903 L572.387,194.873903 Z" id="Fill-25"></path>
            <g id="Group-30">
                <mask id="mask-4">
                    <use xlink:href="#path-3"></use>
                </mask>
                <g id="Clip-27"></g>
                <path d="M632.448,147.797903 C628.011,169.227903 630.143,171.795903 640.267,171.795903 C650.578,171.795903 653.773,169.227903 658.219,147.797903 C662.834,125.635903 660.53,123.619903 650.221,123.619903 C640.09,123.619903 637.071,125.635903 632.448,147.797903 Z M600.114,147.250903 C607.926,108.782903 626.056,97.9759027 655.551,97.9759027 C685.58,97.9759027 698.907,108.782903 691.096,147.250903 C683.097,185.896903 665.324,197.435903 635.116,197.435903 C605.265,197.435903 592.116,185.896903 600.114,147.250903 L600.114,147.250903 Z" id="Fill-26"></path>
                <path d="M732.15,194.873903 L699.637,194.873903 L717.76,106.766903 C730.908,102.552903 750.815,97.9759027 768.937,97.9759027 C793.815,97.9759027 804.831,109.514903 797.904,143.036903 L787.237,194.873903 L754.717,194.873903 L764.849,145.234903 C767.517,132.044903 766.804,127.650903 755.787,127.650903 C752.94,127.650903 749.565,128.198903 745.655,128.934903 L732.15,194.873903" id="Fill-28"></path>
                <path d="M77.308,138.317903 C77.037,137.420903 76.13,136.788903 75.274,136.840903 C74.342,136.860903 73.539,137.502903 73.307,138.406903 L59.491,192.877903 L18.727,192.877903 L49.027,63.9319027 L93.248,63.9319027 L107.573,122.503903 C107.8,123.432903 108.634,124.085903 109.592,124.085903 C110.548,124.085903 111.382,123.432903 111.609,122.499903 L125.898,63.9319027 L168.323,63.9319027 L138.023,192.877903 L93.808,192.877903 L77.308,138.317903 Z M185.739,49.6519027 C184.557,48.1759027 182.77,47.3189027 180.88,47.3189027 L129.952,47.3189027 L140.871,2.56590271 C141.1,1.62990271 140.652,0.655902712 139.79,0.222902712 C138.928,-0.212097288 137.877,0.00390271237 137.258,0.745902712 L98.336,47.3189027 L39.396,47.3189027 C36.475,47.3189027 33.947,49.3479027 33.314,52.1989027 L0.088,201.910903 C-0.321,203.755903 0.128,205.684903 1.311,207.159903 C2.493,208.634903 4.28,209.489903 6.17,209.489903 L55.277,209.489903 L44.881,250.466903 C44.648,251.392903 45.074,252.361903 45.918,252.811903 C46.226,252.972903 46.562,253.055903 46.895,253.055903 C47.469,253.055903 48.035,252.815903 48.44,252.364903 L86.982,209.489903 L147.654,209.489903 C150.574,209.489903 153.103,207.461903 153.736,204.610903 L186.961,54.8999027 C187.371,53.0549027 186.921,51.1239027 185.739,49.6519027 L185.739,49.6519027 Z" id="Fill-29"></path>
            </g>
        </g>
    </g>
</svg>