<svg width="673" height="137" viewBox="0 0 673 137" xmlns="http://www.w3.org/2000/svg">
<path d="M416.443 36.905C416.443 32.766 419.413 29.616 424.813 29.616C430.122 29.616 433.183 32.766 433.183 36.905C433.183 40.955 429.943 44.105 424.813 44.105C419.683 44.105 416.443 40.955 416.443 36.905Z" />
<path d="M417.883 53.915C417.883 51.125 419.413 49.595 422.202 49.595H427.423C430.212 49.595 431.832 51.125 431.832 53.915V91.533C431.832 94.323 430.212 95.853 427.423 95.853H422.202C419.413 95.853 417.883 94.323 417.883 91.533V53.915Z" />
<path d="M353.264 91.533V59.944H349.124C347.685 59.944 346.874 59.135 346.874 57.694V52.475C346.874 51.035 347.685 50.225 349.124 50.225H353.264V47.255C353.264 33.125 362.624 29.796 370.363 29.796C378.463 29.796 385.843 33.576 385.843 42.125C385.843 42.575 385.753 43.115 385.663 43.565C385.483 44.645 384.673 45.275 383.503 45.275H377.024C375.854 45.275 375.133 44.555 375.133 43.655V43.115C375.133 41.405 373.423 40.146 371.264 40.146C368.384 40.146 366.854 42.125 366.854 45.455V50.225H374.953C376.394 50.225 377.203 51.035 377.203 52.475V57.694C377.203 59.135 376.394 59.944 374.953 59.944H367.123V91.533C367.123 94.323 365.504 95.853 362.714 95.853H357.584C354.794 95.853 353.264 94.323 353.264 91.533Z" />
<path d="M314.565 59.944V80.464C314.565 93.243 322.935 96.843 330.764 96.843C339.134 96.843 346.244 92.703 346.244 82.713C346.244 81.993 346.064 80.554 345.704 79.203C345.344 77.853 344.354 77.403 343.184 77.403H337.695C336.164 77.403 335.624 78.214 335.804 79.833C335.894 80.464 335.894 81.003 335.894 81.453C335.894 83.883 334.364 85.684 332.024 85.684C329.954 85.684 328.244 84.333 328.244 80.913V59.944H338.684C340.124 59.944 340.934 59.135 340.934 57.694V51.845C340.934 50.405 340.124 49.595 338.684 49.595H328.244V40.505C328.244 38.525 327.164 37.355 325.094 37.355H320.685C318.795 37.355 317.535 38.345 317.175 40.235L315.645 49.595H309.975C308.535 49.595 307.635 50.405 307.635 51.845V57.694C307.635 59.135 308.535 59.944 309.975 59.944H314.565Z" />
<path fill-rule="evenodd" clip-rule="evenodd" d="M202.246 111.692V53.915C202.246 51.125 203.777 49.595 206.566 49.595H211.876C214.666 49.595 216.196 51.125 216.196 53.915V56.075C219.526 50.945 224.925 48.605 231.045 48.605C244.005 48.605 253.275 59.135 253.275 72.724C253.275 86.403 244.005 96.843 231.045 96.843C224.925 96.843 219.526 94.503 216.196 89.283V111.692C216.196 114.482 214.666 116.012 211.876 116.012H206.566C203.777 116.012 202.246 114.482 202.246 111.692ZM239.325 72.724C239.325 65.614 235.095 59.765 227.805 59.765C220.696 59.765 216.016 65.344 216.016 72.724C216.016 80.103 220.696 85.684 227.805 85.684C235.095 85.684 239.325 79.924 239.325 72.724Z" />
<path fill-rule="evenodd" clip-rule="evenodd" d="M256.515 72.903C256.515 59.854 266.325 48.605 281.895 48.605C295.034 48.605 305.834 56.524 306.464 71.284C306.553 73.894 304.754 75.064 302.054 75.064H269.835C269.655 80.554 275.145 85.863 284.054 85.863C287.384 85.863 290.804 85.054 294.314 83.073C296.744 81.724 298.724 81.903 300.434 83.974L301.424 85.233C303.224 87.394 303.044 89.823 300.613 91.623C295.304 95.493 289.094 96.843 283.154 96.843C266.595 96.843 256.515 86.133 256.515 72.903ZM293.414 67.324C292.154 61.114 286.844 59.135 282.074 59.135C277.215 59.135 271.725 61.294 270.195 67.324H293.414Z" />
<path d="M388.003 49.595C385.214 49.595 383.684 51.125 383.684 53.915V91.533C383.684 94.323 385.214 95.853 388.003 95.853H393.314C396.103 95.853 397.633 94.323 397.633 91.533V76.953C397.633 65.344 402.583 61.835 407.983 61.835C408.641 61.835 409.299 61.9095 410.028 61.9918L410.233 62.015C412.122 62.284 413.382 61.205 413.382 58.685V52.385C413.382 50.585 412.932 48.875 410.773 48.695L409.242 48.605C405.282 48.605 398.803 51.215 397.274 59.674V53.915C397.274 51.125 395.743 49.595 392.953 49.595H388.003Z" />
<path fill-rule="evenodd" clip-rule="evenodd" d="M463.332 48.605C447.763 48.605 437.953 59.854 437.953 72.903C437.953 86.133 448.032 96.843 464.592 96.843C470.531 96.843 476.741 95.493 482.051 91.623C484.481 89.823 484.661 87.394 482.862 85.233L481.871 83.974C480.161 81.903 478.182 81.724 475.751 83.073C472.241 85.054 468.821 85.863 465.491 85.863C456.582 85.863 451.093 80.554 451.273 75.064H483.491C486.191 75.064 487.991 73.894 487.901 71.284C487.271 56.524 476.472 48.605 463.332 48.605ZM463.512 59.135C468.281 59.135 473.592 61.114 474.852 67.324H451.632C453.162 61.294 458.653 59.135 463.512 59.135Z" />
<path d="M493.572 53.915C493.572 51.125 495.102 49.595 497.892 49.595H503.201C505.991 49.595 507.522 51.125 507.522 53.915V56.975C509.772 51.665 514.721 48.605 521.561 48.605C533.981 48.605 538.481 58.325 538.481 69.214V91.533C538.481 94.323 536.861 95.853 534.071 95.853H528.851C526.061 95.853 524.53 94.323 524.53 91.533V70.204C524.53 63.724 522.011 59.944 517.241 59.944C512.472 59.944 507.522 63.634 507.522 72.273V91.533C507.522 94.323 505.991 95.853 503.201 95.853H497.892C495.102 95.853 493.572 94.323 493.572 91.533V53.915Z" />
<path fill-rule="evenodd" clip-rule="evenodd" d="M566.292 48.605C553.242 48.605 543.973 59.135 543.973 72.724C543.973 86.403 553.242 96.843 566.292 96.843C572.321 96.843 577.721 94.503 581.051 89.373V91.533C581.051 94.323 582.671 95.853 585.461 95.853H590.681C593.471 95.853 595 94.323 595 91.533V35.105C595 32.315 593.471 30.786 590.681 30.786H585.461C582.671 30.786 581.051 32.315 581.051 35.105V56.165C577.721 50.945 572.321 48.605 566.292 48.605ZM569.442 59.765C576.551 59.765 581.232 65.344 581.321 72.724C581.232 80.103 576.551 85.684 569.442 85.684C562.242 85.684 557.922 79.924 557.922 72.724C557.922 65.614 562.242 59.765 569.442 59.765Z" />
<path d="M604.091 91.533V35.105C604.091 32.315 605.621 30.786 608.411 30.786H613.631C616.42 30.786 618.04 32.315 618.04 35.105V91.533C618.04 94.323 616.42 95.853 613.631 95.853H608.411C605.621 95.853 604.091 94.323 604.091 91.533Z" />
<path d="M641.441 92.703L633.881 110.973C632.62 113.942 633.971 116.012 637.21 116.012H641.71C644.14 116.012 645.76 115.022 646.75 112.682L672.039 54.725C673.299 51.665 671.949 49.595 668.709 49.595H662.86C660.43 49.595 658.72 50.675 657.82 53.105L648.28 78.214L638.83 53.105C638.021 50.675 636.311 49.595 633.79 49.595H627.671C624.431 49.595 622.991 51.755 624.341 54.725L641.441 92.703Z" />
<path fill-rule="evenodd" clip-rule="evenodd" d="M86.1921 136.738C51.2431 136.762 21.9321 125.528 6.99813 103.72C-5.23087 85.862 -0.905865 60.054 15.8661 37.733C32.6191 15.435 58.5201 0.771002 85.3511 0.473002L86.1901 0.468002L86.9831 0.473002C113.821 0.764002 139.731 15.43 156.488 37.733C173.26 60.054 177.585 85.862 165.356 103.72C150.426 125.522 121.125 136.757 86.1921 136.738ZM86.1771 12.019C62.9141 12.019 39.9551 24.9 25.1001 44.671C11.0041 63.431 7.54513 84.076 16.5281 97.194C28.9611 115.35 54.6831 125.209 86.1771 125.188C117.669 125.21 143.393 115.35 155.826 97.194C164.809 84.076 161.35 63.431 147.254 44.671C132.4 24.902 109.445 12.021 86.1771 12.019ZM86.1271 59.605H86.1431C89.6421 59.605 92.3841 59.808 94.9271 60.388C98.7411 61.259 101.796 62.951 103.781 65.895C107.95 72.079 105.588 80.445 97.4191 92.017L97.1241 92.432L96.5211 93.27C96.1751 93.746 95.8161 94.212 95.4461 94.668C104.548 99.013 116.436 99.726 125.919 96.002C132.112 93.569 135.887 89.671 136.753 84.893C137.822 78.997 134.813 71.151 126.717 61.758C122.724 57.124 127.725 50.326 133.289 52.647L133.469 52.725C134.576 53.225 135.327 53.256 136.134 52.899L136.297 52.823C139.149 51.396 142.618 52.552 144.045 55.405C145.374 58.063 144.46 61.257 142.022 62.834L141.95 62.878L142.128 63.16C147.329 71.485 149.367 79.363 148.187 86.554L148.118 86.953C146.466 96.066 139.786 102.964 130.141 106.752C116.203 112.227 98.7421 110.585 86.1771 102.749C73.6121 110.585 56.1511 112.227 42.2131 106.752C32.7161 103.022 26.0941 96.277 24.3161 87.372L24.2361 86.953L24.1671 86.554C23.0111 79.504 24.9461 71.794 29.9231 63.65L30.2261 63.16L30.4041 62.879L30.3321 62.834C27.8941 61.257 26.9801 58.063 28.3091 55.405C29.7031 52.617 33.0481 51.45 35.8621 52.729L36.2201 52.899C36.9731 53.232 37.6781 53.227 38.6681 52.819L39.0651 52.647C44.6291 50.326 49.6311 57.124 45.6371 61.758C37.5411 71.151 34.5321 78.997 35.6011 84.893C36.4671 89.671 40.2421 93.569 46.4351 96.002C55.9181 99.726 67.8061 99.013 76.9101 94.668C76.5381 94.212 76.1791 93.746 75.8331 93.27L75.2301 92.432C66.8231 80.645 64.3551 72.152 68.5731 65.895C70.5581 62.951 73.6131 61.259 77.4271 60.388C79.9491 59.813 82.6681 59.608 86.1271 59.605ZM84.4571 71.179C82.6161 71.233 81.1661 71.382 79.9971 71.649C79.2871 71.811 78.7481 72.004 78.3901 72.202L78.2181 72.305L78.1561 72.347V72.379L78.1461 72.532C78.1141 73.027 78.2201 73.777 78.5291 74.784C79.3931 77.596 81.5571 81.503 85.1741 86.476C85.4911 86.913 85.8261 87.338 86.1771 87.752C86.5281 87.338 86.8631 86.913 87.1801 86.476C90.7971 81.503 92.9611 77.596 93.8251 74.784C94.1081 73.861 94.2211 73.154 94.2131 72.661L94.2081 72.532L94.1981 72.379V72.348L94.1361 72.305L93.9641 72.202C93.6061 72.004 93.0671 71.811 92.3571 71.649C91.1881 71.382 89.7381 71.233 87.8971 71.179H84.4571Z" />
</svg>
