<?xml version="1.0" encoding="utf-8"?>
<!-- Generator: Adobe Illustrator 22.1.0, SVG Export Plug-In . SVG Version: 6.00 Build 0)  -->
<svg version="1.1" id="Layer_1" xmlns="http://www.w3.org/2000/svg" xmlns:xlink="http://www.w3.org/1999/xlink" x="0px" y="0px"
	 viewBox="0 0 306 44" style="enable-background:new 0 0 306 44;" xml:space="preserve">
<style type="text/css">
	.st0{clip-path:url(#SVGID_2_);}
	.st1{fill:#010101;}
</style>
<g>
	<defs>
		<rect id="SVGID_1_" width="306" height="44"/>
	</defs>
	<clipPath id="SVGID_2_">
		<use xlink:href="#SVGID_1_"  style="overflow:visible;"/>
	</clipPath>
	<g class="st0">
		<path class="st1" d="M46.6,4.8h9.5c1.4,0,2.7,0.2,4,0.5c1.2,0.3,2.4,0.9,3.5,1.6s1.9,1.7,2.6,2.9c0.7,1.2,1,2.6,1,4.2v1.7
			c0,3.8-1.7,6.4-5.2,7.8c1.9,0.7,3.5,1.8,4.5,3.3c1.1,1.5,1.6,3.3,1.6,5.5v1.6c0,3.1-1,5.5-3.1,7.3c-2.1,1.7-4.9,2.5-8.5,2.5h-9.8
			L46.6,4.8L46.6,4.8z M62.3,15.8v-0.7c0-1.9-0.6-3.3-1.9-4.2c-1.2-0.9-2.8-1.4-4.6-1.4h-4.4v11.9h4.5c1.8,0,3.4-0.5,4.6-1.4
			C61.8,19.1,62.3,17.7,62.3,15.8z M63,32.7V32c0-2-0.6-3.5-1.8-4.6c-1.2-1.1-2.8-1.6-5-1.6h-4.8v13h4.8c2.1,0,3.7-0.5,5-1.6
			C62.4,36.3,63,34.7,63,32.7z"/>
		<path class="st1" d="M79.5,30.6V17.7c0-2.4,0.3-4.6,1-6.4c0.7-1.8,1.5-3.2,2.6-4.2s2.3-1.7,3.6-2.1c1.3-0.4,2.7-0.7,4.1-0.7
			c1.4,0,2.8,0.2,4.1,0.7c1.3,0.4,2.5,1.2,3.6,2.1c1.1,1,2,2.4,2.7,4.2c0.7,1.8,1,3.9,1,6.4v12.9c0,2.5-0.3,4.6-1,6.4
			c-0.7,1.8-1.6,3.2-2.7,4.2c-1.1,1-2.3,1.7-3.6,2.1c-1.3,0.4-2.6,0.7-4.1,0.7c-1.5,0-2.8-0.2-4.1-0.7c-1.3-0.5-2.5-1.2-3.6-2.1
			c-1.1-1-2-2.4-2.6-4.2S79.5,33,79.5,30.6z M97.1,30.2v-12c0-3.2-0.6-5.5-1.8-7C94.2,9.7,92.6,9,90.8,9c-1.9,0-3.4,0.7-4.6,2.1
			c-1.1,1.4-1.7,3.8-1.7,7v12c0,3.2,0.6,5.5,1.7,7c1.1,1.4,2.7,2.1,4.6,2.1c1.9,0,3.4-0.7,4.6-2.1C96.5,35.7,97.1,33.4,97.1,30.2z"
			/>
		<path class="st1" d="M132.8,4.8h4.8v38.8h-4.8l-12.7-27.7v27.7h-4.8V4.8h4.8l12.7,27.7V4.8z"/>
		<path class="st1" d="M168.5,9.5h-11.9v11.9h11.3v4.7h-11.3v12.7h11.9v4.7h-16.8V4.8h16.8V9.5z"/>
		<path class="st1" d="M180.5,31.7h4.7c0,2.6,0.7,4.5,1.9,5.7c1.3,1.3,2.8,1.9,4.6,1.9c2.1,0,3.7-0.5,4.8-1.7
			c1.1-1.1,1.7-2.7,1.7-4.8c0-2.1-0.6-3.6-1.8-4.6c-1.2-1-3-1.8-5.5-2.5c-1-0.3-1.8-0.5-2.4-0.7c-0.7-0.2-1.5-0.6-2.5-1.2
			c-1-0.5-1.8-1.2-2.4-1.9c-0.6-0.7-1.1-1.6-1.6-2.8s-0.7-2.5-0.7-3.9c0-2,0.3-3.7,0.9-5.2c0.6-1.4,1.4-2.6,2.5-3.4
			c1-0.8,2.1-1.4,3.4-1.8c1.2-0.4,2.5-0.6,3.9-0.6c1.4,0,2.7,0.2,3.9,0.6c1.2,0.4,2.3,1.1,3.4,2c1.1,0.9,1.9,2.2,2.5,3.9
			c0.6,1.7,0.9,3.6,0.9,5.8H198c0-2.5-0.6-4.4-1.7-5.7c-1.1-1.3-2.5-2-4.2-2c-1.7,0-3,0.5-4.1,1.6c-1.1,1-1.6,2.5-1.6,4.4
			c0,0.5,0,0.9,0.2,1.3c0.1,0.4,0.2,0.8,0.3,1.1c0.1,0.4,0.3,0.7,0.6,0.9c0.3,0.3,0.5,0.5,0.7,0.7c0.2,0.2,0.5,0.4,0.8,0.6
			c0.4,0.2,0.7,0.4,0.8,0.5c0.2,0.1,0.5,0.2,1,0.4c0.5,0.1,0.7,0.2,0.9,0.2c0.1,0,0.4,0.1,0.9,0.2c0.5,0.1,0.7,0.2,0.7,0.2
			c3.5,0.8,6,2.1,7.6,4.1c1.6,1.9,2.4,4.3,2.4,7.2c0,2.1-0.3,4-0.9,5.5c-0.6,1.5-1.4,2.7-2.5,3.6c-1.1,0.9-2.3,1.5-3.6,1.9
			c-1.3,0.4-2.8,0.6-4.3,0.6c-1.4,0-2.8-0.2-4.1-0.6c-1.2-0.4-2.5-1.1-3.6-2c-1.1-0.9-2-2.2-2.7-3.9
			C180.8,35.9,180.5,33.9,180.5,31.7z"/>
		<path class="st1" d="M233.7,30.6V17.7c0-2.4,0.3-4.6,0.9-6.4c0.6-1.8,1.5-3.2,2.6-4.2c1.1-1,2.3-1.7,3.6-2.1
			c1.2-0.4,2.7-0.7,4.1-0.7c1.4,0,2.7,0.2,3.9,0.6c1.2,0.4,2.4,1.1,3.5,2c1.1,0.9,1.9,2.2,2.6,3.9c0.7,1.7,1,3.8,1.1,6.1v1h-4.9
			l0-0.9c-0.2-2.9-0.8-4.9-1.9-6.2c-1.1-1.3-2.5-1.9-4.2-1.9c-1.9,0-3.4,0.7-4.6,2.1c-1.1,1.4-1.7,3.8-1.7,7v12c0,3.2,0.6,5.5,1.7,7
			c1.1,1.4,2.7,2.1,4.6,2.1c3.7,0,5.8-2.7,6.1-8l0-1h4.9v0.9c-0.1,2.3-0.4,4.3-1.1,6.1c-0.7,1.7-1.5,3-2.6,4c-1.1,0.9-2.2,1.6-3.5,2
			c-1.2,0.4-2.5,0.6-3.9,0.6c-1.5,0-2.8-0.2-4.1-0.7c-1.3-0.5-2.5-1.2-3.6-2.1c-1.1-1-2-2.4-2.6-4.2C234,35.2,233.7,33,233.7,30.6z"
			/>
		<path class="st1" d="M267.8,30.6V17.7c0-2.4,0.3-4.6,1-6.4c0.7-1.8,1.5-3.2,2.6-4.2c1.1-1,2.3-1.7,3.6-2.1
			c1.3-0.4,2.7-0.7,4.1-0.7c1.4,0,2.8,0.2,4.1,0.7c1.3,0.4,2.5,1.2,3.6,2.1c1.1,1,2,2.4,2.7,4.2c0.7,1.8,1,3.9,1,6.4v12.9
			c0,2.5-0.3,4.6-1,6.4c-0.7,1.8-1.6,3.2-2.7,4.2c-1.1,1-2.3,1.7-3.6,2.1c-1.3,0.4-2.6,0.7-4.1,0.7c-1.5,0-2.8-0.2-4.1-0.7
			c-1.3-0.5-2.5-1.2-3.6-2.1c-1.1-1-2-2.4-2.6-4.2C268.1,35.2,267.8,33,267.8,30.6z M285.4,30.2v-12c0-3.2-0.6-5.5-1.8-7
			C282.5,9.7,280.9,9,279,9c-1.9,0-3.4,0.7-4.6,2.1c-1.1,1.4-1.7,3.8-1.7,7v12c0,3.2,0.6,5.5,1.7,7s2.7,2.1,4.6,2.1
			c1.9,0,3.4-0.7,4.6-2.1C284.8,35.7,285.4,33.4,285.4,30.2z"/>
		<path class="st1" d="M301.4,43.6V39h4.6v4.6H301.4z"/>
		<path d="M16.4,0C7.4,0,0,7.3,0,16.5v0v27.1h32.8V16.5v0C32.8,7.3,25.5,0,16.4,0z M22.7,18.4h-5v10.7h-2.7V18.4h-5v-2.7h5V9.9h2.7
			v5.8h5V18.4z"/>
	</g>
</g>
</svg>
