<?xml version="1.0" encoding="utf-8"?>
<!-- Generator: Adobe Illustrator 15.1.0, SVG Export Plug-In  -->
<!DOCTYPE svg PUBLIC "-//W3C//DTD SVG 1.1//EN" "http://www.w3.org/Graphics/SVG/1.1/DTD/svg11.dtd" [
	<!ENTITY ns_flows "http://ns.adobe.com/Flows/1.0/">
]>
<svg version="1.1"
	 xmlns="http://www.w3.org/2000/svg" xmlns:xlink="http://www.w3.org/1999/xlink" xmlns:a="http://ns.adobe.com/AdobeSVGViewerExtensions/3.0/"
	 x="0px" y="0px" width="101px" height="38px" viewBox="-0.625 -0.697 101 38"
	 overflow="visible" enable-background="new -0.625 -0.697 101 38" xml:space="preserve">
<defs>
</defs>
<path fill="#FFFFFF" d="M0,0v22.797c0.025-0.008,0.044-0.014,0.045-0.014c0.029-0.018,0.585-0.209,0.871-0.428
	c0.146-0.094,8.093-8.757,8.227-8.889c0.043-0.037,0.091-0.03,0.112,0.008c0.031,0.067-0.089,8.29-0.085,8.422
	c0.008,0.143,0.023,0.314,0.249,0.422c0.211,0.104,1.001,0.443,1.105,0.48c0.039,0.016,0.013,0.059-0.054,0.059
	c-0.031,0-4.446,0-4.446,0s-0.064-0.014-0.017-0.037c0.051-0.025,1.481-0.484,1.59-0.518c0.218-0.076,0.279-0.121,0.286-0.463
	c0.007-0.33,0.101-2.268,0.101-2.385c0-0.119,0.036-0.358-0.281-0.384c-0.15-0.013-0.639-0.053-1.149-0.065
	c-0.607-0.019-1.242-0.005-1.349,0c-0.345,0.005-0.429,0.024-0.624,0.175c-0.151,0.12-2.289,2.765-2.371,2.876
	c-0.084,0.125-0.06,0.258,0.161,0.33c0.233,0.066,1.586,0.346,1.896,0.408c0.047,0.008,0.034,0.062-0.027,0.062
	c-0.035,0-3.421,0-4.241,0v13.748h36.605V0H0z M15.557,14.23c-0.216,0.096-0.296,0.214-0.353,0.381
	c-0.042,0.138-1.723,7.221-1.749,7.346c-0.029,0.16-0.039,0.297,0.149,0.369c0.19,0.076,1.146,0.418,1.222,0.445
	c0.08,0.031,0.059,0.086-0.024,0.086s-4.055,0-4.12,0c-0.079,0-0.117-0.023-0.047-0.059c0.087-0.037,0.992-0.365,1.082-0.398
	c0.095-0.037,0.33-0.125,0.395-0.33c0.047-0.156,1.775-7.28,1.804-7.415c0.042-0.175,0.023-0.35-0.18-0.421
	c-0.11-0.04-1.168-0.404-1.205-0.415c-0.06-0.019-0.06-0.06-0.006-0.06c0.039,0,4.275,0,4.325,0c0.047,0,0.092,0.034,0.029,0.051
	c-0.065,0.016-0.771,0.228-0.848,0.25C15.946,14.088,15.688,14.17,15.557,14.23z M23.911,22.295
	c-0.12,0.043-1.564,0.598-2.964,0.637c-3.587,0.092-4.899-2.41-4.285-4.693c0.324-1.2,1.11-2.327,2.111-3.115
	c0.573-0.449,2.272-1.5,4.487-1.5c0.419,0,1.491,0.05,2.27,0.257c0.385,0.101,0.327,0.312,0.285,0.466
	c-0.023,0.078-0.865,2.614-0.892,2.677c-0.036,0.094-0.113,0.097-0.113-0.005c-0.005-0.056,0.103-2.306,0.099-2.398
	c-0.004-0.237-0.004-0.383-0.268-0.469c-0.368-0.117-2.133-0.271-3.432,0.334c-2.181,1.016-3.448,3.365-3.191,5.237
	c0.21,1.541,1.437,2.801,3.387,2.852c0.617,0.014,1.064-0.074,1.193-0.115c0.2-0.059,0.224-0.117,0.27-0.229
	c0.04-0.115,0.367-1.492,0.383-1.551c0.01-0.059,0.094-0.25-0.106-0.309c-0.196-0.053-1.968-0.531-2.06-0.555
	c-0.094-0.023-0.051-0.07,0.02-0.07c0.072,0,3.189,0,3.32,0c0.135,0,0.484-0.035,0.389,0.299c-0.094,0.334-0.602,1.918-0.643,2.031
	C24.129,22.188,24.035,22.249,23.911,22.295z M34.842,22.858c-0.031,0-4.449,0-4.449,0s-0.064-0.014-0.014-0.037
	c0.049-0.025,1.479-0.484,1.59-0.518c0.217-0.076,0.276-0.121,0.286-0.463c0.007-0.33,0.099-2.268,0.099-2.385
	c0-0.119,0.035-0.358-0.281-0.384c-0.148-0.013-0.635-0.053-1.146-0.065c-0.609-0.019-1.246-0.005-1.352,0
	c-0.342,0.005-0.43,0.024-0.622,0.175c-0.152,0.12-2.292,2.765-2.372,2.876c-0.086,0.125-0.062,0.258,0.16,0.33
	c0.232,0.066,1.59,0.346,1.898,0.408c0.045,0.008,0.037,0.062-0.025,0.062c-0.041,0-4.171,0-4.189,0
	c-0.043,0-0.041-0.049-0.008-0.062c0.028-0.02,0.586-0.221,0.87-0.439c0.146-0.094,8.093-8.757,8.231-8.889
	c0.042-0.037,0.087-0.03,0.105,0.008c0.032,0.067-0.086,8.29-0.082,8.422c0.01,0.143,0.019,0.314,0.246,0.422
	c0.215,0.104,1.007,0.443,1.104,0.48C34.938,22.815,34.908,22.858,34.842,22.858z"/>
<path fill="#FFFFFF" d="M5.466,18.648c0,0,1.868,0.004,2.169,0.004c0.305,0,0.384-0.105,0.384-0.291
	c0-0.123,0.037-2.385,0.037-2.642c0-0.247-0.146-0.258-0.309-0.071c-0.084,0.094-2.357,2.537-2.48,2.674
	C5.144,18.459,5.133,18.644,5.466,18.648z"/>
<path fill="#FFFFFF" d="M32.116,15.648c-0.085,0.094-2.354,2.537-2.48,2.674c-0.124,0.137-0.134,0.321,0.202,0.325
	c0,0,1.863,0.004,2.167,0.004c0.302,0,0.384-0.105,0.384-0.291c0-0.123,0.034-2.385,0.034-2.642
	C32.423,15.473,32.284,15.461,32.116,15.648z"/>
<path fill="#FFFFFF" d="M46.486,17.135l0.172,2.174l-0.023,0.023l-2.631-4.383h-2.277v7.85h1.957v-3.662
	c0-0.538-0.046-0.812-0.16-1.316L43.5,17.73l0.023-0.022l0.698,1.418l2.254,3.673h1.968v-7.85h-1.957V17.135z"/>
<polygon fill="#FFFFFF" points="49.54,22.799 55.433,22.799 55.433,20.924 51.896,20.924 51.896,19.653 54.758,19.653 
	54.758,17.902 51.896,17.902 51.896,16.757 55.433,16.757 55.433,14.95 49.54,14.95 "/>
<path fill="#FFFFFF" d="M61.302,18.736v-0.021c0.8-0.183,1.325-0.881,1.325-1.705c0-0.642-0.309-1.282-0.834-1.659
	c-0.491-0.356-1.099-0.401-1.693-0.401h-3.834v7.85h3.594c0.709,0,1.556-0.012,2.162-0.445c0.562-0.4,0.801-1.156,0.801-1.83
	C62.822,19.584,62.205,18.897,61.302,18.736z M58.475,16.632h0.938c0.458,0,0.938,0.079,0.938,0.663
	c0,0.183-0.079,0.377-0.229,0.515c-0.172,0.16-0.446,0.148-0.675,0.148h-0.973V16.632z M60.214,20.901
	c-0.194,0.158-0.458,0.148-0.698,0.148h-1.041v-1.42h0.95c0.217,0,0.491,0,0.697,0.104c0.229,0.115,0.378,0.354,0.378,0.619
	C60.5,20.567,60.386,20.774,60.214,20.901z"/>
<path fill="#FFFFFF" d="M70.554,17.308c0-0.767-0.308-1.465-0.96-1.877c-0.583-0.389-1.339-0.48-2.025-0.48h-3.993v7.85h2.437
	v-2.998h0.756l1.144,2.998h2.678l-1.418-3.422C70.098,18.955,70.554,18.337,70.554,17.308z M66.894,18.12h-0.882v-1.499h0.974
	c0.228,0,0.48,0,0.687,0.103c0.239,0.125,0.377,0.377,0.377,0.641C68.049,18.04,67.419,18.12,66.894,18.12z"/>
<path fill="#FFFFFF" d="M73.172,14.95l-2.436,7.85h1.955l0.48-1.545h2.095l0.447,1.545h2.459l-2.459-7.85H73.172z M73.573,19.54
	l0.641-2.278l0.642,2.278H73.573z"/>
<path fill="#FFFFFF" d="M83.927,18.269c-0.687-0.355-1.477-0.481-2.22-0.63c-0.297-0.068-0.869-0.149-0.869-0.56
	c0-0.413,0.457-0.503,0.777-0.503c0.607,0,1.041,0.206,1.271,0.79l1.99-0.607c-0.48-1.361-1.796-1.922-3.157-1.922
	c-0.778,0-1.614,0.148-2.255,0.595c-0.629,0.447-1.007,1.202-1.007,1.968c0,1.865,1.751,2.266,3.227,2.553
	c0.356,0.068,0.961,0.16,0.961,0.639c0,0.436-0.617,0.48-0.926,0.48c-0.698,0-1.225-0.25-1.431-0.949l-2.232,0.402
	c0.426,1.703,1.89,2.391,3.537,2.391c1.624,0,3.501-0.756,3.501-2.645C85.094,19.413,84.693,18.68,83.927,18.269z"/>
<path fill="#FFFFFF" d="M97.54,14.95h-2.541l-2.317,7.463l-2.269-4.591l1.979-2.872h-2.162l-2.173,3.238V14.95h-2.268v7.85h2.268
	v-1.82l0.822-1.143l1.351,2.963h2.333h0.311h1.646l0.48-1.545h2.094l0.447,1.545H100L97.54,14.95z M95.399,19.54l0.641-2.278
	l0.642,2.278H95.399z"/>
</svg>
