<svg xmlns="http://www.w3.org/2000/svg" viewBox="0 0 201.61 51.81">
  <defs>
    <style>
      .a {
        fill: #fff;
      }
    </style>
  </defs>
  <title>sleep-logo</title>
  <g>
    <g>
      <path class="a" d="M18,10.56l.88-2.9L18.41,5,16.59,2.51l-2.93-.87L3,3.51l-3,29,0,.19L12,30.61l3.77-2.05,2.19-3.13.89-2.86-.72-4L16.24,16l-2.6-1.16,2.18-1.2Zm-6.28,3.58L3.35,15.61,4.47,4.92l9.4-1.66,1.79.53,1.16,1.54.44,2.54-.85,2.82-1,1.45Zm4.42-10.2,1,1.26-1-1.26ZM15.9,26.73l-.05,0,.1-.15ZM3.18,17.3,12,15.74l3.17,1.34,1.33,1.81.68,3.86-.86,2.81-1,1.5-3.63,2L1.77,30.75Z"/>
      <path class="a" d="M39,2,25.47,32.88l0,.18L27,32.79l3.22-7.32,13.4-2.36,1.5,6.49,1.61-.28L40.55,1.73Zm-8,21.67,8.42-19.2,3.85,17Z"/>
      <path class="a" d="M74.86,2.28l-2.93-.87L60,3.51,57,32.57l0,.15,1.58-.28L60,18.68l5.2-.92L74.1,29.7l1.54-.27,0-.15L66.85,17.47l3.7-.65,3.77-2.06,2.19-3.12.88-2.9-.71-4ZM60.17,17,61.43,4.92,72.14,3l1.79.53L75.09,5.1,75.77,9l-.86,2.82-1,1.45-3.67,2Z"/>
      <polygon class="a" points="89.2 12.06 91.13 7.67 92.18 6.17 95.84 4.17 99.7 3.49 102.47 4.32 104.19 6.64 104.67 9.37 106.28 9.08 105.79 6.28 104 3.85 102.38 2.71 99.49 1.87 95.48 2.57 91.75 4.62 89.56 7.75 87.61 12.19 86.99 16.35 86.61 21.82 87.31 25.82 89.32 29.56 90.95 30.7 93.84 31.55 99.15 30.61 102.89 28.56 105.07 25.43 105.96 22.57 105.92 22.35 104.38 22.62 103.47 25.56 102.46 27.01 98.8 29.01 93.63 29.92 90.86 29.1 88.92 25.5 88.22 21.57 88.61 16.14 89.2 12.06"/>
      <path class="a" d="M127.9,2,114.36,32.88l0,.18,1.53-.27,3.22-7.32,13.41-2.36L134,29.6l1.61-.28L129.43,1.73Zm-8,21.67,8.42-19.2,3.86,17Z"/>
      <polygon class="a" points="171.18 0.27 158.59 28.89 150.44 3.93 148.87 4.21 145.84 33.23 145.88 33.41 147.45 33.13 150.09 8.08 157.67 31.33 159.2 31.06 170.61 5.35 168.12 29.33 168.15 29.48 169.72 29.2 172.74 0.15 172.72 0 171.18 0.27"/>
      <path class="a" d="M200.9,4.85l-1.82-2.46-2.93-.87L185.52,3.4l-3,29.05,0,.15,1.57-.27,1.43-13.76,9.25-1.64,3.76-2,2.19-3.13.88-2.89ZM200,9.07l-.86,2.81-1,1.45-3.66,2-8.77,1.54L187,4.79l9.4-1.65,1.79.54,1.16,1.53Zm-2.15-5.8h0l-1.47-.44ZM187,4.5h0Z"/>
    </g>
    <g>
      <path class="a" d="M69.12,51.37l-.46-.46-.44-1.32V48.27l.44-1.74.43-1.31L70,43.91l.88-.89,1.31-.44h1.77l.88.43.46.46.43,1.32v1.33l-.43,1.74-.44,1.3L74,50.48l-.88.88-1.32.45H70Zm2.62-.53L73,50.41l.87-1.3.42-1.28.44-1.73V44.8l-.34-1-.5-.24H72.2L70.92,44l-.87,1.3-.42,1.28-.44,1.73v1.3l.34,1,.5.25Z"/>
      <path class="a" d="M78.78,51.76l2.62-9.18h1l1.14,8,5.31-8h.94v.06l-2.62,9.17h-1v-.05L88,45.21l-4.39,6.6h-.94l-1-6.9-2,6.9h-1Z"/>
      <path class="a" d="M91.51,51.74l6.11-9.16h.94L99,51.74v.07H98l-.11-2.18h-4l-1.45,2.18h-.95Zm6.39-3.08L97.66,44l-3.12,4.65Z"/>
      <path class="a" d="M102.94,51.76l2.62-9.18h1v.06l-1.11,3.85h4.25l1.12-3.91h1v.06l-2.62,9.17h-1v-.05l1.23-4.3h-4.25l-1.24,4.35h-1Z"/>
      <path class="a" d="M113.5,51.74l6.11-9.16h.93l.45,9.16v.07h-1l-.11-2.18h-4l-1.45,2.18h-.94Zm6.38-3.08L119.65,44l-3.12,4.65Z"/>
    </g>
  </g>
</svg>
