<?xml version="1.0" encoding="utf-8"?>
<!-- Generator: Adobe Illustrator 15.1.0, SVG Export Plug-In . SVG Version: 6.00 Build 0)  -->
<!DOCTYPE svg PUBLIC "-//W3C//DTD SVG 1.1//EN" "http://www.w3.org/Graphics/SVG/1.1/DTD/svg11.dtd">
<svg version="1.1" id="Layer_1" xmlns="http://www.w3.org/2000/svg" xmlns:xlink="http://www.w3.org/1999/xlink" x="0px" y="0px"
	 width="657px" height="471.5px" viewBox="0 0 657 471.5" enable-background="new 0 0 657 471.5" xml:space="preserve">
<g>
	<g>
		<g>
			<path fill="#FFFFFF" d="M53.295,124.425c0,4.868-4.038,7.599-11.044,7.599H24.442v-15.317h17.572c7.718,0,11.28,2.968,11.28,7.48
				L53.295,124.425L53.295,124.425z M24.442,85.954h14.96c6.887,0,10.45,2.612,10.45,7.124v0.238c0,4.867-3.92,7.244-10.924,7.244
				H24.442V85.954z M59.825,107.088c7.362-3.205,12.824-8.905,12.824-18.522v-0.238c0-5.697-2.019-10.09-5.342-13.417
				c-4.868-4.866-12.231-7.478-22.68-7.478H1.999v83.116h42.864c19.83,0,31.466-8.668,31.466-22.917v-0.237
				C76.329,116.112,69.918,110.415,59.825,107.088"/>
		</g>
		<g>
			<path fill="#FFFFFF" d="M263.785,87.379h15.08c7.718,0,12.466,3.325,12.466,9.855v0.237c0,6.055-4.512,9.855-12.348,9.855
				h-15.198V87.379z M263.785,125.375h9.854h0.239l16.742,25.175h26.597l-19.83-28.975c10.331-4.393,17.1-12.823,17.1-25.527v-0.239
				c0-8.193-2.495-14.605-7.363-19.353c-5.579-5.701-14.367-9.024-27.07-9.024h-39.302v83.118h23.034L263.785,125.375
				L263.785,125.375z"/>
		</g>
		<g>
			<path fill="#FFFFFF" d="M285.083,277.164c-11.636,0-19.83-9.734-19.83-22.203v-0.238c0-12.105,8.193-21.965,19.83-21.965
				c7.956,0,13.417,3.799,18.167,9.736l17.336-13.418c-7.361-10.215-18.285-17.338-35.266-17.338c-25.171,0-43.814,19-43.814,43.223
				v0.238c0,24.814,19.117,42.982,42.864,42.982c18.406,0,28.973-7.957,36.809-18.764l-17.335-12.354
				C298.855,273.129,293.751,277.164,285.083,277.164"/>
		</g>
	</g>
	<polygon fill="#FFFFFF" points="516.139,245.581 496.309,213.402 471.971,213.402 471.971,296.52 494.529,296.52 494.529,249.025 
		515.665,281.32 516.139,281.32 537.394,248.787 537.394,296.52 560.31,296.52 560.31,213.402 535.968,213.402 	"/>
	<g>
		<g>
			<path fill="#FFFFFF" d="M632.27,243.917c0,6.532-4.983,10.806-13.179,10.806h-10.925v-21.965h10.808
				c8.312,0,13.296,3.799,13.296,10.924V243.917z M620.753,213.402h-35.621v83.117h23.034v-23.748h11.399
				c20.655,0,35.736-10.33,35.736-29.922v-0.236C655.306,224.209,641.771,213.402,620.753,213.402"/>
		</g>
	</g>
	<polygon fill="#FFFFFF" points="165.912,151.375 197.796,182.893 213.729,166.771 165.912,119.504 165.912,103.238 
		182.685,119.819 198.619,103.698 154.579,60.165 110.538,103.698 126.472,119.819 143.245,103.238 143.245,119.504 95.428,166.771 
		111.36,182.893 143.245,151.375 143.245,172.116 88.456,226.273 104.388,242.396 143.245,203.984 143.245,296.445 165.912,296.445 
		165.912,203.984 204.769,242.396 220.701,226.273 165.912,172.116 	"/>
	<path fill="#FFFFFF" d="M516.139,26.24l8.508,8.508l-8.508,8.505l-8.504-8.505L516.139,26.24z M549.302,34.752L516.139,1.579
		l-33.16,33.173l33.16,33.16L549.302,34.752z"/>
	<rect x="354.259" y="102.109" fill="#FFFFFF" width="80.371" height="22.667"/>
	<polygon fill="#FFFFFF" points="394.443,218.217 384.948,205.355 367.227,218.443 380.753,236.759 335.342,298.264 
		362.725,298.264 394.443,255.307 426.164,298.264 453.547,298.264 408.136,236.759 421.662,218.443 403.94,205.355 	"/>
	<polygon fill="#FFFFFF" points="377.6,298.264 411.289,298.264 394.441,275.588 	"/>
</g>
<g>
	<g>
		<path fill="#FFFFFF" d="M260.095,448.45c0-1.906,1.297-3.184,3.045-3.184c1.79,0,2.811,1.178,2.811,3.065v5.935h1.515v-6.309
			c0-2.418-1.436-4.07-3.894-4.07c-1.748,0-2.81,0.886-3.478,1.988v-5.958h-1.515v14.349h1.515V448.45z M252.527,445.441h3.226
			v-1.334h-3.226v-3.07h-1.513v3.07h-1.415v1.334h1.415v6.134c0,2.062,1.239,2.869,2.87,2.869c0.728,0,1.297-0.158,1.828-0.433
			v-1.297c-0.53,0.256-0.962,0.354-1.474,0.354c-1.021,0-1.711-0.451-1.711-1.689V445.441z M245.712,450.513
			c0,1.416-1.336,2.596-3.597,2.596s-3.597-1.18-3.597-2.596c0-1.554,1.593-2.634,3.597-2.634
			C244.121,447.879,245.712,448.959,245.712,450.513 M245.259,444.064c0,1.515-1.395,2.537-3.145,2.537
			c-1.748,0-3.145-1.022-3.145-2.537c0-1.396,1.355-2.397,3.145-2.397S245.259,442.691,245.259,444.064 M247.285,450.532
			c0-1.649-1.198-2.77-2.83-3.381c1.277-0.589,2.357-1.572,2.357-3.184c0-2.144-2.18-3.655-4.697-3.655
			c-2.517,0-4.697,1.512-4.697,3.655c0,1.611,1.08,2.595,2.359,3.184c-1.653,0.592-2.832,1.751-2.832,3.401
			c0,2.321,2.241,3.911,5.17,3.911S247.285,452.893,247.285,450.532 M229.758,441.708c1.494,0,2.772,1.021,2.772,2.634
			c0,1.376-0.769,2.438-2.87,4.325l-4.994,4.402v1.197h9.612v-1.414h-7.292l3.677-3.261c2.417-2.105,3.478-3.344,3.478-5.369
			c0-2.261-1.769-3.91-4.266-3.91c-2.417,0-3.714,1.08-4.953,2.927l1.141,0.825C227.163,442.534,228.187,441.708,229.758,441.708
			 M213.226,445.441h3.226v-1.334h-3.226v-3.07h-1.513v3.07h-1.417v1.334h1.417v6.134c0,2.062,1.238,2.869,2.871,2.869
			c0.727,0,1.297-0.158,1.827-0.433v-1.297c-0.529,0.256-0.963,0.354-1.474,0.354c-1.021,0-1.711-0.451-1.711-1.689V445.441z
			 M207.952,451.417v-0.037c0-1.83-1.689-2.438-3.263-2.911c-1.355-0.413-2.615-0.785-2.615-1.749v-0.039
			c0-0.847,0.768-1.476,1.965-1.476c0.983,0,2.066,0.374,3.009,0.982l0.688-1.14c-1.042-0.686-2.418-1.118-3.657-1.118
			c-2.006,0-3.459,1.159-3.459,2.906v0.041c0,1.869,1.768,2.418,3.361,2.869c1.336,0.372,2.536,0.767,2.536,1.79v0.039
			c0,0.982-0.885,1.613-2.104,1.613c-1.2,0-2.417-0.474-3.519-1.299l-0.765,1.081c1.141,0.923,2.75,1.493,4.206,1.493
			C206.36,454.464,207.952,453.346,207.952,451.417 M195.686,449.924c0,1.906-1.318,3.185-3.047,3.185
			c-1.79,0-2.812-1.18-2.812-3.066v-5.935h-1.514v6.309c0,2.416,1.437,4.07,3.893,4.07c1.749,0,2.792-0.886,3.479-1.988v1.769h1.495
			v-10.159h-1.495V449.924z M183.163,448.686c0,2.083-1.809,3.46-3.736,3.46c-1.887,0-3.52-1.395-3.52-3.479
			c0-2.123,1.594-3.441,3.52-3.441C181.354,445.226,183.163,446.583,183.163,448.686 M184.618,452.498v-8.391h-1.514v1.825
			c-0.826-1.1-2.064-2.045-3.971-2.045c-2.419,0-4.778,1.83-4.778,4.818c0,2.966,2.34,4.774,4.778,4.774
			c1.866,0,3.106-0.96,3.989-2.142v1.201c0,2.377-1.453,3.617-3.695,3.617c-1.455,0-2.75-0.454-3.913-1.299l-0.687,1.18
			c1.358,0.943,2.929,1.415,4.618,1.415C182.573,457.453,184.618,455.781,184.618,452.498 M169.668,449.924
			c0,1.906-1.317,3.185-3.047,3.185c-1.789,0-2.811-1.18-2.811-3.066v-5.935h-1.513v6.309c0,2.416,1.435,4.07,3.892,4.07
			c1.748,0,2.791-0.886,3.479-1.988v1.769h1.495v-10.159h-1.495V449.924z M155.997,449.237h-6.269l3.144-7.021L155.997,449.237z
			 M153.618,440.41h-1.455l-6.27,13.856h1.591l1.632-3.635h7.491l1.61,3.635h1.673L153.618,440.41z M134.924,455.979l0.236,0.687
			c1.494-0.333,2.183-1.101,2.183-2.692v-1.77h-1.811v2.062h0.708C136.319,455.114,135.907,455.627,134.924,455.979
			 M133.983,444.107h-1.61l-3.264,8.47l-3.695-8.47h-1.672l4.621,10.124c-0.61,1.433-1.181,1.904-2.084,1.904
			c-0.649,0-1.1-0.118-1.591-0.374l-0.511,1.2c0.688,0.333,1.317,0.511,2.162,0.511c1.535,0,2.517-0.766,3.38-2.87L133.983,444.107z
			 M117.253,449.117c1.238,0,2.243,0.218,2.989,0.433v0.982c0,1.613-1.534,2.753-3.401,2.753c-1.375,0-2.556-0.745-2.556-2.044
			C114.285,449.943,115.347,449.117,117.253,449.117 M117.196,445.306c1.906,0,3.027,0.942,3.027,2.769v0.354
			c-0.904-0.253-1.829-0.431-3.128-0.431c-2.574,0-4.344,1.139-4.344,3.303c0,2.124,1.908,3.186,3.796,3.186
			c1.789,0,2.968-0.827,3.676-1.752v1.532h1.454v-6.211c0-2.671-1.554-4.088-4.324-4.088c-1.474,0-2.577,0.333-3.697,0.847
			l0.453,1.239C115.051,445.619,115.997,445.306,117.196,445.306 M108.271,449.178c0,2.378-1.789,3.949-3.677,3.949
			c-1.927,0-3.578-1.533-3.578-3.949c0-2.476,1.612-3.933,3.578-3.933C106.482,445.245,108.271,446.818,108.271,449.178
			 M109.726,454.267v-14.349h-1.515v6.136c-0.785-1.142-2.003-2.166-3.891-2.166c-2.438,0-4.856,1.966-4.856,5.309
			c0,3.361,2.419,5.29,4.856,5.29c1.866,0,3.066-1.043,3.891-2.263v2.043H109.726z M96.206,444.107h-1.512v10.159h1.512V444.107z
			 M96.326,440.214h-1.73v1.67h1.73V440.214z M87.84,450.221c0-3.069,1.809-4.66,4.029-4.66h0.117v-1.631
			c-1.925-0.079-3.4,1.14-4.146,2.829v-2.651h-1.515v10.159h1.515V450.221z M83.727,440.508h-9.889v13.759h1.553v-5.993h7.451
			v-1.414H75.39v-4.917h8.336V440.508z"/>
		<path fill="#FFFFFF" d="M260.093,419.946c0-1.905,1.297-3.187,3.047-3.187c1.789,0,2.812,1.179,2.812,3.07v5.936h1.513v-6.311
			c0-2.421-1.434-4.069-3.89-4.069c-1.751,0-2.813,0.885-3.481,1.985v-1.771h-1.512v10.165h1.512V419.946z M248.81,415.562h-1.26
			l-2.732,8.199l-2.674-8.16h-1.61l3.557,10.243h1.336l2.752-8.021l2.732,8.021h1.317l3.578-10.243h-1.571l-2.674,8.16
			L248.81,415.562z M237.119,420.713c0,2.181-1.535,3.93-3.737,3.93c-2.142,0-3.754-1.768-3.754-3.97s1.514-3.95,3.714-3.95
			C235.487,416.723,237.119,418.491,237.119,420.713 M238.672,420.673c0-2.888-2.243-5.287-5.29-5.287
			c-3.065,0-5.307,2.437-5.307,5.327c0,2.889,2.221,5.287,5.268,5.287C236.411,426,238.672,423.562,238.672,420.673
			 M223.418,420.673c0,2.379-1.788,3.952-3.676,3.952c-1.926,0-3.576-1.534-3.576-3.952c0-2.478,1.61-3.931,3.576-3.931
			C221.63,416.742,223.418,418.314,223.418,420.673 M224.873,425.766v-14.351h-1.512v6.133c-0.787-1.141-2.006-2.162-3.894-2.162
			c-2.438,0-4.854,1.966-4.854,5.308c0,3.359,2.416,5.287,4.854,5.287c1.869,0,3.068-1.043,3.894-2.259v2.044H224.873z
			 M205.713,415.562h-1.257l-2.734,8.199l-2.672-8.16h-1.613l3.558,10.243h1.338l2.75-8.021l2.734,8.021h1.316l3.577-10.243h-1.571
			l-2.673,8.16L205.713,415.562z M194.022,420.713c0,2.181-1.533,3.93-3.735,3.93c-2.142,0-3.753-1.768-3.753-3.97
			s1.514-3.95,3.715-3.95C192.391,416.723,194.022,418.491,194.022,420.713 M195.575,420.673c0-2.888-2.24-5.287-5.289-5.287
			c-3.065,0-5.306,2.437-5.306,5.327c0,2.889,2.222,5.287,5.268,5.287C193.313,426,195.575,423.562,195.575,420.673
			 M181.743,411.415h-1.513v14.351h1.513V411.415z M168.522,415.443c0-1.257,1.141-2.239,2.93-2.239c1.415,0,2.693,0.45,3.97,1.493
			l0.904-1.2c-1.395-1.118-2.829-1.689-4.835-1.689c-2.615,0-4.521,1.572-4.521,3.775c0,2.281,1.455,3.301,4.618,3.989
			c2.891,0.61,3.579,1.337,3.579,2.635c0,1.395-1.219,2.356-3.065,2.356c-1.909,0-3.283-0.647-4.72-1.944l-0.963,1.142
			c1.651,1.475,3.439,2.2,5.622,2.2c2.732,0,4.698-1.532,4.698-3.911c0-2.123-1.415-3.245-4.48-3.911
			C169.231,417.488,168.522,416.76,168.522,415.443"/>
		<path fill="#FFFFFF" d="M259.523,397.26h4.6v-4.935l5.191-8.825h-5.091l-2.38,4.523l-2.358-4.523h-5.151l5.189,8.886V397.26z
			 M242.123,397.26h4.599v-9.868h4.051V383.5h-12.701v3.892h4.051V397.26z M225.856,390.044v-2.691h2.004
			c1.062,0,1.75,0.434,1.75,1.319v0.037c0,0.846-0.667,1.335-1.77,1.335H225.856z M221.257,397.26h4.6v-3.933h0.942h0.041
			l2.595,3.933h5.249l-3.204-4.679c1.669-0.806,2.712-2.202,2.712-4.205v-0.042c0-1.415-0.434-2.435-1.26-3.261
			c-0.96-0.964-2.514-1.573-4.952-1.573h-6.723V397.26z M207.987,392.149l1.258-3.343l1.259,3.343H207.987z M201.205,397.26h4.915
			l0.708-1.846h4.815l0.727,1.846h4.994l-5.8-13.86h-4.56L201.205,397.26z M191.249,390.244v-3.069h1.257
			c1.22,0,1.947,0.513,1.947,1.515v0.039c0,0.984-0.785,1.516-1.966,1.516H191.249z M186.648,397.26h4.6v-3.733h1.494
			c3.715,0,6.252-1.77,6.252-5.092v-0.039c0-3.265-2.499-4.896-6.155-4.896h-6.192V397.26z M168.346,397.555
			c2.497,0,4.58-0.843,6.076-2.062v-6.37h-6.665v2.948h2.359v1.378c-0.353,0.195-0.788,0.313-1.572,0.313
			c-1.927,0-3.282-1.338-3.282-3.282v-0.04c0-1.868,1.297-3.243,3.084-3.243c1.141,0,2.144,0.433,3.049,1.199l2.574-3.106
			c-1.494-1.298-3.4-2.084-5.759-2.084c-4.345,0-7.589,3.066-7.589,7.174v0.041C160.621,394.687,164.061,397.555,168.346,397.555
			 M142.195,397.26h4.562v-6.349l5.112,6.349h4.088V383.5h-4.559v6.075l-4.896-6.075h-4.306V397.26z M132.415,397.26h4.6V383.5h-4.6
			V397.26z M113.435,397.26h4.56v-6.349l5.111,6.349h4.09V383.5h-4.561v6.075l-4.896-6.075h-4.304V397.26z M96.655,397.26h11.835
			v-3.773h-7.312v-1.495h6.722v-3.319h-6.722v-1.398h7.213V383.5H96.655V397.26z M84.609,390.244v-3.069h1.257
			c1.22,0,1.947,0.513,1.947,1.515v0.039c0,0.984-0.786,1.516-1.965,1.516H84.609z M80.009,397.26h4.6v-3.733h1.494
			c3.715,0,6.252-1.77,6.252-5.092v-0.039c0-3.265-2.499-4.896-6.153-4.896h-6.193V397.26z M67.891,393.486
			c-1.769,0-2.89-1.475-2.89-3.107v-0.037c0-1.613,1.102-3.068,2.852-3.068c1.771,0,2.889,1.475,2.889,3.105v0.041
			C70.742,392.033,69.642,393.486,67.891,393.486 M67.853,397.555c4.247,0,7.529-3.185,7.529-7.176v-0.037
			c0-3.991-3.245-7.137-7.491-7.137c-4.245,0-7.527,3.185-7.527,7.174v0.041C60.364,394.412,63.606,397.555,67.853,397.555"/>
		<path fill="#FFFFFF" d="M589.264,448.45c0-1.906,1.299-3.184,3.047-3.184c1.79,0,2.812,1.178,2.812,3.065v5.935h1.515v-6.309
			c0-2.418-1.438-4.07-3.894-4.07c-1.75,0-2.811,0.886-3.479,1.988v-5.958h-1.514v14.349h1.514V448.45z M581.696,445.441h3.226
			v-1.334h-3.226v-3.07h-1.512v3.07h-1.415v1.334h1.415v6.134c0,2.062,1.238,2.869,2.869,2.869c0.729,0,1.299-0.158,1.829-0.433
			v-1.297c-0.53,0.256-0.963,0.354-1.477,0.354c-1.021,0-1.71-0.451-1.71-1.689V445.441z M574.268,444.791
			c0,1.594-1.316,3.127-3.421,3.127c-2.005,0-3.38-1.258-3.38-3.024c0-1.732,1.238-3.245,3.301-3.245
			C572.833,441.648,574.268,443.023,574.268,444.791 M576.155,447.035c0-2.773-0.631-4.265-1.712-5.35
			c-0.885-0.883-2.044-1.415-3.616-1.415c-2.929,0-4.954,2.065-4.954,4.698c0,2.5,1.965,4.288,4.798,4.288
			c1.905,0,3.144-1.003,3.891-2.202c0.06,3.52-1.61,6.035-4.087,6.035c-1.219,0-2.262-0.493-3.383-1.475l-0.904,1.198
			c1.16,0.964,2.457,1.691,4.246,1.691C573.836,454.505,576.155,451.417,576.155,447.035 M558.405,441.708
			c1.493,0,2.772,1.021,2.772,2.634c0,1.376-0.767,2.438-2.871,4.325l-4.993,4.402v1.197h9.612v-1.414h-7.293l3.676-3.261
			c2.42-2.105,3.481-3.344,3.481-5.369c0-2.261-1.771-3.91-4.267-3.91c-2.419,0-3.716,1.08-4.954,2.927l1.141,0.825
			C555.811,442.534,556.833,441.708,558.405,441.708 M541.873,445.441h3.224v-1.334h-3.224v-3.07h-1.514v3.07h-1.415v1.334h1.415
			v6.134c0,2.062,1.239,2.869,2.871,2.869c0.727,0,1.297-0.158,1.826-0.433v-1.297c-0.529,0.256-0.961,0.354-1.474,0.354
			c-1.021,0-1.71-0.451-1.71-1.689V445.441z M536.601,451.417v-0.037c0-1.83-1.691-2.438-3.263-2.911
			c-1.359-0.413-2.615-0.785-2.615-1.749v-0.039c0-0.847,0.767-1.476,1.966-1.476c0.981,0,2.062,0.374,3.009,0.982l0.686-1.14
			c-1.041-0.686-2.418-1.118-3.656-1.118c-2.004,0-3.459,1.159-3.459,2.906v0.041c0,1.869,1.77,2.418,3.361,2.869
			c1.336,0.372,2.536,0.767,2.536,1.79v0.039c0,0.982-0.885,1.613-2.105,1.613c-1.197,0-2.415-0.474-3.518-1.299l-0.767,1.081
			c1.141,0.923,2.754,1.493,4.206,1.493C535.007,454.464,536.601,453.346,536.601,451.417 M524.333,449.924
			c0,1.906-1.316,3.185-3.046,3.185c-1.79,0-2.812-1.18-2.812-3.066v-5.935h-1.513v6.309c0,2.416,1.435,4.07,3.891,4.07
			c1.751,0,2.792-0.886,3.48-1.988v1.769h1.493v-10.159h-1.493V449.924z M511.809,448.686c0,2.083-1.808,3.46-3.733,3.46
			c-1.89,0-3.52-1.395-3.52-3.479c0-2.123,1.592-3.441,3.52-3.441C510.001,445.226,511.809,446.583,511.809,448.686
			 M513.265,452.498v-8.391h-1.516v1.825c-0.825-1.1-2.063-2.045-3.969-2.045c-2.42,0-4.777,1.83-4.777,4.818
			c0,2.966,2.339,4.774,4.777,4.774c1.867,0,3.105-0.96,3.99-2.142v1.201c0,2.377-1.455,3.617-3.695,3.617
			c-1.454,0-2.753-0.454-3.912-1.299l-0.689,1.18c1.356,0.943,2.93,1.415,4.621,1.415
			C511.22,457.453,513.265,455.781,513.265,452.498 M498.316,449.924c0,1.906-1.317,3.185-3.047,3.185
			c-1.789,0-2.812-1.18-2.812-3.066v-5.935h-1.513v6.309c0,2.416,1.434,4.07,3.892,4.07c1.75,0,2.791-0.886,3.48-1.988v1.769h1.493
			v-10.159h-1.493V449.924z M484.644,449.237h-6.271l3.146-7.021L484.644,449.237z M482.264,440.41h-1.452l-6.271,13.856h1.593
			l1.63-3.635h7.49l1.613,3.635h1.67L482.264,440.41z M463.571,455.979l0.235,0.687c1.494-0.333,2.183-1.101,2.183-2.692v-1.77
			h-1.808v2.062h0.705C464.967,455.114,464.553,455.627,463.571,455.979 M462.632,444.107h-1.612l-3.263,8.47l-3.695-8.47h-1.671
			l4.618,10.124c-0.608,1.433-1.178,1.904-2.082,1.904c-0.648,0-1.102-0.118-1.594-0.374l-0.511,1.2
			c0.688,0.333,1.317,0.511,2.162,0.511c1.532,0,2.517-0.766,3.382-2.87L462.632,444.107z M445.902,449.117
			c1.238,0,2.238,0.218,2.986,0.433v0.982c0,1.613-1.533,2.753-3.399,2.753c-1.377,0-2.557-0.745-2.557-2.044
			C442.933,449.943,443.994,449.117,445.902,449.117 M445.843,445.306c1.905,0,3.026,0.942,3.026,2.769v0.354
			c-0.903-0.253-1.826-0.431-3.125-0.431c-2.576,0-4.345,1.139-4.345,3.303c0,2.124,1.906,3.186,3.794,3.186
			c1.788,0,2.968-0.827,3.676-1.752v1.532h1.456v-6.211c0-2.671-1.553-4.088-4.325-4.088c-1.474,0-2.577,0.333-3.695,0.847
			l0.45,1.239C443.699,445.619,444.643,445.306,445.843,445.306 M436.917,449.178c0,2.378-1.788,3.949-3.676,3.949
			c-1.925,0-3.576-1.533-3.576-3.949c0-2.476,1.61-3.933,3.576-3.933C435.129,445.245,436.917,446.818,436.917,449.178
			 M438.373,454.267v-14.349h-1.516v6.136c-0.785-1.142-2.004-2.166-3.891-2.166c-2.438,0-4.855,1.966-4.855,5.309
			c0,3.361,2.417,5.29,4.855,5.29c1.868,0,3.065-1.043,3.891-2.263v2.043H438.373z M422.124,450.221c0-3.069,1.81-4.66,4.031-4.66
			h0.118v-1.631c-1.927-0.079-3.401,1.14-4.149,2.829v-2.651h-1.512v10.159h1.512V450.221z M415.312,449.924
			c0,1.906-1.317,3.185-3.047,3.185c-1.788,0-2.81-1.18-2.81-3.066v-5.935h-1.516v6.309c0,2.416,1.438,4.07,3.894,4.07
			c1.75,0,2.792-0.886,3.479-1.988v1.769h1.495v-10.159h-1.495V449.924z M401.972,445.441h3.226v-1.334h-3.226v-3.07h-1.513v3.07
			h-1.415v1.334h1.415v6.134c0,2.062,1.238,2.869,2.869,2.869c0.729,0,1.299-0.158,1.829-0.433v-1.297
			c-0.53,0.256-0.965,0.354-1.477,0.354c-1.02,0-1.709-0.451-1.709-1.689V445.441z M392.056,449.117c1.237,0,2.24,0.218,2.985,0.433
			v0.982c0,1.613-1.53,2.753-3.398,2.753c-1.375,0-2.556-0.745-2.556-2.044C389.087,449.943,390.146,449.117,392.056,449.117
			 M391.996,445.306c1.907,0,3.027,0.942,3.027,2.769v0.354c-0.904-0.253-1.828-0.431-3.126-0.431c-2.576,0-4.345,1.139-4.345,3.303
			c0,2.124,1.906,3.186,3.793,3.186c1.79,0,2.969-0.827,3.678-1.752v1.532h1.455v-6.211c0-2.671-1.554-4.088-4.326-4.088
			c-1.474,0-2.573,0.333-3.694,0.847l0.45,1.239C389.854,445.619,390.796,445.306,391.996,445.306 M376.634,443.948
			c0-1.257,1.141-2.24,2.929-2.24c1.414,0,2.694,0.452,3.971,1.493l0.903-1.199c-1.395-1.12-2.83-1.689-4.836-1.689
			c-2.614,0-4.521,1.573-4.521,3.773c0,2.28,1.456,3.302,4.618,3.988c2.892,0.611,3.579,1.341,3.579,2.638
			c0,1.396-1.219,2.357-3.065,2.357c-1.908,0-3.282-0.65-4.72-1.945l-0.963,1.142c1.65,1.473,3.439,2.198,5.622,2.198
			c2.732,0,4.698-1.531,4.698-3.911c0-2.124-1.415-3.243-4.48-3.912C377.341,445.992,376.634,445.267,376.634,443.948"/>
		<path fill="#FFFFFF" d="M445.768,420.713c0,2.183-1.53,3.933-3.732,3.933c-2.144,0-3.757-1.771-3.757-3.973
			c0-2.2,1.517-3.952,3.717-3.952C444.139,416.721,445.768,418.491,445.768,420.713 M447.32,420.673c0-2.89-2.238-5.287-5.285-5.287
			c-3.068,0-5.309,2.438-5.309,5.327s2.222,5.287,5.269,5.287C445.062,426,447.32,423.562,447.32,420.673 M430.851,419.966
			l4.265-4.365h-1.885l-5.485,5.72v-9.907h-1.513v14.353h1.513v-2.655l2.064-2.082l3.636,4.737h1.809L430.851,419.966z
			 M415.012,420.124c0.195-1.987,1.534-3.461,3.302-3.461c2.025,0,3.087,1.613,3.244,3.461H415.012z M415.012,421.242h8.059
			c0.019-0.177,0.019-0.334,0.019-0.47c0-2.989-1.729-5.387-4.735-5.387c-2.812,0-4.875,2.36-4.875,5.308
			c0,3.165,2.279,5.307,5.071,5.307c1.928,0,3.165-0.767,4.187-1.907l-0.941-0.845c-0.826,0.866-1.81,1.434-3.205,1.434
			C416.802,424.682,415.227,423.444,415.012,421.242 M403.024,419.948c0-1.91,1.299-3.187,3.047-3.187
			c1.789,0,2.812,1.179,2.812,3.066v5.938h1.513v-6.311c0-2.419-1.434-4.069-3.891-4.069c-1.751,0-2.812,0.885-3.481,1.985v-1.771
			h-1.512v10.165h1.512V419.948z M393.4,420.615c1.24,0,2.242,0.216,2.989,0.431v0.984c0,1.61-1.534,2.752-3.4,2.752
			c-1.375,0-2.558-0.748-2.558-2.045C390.432,421.438,391.494,420.615,393.4,420.615 M393.344,416.8
			c1.906,0,3.026,0.946,3.026,2.772v0.353c-0.903-0.255-1.829-0.433-3.128-0.433c-2.574,0-4.343,1.142-4.343,3.305
			c0,2.123,1.907,3.184,3.795,3.184c1.789,0,2.968-0.825,3.676-1.748v1.533h1.454v-6.212c0-2.675-1.555-4.09-4.324-4.09
			c-1.474,0-2.576,0.335-3.697,0.847l0.454,1.237C391.2,417.116,392.145,416.8,393.344,416.8 M380.997,418.02l5.897-6.015h-2.004
			l-7.903,8.218v-8.218h-1.553v13.761h1.553v-3.696l2.93-2.97l5.287,6.666h1.946L380.997,418.02z"/>
	</g>
	<path fill="#FFFFFF" d="M447.968,397.26h4.601v-9.866h4.048V383.5h-12.698v3.894h4.05V397.26z M426.02,397.26h4.561v-6.349
		l5.11,6.349h4.09V383.5h-4.562v6.073l-4.894-6.073h-4.306V397.26z M409.239,397.26h11.833v-3.772h-7.312v-1.494h6.723v-3.323
		h-6.723v-1.395h7.214V383.5h-11.735V397.26z M395.362,397.358h4.401l5.584-13.858h-5.071l-2.674,7.725l-2.676-7.725h-5.147
		L395.362,397.358z M374.273,397.26h11.834v-3.772h-7.312v-1.494h6.724v-3.323h-6.724v-1.395h7.215V383.5h-11.736V397.26z"/>
	<g>
		<line fill="none" stroke="#FFFFFF" stroke-width="0.577" x1="321.793" y1="373.652" x2="321.793" y2="467.026"/>
	</g>
</g>
</svg>
